G04 #@! TF.FileFunction,Copper,L1,Top,Signal*
%FSLAX46Y46*%
G04 Gerber Fmt 4.6, Leading zero omitted, Abs format (unit mm)*
G04 Created by KiCad (PCBNEW 4.0.7-e2-6376~58~ubuntu16.04.1) date Tue Nov  7 21:50:16 2017*
%MOMM*%
%LPD*%
G01*
G04 APERTURE LIST*
%ADD10C,0.100000*%
%ADD11R,1.300000X1.500000*%
%ADD12R,1.700000X1.700000*%
%ADD13O,1.700000X1.700000*%
%ADD14R,0.450000X1.450000*%
%ADD15R,1.250000X1.500000*%
%ADD16C,1.000000*%
%ADD17R,0.431800X1.397000*%
%ADD18R,0.700000X1.200000*%
%ADD19R,4.500000X4.290000*%
%ADD20R,1.550000X1.600000*%
%ADD21R,1.550000X1.200000*%
%ADD22C,0.762000*%
%ADD23C,0.355600*%
%ADD24C,0.254000*%
%ADD25C,0.600000*%
%ADD26C,1.000000*%
G04 APERTURE END LIST*
D10*
D11*
X191825000Y-135725000D03*
X191825000Y-138425000D03*
D12*
X168910000Y-140970000D03*
D13*
X168910000Y-138430000D03*
X168910000Y-135890000D03*
X168910000Y-133350000D03*
X168910000Y-130810000D03*
X168910000Y-128270000D03*
X168910000Y-125730000D03*
X168910000Y-123190000D03*
X168910000Y-120650000D03*
D14*
X190885000Y-126590000D03*
X190235000Y-126590000D03*
X189585000Y-126590000D03*
X188935000Y-126590000D03*
X188285000Y-126590000D03*
X187635000Y-126590000D03*
X186985000Y-126590000D03*
X186335000Y-126590000D03*
X185685000Y-126590000D03*
X185035000Y-126590000D03*
X185035000Y-132490000D03*
X185685000Y-132490000D03*
X186335000Y-132490000D03*
X186985000Y-132490000D03*
X187635000Y-132490000D03*
X188285000Y-132490000D03*
X188935000Y-132490000D03*
X189585000Y-132490000D03*
X190235000Y-132490000D03*
X190885000Y-132490000D03*
D12*
X199390000Y-130810000D03*
D13*
X199390000Y-128270000D03*
D15*
X199390000Y-133370000D03*
X199390000Y-135870000D03*
X187960000Y-122916000D03*
X187960000Y-120416000D03*
X188600000Y-137450000D03*
X188600000Y-134950000D03*
D12*
X168910000Y-118110000D03*
X195580000Y-121412000D03*
D13*
X195580000Y-123952000D03*
X195580000Y-126492000D03*
X195580000Y-129032000D03*
X195580000Y-131572000D03*
D16*
X181610000Y-138430000D03*
X181610000Y-135890000D03*
X181610000Y-133350000D03*
X181610000Y-130810000D03*
X181610000Y-128270000D03*
X181610000Y-125730000D03*
X181610000Y-123190000D03*
X181610000Y-120650000D03*
D11*
X190900000Y-123175000D03*
X190900000Y-120475000D03*
D17*
X174599600Y-138684000D03*
X175234600Y-138684000D03*
X175895000Y-138684000D03*
X176530000Y-138684000D03*
X177190400Y-138684000D03*
X177838100Y-138684000D03*
X178485800Y-138684000D03*
X178485800Y-133096000D03*
X177838100Y-133096000D03*
X177190400Y-133096000D03*
X176530000Y-133096000D03*
X175882300Y-133096000D03*
X175234600Y-133096000D03*
X174586900Y-133096000D03*
X174599600Y-127254000D03*
X175234600Y-127254000D03*
X175895000Y-127254000D03*
X176530000Y-127254000D03*
X177190400Y-127254000D03*
X177838100Y-127254000D03*
X178485800Y-127254000D03*
X178485800Y-121666000D03*
X177838100Y-121666000D03*
X177190400Y-121666000D03*
X176530000Y-121666000D03*
X175882300Y-121666000D03*
X175234600Y-121666000D03*
X174586900Y-121666000D03*
D18*
X197490000Y-135530000D03*
X196220000Y-135530000D03*
X194940000Y-135530000D03*
X193670000Y-135530000D03*
X193670000Y-141330000D03*
X194940000Y-141330000D03*
X196220000Y-141330000D03*
X197490000Y-141330000D03*
D19*
X195580000Y-138930000D03*
D20*
X196670000Y-139680000D03*
X194490000Y-139680000D03*
D21*
X196670000Y-137680000D03*
X194490000Y-137680000D03*
D15*
X172720000Y-137140000D03*
X172720000Y-134640000D03*
X172720000Y-125710000D03*
X172720000Y-123210000D03*
D12*
X185420000Y-140970000D03*
D13*
X187960000Y-140970000D03*
X190500000Y-140970000D03*
D12*
X199390000Y-141000000D03*
D22*
X189500000Y-118749998D03*
X192850000Y-127200000D03*
X179550000Y-139150006D03*
X183750000Y-130900000D03*
X183750000Y-128500000D03*
X199300000Y-137975000D03*
X197450000Y-132125000D03*
X184325000Y-138675000D03*
X179725000Y-127025000D03*
X186200000Y-122575000D03*
X189950000Y-130400002D03*
X180340000Y-138430002D03*
X180340008Y-135890000D03*
X180340000Y-133350000D03*
X176530000Y-134620000D03*
X175224998Y-131600000D03*
X177150000Y-128700000D03*
X176675002Y-123850000D03*
X180339998Y-130810000D03*
X188499994Y-130100000D03*
X189523790Y-128270000D03*
X180340000Y-128270000D03*
X180340000Y-125730002D03*
X180340000Y-123190002D03*
X180339998Y-120650000D03*
X191799992Y-128000000D03*
X190200000Y-138575000D03*
X175238930Y-123168975D03*
D23*
X190000000Y-133800000D02*
X189625000Y-133800000D01*
X189625000Y-133800000D02*
X188600000Y-134825000D01*
D24*
X188600000Y-134825000D02*
X188600000Y-134950000D01*
D23*
X195580000Y-131572000D02*
X195552000Y-131600000D01*
X195552000Y-131600000D02*
X193350000Y-131600000D01*
X193350000Y-131600000D02*
X191150000Y-133800000D01*
X191150000Y-133800000D02*
X190000000Y-133800000D01*
X186200000Y-129625000D02*
X175775000Y-129625000D01*
X175775000Y-129625000D02*
X172720000Y-132680000D01*
X172720000Y-132680000D02*
X172720000Y-133636000D01*
X189500000Y-119288813D02*
X189500000Y-118749998D01*
X189500000Y-121251000D02*
X189500000Y-119288813D01*
X187960000Y-122791000D02*
X189500000Y-121251000D01*
D24*
X187960000Y-122916000D02*
X187960000Y-122791000D01*
D23*
X188285000Y-131409400D02*
X188084401Y-131208801D01*
X186309779Y-129882805D02*
X186309779Y-129625000D01*
X188285000Y-132490000D02*
X188285000Y-131409400D01*
X188084401Y-131208801D02*
X187635775Y-131208801D01*
X187635775Y-131208801D02*
X186309779Y-129882805D01*
X199300000Y-133350000D02*
X199250000Y-133400000D01*
D24*
X172720000Y-133636000D02*
X172720000Y-134640000D01*
X186309779Y-129625000D02*
X186200000Y-129625000D01*
D23*
X188285000Y-126590000D02*
X188285000Y-127569000D01*
X188285000Y-127569000D02*
X186229000Y-129625000D01*
D24*
X186229000Y-129625000D02*
X186200000Y-129625000D01*
D23*
X188285000Y-132490000D02*
X188285000Y-135219000D01*
D24*
X188285000Y-135219000D02*
X188468000Y-135402000D01*
D23*
X187960000Y-122791000D02*
X183894000Y-118725000D01*
X183894000Y-118725000D02*
X175900000Y-118725000D01*
X175900000Y-118725000D02*
X172720000Y-121905000D01*
X172720000Y-121905000D02*
X172720000Y-123210000D01*
D24*
X174586900Y-132613400D02*
X174586900Y-133096000D01*
D23*
X188285000Y-124499000D02*
X188285000Y-125611000D01*
X187960000Y-124174000D02*
X188285000Y-124499000D01*
X188285000Y-125611000D02*
X188285000Y-126590000D01*
X187960000Y-123170000D02*
X187960000Y-124174000D01*
D24*
X188285000Y-132490000D02*
X188223799Y-132551201D01*
D25*
X199390000Y-130810000D02*
X199390000Y-133370000D01*
D24*
X174586900Y-133096000D02*
X174586900Y-134048500D01*
X174586900Y-134048500D02*
X173995400Y-134640000D01*
X173995400Y-134640000D02*
X173599000Y-134640000D01*
X173599000Y-134640000D02*
X172720000Y-134640000D01*
X174586900Y-121666000D02*
X174586900Y-122148600D01*
X174586900Y-122148600D02*
X173525500Y-123210000D01*
X173525500Y-123210000D02*
X172720000Y-123210000D01*
X189950000Y-137250000D02*
X189750000Y-137450000D01*
X189750000Y-137450000D02*
X188600000Y-137450000D01*
X186950000Y-137575000D02*
X186950000Y-137950000D01*
X184325000Y-138675000D02*
X185550000Y-137450000D01*
X185550000Y-137450000D02*
X188600000Y-137450000D01*
X194940000Y-135530000D02*
X194940000Y-134676000D01*
X189950000Y-135605638D02*
X189950000Y-137250000D01*
X194940000Y-134676000D02*
X194689000Y-134425000D01*
X194689000Y-134425000D02*
X191130638Y-134425000D01*
X191130638Y-134425000D02*
X189950000Y-135605638D01*
X195580000Y-126492000D02*
X196892000Y-126492000D01*
X196892000Y-126492000D02*
X197358000Y-126958000D01*
X197358000Y-126958000D02*
X197358000Y-128270000D01*
D25*
X199390000Y-141000000D02*
X199390000Y-138065000D01*
D24*
X199390000Y-138065000D02*
X199300000Y-137975000D01*
X187635000Y-132490000D02*
X187635000Y-133690000D01*
X187635000Y-133690000D02*
X186950000Y-134375000D01*
X186950000Y-134375000D02*
X186950000Y-137575000D01*
X179169001Y-138769007D02*
X179550000Y-139150006D01*
X179083994Y-138684000D02*
X179169001Y-138769007D01*
X178485800Y-138684000D02*
X179083994Y-138684000D01*
X187960000Y-120416000D02*
X187960000Y-120291000D01*
X187960000Y-120291000D02*
X188000000Y-120251000D01*
X188000000Y-120251000D02*
X188000000Y-118750000D01*
X188000000Y-118750000D02*
X189250000Y-117500000D01*
X189250000Y-117500000D02*
X195986000Y-117500000D01*
X195986000Y-117500000D02*
X198052000Y-119566000D01*
D25*
X199300000Y-137975000D02*
X199300000Y-135960000D01*
D24*
X199300000Y-135960000D02*
X199390000Y-135870000D01*
X197358000Y-128270000D02*
X197358000Y-132033000D01*
X197358000Y-132033000D02*
X197450000Y-132125000D01*
X199390000Y-128270000D02*
X197358000Y-128270000D01*
X188468000Y-137777000D02*
X188468000Y-137902000D01*
X179725000Y-127025000D02*
X178714800Y-127025000D01*
X178714800Y-127025000D02*
X178485800Y-127254000D01*
X199390000Y-128270000D02*
X199390000Y-120904000D01*
X199390000Y-120904000D02*
X198052000Y-119566000D01*
X192818000Y-120475000D02*
X190900000Y-120475000D01*
X198052000Y-119566000D02*
X193859000Y-119566000D01*
X193859000Y-119566000D02*
X192950000Y-120475000D01*
X192950000Y-120475000D02*
X192818000Y-120475000D01*
X188019000Y-120475000D02*
X187960000Y-120416000D01*
X194940000Y-135530000D02*
X196220000Y-135530000D01*
X197490000Y-135530000D02*
X196220000Y-135530000D01*
D25*
X197490000Y-135530000D02*
X199050000Y-135530000D01*
D24*
X199050000Y-135530000D02*
X199390000Y-135870000D01*
X178485800Y-127254000D02*
X178485800Y-126301500D01*
X178485800Y-126301500D02*
X177894300Y-125710000D01*
X177894300Y-125710000D02*
X173599000Y-125710000D01*
X173599000Y-125710000D02*
X172720000Y-125710000D01*
X175895000Y-127254000D02*
X175895000Y-126301500D01*
X175895000Y-126301500D02*
X175303500Y-125710000D01*
X175303500Y-125710000D02*
X173599000Y-125710000D01*
X178485800Y-138684000D02*
X178485800Y-137731500D01*
X177894300Y-137140000D02*
X173599000Y-137140000D01*
X178485800Y-137731500D02*
X177894300Y-137140000D01*
X173599000Y-137140000D02*
X172720000Y-137140000D01*
X175895000Y-138684000D02*
X175895000Y-137731500D01*
X175895000Y-137731500D02*
X175303500Y-137140000D01*
X175303500Y-137140000D02*
X173599000Y-137140000D01*
X174599600Y-138684000D02*
X174599600Y-137731500D01*
X174599600Y-137731500D02*
X174008100Y-137140000D01*
X174008100Y-137140000D02*
X173599000Y-137140000D01*
X174599600Y-127254000D02*
X174599600Y-126301500D01*
X174599600Y-126301500D02*
X174008100Y-125710000D01*
X174008100Y-125710000D02*
X173599000Y-125710000D01*
X186200000Y-122575000D02*
X186580999Y-122955999D01*
X186580999Y-122955999D02*
X186580999Y-123930999D01*
X186580999Y-123930999D02*
X187635000Y-124985000D01*
X187635000Y-124985000D02*
X187635000Y-126590000D01*
X188935000Y-126590000D02*
X189032999Y-126492001D01*
X189032999Y-125603399D02*
X189450000Y-125186398D01*
X189032999Y-126492001D02*
X189032999Y-125603399D01*
X189450000Y-125186398D02*
X189450000Y-122650000D01*
X189450000Y-122650000D02*
X190350000Y-121750000D01*
X190350000Y-121750000D02*
X193972000Y-121750000D01*
X193972000Y-121750000D02*
X194310000Y-121412000D01*
X194310000Y-121412000D02*
X195580000Y-121412000D01*
X195580000Y-123952000D02*
X193950000Y-125582000D01*
X190700000Y-131150000D02*
X190412001Y-131437999D01*
X193950000Y-125582000D02*
X193950000Y-129350000D01*
X193950000Y-129350000D02*
X192150000Y-131150000D01*
X192150000Y-131150000D02*
X190700000Y-131150000D01*
X190332999Y-131503399D02*
X190332999Y-132490000D01*
X190412001Y-131437999D02*
X190398399Y-131437999D01*
X190398399Y-131437999D02*
X190332999Y-131503399D01*
X190332999Y-132490000D02*
X190235000Y-132490000D01*
X195580000Y-129032000D02*
X195018000Y-129032000D01*
X195018000Y-129032000D02*
X191560000Y-132490000D01*
X191560000Y-132490000D02*
X190885000Y-132490000D01*
X189585000Y-130765002D02*
X189950000Y-130400002D01*
X189585000Y-132490000D02*
X189585000Y-130765002D01*
X181610000Y-138430000D02*
X180140000Y-139900000D01*
X180140000Y-139900000D02*
X178101600Y-139900000D01*
X178101600Y-139900000D02*
X177838100Y-139636500D01*
X177838100Y-139636500D02*
X177838100Y-138684000D01*
X180340002Y-138430000D02*
X180340000Y-138430002D01*
X181610000Y-138430000D02*
X180340002Y-138430000D01*
X186335000Y-132490000D02*
X186335000Y-133469000D01*
X186335000Y-133469000D02*
X183914000Y-135890000D01*
X183914000Y-135890000D02*
X182317106Y-135890000D01*
X181610000Y-135890000D02*
X180340008Y-135890000D01*
X179349400Y-135890000D02*
X178485800Y-135026400D01*
X178485800Y-135026400D02*
X178485800Y-133096000D01*
X181610000Y-135890000D02*
X179349400Y-135890000D01*
X182317106Y-135890000D02*
X181610000Y-135890000D01*
X185685000Y-132490000D02*
X185685000Y-133469000D01*
X185685000Y-133469000D02*
X185304001Y-133849999D01*
X185304001Y-133849999D02*
X182109999Y-133849999D01*
X181610000Y-133350000D02*
X180340000Y-133350000D01*
X181610000Y-133350000D02*
X179857400Y-131597400D01*
X177431700Y-131597400D02*
X177190400Y-131838700D01*
X179857400Y-131597400D02*
X177431700Y-131597400D01*
X177190400Y-131838700D02*
X177190400Y-133096000D01*
X182109999Y-133849999D02*
X181610000Y-133350000D01*
X168910000Y-138430000D02*
X170430000Y-139950000D01*
X170430000Y-139950000D02*
X176876900Y-139950000D01*
X176876900Y-139950000D02*
X177190400Y-139636500D01*
X177190400Y-139636500D02*
X177190400Y-138684000D01*
X168910000Y-135890000D02*
X176312578Y-135890000D01*
X176312578Y-135890000D02*
X177838100Y-134364478D01*
X177838100Y-134048500D02*
X177838100Y-133096000D01*
X177838100Y-134364478D02*
X177838100Y-134048500D01*
X176530000Y-134620000D02*
X176530000Y-133096000D01*
X175234600Y-133096000D02*
X175234600Y-131609602D01*
X175234600Y-131609602D02*
X175224998Y-131600000D01*
X177150000Y-128700000D02*
X177150000Y-127294400D01*
X177150000Y-127294400D02*
X177190400Y-127254000D01*
X168910000Y-128270000D02*
X169140000Y-128500000D01*
X177838100Y-122618500D02*
X177838100Y-121666000D01*
X168910000Y-125730000D02*
X169953799Y-124686201D01*
X169953799Y-124686201D02*
X169953799Y-124671201D01*
X169953799Y-124671201D02*
X170125000Y-124500000D01*
X170125000Y-124500000D02*
X175875000Y-124500000D01*
X175875000Y-124500000D02*
X176061201Y-124686201D01*
X176061201Y-124686201D02*
X177441377Y-124686201D01*
X177838100Y-124289478D02*
X177838100Y-122618500D01*
X177441377Y-124686201D02*
X177838100Y-124289478D01*
X176530000Y-121666000D02*
X176530000Y-123704998D01*
X176530000Y-123704998D02*
X176675002Y-123850000D01*
X186985000Y-133469000D02*
X186985000Y-132490000D01*
X168910000Y-140970000D02*
X169430000Y-140450000D01*
X169430000Y-140450000D02*
X181177500Y-140450000D01*
X181177500Y-140450000D02*
X186317789Y-135309711D01*
X186317789Y-135309711D02*
X186317789Y-134136211D01*
X186317789Y-134136211D02*
X186985000Y-133469000D01*
X185035000Y-132490000D02*
X183290000Y-132490000D01*
X175882300Y-132268388D02*
X175882300Y-133096000D01*
X181610000Y-130810000D02*
X177340688Y-130810000D01*
X177340688Y-130810000D02*
X175882300Y-132268388D01*
X181610000Y-130810000D02*
X180339998Y-130810000D01*
X183290000Y-132490000D02*
X181610000Y-130810000D01*
X188935000Y-132490000D02*
X188935000Y-130535006D01*
X188935000Y-130535006D02*
X188880993Y-130480999D01*
X188880993Y-130480999D02*
X188499994Y-130100000D01*
X189585000Y-126590000D02*
X189585000Y-128208790D01*
X189585000Y-128208790D02*
X189523790Y-128270000D01*
D26*
X190500000Y-140970000D02*
X193540000Y-140970000D01*
D24*
X193540000Y-140970000D02*
X195580000Y-138930000D01*
X190500000Y-140970000D02*
X197130000Y-140970000D01*
X197130000Y-140970000D02*
X197490000Y-141330000D01*
X190500000Y-140970000D02*
X195860000Y-140970000D01*
X195860000Y-140970000D02*
X196220000Y-141330000D01*
X190500000Y-140970000D02*
X194580000Y-140970000D01*
X194580000Y-140970000D02*
X194940000Y-141330000D01*
X190500000Y-140970000D02*
X193310000Y-140970000D01*
X193310000Y-140970000D02*
X193670000Y-141330000D01*
X181610000Y-128270000D02*
X180340000Y-128270000D01*
X181610000Y-128270000D02*
X180902894Y-128270000D01*
X180902894Y-128270000D02*
X180890193Y-128282701D01*
X180890193Y-128282701D02*
X177914301Y-128282701D01*
X177914301Y-128282701D02*
X177838100Y-128206500D01*
X177838100Y-128206500D02*
X177838100Y-127254000D01*
X183290000Y-126590000D02*
X181610000Y-128270000D01*
X185035000Y-126590000D02*
X183290000Y-126590000D01*
X180340002Y-125730000D02*
X180340000Y-125730002D01*
X181610000Y-125730000D02*
X180340002Y-125730000D01*
X181610000Y-125730000D02*
X178485800Y-122605800D01*
X178485800Y-122605800D02*
X178485800Y-121666000D01*
X182109999Y-125230001D02*
X181610000Y-125730000D01*
X185304001Y-125230001D02*
X182109999Y-125230001D01*
X185685000Y-126590000D02*
X185685000Y-125611000D01*
X185685000Y-125611000D02*
X185304001Y-125230001D01*
X180340002Y-123190000D02*
X180340000Y-123190002D01*
X181610000Y-123190000D02*
X180340002Y-123190000D01*
X181610000Y-123190000D02*
X178689000Y-120269000D01*
X178689000Y-120269000D02*
X177634900Y-120269000D01*
X177634900Y-120269000D02*
X177190400Y-120713500D01*
X177190400Y-120713500D02*
X177190400Y-121666000D01*
X182317106Y-123190000D02*
X181610000Y-123190000D01*
X183914000Y-123190000D02*
X182317106Y-123190000D01*
X186335000Y-126590000D02*
X186335000Y-125611000D01*
X186335000Y-125611000D02*
X183914000Y-123190000D01*
X182317106Y-120650000D02*
X181610000Y-120650000D01*
X181610000Y-120650000D02*
X180339998Y-120650000D01*
X180238400Y-119278400D02*
X177317400Y-119278400D01*
X177317400Y-119278400D02*
X175882300Y-120713500D01*
X175882300Y-120713500D02*
X175882300Y-121666000D01*
X181610000Y-120650000D02*
X180238400Y-119278400D01*
X182653407Y-120650000D02*
X182317106Y-120650000D01*
X186985000Y-126590000D02*
X186985000Y-124981593D01*
X186985000Y-124981593D02*
X182653407Y-120650000D01*
X190900000Y-123175000D02*
X190900000Y-126575000D01*
X190900000Y-126575000D02*
X190885000Y-126590000D01*
X191261177Y-128000000D02*
X191799992Y-128000000D01*
X190235000Y-127569000D02*
X190666000Y-128000000D01*
X190235000Y-126590000D02*
X190235000Y-127569000D01*
X190666000Y-128000000D02*
X191261177Y-128000000D01*
X190200000Y-138575000D02*
X191675000Y-138575000D01*
X191675000Y-138575000D02*
X191825000Y-138425000D01*
X191825000Y-135725000D02*
X193475000Y-135725000D01*
X193475000Y-135725000D02*
X193670000Y-135530000D01*
X175234600Y-123164645D02*
X175238930Y-123168975D01*
X175234600Y-121666000D02*
X175234600Y-123164645D01*
G36*
X187327560Y-135700000D02*
X187371838Y-135935317D01*
X187510910Y-136151441D01*
X187579006Y-136197969D01*
X187436673Y-136340302D01*
X187340000Y-136573691D01*
X187340000Y-137164250D01*
X187498750Y-137323000D01*
X188473000Y-137323000D01*
X188473000Y-137303000D01*
X188727000Y-137303000D01*
X188727000Y-137323000D01*
X189701250Y-137323000D01*
X189860000Y-137164250D01*
X189860000Y-136573691D01*
X189763327Y-136340302D01*
X189622090Y-136199064D01*
X189676441Y-136164090D01*
X189821431Y-135951890D01*
X189872440Y-135700000D01*
X189872440Y-134702032D01*
X189961672Y-134612800D01*
X190653941Y-134612800D01*
X190578569Y-134723110D01*
X190527560Y-134975000D01*
X190527560Y-136475000D01*
X190571838Y-136710317D01*
X190710910Y-136926441D01*
X190923110Y-137071431D01*
X190936197Y-137074081D01*
X190723559Y-137210910D01*
X190578569Y-137423110D01*
X190539533Y-137615877D01*
X190402982Y-137559176D01*
X189998792Y-137558824D01*
X189775384Y-137651134D01*
X189701250Y-137577000D01*
X188727000Y-137577000D01*
X188727000Y-138676250D01*
X188885750Y-138835000D01*
X189208116Y-138835000D01*
X189338175Y-139149766D01*
X189623731Y-139435821D01*
X189940244Y-139567249D01*
X189931715Y-139568946D01*
X189449946Y-139890853D01*
X189230000Y-140220026D01*
X189010054Y-139890853D01*
X188528285Y-139568946D01*
X187960000Y-139455907D01*
X187391715Y-139568946D01*
X186909946Y-139890853D01*
X186882150Y-139932452D01*
X186873162Y-139884683D01*
X186734090Y-139668559D01*
X186521890Y-139523569D01*
X186270000Y-139472560D01*
X184570000Y-139472560D01*
X184334683Y-139516838D01*
X184118559Y-139655910D01*
X183973569Y-139868110D01*
X183922560Y-140120000D01*
X183922560Y-141530000D01*
X170407440Y-141530000D01*
X170407440Y-141212000D01*
X181177500Y-141212000D01*
X181469105Y-141153996D01*
X181716315Y-140988815D01*
X184969380Y-137735750D01*
X187340000Y-137735750D01*
X187340000Y-138326309D01*
X187436673Y-138559698D01*
X187615301Y-138738327D01*
X187848690Y-138835000D01*
X188314250Y-138835000D01*
X188473000Y-138676250D01*
X188473000Y-137577000D01*
X187498750Y-137577000D01*
X187340000Y-137735750D01*
X184969380Y-137735750D01*
X186856604Y-135848527D01*
X187021785Y-135601316D01*
X187028966Y-135565215D01*
X187079789Y-135309711D01*
X187079789Y-134451841D01*
X187327560Y-134204070D01*
X187327560Y-135700000D01*
X187327560Y-135700000D01*
G37*
X187327560Y-135700000D02*
X187371838Y-135935317D01*
X187510910Y-136151441D01*
X187579006Y-136197969D01*
X187436673Y-136340302D01*
X187340000Y-136573691D01*
X187340000Y-137164250D01*
X187498750Y-137323000D01*
X188473000Y-137323000D01*
X188473000Y-137303000D01*
X188727000Y-137303000D01*
X188727000Y-137323000D01*
X189701250Y-137323000D01*
X189860000Y-137164250D01*
X189860000Y-136573691D01*
X189763327Y-136340302D01*
X189622090Y-136199064D01*
X189676441Y-136164090D01*
X189821431Y-135951890D01*
X189872440Y-135700000D01*
X189872440Y-134702032D01*
X189961672Y-134612800D01*
X190653941Y-134612800D01*
X190578569Y-134723110D01*
X190527560Y-134975000D01*
X190527560Y-136475000D01*
X190571838Y-136710317D01*
X190710910Y-136926441D01*
X190923110Y-137071431D01*
X190936197Y-137074081D01*
X190723559Y-137210910D01*
X190578569Y-137423110D01*
X190539533Y-137615877D01*
X190402982Y-137559176D01*
X189998792Y-137558824D01*
X189775384Y-137651134D01*
X189701250Y-137577000D01*
X188727000Y-137577000D01*
X188727000Y-138676250D01*
X188885750Y-138835000D01*
X189208116Y-138835000D01*
X189338175Y-139149766D01*
X189623731Y-139435821D01*
X189940244Y-139567249D01*
X189931715Y-139568946D01*
X189449946Y-139890853D01*
X189230000Y-140220026D01*
X189010054Y-139890853D01*
X188528285Y-139568946D01*
X187960000Y-139455907D01*
X187391715Y-139568946D01*
X186909946Y-139890853D01*
X186882150Y-139932452D01*
X186873162Y-139884683D01*
X186734090Y-139668559D01*
X186521890Y-139523569D01*
X186270000Y-139472560D01*
X184570000Y-139472560D01*
X184334683Y-139516838D01*
X184118559Y-139655910D01*
X183973569Y-139868110D01*
X183922560Y-140120000D01*
X183922560Y-141530000D01*
X170407440Y-141530000D01*
X170407440Y-141212000D01*
X181177500Y-141212000D01*
X181469105Y-141153996D01*
X181716315Y-140988815D01*
X184969380Y-137735750D01*
X187340000Y-137735750D01*
X187340000Y-138326309D01*
X187436673Y-138559698D01*
X187615301Y-138738327D01*
X187848690Y-138835000D01*
X188314250Y-138835000D01*
X188473000Y-138676250D01*
X188473000Y-137577000D01*
X187498750Y-137577000D01*
X187340000Y-137735750D01*
X184969380Y-137735750D01*
X186856604Y-135848527D01*
X187021785Y-135601316D01*
X187028966Y-135565215D01*
X187079789Y-135309711D01*
X187079789Y-134451841D01*
X187327560Y-134204070D01*
X187327560Y-135700000D01*
G36*
X199517000Y-135743000D02*
X199537000Y-135743000D01*
X199537000Y-135997000D01*
X199517000Y-135997000D01*
X199517000Y-137096250D01*
X199675750Y-137255000D01*
X199950000Y-137255000D01*
X199950000Y-139515000D01*
X199675750Y-139515000D01*
X199517000Y-139673750D01*
X199517000Y-140873000D01*
X199537000Y-140873000D01*
X199537000Y-141127000D01*
X199517000Y-141127000D01*
X199517000Y-141147000D01*
X199263000Y-141147000D01*
X199263000Y-141127000D01*
X199243000Y-141127000D01*
X199243000Y-140873000D01*
X199263000Y-140873000D01*
X199263000Y-139673750D01*
X199104250Y-139515000D01*
X198477440Y-139515000D01*
X198477440Y-137188208D01*
X198638690Y-137255000D01*
X199104250Y-137255000D01*
X199263000Y-137096250D01*
X199263000Y-135997000D01*
X199243000Y-135997000D01*
X199243000Y-135743000D01*
X199263000Y-135743000D01*
X199263000Y-135723000D01*
X199517000Y-135723000D01*
X199517000Y-135743000D01*
X199517000Y-135743000D01*
G37*
X199517000Y-135743000D02*
X199537000Y-135743000D01*
X199537000Y-135997000D01*
X199517000Y-135997000D01*
X199517000Y-137096250D01*
X199675750Y-137255000D01*
X199950000Y-137255000D01*
X199950000Y-139515000D01*
X199675750Y-139515000D01*
X199517000Y-139673750D01*
X199517000Y-140873000D01*
X199537000Y-140873000D01*
X199537000Y-141127000D01*
X199517000Y-141127000D01*
X199517000Y-141147000D01*
X199263000Y-141147000D01*
X199263000Y-141127000D01*
X199243000Y-141127000D01*
X199243000Y-140873000D01*
X199263000Y-140873000D01*
X199263000Y-139673750D01*
X199104250Y-139515000D01*
X198477440Y-139515000D01*
X198477440Y-137188208D01*
X198638690Y-137255000D01*
X199104250Y-137255000D01*
X199263000Y-137096250D01*
X199263000Y-135997000D01*
X199243000Y-135997000D01*
X199243000Y-135743000D01*
X199263000Y-135743000D01*
X199263000Y-135723000D01*
X199517000Y-135723000D01*
X199517000Y-135743000D01*
G36*
X177895936Y-135488815D02*
X177946985Y-135565215D01*
X178810585Y-136428815D01*
X179057795Y-136593996D01*
X179349400Y-136652000D01*
X179665090Y-136652000D01*
X179763739Y-136750821D01*
X180137026Y-136905824D01*
X180541216Y-136906176D01*
X180880660Y-136765921D01*
X180966235Y-136851645D01*
X181383244Y-137024803D01*
X181834775Y-137025197D01*
X182252086Y-136852767D01*
X182453204Y-136652000D01*
X183897869Y-136652000D01*
X182628082Y-137921787D01*
X182572767Y-137787914D01*
X182253765Y-137468355D01*
X181836756Y-137295197D01*
X181385225Y-137294803D01*
X180967914Y-137467233D01*
X180880618Y-137554377D01*
X180542982Y-137414178D01*
X180138792Y-137413826D01*
X179765234Y-137568177D01*
X179479179Y-137853733D01*
X179336700Y-138196859D01*
X179336700Y-137859190D01*
X179240027Y-137625801D01*
X179061398Y-137447173D01*
X178828009Y-137350500D01*
X178752500Y-137350500D01*
X178593750Y-137509250D01*
X178593750Y-137651638D01*
X178518090Y-137534059D01*
X178305890Y-137389069D01*
X178245424Y-137376824D01*
X178219100Y-137350500D01*
X178143591Y-137350500D01*
X178134344Y-137354330D01*
X178054000Y-137338060D01*
X177622200Y-137338060D01*
X177510287Y-137359118D01*
X177406300Y-137338060D01*
X176974500Y-137338060D01*
X176856004Y-137360357D01*
X176745900Y-137338060D01*
X176314100Y-137338060D01*
X176240576Y-137351895D01*
X176237209Y-137350500D01*
X176161700Y-137350500D01*
X176141701Y-137370499D01*
X176078783Y-137382338D01*
X175879869Y-137510335D01*
X175702390Y-137389069D01*
X175657849Y-137380049D01*
X175628300Y-137350500D01*
X175552791Y-137350500D01*
X175539374Y-137356057D01*
X175450500Y-137338060D01*
X175018700Y-137338060D01*
X174945176Y-137351895D01*
X174941809Y-137350500D01*
X174866300Y-137350500D01*
X174846301Y-137370499D01*
X174783383Y-137382338D01*
X174567259Y-137521410D01*
X174491650Y-137632067D01*
X174491650Y-137509250D01*
X174332900Y-137350500D01*
X174257391Y-137350500D01*
X174024002Y-137447173D01*
X173980000Y-137491175D01*
X173980000Y-137425750D01*
X173821250Y-137267000D01*
X172847000Y-137267000D01*
X172847000Y-138366250D01*
X173005750Y-138525000D01*
X173471310Y-138525000D01*
X173704699Y-138428327D01*
X173748700Y-138384326D01*
X173748700Y-138398250D01*
X173907450Y-138557000D01*
X174371260Y-138557000D01*
X174371260Y-138811000D01*
X173907450Y-138811000D01*
X173748700Y-138969750D01*
X173748700Y-139188000D01*
X170745631Y-139188000D01*
X170351679Y-138794049D01*
X170424093Y-138430000D01*
X170311054Y-137861715D01*
X170019753Y-137425750D01*
X171460000Y-137425750D01*
X171460000Y-138016309D01*
X171556673Y-138249698D01*
X171735301Y-138428327D01*
X171968690Y-138525000D01*
X172434250Y-138525000D01*
X172593000Y-138366250D01*
X172593000Y-137267000D01*
X171618750Y-137267000D01*
X171460000Y-137425750D01*
X170019753Y-137425750D01*
X169989147Y-137379946D01*
X169659974Y-137160000D01*
X169989147Y-136940054D01*
X170181618Y-136652000D01*
X171460000Y-136652000D01*
X171460000Y-136854250D01*
X171618750Y-137013000D01*
X172593000Y-137013000D01*
X172593000Y-136993000D01*
X172847000Y-136993000D01*
X172847000Y-137013000D01*
X173821250Y-137013000D01*
X173980000Y-136854250D01*
X173980000Y-136652000D01*
X176312578Y-136652000D01*
X176604183Y-136593996D01*
X176851393Y-136428815D01*
X177854062Y-135426146D01*
X177895936Y-135488815D01*
X177895936Y-135488815D01*
G37*
X177895936Y-135488815D02*
X177946985Y-135565215D01*
X178810585Y-136428815D01*
X179057795Y-136593996D01*
X179349400Y-136652000D01*
X179665090Y-136652000D01*
X179763739Y-136750821D01*
X180137026Y-136905824D01*
X180541216Y-136906176D01*
X180880660Y-136765921D01*
X180966235Y-136851645D01*
X181383244Y-137024803D01*
X181834775Y-137025197D01*
X182252086Y-136852767D01*
X182453204Y-136652000D01*
X183897869Y-136652000D01*
X182628082Y-137921787D01*
X182572767Y-137787914D01*
X182253765Y-137468355D01*
X181836756Y-137295197D01*
X181385225Y-137294803D01*
X180967914Y-137467233D01*
X180880618Y-137554377D01*
X180542982Y-137414178D01*
X180138792Y-137413826D01*
X179765234Y-137568177D01*
X179479179Y-137853733D01*
X179336700Y-138196859D01*
X179336700Y-137859190D01*
X179240027Y-137625801D01*
X179061398Y-137447173D01*
X178828009Y-137350500D01*
X178752500Y-137350500D01*
X178593750Y-137509250D01*
X178593750Y-137651638D01*
X178518090Y-137534059D01*
X178305890Y-137389069D01*
X178245424Y-137376824D01*
X178219100Y-137350500D01*
X178143591Y-137350500D01*
X178134344Y-137354330D01*
X178054000Y-137338060D01*
X177622200Y-137338060D01*
X177510287Y-137359118D01*
X177406300Y-137338060D01*
X176974500Y-137338060D01*
X176856004Y-137360357D01*
X176745900Y-137338060D01*
X176314100Y-137338060D01*
X176240576Y-137351895D01*
X176237209Y-137350500D01*
X176161700Y-137350500D01*
X176141701Y-137370499D01*
X176078783Y-137382338D01*
X175879869Y-137510335D01*
X175702390Y-137389069D01*
X175657849Y-137380049D01*
X175628300Y-137350500D01*
X175552791Y-137350500D01*
X175539374Y-137356057D01*
X175450500Y-137338060D01*
X175018700Y-137338060D01*
X174945176Y-137351895D01*
X174941809Y-137350500D01*
X174866300Y-137350500D01*
X174846301Y-137370499D01*
X174783383Y-137382338D01*
X174567259Y-137521410D01*
X174491650Y-137632067D01*
X174491650Y-137509250D01*
X174332900Y-137350500D01*
X174257391Y-137350500D01*
X174024002Y-137447173D01*
X173980000Y-137491175D01*
X173980000Y-137425750D01*
X173821250Y-137267000D01*
X172847000Y-137267000D01*
X172847000Y-138366250D01*
X173005750Y-138525000D01*
X173471310Y-138525000D01*
X173704699Y-138428327D01*
X173748700Y-138384326D01*
X173748700Y-138398250D01*
X173907450Y-138557000D01*
X174371260Y-138557000D01*
X174371260Y-138811000D01*
X173907450Y-138811000D01*
X173748700Y-138969750D01*
X173748700Y-139188000D01*
X170745631Y-139188000D01*
X170351679Y-138794049D01*
X170424093Y-138430000D01*
X170311054Y-137861715D01*
X170019753Y-137425750D01*
X171460000Y-137425750D01*
X171460000Y-138016309D01*
X171556673Y-138249698D01*
X171735301Y-138428327D01*
X171968690Y-138525000D01*
X172434250Y-138525000D01*
X172593000Y-138366250D01*
X172593000Y-137267000D01*
X171618750Y-137267000D01*
X171460000Y-137425750D01*
X170019753Y-137425750D01*
X169989147Y-137379946D01*
X169659974Y-137160000D01*
X169989147Y-136940054D01*
X170181618Y-136652000D01*
X171460000Y-136652000D01*
X171460000Y-136854250D01*
X171618750Y-137013000D01*
X172593000Y-137013000D01*
X172593000Y-136993000D01*
X172847000Y-136993000D01*
X172847000Y-137013000D01*
X173821250Y-137013000D01*
X173980000Y-136854250D01*
X173980000Y-136652000D01*
X176312578Y-136652000D01*
X176604183Y-136593996D01*
X176851393Y-136428815D01*
X177854062Y-135426146D01*
X177895936Y-135488815D01*
G36*
X179323824Y-138631210D02*
X179478175Y-139004768D01*
X179611175Y-139138000D01*
X179336700Y-139138000D01*
X179336700Y-138969750D01*
X179177950Y-138811000D01*
X178701440Y-138811000D01*
X178701440Y-138557000D01*
X179177950Y-138557000D01*
X179324016Y-138410934D01*
X179323824Y-138631210D01*
X179323824Y-138631210D01*
G37*
X179323824Y-138631210D02*
X179478175Y-139004768D01*
X179611175Y-139138000D01*
X179336700Y-139138000D01*
X179336700Y-138969750D01*
X179177950Y-138811000D01*
X178701440Y-138811000D01*
X178701440Y-138557000D01*
X179177950Y-138557000D01*
X179324016Y-138410934D01*
X179323824Y-138631210D01*
G36*
X199950000Y-126912650D02*
X199746890Y-126828524D01*
X199517000Y-126949845D01*
X199517000Y-128143000D01*
X199537000Y-128143000D01*
X199537000Y-128397000D01*
X199517000Y-128397000D01*
X199517000Y-128417000D01*
X199263000Y-128417000D01*
X199263000Y-128397000D01*
X198069181Y-128397000D01*
X197948514Y-128626892D01*
X198194817Y-129151358D01*
X198400504Y-129338808D01*
X198304683Y-129356838D01*
X198088559Y-129495910D01*
X197943569Y-129708110D01*
X197892560Y-129960000D01*
X197892560Y-131660000D01*
X197936838Y-131895317D01*
X198075910Y-132111441D01*
X198258636Y-132236292D01*
X198168569Y-132368110D01*
X198117560Y-132620000D01*
X198117560Y-134120000D01*
X198161838Y-134355317D01*
X198179976Y-134383504D01*
X197966309Y-134295000D01*
X197775750Y-134295000D01*
X197617000Y-134453750D01*
X197617000Y-135403000D01*
X197637000Y-135403000D01*
X197637000Y-135657000D01*
X197617000Y-135657000D01*
X197617000Y-135677000D01*
X197363000Y-135677000D01*
X197363000Y-135657000D01*
X196347000Y-135657000D01*
X196347000Y-135677000D01*
X196093000Y-135677000D01*
X196093000Y-135657000D01*
X195067000Y-135657000D01*
X195067000Y-135677000D01*
X194813000Y-135677000D01*
X194813000Y-135657000D01*
X194793000Y-135657000D01*
X194793000Y-135403000D01*
X194813000Y-135403000D01*
X194813000Y-134453750D01*
X195067000Y-134453750D01*
X195067000Y-135403000D01*
X196093000Y-135403000D01*
X196093000Y-134453750D01*
X196347000Y-134453750D01*
X196347000Y-135403000D01*
X197363000Y-135403000D01*
X197363000Y-134453750D01*
X197204250Y-134295000D01*
X197013691Y-134295000D01*
X196855000Y-134360732D01*
X196696309Y-134295000D01*
X196505750Y-134295000D01*
X196347000Y-134453750D01*
X196093000Y-134453750D01*
X195934250Y-134295000D01*
X195743691Y-134295000D01*
X195580000Y-134362803D01*
X195416309Y-134295000D01*
X195225750Y-134295000D01*
X195067000Y-134453750D01*
X194813000Y-134453750D01*
X194654250Y-134295000D01*
X194463691Y-134295000D01*
X194309137Y-134359019D01*
X194271890Y-134333569D01*
X194020000Y-134282560D01*
X193320000Y-134282560D01*
X193084683Y-134326838D01*
X192868559Y-134465910D01*
X192864154Y-134472357D01*
X192726890Y-134378569D01*
X192475000Y-134327560D01*
X191771912Y-134327560D01*
X193686673Y-132412800D01*
X194361034Y-132412800D01*
X194500853Y-132622054D01*
X194982622Y-132943961D01*
X195550907Y-133057000D01*
X195609093Y-133057000D01*
X196177378Y-132943961D01*
X196659147Y-132622054D01*
X196981054Y-132140285D01*
X197094093Y-131572000D01*
X196981054Y-131003715D01*
X196659147Y-130521946D01*
X196329974Y-130302000D01*
X196659147Y-130082054D01*
X196981054Y-129600285D01*
X197094093Y-129032000D01*
X196981054Y-128463715D01*
X196659147Y-127981946D01*
X196556124Y-127913108D01*
X197948514Y-127913108D01*
X198069181Y-128143000D01*
X199263000Y-128143000D01*
X199263000Y-126949845D01*
X199033110Y-126828524D01*
X198623076Y-126998355D01*
X198194817Y-127388642D01*
X197948514Y-127913108D01*
X196556124Y-127913108D01*
X196318447Y-127754298D01*
X196461358Y-127687183D01*
X196851645Y-127258924D01*
X197021476Y-126848890D01*
X196900155Y-126619000D01*
X195707000Y-126619000D01*
X195707000Y-126639000D01*
X195453000Y-126639000D01*
X195453000Y-126619000D01*
X195433000Y-126619000D01*
X195433000Y-126365000D01*
X195453000Y-126365000D01*
X195453000Y-126345000D01*
X195707000Y-126345000D01*
X195707000Y-126365000D01*
X196900155Y-126365000D01*
X197021476Y-126135110D01*
X196851645Y-125725076D01*
X196461358Y-125296817D01*
X196318447Y-125229702D01*
X196659147Y-125002054D01*
X196981054Y-124520285D01*
X197094093Y-123952000D01*
X196981054Y-123383715D01*
X196659147Y-122901946D01*
X196617548Y-122874150D01*
X196665317Y-122865162D01*
X196881441Y-122726090D01*
X197026431Y-122513890D01*
X197077440Y-122262000D01*
X197077440Y-120562000D01*
X197033162Y-120326683D01*
X196894090Y-120110559D01*
X196681890Y-119965569D01*
X196430000Y-119914560D01*
X194730000Y-119914560D01*
X194494683Y-119958838D01*
X194278559Y-120097910D01*
X194133569Y-120310110D01*
X194082560Y-120562000D01*
X194082560Y-120695241D01*
X194049836Y-120701750D01*
X194018395Y-120708004D01*
X193771185Y-120873185D01*
X193656370Y-120988000D01*
X192185000Y-120988000D01*
X192185000Y-120760750D01*
X192026250Y-120602000D01*
X191027000Y-120602000D01*
X191027000Y-120622000D01*
X190773000Y-120622000D01*
X190773000Y-120602000D01*
X190753000Y-120602000D01*
X190753000Y-120348000D01*
X190773000Y-120348000D01*
X190773000Y-119248750D01*
X191027000Y-119248750D01*
X191027000Y-120348000D01*
X192026250Y-120348000D01*
X192185000Y-120189250D01*
X192185000Y-119598691D01*
X192088327Y-119365302D01*
X191909699Y-119186673D01*
X191676310Y-119090000D01*
X191185750Y-119090000D01*
X191027000Y-119248750D01*
X190773000Y-119248750D01*
X190614250Y-119090000D01*
X190458928Y-119090000D01*
X190515824Y-118952980D01*
X190516176Y-118548790D01*
X190361825Y-118175232D01*
X190076269Y-117889177D01*
X189702982Y-117734174D01*
X189298792Y-117733822D01*
X188925234Y-117888173D01*
X188639179Y-118173729D01*
X188484176Y-118547016D01*
X188483824Y-118951206D01*
X188516794Y-119031000D01*
X188245750Y-119031000D01*
X188087000Y-119189750D01*
X188087000Y-120289000D01*
X188107000Y-120289000D01*
X188107000Y-120543000D01*
X188087000Y-120543000D01*
X188087000Y-120563000D01*
X187833000Y-120563000D01*
X187833000Y-120543000D01*
X187813000Y-120543000D01*
X187813000Y-120289000D01*
X187833000Y-120289000D01*
X187833000Y-119189750D01*
X187674250Y-119031000D01*
X187208690Y-119031000D01*
X186975301Y-119127673D01*
X186796673Y-119306302D01*
X186700000Y-119539691D01*
X186700000Y-120130250D01*
X186858748Y-120288998D01*
X186700000Y-120288998D01*
X186700000Y-120381527D01*
X184468736Y-118150264D01*
X184205045Y-117974071D01*
X183894000Y-117912200D01*
X175900000Y-117912200D01*
X175588955Y-117974071D01*
X175325264Y-118150264D01*
X172145264Y-121330264D01*
X171969071Y-121593955D01*
X171919000Y-121845677D01*
X171859683Y-121856838D01*
X171643559Y-121995910D01*
X171498569Y-122208110D01*
X171447560Y-122460000D01*
X171447560Y-123738000D01*
X170315089Y-123738000D01*
X170424093Y-123190000D01*
X170311054Y-122621715D01*
X169989147Y-122139946D01*
X169659974Y-121920000D01*
X169989147Y-121700054D01*
X170311054Y-121218285D01*
X170424093Y-120650000D01*
X170311054Y-120081715D01*
X169989147Y-119599946D01*
X169947548Y-119572150D01*
X169995317Y-119563162D01*
X170211441Y-119424090D01*
X170356431Y-119211890D01*
X170407440Y-118960000D01*
X170407440Y-117550000D01*
X199950000Y-117550000D01*
X199950000Y-126912650D01*
X199950000Y-126912650D01*
G37*
X199950000Y-126912650D02*
X199746890Y-126828524D01*
X199517000Y-126949845D01*
X199517000Y-128143000D01*
X199537000Y-128143000D01*
X199537000Y-128397000D01*
X199517000Y-128397000D01*
X199517000Y-128417000D01*
X199263000Y-128417000D01*
X199263000Y-128397000D01*
X198069181Y-128397000D01*
X197948514Y-128626892D01*
X198194817Y-129151358D01*
X198400504Y-129338808D01*
X198304683Y-129356838D01*
X198088559Y-129495910D01*
X197943569Y-129708110D01*
X197892560Y-129960000D01*
X197892560Y-131660000D01*
X197936838Y-131895317D01*
X198075910Y-132111441D01*
X198258636Y-132236292D01*
X198168569Y-132368110D01*
X198117560Y-132620000D01*
X198117560Y-134120000D01*
X198161838Y-134355317D01*
X198179976Y-134383504D01*
X197966309Y-134295000D01*
X197775750Y-134295000D01*
X197617000Y-134453750D01*
X197617000Y-135403000D01*
X197637000Y-135403000D01*
X197637000Y-135657000D01*
X197617000Y-135657000D01*
X197617000Y-135677000D01*
X197363000Y-135677000D01*
X197363000Y-135657000D01*
X196347000Y-135657000D01*
X196347000Y-135677000D01*
X196093000Y-135677000D01*
X196093000Y-135657000D01*
X195067000Y-135657000D01*
X195067000Y-135677000D01*
X194813000Y-135677000D01*
X194813000Y-135657000D01*
X194793000Y-135657000D01*
X194793000Y-135403000D01*
X194813000Y-135403000D01*
X194813000Y-134453750D01*
X195067000Y-134453750D01*
X195067000Y-135403000D01*
X196093000Y-135403000D01*
X196093000Y-134453750D01*
X196347000Y-134453750D01*
X196347000Y-135403000D01*
X197363000Y-135403000D01*
X197363000Y-134453750D01*
X197204250Y-134295000D01*
X197013691Y-134295000D01*
X196855000Y-134360732D01*
X196696309Y-134295000D01*
X196505750Y-134295000D01*
X196347000Y-134453750D01*
X196093000Y-134453750D01*
X195934250Y-134295000D01*
X195743691Y-134295000D01*
X195580000Y-134362803D01*
X195416309Y-134295000D01*
X195225750Y-134295000D01*
X195067000Y-134453750D01*
X194813000Y-134453750D01*
X194654250Y-134295000D01*
X194463691Y-134295000D01*
X194309137Y-134359019D01*
X194271890Y-134333569D01*
X194020000Y-134282560D01*
X193320000Y-134282560D01*
X193084683Y-134326838D01*
X192868559Y-134465910D01*
X192864154Y-134472357D01*
X192726890Y-134378569D01*
X192475000Y-134327560D01*
X191771912Y-134327560D01*
X193686673Y-132412800D01*
X194361034Y-132412800D01*
X194500853Y-132622054D01*
X194982622Y-132943961D01*
X195550907Y-133057000D01*
X195609093Y-133057000D01*
X196177378Y-132943961D01*
X196659147Y-132622054D01*
X196981054Y-132140285D01*
X197094093Y-131572000D01*
X196981054Y-131003715D01*
X196659147Y-130521946D01*
X196329974Y-130302000D01*
X196659147Y-130082054D01*
X196981054Y-129600285D01*
X197094093Y-129032000D01*
X196981054Y-128463715D01*
X196659147Y-127981946D01*
X196556124Y-127913108D01*
X197948514Y-127913108D01*
X198069181Y-128143000D01*
X199263000Y-128143000D01*
X199263000Y-126949845D01*
X199033110Y-126828524D01*
X198623076Y-126998355D01*
X198194817Y-127388642D01*
X197948514Y-127913108D01*
X196556124Y-127913108D01*
X196318447Y-127754298D01*
X196461358Y-127687183D01*
X196851645Y-127258924D01*
X197021476Y-126848890D01*
X196900155Y-126619000D01*
X195707000Y-126619000D01*
X195707000Y-126639000D01*
X195453000Y-126639000D01*
X195453000Y-126619000D01*
X195433000Y-126619000D01*
X195433000Y-126365000D01*
X195453000Y-126365000D01*
X195453000Y-126345000D01*
X195707000Y-126345000D01*
X195707000Y-126365000D01*
X196900155Y-126365000D01*
X197021476Y-126135110D01*
X196851645Y-125725076D01*
X196461358Y-125296817D01*
X196318447Y-125229702D01*
X196659147Y-125002054D01*
X196981054Y-124520285D01*
X197094093Y-123952000D01*
X196981054Y-123383715D01*
X196659147Y-122901946D01*
X196617548Y-122874150D01*
X196665317Y-122865162D01*
X196881441Y-122726090D01*
X197026431Y-122513890D01*
X197077440Y-122262000D01*
X197077440Y-120562000D01*
X197033162Y-120326683D01*
X196894090Y-120110559D01*
X196681890Y-119965569D01*
X196430000Y-119914560D01*
X194730000Y-119914560D01*
X194494683Y-119958838D01*
X194278559Y-120097910D01*
X194133569Y-120310110D01*
X194082560Y-120562000D01*
X194082560Y-120695241D01*
X194049836Y-120701750D01*
X194018395Y-120708004D01*
X193771185Y-120873185D01*
X193656370Y-120988000D01*
X192185000Y-120988000D01*
X192185000Y-120760750D01*
X192026250Y-120602000D01*
X191027000Y-120602000D01*
X191027000Y-120622000D01*
X190773000Y-120622000D01*
X190773000Y-120602000D01*
X190753000Y-120602000D01*
X190753000Y-120348000D01*
X190773000Y-120348000D01*
X190773000Y-119248750D01*
X191027000Y-119248750D01*
X191027000Y-120348000D01*
X192026250Y-120348000D01*
X192185000Y-120189250D01*
X192185000Y-119598691D01*
X192088327Y-119365302D01*
X191909699Y-119186673D01*
X191676310Y-119090000D01*
X191185750Y-119090000D01*
X191027000Y-119248750D01*
X190773000Y-119248750D01*
X190614250Y-119090000D01*
X190458928Y-119090000D01*
X190515824Y-118952980D01*
X190516176Y-118548790D01*
X190361825Y-118175232D01*
X190076269Y-117889177D01*
X189702982Y-117734174D01*
X189298792Y-117733822D01*
X188925234Y-117888173D01*
X188639179Y-118173729D01*
X188484176Y-118547016D01*
X188483824Y-118951206D01*
X188516794Y-119031000D01*
X188245750Y-119031000D01*
X188087000Y-119189750D01*
X188087000Y-120289000D01*
X188107000Y-120289000D01*
X188107000Y-120543000D01*
X188087000Y-120543000D01*
X188087000Y-120563000D01*
X187833000Y-120563000D01*
X187833000Y-120543000D01*
X187813000Y-120543000D01*
X187813000Y-120289000D01*
X187833000Y-120289000D01*
X187833000Y-119189750D01*
X187674250Y-119031000D01*
X187208690Y-119031000D01*
X186975301Y-119127673D01*
X186796673Y-119306302D01*
X186700000Y-119539691D01*
X186700000Y-120130250D01*
X186858748Y-120288998D01*
X186700000Y-120288998D01*
X186700000Y-120381527D01*
X184468736Y-118150264D01*
X184205045Y-117974071D01*
X183894000Y-117912200D01*
X175900000Y-117912200D01*
X175588955Y-117974071D01*
X175325264Y-118150264D01*
X172145264Y-121330264D01*
X171969071Y-121593955D01*
X171919000Y-121845677D01*
X171859683Y-121856838D01*
X171643559Y-121995910D01*
X171498569Y-122208110D01*
X171447560Y-122460000D01*
X171447560Y-123738000D01*
X170315089Y-123738000D01*
X170424093Y-123190000D01*
X170311054Y-122621715D01*
X169989147Y-122139946D01*
X169659974Y-121920000D01*
X169989147Y-121700054D01*
X170311054Y-121218285D01*
X170424093Y-120650000D01*
X170311054Y-120081715D01*
X169989147Y-119599946D01*
X169947548Y-119572150D01*
X169995317Y-119563162D01*
X170211441Y-119424090D01*
X170356431Y-119211890D01*
X170407440Y-118960000D01*
X170407440Y-117550000D01*
X199950000Y-117550000D01*
X199950000Y-126912650D01*
G36*
X179717849Y-124915479D02*
X179479179Y-125153733D01*
X179324176Y-125527020D01*
X179323824Y-125931210D01*
X179478175Y-126304768D01*
X179763731Y-126590823D01*
X180137018Y-126745826D01*
X180541208Y-126746178D01*
X180880659Y-126605920D01*
X180966235Y-126691645D01*
X181383244Y-126864803D01*
X181834775Y-126865197D01*
X182009274Y-126793095D01*
X181667320Y-127135049D01*
X181385225Y-127134803D01*
X180967914Y-127307233D01*
X180880619Y-127394376D01*
X180542982Y-127254176D01*
X180138792Y-127253824D01*
X179765234Y-127408175D01*
X179652511Y-127520701D01*
X179317651Y-127520701D01*
X179177950Y-127381000D01*
X178701440Y-127381000D01*
X178701440Y-127127000D01*
X179177950Y-127127000D01*
X179336700Y-126968250D01*
X179336700Y-126429190D01*
X179240027Y-126195801D01*
X179061398Y-126017173D01*
X178828009Y-125920500D01*
X178752500Y-125920500D01*
X178593750Y-126079250D01*
X178593750Y-126221638D01*
X178518090Y-126104059D01*
X178305890Y-125959069D01*
X178245424Y-125946824D01*
X178219100Y-125920500D01*
X178143591Y-125920500D01*
X178134344Y-125924330D01*
X178054000Y-125908060D01*
X177622200Y-125908060D01*
X177510287Y-125929118D01*
X177406300Y-125908060D01*
X176974500Y-125908060D01*
X176856004Y-125930357D01*
X176745900Y-125908060D01*
X176314100Y-125908060D01*
X176240576Y-125921895D01*
X176237209Y-125920500D01*
X176161700Y-125920500D01*
X176141701Y-125940499D01*
X176078783Y-125952338D01*
X175879869Y-126080335D01*
X175702390Y-125959069D01*
X175657849Y-125950049D01*
X175628300Y-125920500D01*
X175552791Y-125920500D01*
X175539374Y-125926057D01*
X175450500Y-125908060D01*
X175018700Y-125908060D01*
X174945176Y-125921895D01*
X174941809Y-125920500D01*
X174866300Y-125920500D01*
X174846301Y-125940499D01*
X174783383Y-125952338D01*
X174567259Y-126091410D01*
X174491650Y-126202067D01*
X174491650Y-126079250D01*
X174332900Y-125920500D01*
X174257391Y-125920500D01*
X174024002Y-126017173D01*
X173980000Y-126061175D01*
X173980000Y-125995750D01*
X173821250Y-125837000D01*
X172847000Y-125837000D01*
X172847000Y-126936250D01*
X173005750Y-127095000D01*
X173471310Y-127095000D01*
X173704699Y-126998327D01*
X173748700Y-126954326D01*
X173748700Y-126968250D01*
X173907450Y-127127000D01*
X174371260Y-127127000D01*
X174371260Y-127381000D01*
X173907450Y-127381000D01*
X173748700Y-127539750D01*
X173748700Y-128078810D01*
X173845373Y-128312199D01*
X174024002Y-128490827D01*
X174257391Y-128587500D01*
X174332900Y-128587500D01*
X174491650Y-128428750D01*
X174491650Y-128306098D01*
X174554610Y-128403941D01*
X174766810Y-128548931D01*
X174843200Y-128564400D01*
X174866300Y-128587500D01*
X174941809Y-128587500D01*
X174946886Y-128585397D01*
X175018700Y-128599940D01*
X175450500Y-128599940D01*
X175541490Y-128582819D01*
X175552791Y-128587500D01*
X175628300Y-128587500D01*
X175654186Y-128561614D01*
X175685817Y-128555662D01*
X175884731Y-128427665D01*
X176062210Y-128548931D01*
X176134118Y-128563493D01*
X176133902Y-128812200D01*
X175775000Y-128812200D01*
X175463955Y-128874071D01*
X175200263Y-129050264D01*
X172145264Y-132105264D01*
X171969071Y-132368955D01*
X171907200Y-132680000D01*
X171907200Y-133277897D01*
X171859683Y-133286838D01*
X171643559Y-133425910D01*
X171498569Y-133638110D01*
X171447560Y-133890000D01*
X171447560Y-135128000D01*
X170181618Y-135128000D01*
X169989147Y-134839946D01*
X169659974Y-134620000D01*
X169989147Y-134400054D01*
X170311054Y-133918285D01*
X170424093Y-133350000D01*
X170311054Y-132781715D01*
X169989147Y-132299946D01*
X169659974Y-132080000D01*
X169989147Y-131860054D01*
X170311054Y-131378285D01*
X170424093Y-130810000D01*
X170311054Y-130241715D01*
X169989147Y-129759946D01*
X169659974Y-129540000D01*
X169989147Y-129320054D01*
X170311054Y-128838285D01*
X170424093Y-128270000D01*
X170311054Y-127701715D01*
X169989147Y-127219946D01*
X169659974Y-127000000D01*
X169989147Y-126780054D01*
X170311054Y-126298285D01*
X170371231Y-125995750D01*
X171460000Y-125995750D01*
X171460000Y-126586309D01*
X171556673Y-126819698D01*
X171735301Y-126998327D01*
X171968690Y-127095000D01*
X172434250Y-127095000D01*
X172593000Y-126936250D01*
X172593000Y-125837000D01*
X171618750Y-125837000D01*
X171460000Y-125995750D01*
X170371231Y-125995750D01*
X170424093Y-125730000D01*
X170351679Y-125365952D01*
X170455631Y-125262000D01*
X171460000Y-125262000D01*
X171460000Y-125424250D01*
X171618750Y-125583000D01*
X172593000Y-125583000D01*
X172593000Y-125563000D01*
X172847000Y-125563000D01*
X172847000Y-125583000D01*
X173821250Y-125583000D01*
X173980000Y-125424250D01*
X173980000Y-125262000D01*
X175577736Y-125262000D01*
X175769596Y-125390197D01*
X176061201Y-125448201D01*
X177441377Y-125448201D01*
X177732982Y-125390197D01*
X177980192Y-125225016D01*
X178376915Y-124828293D01*
X178542096Y-124581083D01*
X178547484Y-124553996D01*
X178600100Y-124289478D01*
X178600100Y-123797730D01*
X179717849Y-124915479D01*
X179717849Y-124915479D01*
G37*
X179717849Y-124915479D02*
X179479179Y-125153733D01*
X179324176Y-125527020D01*
X179323824Y-125931210D01*
X179478175Y-126304768D01*
X179763731Y-126590823D01*
X180137018Y-126745826D01*
X180541208Y-126746178D01*
X180880659Y-126605920D01*
X180966235Y-126691645D01*
X181383244Y-126864803D01*
X181834775Y-126865197D01*
X182009274Y-126793095D01*
X181667320Y-127135049D01*
X181385225Y-127134803D01*
X180967914Y-127307233D01*
X180880619Y-127394376D01*
X180542982Y-127254176D01*
X180138792Y-127253824D01*
X179765234Y-127408175D01*
X179652511Y-127520701D01*
X179317651Y-127520701D01*
X179177950Y-127381000D01*
X178701440Y-127381000D01*
X178701440Y-127127000D01*
X179177950Y-127127000D01*
X179336700Y-126968250D01*
X179336700Y-126429190D01*
X179240027Y-126195801D01*
X179061398Y-126017173D01*
X178828009Y-125920500D01*
X178752500Y-125920500D01*
X178593750Y-126079250D01*
X178593750Y-126221638D01*
X178518090Y-126104059D01*
X178305890Y-125959069D01*
X178245424Y-125946824D01*
X178219100Y-125920500D01*
X178143591Y-125920500D01*
X178134344Y-125924330D01*
X178054000Y-125908060D01*
X177622200Y-125908060D01*
X177510287Y-125929118D01*
X177406300Y-125908060D01*
X176974500Y-125908060D01*
X176856004Y-125930357D01*
X176745900Y-125908060D01*
X176314100Y-125908060D01*
X176240576Y-125921895D01*
X176237209Y-125920500D01*
X176161700Y-125920500D01*
X176141701Y-125940499D01*
X176078783Y-125952338D01*
X175879869Y-126080335D01*
X175702390Y-125959069D01*
X175657849Y-125950049D01*
X175628300Y-125920500D01*
X175552791Y-125920500D01*
X175539374Y-125926057D01*
X175450500Y-125908060D01*
X175018700Y-125908060D01*
X174945176Y-125921895D01*
X174941809Y-125920500D01*
X174866300Y-125920500D01*
X174846301Y-125940499D01*
X174783383Y-125952338D01*
X174567259Y-126091410D01*
X174491650Y-126202067D01*
X174491650Y-126079250D01*
X174332900Y-125920500D01*
X174257391Y-125920500D01*
X174024002Y-126017173D01*
X173980000Y-126061175D01*
X173980000Y-125995750D01*
X173821250Y-125837000D01*
X172847000Y-125837000D01*
X172847000Y-126936250D01*
X173005750Y-127095000D01*
X173471310Y-127095000D01*
X173704699Y-126998327D01*
X173748700Y-126954326D01*
X173748700Y-126968250D01*
X173907450Y-127127000D01*
X174371260Y-127127000D01*
X174371260Y-127381000D01*
X173907450Y-127381000D01*
X173748700Y-127539750D01*
X173748700Y-128078810D01*
X173845373Y-128312199D01*
X174024002Y-128490827D01*
X174257391Y-128587500D01*
X174332900Y-128587500D01*
X174491650Y-128428750D01*
X174491650Y-128306098D01*
X174554610Y-128403941D01*
X174766810Y-128548931D01*
X174843200Y-128564400D01*
X174866300Y-128587500D01*
X174941809Y-128587500D01*
X174946886Y-128585397D01*
X175018700Y-128599940D01*
X175450500Y-128599940D01*
X175541490Y-128582819D01*
X175552791Y-128587500D01*
X175628300Y-128587500D01*
X175654186Y-128561614D01*
X175685817Y-128555662D01*
X175884731Y-128427665D01*
X176062210Y-128548931D01*
X176134118Y-128563493D01*
X176133902Y-128812200D01*
X175775000Y-128812200D01*
X175463955Y-128874071D01*
X175200263Y-129050264D01*
X172145264Y-132105264D01*
X171969071Y-132368955D01*
X171907200Y-132680000D01*
X171907200Y-133277897D01*
X171859683Y-133286838D01*
X171643559Y-133425910D01*
X171498569Y-133638110D01*
X171447560Y-133890000D01*
X171447560Y-135128000D01*
X170181618Y-135128000D01*
X169989147Y-134839946D01*
X169659974Y-134620000D01*
X169989147Y-134400054D01*
X170311054Y-133918285D01*
X170424093Y-133350000D01*
X170311054Y-132781715D01*
X169989147Y-132299946D01*
X169659974Y-132080000D01*
X169989147Y-131860054D01*
X170311054Y-131378285D01*
X170424093Y-130810000D01*
X170311054Y-130241715D01*
X169989147Y-129759946D01*
X169659974Y-129540000D01*
X169989147Y-129320054D01*
X170311054Y-128838285D01*
X170424093Y-128270000D01*
X170311054Y-127701715D01*
X169989147Y-127219946D01*
X169659974Y-127000000D01*
X169989147Y-126780054D01*
X170311054Y-126298285D01*
X170371231Y-125995750D01*
X171460000Y-125995750D01*
X171460000Y-126586309D01*
X171556673Y-126819698D01*
X171735301Y-126998327D01*
X171968690Y-127095000D01*
X172434250Y-127095000D01*
X172593000Y-126936250D01*
X172593000Y-125837000D01*
X171618750Y-125837000D01*
X171460000Y-125995750D01*
X170371231Y-125995750D01*
X170424093Y-125730000D01*
X170351679Y-125365952D01*
X170455631Y-125262000D01*
X171460000Y-125262000D01*
X171460000Y-125424250D01*
X171618750Y-125583000D01*
X172593000Y-125583000D01*
X172593000Y-125563000D01*
X172847000Y-125563000D01*
X172847000Y-125583000D01*
X173821250Y-125583000D01*
X173980000Y-125424250D01*
X173980000Y-125262000D01*
X175577736Y-125262000D01*
X175769596Y-125390197D01*
X176061201Y-125448201D01*
X177441377Y-125448201D01*
X177732982Y-125390197D01*
X177980192Y-125225016D01*
X178376915Y-124828293D01*
X178542096Y-124581083D01*
X178547484Y-124553996D01*
X178600100Y-124289478D01*
X178600100Y-123797730D01*
X179717849Y-124915479D01*
G36*
X185735043Y-130457541D02*
X186395062Y-131117560D01*
X186110000Y-131117560D01*
X186006329Y-131137067D01*
X185910000Y-131117560D01*
X185460000Y-131117560D01*
X185356329Y-131137067D01*
X185260000Y-131117560D01*
X184810000Y-131117560D01*
X184574683Y-131161838D01*
X184358559Y-131300910D01*
X184213569Y-131513110D01*
X184170053Y-131728000D01*
X183605631Y-131728000D01*
X182744951Y-130867320D01*
X182745197Y-130585225D01*
X182684282Y-130437800D01*
X185721852Y-130437800D01*
X185735043Y-130457541D01*
X185735043Y-130457541D01*
G37*
X185735043Y-130457541D02*
X186395062Y-131117560D01*
X186110000Y-131117560D01*
X186006329Y-131137067D01*
X185910000Y-131117560D01*
X185460000Y-131117560D01*
X185356329Y-131137067D01*
X185260000Y-131117560D01*
X184810000Y-131117560D01*
X184574683Y-131161838D01*
X184358559Y-131300910D01*
X184213569Y-131513110D01*
X184170053Y-131728000D01*
X183605631Y-131728000D01*
X182744951Y-130867320D01*
X182745197Y-130585225D01*
X182684282Y-130437800D01*
X185721852Y-130437800D01*
X185735043Y-130457541D01*
G36*
X194126838Y-122497317D02*
X194265910Y-122713441D01*
X194478110Y-122858431D01*
X194545541Y-122872086D01*
X194500853Y-122901946D01*
X194178946Y-123383715D01*
X194065907Y-123952000D01*
X194138321Y-124316049D01*
X193411185Y-125043185D01*
X193246004Y-125290395D01*
X193188000Y-125582000D01*
X193188000Y-129034369D01*
X191834370Y-130388000D01*
X190966011Y-130388000D01*
X190966176Y-130198794D01*
X190811825Y-129825236D01*
X190526269Y-129539181D01*
X190152982Y-129384178D01*
X189748792Y-129383826D01*
X189375234Y-129538177D01*
X189369523Y-129543878D01*
X189361819Y-129525234D01*
X189076263Y-129239179D01*
X188702976Y-129084176D01*
X188298786Y-129083824D01*
X187925228Y-129238175D01*
X187639173Y-129523731D01*
X187484170Y-129897018D01*
X187484161Y-129907714D01*
X187289959Y-129713513D01*
X188514821Y-128488651D01*
X188661965Y-128844766D01*
X188947521Y-129130821D01*
X189320808Y-129285824D01*
X189724998Y-129286176D01*
X190098556Y-129131825D01*
X190384611Y-128846269D01*
X190438401Y-128716728D01*
X190666000Y-128762000D01*
X191125074Y-128762000D01*
X191223723Y-128860821D01*
X191597010Y-129015824D01*
X192001200Y-129016176D01*
X192374758Y-128861825D01*
X192660813Y-128576269D01*
X192815816Y-128202982D01*
X192816168Y-127798792D01*
X192661817Y-127425234D01*
X192376261Y-127139179D01*
X192002974Y-126984176D01*
X191757440Y-126983962D01*
X191757440Y-125865000D01*
X191713162Y-125629683D01*
X191662000Y-125550175D01*
X191662000Y-124551366D01*
X191785317Y-124528162D01*
X192001441Y-124389090D01*
X192146431Y-124176890D01*
X192197440Y-123925000D01*
X192197440Y-122512000D01*
X193972000Y-122512000D01*
X194123915Y-122481782D01*
X194126838Y-122497317D01*
X194126838Y-122497317D01*
G37*
X194126838Y-122497317D02*
X194265910Y-122713441D01*
X194478110Y-122858431D01*
X194545541Y-122872086D01*
X194500853Y-122901946D01*
X194178946Y-123383715D01*
X194065907Y-123952000D01*
X194138321Y-124316049D01*
X193411185Y-125043185D01*
X193246004Y-125290395D01*
X193188000Y-125582000D01*
X193188000Y-129034369D01*
X191834370Y-130388000D01*
X190966011Y-130388000D01*
X190966176Y-130198794D01*
X190811825Y-129825236D01*
X190526269Y-129539181D01*
X190152982Y-129384178D01*
X189748792Y-129383826D01*
X189375234Y-129538177D01*
X189369523Y-129543878D01*
X189361819Y-129525234D01*
X189076263Y-129239179D01*
X188702976Y-129084176D01*
X188298786Y-129083824D01*
X187925228Y-129238175D01*
X187639173Y-129523731D01*
X187484170Y-129897018D01*
X187484161Y-129907714D01*
X187289959Y-129713513D01*
X188514821Y-128488651D01*
X188661965Y-128844766D01*
X188947521Y-129130821D01*
X189320808Y-129285824D01*
X189724998Y-129286176D01*
X190098556Y-129131825D01*
X190384611Y-128846269D01*
X190438401Y-128716728D01*
X190666000Y-128762000D01*
X191125074Y-128762000D01*
X191223723Y-128860821D01*
X191597010Y-129015824D01*
X192001200Y-129016176D01*
X192374758Y-128861825D01*
X192660813Y-128576269D01*
X192815816Y-128202982D01*
X192816168Y-127798792D01*
X192661817Y-127425234D01*
X192376261Y-127139179D01*
X192002974Y-126984176D01*
X191757440Y-126983962D01*
X191757440Y-125865000D01*
X191713162Y-125629683D01*
X191662000Y-125550175D01*
X191662000Y-124551366D01*
X191785317Y-124528162D01*
X192001441Y-124389090D01*
X192146431Y-124176890D01*
X192197440Y-123925000D01*
X192197440Y-122512000D01*
X193972000Y-122512000D01*
X194123915Y-122481782D01*
X194126838Y-122497317D01*
G36*
X184206838Y-127550317D02*
X184345910Y-127766441D01*
X184558110Y-127911431D01*
X184810000Y-127962440D01*
X185260000Y-127962440D01*
X185363671Y-127942933D01*
X185460000Y-127962440D01*
X185910000Y-127962440D01*
X186013671Y-127942933D01*
X186110000Y-127962440D01*
X186560000Y-127962440D01*
X186663671Y-127942933D01*
X186745104Y-127959424D01*
X185892328Y-128812200D01*
X182613819Y-128812200D01*
X182744803Y-128496756D01*
X182745051Y-128212579D01*
X183605631Y-127352000D01*
X184169522Y-127352000D01*
X184206838Y-127550317D01*
X184206838Y-127550317D01*
G37*
X184206838Y-127550317D02*
X184345910Y-127766441D01*
X184558110Y-127911431D01*
X184810000Y-127962440D01*
X185260000Y-127962440D01*
X185363671Y-127942933D01*
X185460000Y-127962440D01*
X185910000Y-127962440D01*
X186013671Y-127942933D01*
X186110000Y-127962440D01*
X186560000Y-127962440D01*
X186663671Y-127942933D01*
X186745104Y-127959424D01*
X185892328Y-128812200D01*
X182613819Y-128812200D01*
X182744803Y-128496756D01*
X182745051Y-128212579D01*
X183605631Y-127352000D01*
X184169522Y-127352000D01*
X184206838Y-127550317D01*
M02*
