G04 #@! TF.FileFunction,Legend,Top*
%FSLAX46Y46*%
G04 Gerber Fmt 4.6, Leading zero omitted, Abs format (unit mm)*
G04 Created by KiCad (PCBNEW 4.0.7-e2-6376~58~ubuntu16.04.1) date Thu Nov  9 21:21:10 2017*
%MOMM*%
%LPD*%
G01*
G04 APERTURE LIST*
%ADD10C,0.100000*%
%ADD11C,0.150000*%
%ADD12C,0.200000*%
%ADD13C,0.120000*%
G04 APERTURE END LIST*
D10*
D11*
X228428571Y-95452381D02*
X228333333Y-95404762D01*
X228285714Y-95357143D01*
X228238095Y-95261905D01*
X228238095Y-94976190D01*
X228285714Y-94880952D01*
X228333333Y-94833333D01*
X228428571Y-94785714D01*
X228571429Y-94785714D01*
X228666667Y-94833333D01*
X228714286Y-94880952D01*
X228761905Y-94976190D01*
X228761905Y-95261905D01*
X228714286Y-95357143D01*
X228666667Y-95404762D01*
X228571429Y-95452381D01*
X228428571Y-95452381D01*
X228428571Y-104752381D02*
X228333333Y-104704762D01*
X228285714Y-104657143D01*
X228238095Y-104561905D01*
X228238095Y-104276190D01*
X228285714Y-104180952D01*
X228333333Y-104133333D01*
X228428571Y-104085714D01*
X228571429Y-104085714D01*
X228666667Y-104133333D01*
X228714286Y-104180952D01*
X228761905Y-104276190D01*
X228761905Y-104561905D01*
X228714286Y-104657143D01*
X228666667Y-104704762D01*
X228571429Y-104752381D01*
X228428571Y-104752381D01*
D12*
X234619048Y-127271429D02*
X235380953Y-127271429D01*
X234619048Y-123771429D02*
X235380953Y-123771429D01*
X235000001Y-124152381D02*
X235000001Y-123390476D01*
D11*
X229428571Y-122702381D02*
X229333333Y-122654762D01*
X229285714Y-122607143D01*
X229238095Y-122511905D01*
X229238095Y-122226190D01*
X229285714Y-122130952D01*
X229333333Y-122083333D01*
X229428571Y-122035714D01*
X229571429Y-122035714D01*
X229666667Y-122083333D01*
X229714286Y-122130952D01*
X229761905Y-122226190D01*
X229761905Y-122511905D01*
X229714286Y-122607143D01*
X229666667Y-122654762D01*
X229571429Y-122702381D01*
X229428571Y-122702381D01*
X233961905Y-109361905D02*
X233695238Y-108980952D01*
X233504762Y-109361905D02*
X233504762Y-108561905D01*
X233809524Y-108561905D01*
X233885715Y-108600000D01*
X233923810Y-108638095D01*
X233961905Y-108714286D01*
X233961905Y-108828571D01*
X233923810Y-108904762D01*
X233885715Y-108942857D01*
X233809524Y-108980952D01*
X233504762Y-108980952D01*
X234266667Y-109323810D02*
X234380953Y-109361905D01*
X234571429Y-109361905D01*
X234647619Y-109323810D01*
X234685715Y-109285714D01*
X234723810Y-109209524D01*
X234723810Y-109133333D01*
X234685715Y-109057143D01*
X234647619Y-109019048D01*
X234571429Y-108980952D01*
X234419048Y-108942857D01*
X234342857Y-108904762D01*
X234304762Y-108866667D01*
X234266667Y-108790476D01*
X234266667Y-108714286D01*
X234304762Y-108638095D01*
X234342857Y-108600000D01*
X234419048Y-108561905D01*
X234609524Y-108561905D01*
X234723810Y-108600000D01*
X234952381Y-108561905D02*
X235409524Y-108561905D01*
X235180953Y-109361905D02*
X235180953Y-108561905D01*
X233530953Y-111861905D02*
X233530953Y-111061905D01*
X233721429Y-111061905D01*
X233835715Y-111100000D01*
X233911906Y-111176190D01*
X233950001Y-111252381D01*
X233988096Y-111404762D01*
X233988096Y-111519048D01*
X233950001Y-111671429D01*
X233911906Y-111747619D01*
X233835715Y-111823810D01*
X233721429Y-111861905D01*
X233530953Y-111861905D01*
X234330953Y-111861905D02*
X234330953Y-111061905D01*
X234864286Y-111061905D02*
X235016667Y-111061905D01*
X235092858Y-111100000D01*
X235169048Y-111176190D01*
X235207143Y-111328571D01*
X235207143Y-111595238D01*
X235169048Y-111747619D01*
X235092858Y-111823810D01*
X235016667Y-111861905D01*
X234864286Y-111861905D01*
X234788096Y-111823810D01*
X234711905Y-111747619D01*
X234673810Y-111595238D01*
X234673810Y-111328571D01*
X234711905Y-111176190D01*
X234788096Y-111100000D01*
X234864286Y-111061905D01*
X233640477Y-113600000D02*
X233564286Y-113561905D01*
X233450001Y-113561905D01*
X233335715Y-113600000D01*
X233259524Y-113676190D01*
X233221429Y-113752381D01*
X233183334Y-113904762D01*
X233183334Y-114019048D01*
X233221429Y-114171429D01*
X233259524Y-114247619D01*
X233335715Y-114323810D01*
X233450001Y-114361905D01*
X233526191Y-114361905D01*
X233640477Y-114323810D01*
X233678572Y-114285714D01*
X233678572Y-114019048D01*
X233526191Y-114019048D01*
X234021429Y-114361905D02*
X234021429Y-113561905D01*
X234478572Y-114361905D01*
X234478572Y-113561905D01*
X234859524Y-114361905D02*
X234859524Y-113561905D01*
X235050000Y-113561905D01*
X235164286Y-113600000D01*
X235240477Y-113676190D01*
X235278572Y-113752381D01*
X235316667Y-113904762D01*
X235316667Y-114019048D01*
X235278572Y-114171429D01*
X235240477Y-114247619D01*
X235164286Y-114323810D01*
X235050000Y-114361905D01*
X234859524Y-114361905D01*
X233773810Y-116785714D02*
X233735715Y-116823810D01*
X233621429Y-116861905D01*
X233545239Y-116861905D01*
X233430953Y-116823810D01*
X233354762Y-116747619D01*
X233316667Y-116671429D01*
X233278572Y-116519048D01*
X233278572Y-116404762D01*
X233316667Y-116252381D01*
X233354762Y-116176190D01*
X233430953Y-116100000D01*
X233545239Y-116061905D01*
X233621429Y-116061905D01*
X233735715Y-116100000D01*
X233773810Y-116138095D01*
X234497620Y-116861905D02*
X234116667Y-116861905D01*
X234116667Y-116061905D01*
X234764286Y-116861905D02*
X234764286Y-116061905D01*
X235221429Y-116861905D02*
X234878572Y-116404762D01*
X235221429Y-116061905D02*
X234764286Y-116519048D01*
X233183333Y-118561905D02*
X233450000Y-119361905D01*
X233716667Y-118561905D01*
X234440476Y-119285714D02*
X234402381Y-119323810D01*
X234288095Y-119361905D01*
X234211905Y-119361905D01*
X234097619Y-119323810D01*
X234021428Y-119247619D01*
X233983333Y-119171429D01*
X233945238Y-119019048D01*
X233945238Y-118904762D01*
X233983333Y-118752381D01*
X234021428Y-118676190D01*
X234097619Y-118600000D01*
X234211905Y-118561905D01*
X234288095Y-118561905D01*
X234402381Y-118600000D01*
X234440476Y-118638095D01*
X235240476Y-119285714D02*
X235202381Y-119323810D01*
X235088095Y-119361905D01*
X235011905Y-119361905D01*
X234897619Y-119323810D01*
X234821428Y-119247619D01*
X234783333Y-119171429D01*
X234745238Y-119019048D01*
X234745238Y-118904762D01*
X234783333Y-118752381D01*
X234821428Y-118676190D01*
X234897619Y-118600000D01*
X235011905Y-118561905D01*
X235088095Y-118561905D01*
X235202381Y-118600000D01*
X235240476Y-118638095D01*
X233640477Y-128850000D02*
X233564286Y-128811905D01*
X233450001Y-128811905D01*
X233335715Y-128850000D01*
X233259524Y-128926190D01*
X233221429Y-129002381D01*
X233183334Y-129154762D01*
X233183334Y-129269048D01*
X233221429Y-129421429D01*
X233259524Y-129497619D01*
X233335715Y-129573810D01*
X233450001Y-129611905D01*
X233526191Y-129611905D01*
X233640477Y-129573810D01*
X233678572Y-129535714D01*
X233678572Y-129269048D01*
X233526191Y-129269048D01*
X234021429Y-129611905D02*
X234021429Y-128811905D01*
X234478572Y-129611905D01*
X234478572Y-128811905D01*
X234859524Y-129611905D02*
X234859524Y-128811905D01*
X235050000Y-128811905D01*
X235164286Y-128850000D01*
X235240477Y-128926190D01*
X235278572Y-129002381D01*
X235316667Y-129154762D01*
X235316667Y-129269048D01*
X235278572Y-129421429D01*
X235240477Y-129497619D01*
X235164286Y-129573810D01*
X235050000Y-129611905D01*
X234859524Y-129611905D01*
X235652381Y-105661905D02*
X235842857Y-106461905D01*
X235995238Y-105890476D01*
X236147619Y-106461905D01*
X236338095Y-105661905D01*
X236604762Y-106233333D02*
X236985714Y-106233333D01*
X236528571Y-106461905D02*
X236795238Y-105661905D01*
X237061905Y-106461905D01*
X237328571Y-106461905D02*
X237328571Y-105661905D01*
X237785714Y-106461905D02*
X237442857Y-106004762D01*
X237785714Y-105661905D02*
X237328571Y-106119048D01*
X238128571Y-106042857D02*
X238395238Y-106042857D01*
X238509524Y-106461905D02*
X238128571Y-106461905D01*
X238128571Y-105661905D01*
X238509524Y-105661905D01*
X231447619Y-132192857D02*
X231180952Y-132192857D01*
X231180952Y-132611905D02*
X231180952Y-131811905D01*
X231561905Y-131811905D01*
X231866666Y-132192857D02*
X232133333Y-132192857D01*
X232247619Y-132611905D02*
X231866666Y-132611905D01*
X231866666Y-131811905D01*
X232247619Y-131811905D01*
X232476190Y-131811905D02*
X232933333Y-131811905D01*
X232704762Y-132611905D02*
X232704762Y-131811905D01*
X234004762Y-132611905D02*
X233738095Y-132230952D01*
X233547619Y-132611905D02*
X233547619Y-131811905D01*
X233852381Y-131811905D01*
X233928572Y-131850000D01*
X233966667Y-131888095D01*
X234004762Y-131964286D01*
X234004762Y-132078571D01*
X233966667Y-132154762D01*
X233928572Y-132192857D01*
X233852381Y-132230952D01*
X233547619Y-132230952D01*
X234347619Y-132611905D02*
X234347619Y-131811905D01*
X234538095Y-131811905D01*
X234652381Y-131850000D01*
X234728572Y-131926190D01*
X234766667Y-132002381D01*
X234804762Y-132154762D01*
X234804762Y-132269048D01*
X234766667Y-132421429D01*
X234728572Y-132497619D01*
X234652381Y-132573810D01*
X234538095Y-132611905D01*
X234347619Y-132611905D01*
X235300000Y-132230952D02*
X235300000Y-132611905D01*
X235033333Y-131811905D02*
X235300000Y-132230952D01*
X235566667Y-131811905D01*
X236390476Y-131811905D02*
X236847619Y-131811905D01*
X236619048Y-132611905D02*
X236619048Y-131811905D01*
X237038096Y-131811905D02*
X237571429Y-132611905D01*
X237571429Y-131811905D02*
X237038096Y-132611905D01*
X221740476Y-129785714D02*
X221702381Y-129823810D01*
X221588095Y-129861905D01*
X221511905Y-129861905D01*
X221397619Y-129823810D01*
X221321428Y-129747619D01*
X221283333Y-129671429D01*
X221245238Y-129519048D01*
X221245238Y-129404762D01*
X221283333Y-129252381D01*
X221321428Y-129176190D01*
X221397619Y-129100000D01*
X221511905Y-129061905D01*
X221588095Y-129061905D01*
X221702381Y-129100000D01*
X221740476Y-129138095D01*
X222235714Y-129061905D02*
X222388095Y-129061905D01*
X222464286Y-129100000D01*
X222540476Y-129176190D01*
X222578571Y-129328571D01*
X222578571Y-129595238D01*
X222540476Y-129747619D01*
X222464286Y-129823810D01*
X222388095Y-129861905D01*
X222235714Y-129861905D01*
X222159524Y-129823810D01*
X222083333Y-129747619D01*
X222045238Y-129595238D01*
X222045238Y-129328571D01*
X222083333Y-129176190D01*
X222159524Y-129100000D01*
X222235714Y-129061905D01*
X222921428Y-129861905D02*
X222921428Y-129061905D01*
X223188095Y-129633333D01*
X223454762Y-129061905D01*
X223454762Y-129861905D01*
X224254762Y-129861905D02*
X223797619Y-129861905D01*
X224026190Y-129861905D02*
X224026190Y-129061905D01*
X223950000Y-129176190D01*
X223873809Y-129252381D01*
X223797619Y-129290476D01*
X228350000Y-127375000D02*
X227150000Y-127375000D01*
X227150000Y-125625000D02*
X228350000Y-125625000D01*
X229975000Y-116050000D02*
X225525000Y-116050000D01*
X231500000Y-122950000D02*
X225525000Y-122950000D01*
D13*
X235740000Y-122810000D02*
X235620000Y-122810000D01*
X235620000Y-122810000D02*
X235620000Y-128130000D01*
X235620000Y-128130000D02*
X238400000Y-128130000D01*
X238400000Y-128130000D02*
X238400000Y-125470000D01*
X238400000Y-125470000D02*
X235740000Y-125470000D01*
X235740000Y-125470000D02*
X235740000Y-122810000D01*
X237010000Y-122810000D02*
X238400000Y-122810000D01*
X238400000Y-122810000D02*
X238400000Y-124200000D01*
D11*
X235240000Y-122510000D02*
X236240000Y-122510000D01*
X236240000Y-120810000D02*
X235240000Y-120810000D01*
X227250000Y-115300000D02*
X228250000Y-115300000D01*
X228250000Y-113600000D02*
X227250000Y-113600000D01*
X228150000Y-123450000D02*
X227150000Y-123450000D01*
X227150000Y-125150000D02*
X228150000Y-125150000D01*
D13*
X235620000Y-105150000D02*
X235620000Y-105270000D01*
X235620000Y-105270000D02*
X238400000Y-105270000D01*
X238400000Y-105270000D02*
X238400000Y-105150000D01*
X238400000Y-105150000D02*
X235620000Y-105150000D01*
X235620000Y-103880000D02*
X235620000Y-102490000D01*
X235620000Y-102490000D02*
X237010000Y-102490000D01*
X235620000Y-110230000D02*
X235620000Y-120510000D01*
X235620000Y-120510000D02*
X238400000Y-120510000D01*
X238400000Y-120510000D02*
X238400000Y-110230000D01*
X238400000Y-110230000D02*
X235620000Y-110230000D01*
X235620000Y-108960000D02*
X235620000Y-107570000D01*
X235620000Y-107570000D02*
X237010000Y-107570000D01*
D11*
X232525000Y-126100000D02*
X232525000Y-124900000D01*
X234275000Y-124900000D02*
X234275000Y-126100000D01*
D13*
X230550000Y-127900000D02*
X230150000Y-127900000D01*
X230550000Y-134500000D02*
X230550000Y-127900000D01*
X224950000Y-134100000D02*
X224950000Y-128900000D01*
D11*
X235650000Y-102300000D02*
X236650000Y-102300000D01*
X236650000Y-100600000D02*
X235650000Y-100600000D01*
X235650000Y-100200000D02*
X236650000Y-100200000D01*
X236650000Y-98500000D02*
X235650000Y-98500000D01*
D13*
X235740000Y-132970000D02*
X230540000Y-132970000D01*
X230540000Y-132970000D02*
X230540000Y-135750000D01*
X230540000Y-135750000D02*
X235740000Y-135750000D01*
X235740000Y-135750000D02*
X235740000Y-132970000D01*
X237010000Y-132970000D02*
X238400000Y-132970000D01*
X238400000Y-132970000D02*
X238400000Y-134360000D01*
X235620000Y-130550000D02*
X235620000Y-130670000D01*
X235620000Y-130670000D02*
X238400000Y-130670000D01*
X238400000Y-130670000D02*
X238400000Y-130550000D01*
X238400000Y-130550000D02*
X235620000Y-130550000D01*
X235620000Y-129280000D02*
X235620000Y-127890000D01*
X235620000Y-127890000D02*
X237010000Y-127890000D01*
D11*
X222891530Y-103583502D02*
X223076288Y-103341915D01*
X223076288Y-103341915D02*
X223227458Y-103175639D01*
X223227458Y-103175639D02*
X223427868Y-103018046D01*
X223427868Y-103018046D02*
X223634654Y-102881885D01*
X223634654Y-102881885D02*
X223312569Y-102865710D01*
X223312569Y-102865710D02*
X223171818Y-102972897D01*
X223171818Y-102972897D02*
X222933181Y-103174521D01*
X222773869Y-98952718D02*
X223032966Y-100074756D01*
X223032966Y-100074756D02*
X223230570Y-100566541D01*
X223230570Y-100566541D02*
X223309998Y-101037488D01*
X223309998Y-101037488D02*
X223233592Y-101470804D01*
X223233592Y-101470804D02*
X223145032Y-101973056D01*
X223145032Y-101973056D02*
X222890220Y-102496764D01*
X222890220Y-102496764D02*
X222822497Y-102880839D01*
X222822497Y-102880839D02*
X222874189Y-103854609D01*
X222874189Y-103854609D02*
X222906112Y-104307026D01*
X222906112Y-104307026D02*
X222856872Y-104298344D01*
X223223047Y-96462891D02*
X223054488Y-96555021D01*
X223054488Y-96555021D02*
X222932862Y-96726506D01*
X222932862Y-96726506D02*
X223013978Y-96842352D01*
X223013978Y-96842352D02*
X223161129Y-96929224D01*
X223161129Y-96929224D02*
X223345340Y-96921088D01*
X223345340Y-96921088D02*
X223493037Y-96774509D01*
X223493037Y-96774509D02*
X223484331Y-96651122D01*
X223484331Y-96651122D02*
X223414799Y-96527165D01*
X223414799Y-96527165D02*
X223244480Y-96456516D01*
X222000744Y-96369217D02*
X221844364Y-96565037D01*
X221844364Y-96565037D02*
X221798621Y-96709286D01*
X221798621Y-96709286D02*
X221881473Y-96815283D01*
X221881473Y-96815283D02*
X222015303Y-96920115D01*
X222015303Y-96920115D02*
X222180389Y-96847681D01*
X222180389Y-96847681D02*
X222324613Y-96720798D01*
X222324613Y-96720798D02*
X222361674Y-96625790D01*
X222361674Y-96625790D02*
X222267237Y-96527904D01*
X222267237Y-96527904D02*
X222021606Y-96423667D01*
X221967871Y-97419465D02*
X222255821Y-97744403D01*
X222255821Y-97744403D02*
X222391386Y-97839387D01*
X222391386Y-97839387D02*
X222578500Y-97872380D01*
X222578500Y-97872380D02*
X222726221Y-97898427D01*
X222726221Y-97898427D02*
X222883790Y-97926211D01*
X222883790Y-97926211D02*
X223043667Y-97883322D01*
X223043667Y-97883322D02*
X223303166Y-97736147D01*
X223303166Y-97736147D02*
X223446224Y-97558287D01*
X223446224Y-97558287D02*
X223602604Y-97362467D01*
X223602604Y-97362467D02*
X223511664Y-97417512D01*
X224079403Y-97710551D02*
X224406199Y-98275887D01*
X224406199Y-98275887D02*
X224540671Y-98837774D01*
X224540671Y-98837774D02*
X224460793Y-99290786D01*
X224460793Y-99290786D02*
X224226794Y-99523691D01*
X224226794Y-99523691D02*
X223836963Y-99718964D01*
X223836963Y-99718964D02*
X223502128Y-99659923D01*
X223502128Y-99659923D02*
X223232733Y-99460108D01*
X223232733Y-99460108D02*
X223078613Y-99240001D01*
X223078613Y-99240001D02*
X222918093Y-98825835D01*
X222918093Y-98825835D02*
X222800463Y-98571546D01*
X223956419Y-96450045D02*
X224619690Y-96374066D01*
X224619690Y-96374066D02*
X225117303Y-96431346D01*
X225117303Y-96431346D02*
X225580211Y-96858214D01*
X225580211Y-96858214D02*
X225586063Y-97285725D01*
X225586063Y-97285725D02*
X225533969Y-97581168D01*
X225533969Y-97581168D02*
X225332416Y-97860411D01*
X225332416Y-97860411D02*
X224968632Y-97907963D01*
X224968632Y-97907963D02*
X224659298Y-97934653D01*
X224659298Y-97934653D02*
X224331410Y-97836220D01*
X224331410Y-97836220D02*
X224118796Y-97717497D01*
X224118796Y-97717497D02*
X223973382Y-97620776D01*
X221363143Y-97739314D02*
X221116442Y-98274607D01*
X221116442Y-98274607D02*
X220978070Y-98829002D01*
X220978070Y-98829002D02*
X221151935Y-99397835D01*
X221151935Y-99397835D02*
X221580660Y-99788213D01*
X221580660Y-99788213D02*
X222170949Y-99780600D01*
X222170949Y-99780600D02*
X222448384Y-99474120D01*
X222448384Y-99474120D02*
X222625601Y-99160123D01*
X222625601Y-99160123D02*
X222753578Y-98837444D01*
X222753578Y-98837444D02*
X222800463Y-98571546D01*
X221467211Y-96285295D02*
X220905324Y-96419768D01*
X220905324Y-96419768D02*
X220444820Y-96612734D01*
X220444820Y-96612734D02*
X220235156Y-96880392D01*
X220235156Y-96880392D02*
X220119335Y-97134135D01*
X220119335Y-97134135D02*
X220074186Y-97390185D01*
X220074186Y-97390185D02*
X220103183Y-97628846D01*
X220103183Y-97628846D02*
X220394035Y-97994913D01*
X220394035Y-97994913D02*
X220768262Y-98060900D01*
X220768262Y-98060900D02*
X220976213Y-97975716D01*
X220976213Y-97975716D02*
X221294206Y-97727159D01*
X221294206Y-97727159D02*
X221363143Y-97739314D01*
X222955316Y-95735347D02*
X222726407Y-95075574D01*
X222726407Y-95075574D02*
X222424566Y-94829420D01*
X222424566Y-94829420D02*
X221867269Y-94649920D01*
X221867269Y-94649920D02*
X221425866Y-94734557D01*
X221425866Y-94734557D02*
X221078329Y-94977905D01*
X221078329Y-94977905D02*
X220864075Y-95559536D01*
X220864075Y-95559536D02*
X220978256Y-96006148D01*
X220978256Y-96006148D02*
X221208259Y-96199018D01*
X221208259Y-96199018D02*
X221427819Y-96278350D01*
X221427819Y-96278350D02*
X221506604Y-96292241D01*
X221506604Y-96292241D02*
X221499658Y-96331634D01*
X222962262Y-95695955D02*
X223175970Y-95347775D01*
X223175970Y-95347775D02*
X223435469Y-95200601D01*
X223435469Y-95200601D02*
X223832246Y-94965935D01*
X223832246Y-94965935D02*
X224213419Y-94992529D01*
X224213419Y-94992529D02*
X224561599Y-95206237D01*
X224561599Y-95206237D02*
X224657225Y-95527726D01*
X224657225Y-95527726D02*
X224635841Y-95879355D01*
X224635841Y-95879355D02*
X224563455Y-96059523D01*
X224563455Y-96059523D02*
X224389687Y-96181197D01*
X224389687Y-96181197D02*
X224188681Y-96226988D01*
X224188681Y-96226988D02*
X223943074Y-96295378D01*
X224136271Y-97115815D02*
G75*
G03X224136271Y-97115815I-1414214J0D01*
G01*
X227675000Y-103800000D02*
X227675000Y-103825000D01*
X231825000Y-103800000D02*
X231825000Y-103915000D01*
X231825000Y-112700000D02*
X231825000Y-112585000D01*
X227675000Y-112700000D02*
X227675000Y-112585000D01*
X227675000Y-103800000D02*
X231825000Y-103800000D01*
X227675000Y-112700000D02*
X231825000Y-112700000D01*
X227675000Y-103825000D02*
X226300000Y-103825000D01*
X227675000Y-94550000D02*
X227675000Y-94575000D01*
X231825000Y-94550000D02*
X231825000Y-94665000D01*
X231825000Y-103450000D02*
X231825000Y-103335000D01*
X227675000Y-103450000D02*
X227675000Y-103335000D01*
X227675000Y-94550000D02*
X231825000Y-94550000D01*
X227675000Y-103450000D02*
X231825000Y-103450000D01*
X227675000Y-94575000D02*
X226300000Y-94575000D01*
X224083334Y-126952381D02*
X223750000Y-126476190D01*
X223511905Y-126952381D02*
X223511905Y-125952381D01*
X223892858Y-125952381D01*
X223988096Y-126000000D01*
X224035715Y-126047619D01*
X224083334Y-126142857D01*
X224083334Y-126285714D01*
X224035715Y-126380952D01*
X223988096Y-126428571D01*
X223892858Y-126476190D01*
X223511905Y-126476190D01*
X224464286Y-126047619D02*
X224511905Y-126000000D01*
X224607143Y-125952381D01*
X224845239Y-125952381D01*
X224940477Y-126000000D01*
X224988096Y-126047619D01*
X225035715Y-126142857D01*
X225035715Y-126238095D01*
X224988096Y-126380952D01*
X224416667Y-126952381D01*
X225035715Y-126952381D01*
X227238095Y-120702381D02*
X227238095Y-121511905D01*
X227285714Y-121607143D01*
X227333333Y-121654762D01*
X227428571Y-121702381D01*
X227619048Y-121702381D01*
X227714286Y-121654762D01*
X227761905Y-121607143D01*
X227809524Y-121511905D01*
X227809524Y-120702381D01*
X228238095Y-120797619D02*
X228285714Y-120750000D01*
X228380952Y-120702381D01*
X228619048Y-120702381D01*
X228714286Y-120750000D01*
X228761905Y-120797619D01*
X228809524Y-120892857D01*
X228809524Y-120988095D01*
X228761905Y-121130952D01*
X228190476Y-121702381D01*
X228809524Y-121702381D01*
X234928571Y-126285714D02*
X234976190Y-126142857D01*
X235023810Y-126095238D01*
X235119048Y-126047619D01*
X235261905Y-126047619D01*
X235357143Y-126095238D01*
X235404762Y-126142857D01*
X235452381Y-126238095D01*
X235452381Y-126619048D01*
X234452381Y-126619048D01*
X234452381Y-126285714D01*
X234500000Y-126190476D01*
X234547619Y-126142857D01*
X234642857Y-126095238D01*
X234738095Y-126095238D01*
X234833333Y-126142857D01*
X234880952Y-126190476D01*
X234928571Y-126285714D01*
X234928571Y-126619048D01*
X234452381Y-125761905D02*
X234452381Y-125190476D01*
X235452381Y-125476191D02*
X234452381Y-125476191D01*
X235452381Y-124333333D02*
X235452381Y-124904762D01*
X235452381Y-124619048D02*
X234452381Y-124619048D01*
X234595238Y-124714286D01*
X234690476Y-124809524D01*
X234738095Y-124904762D01*
X232443334Y-121952143D02*
X232395715Y-121999762D01*
X232252858Y-122047381D01*
X232157620Y-122047381D01*
X232014762Y-121999762D01*
X231919524Y-121904524D01*
X231871905Y-121809286D01*
X231824286Y-121618810D01*
X231824286Y-121475952D01*
X231871905Y-121285476D01*
X231919524Y-121190238D01*
X232014762Y-121095000D01*
X232157620Y-121047381D01*
X232252858Y-121047381D01*
X232395715Y-121095000D01*
X232443334Y-121142619D01*
X233395715Y-122047381D02*
X232824286Y-122047381D01*
X233110000Y-122047381D02*
X233110000Y-121047381D01*
X233014762Y-121190238D01*
X232919524Y-121285476D01*
X232824286Y-121333095D01*
X224466667Y-114735714D02*
X224428572Y-114773810D01*
X224314286Y-114811905D01*
X224238096Y-114811905D01*
X224123810Y-114773810D01*
X224047619Y-114697619D01*
X224009524Y-114621429D01*
X223971429Y-114469048D01*
X223971429Y-114354762D01*
X224009524Y-114202381D01*
X224047619Y-114126190D01*
X224123810Y-114050000D01*
X224238096Y-114011905D01*
X224314286Y-114011905D01*
X224428572Y-114050000D01*
X224466667Y-114088095D01*
X224771429Y-114088095D02*
X224809524Y-114050000D01*
X224885715Y-114011905D01*
X225076191Y-114011905D01*
X225152381Y-114050000D01*
X225190477Y-114088095D01*
X225228572Y-114164286D01*
X225228572Y-114240476D01*
X225190477Y-114354762D01*
X224733334Y-114811905D01*
X225228572Y-114811905D01*
X224083334Y-124857143D02*
X224035715Y-124904762D01*
X223892858Y-124952381D01*
X223797620Y-124952381D01*
X223654762Y-124904762D01*
X223559524Y-124809524D01*
X223511905Y-124714286D01*
X223464286Y-124523810D01*
X223464286Y-124380952D01*
X223511905Y-124190476D01*
X223559524Y-124095238D01*
X223654762Y-124000000D01*
X223797620Y-123952381D01*
X223892858Y-123952381D01*
X224035715Y-124000000D01*
X224083334Y-124047619D01*
X224416667Y-123952381D02*
X225035715Y-123952381D01*
X224702381Y-124333333D01*
X224845239Y-124333333D01*
X224940477Y-124380952D01*
X224988096Y-124428571D01*
X225035715Y-124523810D01*
X225035715Y-124761905D01*
X224988096Y-124857143D01*
X224940477Y-124904762D01*
X224845239Y-124952381D01*
X224559524Y-124952381D01*
X224464286Y-124904762D01*
X224416667Y-124857143D01*
X232202381Y-125666666D02*
X231726190Y-126000000D01*
X232202381Y-126238095D02*
X231202381Y-126238095D01*
X231202381Y-125857142D01*
X231250000Y-125761904D01*
X231297619Y-125714285D01*
X231392857Y-125666666D01*
X231535714Y-125666666D01*
X231630952Y-125714285D01*
X231678571Y-125761904D01*
X231726190Y-125857142D01*
X231726190Y-126238095D01*
X232202381Y-124714285D02*
X232202381Y-125285714D01*
X232202381Y-125000000D02*
X231202381Y-125000000D01*
X231345238Y-125095238D01*
X231440476Y-125190476D01*
X231488095Y-125285714D01*
X224304762Y-135447619D02*
X224209524Y-135400000D01*
X224114286Y-135304762D01*
X223971429Y-135161905D01*
X223876190Y-135114286D01*
X223780952Y-135114286D01*
X223828571Y-135352381D02*
X223733333Y-135304762D01*
X223638095Y-135209524D01*
X223590476Y-135019048D01*
X223590476Y-134685714D01*
X223638095Y-134495238D01*
X223733333Y-134400000D01*
X223828571Y-134352381D01*
X224019048Y-134352381D01*
X224114286Y-134400000D01*
X224209524Y-134495238D01*
X224257143Y-134685714D01*
X224257143Y-135019048D01*
X224209524Y-135209524D01*
X224114286Y-135304762D01*
X224019048Y-135352381D01*
X223828571Y-135352381D01*
X225209524Y-135352381D02*
X224638095Y-135352381D01*
X224923809Y-135352381D02*
X224923809Y-134352381D01*
X224828571Y-134495238D01*
X224733333Y-134590476D01*
X224638095Y-134638095D01*
X238866667Y-101785714D02*
X238828572Y-101823810D01*
X238714286Y-101861905D01*
X238638096Y-101861905D01*
X238523810Y-101823810D01*
X238447619Y-101747619D01*
X238409524Y-101671429D01*
X238371429Y-101519048D01*
X238371429Y-101404762D01*
X238409524Y-101252381D01*
X238447619Y-101176190D01*
X238523810Y-101100000D01*
X238638096Y-101061905D01*
X238714286Y-101061905D01*
X238828572Y-101100000D01*
X238866667Y-101138095D01*
X239552381Y-101328571D02*
X239552381Y-101861905D01*
X239361905Y-101023810D02*
X239171429Y-101595238D01*
X239666667Y-101595238D01*
X238866667Y-99585714D02*
X238828572Y-99623810D01*
X238714286Y-99661905D01*
X238638096Y-99661905D01*
X238523810Y-99623810D01*
X238447619Y-99547619D01*
X238409524Y-99471429D01*
X238371429Y-99319048D01*
X238371429Y-99204762D01*
X238409524Y-99052381D01*
X238447619Y-98976190D01*
X238523810Y-98900000D01*
X238638096Y-98861905D01*
X238714286Y-98861905D01*
X238828572Y-98900000D01*
X238866667Y-98938095D01*
X239590477Y-98861905D02*
X239209524Y-98861905D01*
X239171429Y-99242857D01*
X239209524Y-99204762D01*
X239285715Y-99166667D01*
X239476191Y-99166667D01*
X239552381Y-99204762D01*
X239590477Y-99242857D01*
X239628572Y-99319048D01*
X239628572Y-99509524D01*
X239590477Y-99585714D01*
X239552381Y-99623810D01*
X239476191Y-99661905D01*
X239285715Y-99661905D01*
X239209524Y-99623810D01*
X239171429Y-99585714D01*
X222542857Y-114150000D02*
X222542857Y-114721429D01*
X221342857Y-114721429D01*
X222428571Y-113064285D02*
X222485714Y-113121428D01*
X222542857Y-113292857D01*
X222542857Y-113407143D01*
X222485714Y-113578571D01*
X222371429Y-113692857D01*
X222257143Y-113750000D01*
X222028571Y-113807143D01*
X221857143Y-113807143D01*
X221628571Y-113750000D01*
X221514286Y-113692857D01*
X221400000Y-113578571D01*
X221342857Y-113407143D01*
X221342857Y-113292857D01*
X221400000Y-113121428D01*
X221457143Y-113064285D01*
X222542857Y-112550000D02*
X221342857Y-112550000D01*
X221342857Y-112264285D01*
X221400000Y-112092857D01*
X221514286Y-111978571D01*
X221628571Y-111921428D01*
X221857143Y-111864285D01*
X222028571Y-111864285D01*
X222257143Y-111921428D01*
X222371429Y-111978571D01*
X222485714Y-112092857D01*
X222542857Y-112264285D01*
X222542857Y-112550000D01*
X222542857Y-110721428D02*
X222542857Y-111407143D01*
X222542857Y-111064285D02*
X221342857Y-111064285D01*
X221514286Y-111178571D01*
X221628571Y-111292857D01*
X221685714Y-111407143D01*
X228838095Y-105252381D02*
X228838095Y-106061905D01*
X228885714Y-106157143D01*
X228933333Y-106204762D01*
X229028571Y-106252381D01*
X229219048Y-106252381D01*
X229314286Y-106204762D01*
X229361905Y-106157143D01*
X229409524Y-106061905D01*
X229409524Y-105252381D01*
X230409524Y-106252381D02*
X229838095Y-106252381D01*
X230123809Y-106252381D02*
X230123809Y-105252381D01*
X230028571Y-105395238D01*
X229933333Y-105490476D01*
X229838095Y-105538095D01*
X228938095Y-96052381D02*
X228938095Y-96861905D01*
X228985714Y-96957143D01*
X229033333Y-97004762D01*
X229128571Y-97052381D01*
X229319048Y-97052381D01*
X229414286Y-97004762D01*
X229461905Y-96957143D01*
X229509524Y-96861905D01*
X229509524Y-96052381D01*
X229890476Y-96052381D02*
X230509524Y-96052381D01*
X230176190Y-96433333D01*
X230319048Y-96433333D01*
X230414286Y-96480952D01*
X230461905Y-96528571D01*
X230509524Y-96623810D01*
X230509524Y-96861905D01*
X230461905Y-96957143D01*
X230414286Y-97004762D01*
X230319048Y-97052381D01*
X230033333Y-97052381D01*
X229938095Y-97004762D01*
X229890476Y-96957143D01*
M02*
