G04 #@! TF.FileFunction,Copper,L2,Bot,Signal*
%FSLAX46Y46*%
G04 Gerber Fmt 4.6, Leading zero omitted, Abs format (unit mm)*
G04 Created by KiCad (PCBNEW 4.0.6) date Thursday, 09 November 2017 'PMt' 14:35:22*
%MOMM*%
%LPD*%
G01*
G04 APERTURE LIST*
%ADD10C,0.100000*%
%ADD11R,1.700000X1.700000*%
%ADD12O,1.700000X1.700000*%
%ADD13R,3.500000X1.000000*%
%ADD14C,0.762000*%
%ADD15C,0.254000*%
G04 APERTURE END LIST*
D10*
D11*
X237010000Y-124200000D03*
D12*
X237010000Y-126740000D03*
D11*
X237010000Y-103880000D03*
X237010000Y-108960000D03*
D12*
X237010000Y-111500000D03*
X237010000Y-114040000D03*
X237010000Y-116580000D03*
X237010000Y-119120000D03*
D11*
X237010000Y-134360000D03*
D12*
X234470000Y-134360000D03*
X231930000Y-134360000D03*
D11*
X237010000Y-129280000D03*
D13*
X218750000Y-99500000D03*
X218750000Y-101500000D03*
X218750000Y-103500000D03*
X218750000Y-105500000D03*
X218750000Y-107500000D03*
X218750000Y-109500000D03*
X218750000Y-111500000D03*
X218750000Y-113500000D03*
X218750000Y-115500000D03*
X218750000Y-117500000D03*
X218750000Y-119500000D03*
X218750000Y-121500000D03*
X218750000Y-123500000D03*
X218750000Y-125500000D03*
X218750000Y-127500000D03*
X218750000Y-129500000D03*
D14*
X230750562Y-124310683D03*
X232750000Y-119000004D03*
X232750000Y-120200004D03*
X226950000Y-121716990D03*
X227650000Y-122700000D03*
X228050000Y-120100000D03*
X228283070Y-100131451D03*
X223120022Y-118341417D03*
X227238338Y-101525691D03*
X223141645Y-106539680D03*
X223187306Y-117309293D03*
X223170022Y-110000000D03*
X223574033Y-116391699D03*
X233250000Y-131000000D03*
X223700000Y-123250002D03*
X231650000Y-126600000D03*
X226758010Y-108857579D03*
X226750000Y-116600000D03*
X228870043Y-106900000D03*
X229250000Y-117283010D03*
X233150002Y-116200000D03*
X233150000Y-108200000D03*
X232750000Y-117800000D03*
X232350000Y-109500000D03*
X233150000Y-122750000D03*
X230700000Y-123350000D03*
X221299361Y-105499361D03*
X229050000Y-98300000D03*
X221300000Y-107400000D03*
X227150000Y-99500000D03*
X221300000Y-109500000D03*
X227150000Y-100500000D03*
D15*
X221248722Y-113500000D02*
X221249361Y-113499361D01*
X237010000Y-124200000D02*
X230861245Y-124200000D01*
X230861245Y-124200000D02*
X230750562Y-124310683D01*
X237010000Y-124200000D02*
X237010000Y-119120000D01*
X233130999Y-118619005D02*
X232750000Y-119000004D01*
X234050000Y-117700004D02*
X233130999Y-118619005D01*
X234050000Y-107944000D02*
X234050000Y-117700004D01*
X237010000Y-104984000D02*
X234050000Y-107944000D01*
X237010000Y-103880000D02*
X237010000Y-104984000D01*
X233130999Y-119819005D02*
X232750000Y-120200004D01*
X234650000Y-118300004D02*
X233130999Y-119819005D01*
X234650000Y-110216000D02*
X234650000Y-118300004D01*
X235906000Y-108960000D02*
X234650000Y-110216000D01*
X237010000Y-108960000D02*
X235906000Y-108960000D01*
X227488815Y-121716990D02*
X226950000Y-121716990D01*
X232493098Y-121716990D02*
X227488815Y-121716990D01*
X237010000Y-111500000D02*
X235204010Y-113305990D01*
X235204010Y-119006078D02*
X232493098Y-121716990D01*
X235204010Y-113305990D02*
X235204010Y-119006078D01*
X236160001Y-117429999D02*
X237010000Y-116580000D01*
X235658021Y-119194135D02*
X235658021Y-117931979D01*
X235658021Y-117931979D02*
X236160001Y-117429999D01*
X232533155Y-122319001D02*
X235658021Y-119194135D01*
X228030999Y-122319001D02*
X232533155Y-122319001D01*
X227650000Y-122700000D02*
X228030999Y-122319001D01*
X228283070Y-100670266D02*
X228050000Y-100903336D01*
X228050000Y-100903336D02*
X228050000Y-119561185D01*
X228050000Y-119561185D02*
X228050000Y-120100000D01*
X228283070Y-100131451D02*
X228283070Y-100670266D01*
X223658837Y-118341417D02*
X223120022Y-118341417D01*
X227458002Y-117591998D02*
X226708583Y-118341417D01*
X227238338Y-101525691D02*
X227238338Y-102064506D01*
X227466012Y-109197421D02*
X227458002Y-109205431D01*
X227238338Y-102064506D02*
X227466012Y-102292180D01*
X227458002Y-109205431D02*
X227458002Y-117591998D01*
X226708583Y-118341417D02*
X223658837Y-118341417D01*
X227466012Y-102292180D02*
X227466012Y-109197421D01*
X223141645Y-107078495D02*
X223141645Y-106539680D01*
X222041999Y-109050069D02*
X223141645Y-107950423D01*
X222041999Y-116163986D02*
X222041999Y-109050069D01*
X223141645Y-107950423D02*
X223141645Y-107078495D01*
X223187306Y-117309293D02*
X222041999Y-116163986D01*
X223170022Y-115987688D02*
X223170022Y-110538815D01*
X223574033Y-116391699D02*
X223170022Y-115987688D01*
X223170022Y-110538815D02*
X223170022Y-110000000D01*
X231449998Y-131000000D02*
X232711185Y-131000000D01*
X223700000Y-123250002D02*
X231449998Y-131000000D01*
X232711185Y-131000000D02*
X233250000Y-131000000D01*
X234470000Y-133157919D02*
X234470000Y-134360000D01*
X234470000Y-129420000D02*
X234470000Y-133157919D01*
X231650000Y-126600000D02*
X234470000Y-129420000D01*
X226750000Y-116600000D02*
X226750000Y-108865589D01*
X226750000Y-108865589D02*
X226758010Y-108857579D01*
X229250000Y-117283010D02*
X229250000Y-107279957D01*
X229250000Y-107279957D02*
X228870043Y-106900000D01*
X233150000Y-116199998D02*
X233150002Y-116200000D01*
X233150000Y-108200000D02*
X233150000Y-116199998D01*
X232350000Y-109500000D02*
X232350000Y-117400000D01*
X232350000Y-117400000D02*
X232369001Y-117419001D01*
X232369001Y-117419001D02*
X232750000Y-117800000D01*
X230700000Y-123350000D02*
X232550000Y-123350000D01*
X232550000Y-123350000D02*
X233150000Y-122750000D01*
X221299361Y-104200639D02*
X221299361Y-104960546D01*
X221299361Y-104960546D02*
X221299361Y-105499361D01*
X229050000Y-98300000D02*
X227200000Y-98300000D01*
X227200000Y-98300000D02*
X221299361Y-104200639D01*
X222008001Y-106153184D02*
X222008001Y-105539841D01*
X221300000Y-106861185D02*
X222008001Y-106153184D01*
X222804011Y-103798145D02*
X226721157Y-99880999D01*
X226769001Y-99880999D02*
X227150000Y-99500000D01*
X221300000Y-107400000D02*
X221300000Y-106861185D01*
X222804011Y-104743831D02*
X222804011Y-103798145D01*
X222008001Y-105539841D02*
X222804011Y-104743831D01*
X226721157Y-99880999D02*
X226769001Y-99880999D01*
X221300000Y-109500000D02*
X221300000Y-108961185D01*
X221300000Y-108961185D02*
X222254011Y-108007174D01*
X222254011Y-108007174D02*
X222254011Y-106549242D01*
X222254011Y-106549242D02*
X222462012Y-106341241D01*
X222462012Y-106341241D02*
X222462012Y-106027898D01*
X222462012Y-106027898D02*
X223258022Y-105231888D01*
X223258022Y-105231888D02*
X223258022Y-104391978D01*
X223258022Y-104391978D02*
X226769001Y-100880999D01*
X226769001Y-100880999D02*
X227150000Y-100500000D01*
G36*
X239290000Y-135790000D02*
X238131312Y-135790000D01*
X238311441Y-135674090D01*
X238456431Y-135461890D01*
X238507440Y-135210000D01*
X238507440Y-133510000D01*
X238463162Y-133274683D01*
X238324090Y-133058559D01*
X238111890Y-132913569D01*
X237860000Y-132862560D01*
X236160000Y-132862560D01*
X235924683Y-132906838D01*
X235708559Y-133045910D01*
X235563569Y-133258110D01*
X235549914Y-133325541D01*
X235520054Y-133280853D01*
X235232000Y-133088382D01*
X235232000Y-129565750D01*
X235525000Y-129565750D01*
X235525000Y-130256310D01*
X235621673Y-130489699D01*
X235800302Y-130668327D01*
X236033691Y-130765000D01*
X236724250Y-130765000D01*
X236883000Y-130606250D01*
X236883000Y-129407000D01*
X237137000Y-129407000D01*
X237137000Y-130606250D01*
X237295750Y-130765000D01*
X237986309Y-130765000D01*
X238219698Y-130668327D01*
X238398327Y-130489699D01*
X238495000Y-130256310D01*
X238495000Y-129565750D01*
X238336250Y-129407000D01*
X237137000Y-129407000D01*
X236883000Y-129407000D01*
X235683750Y-129407000D01*
X235525000Y-129565750D01*
X235232000Y-129565750D01*
X235232000Y-129420000D01*
X235173996Y-129128395D01*
X235084363Y-128994250D01*
X235008815Y-128881184D01*
X234431321Y-128303690D01*
X235525000Y-128303690D01*
X235525000Y-128994250D01*
X235683750Y-129153000D01*
X236883000Y-129153000D01*
X236883000Y-126867000D01*
X237137000Y-126867000D01*
X237137000Y-129153000D01*
X238336250Y-129153000D01*
X238495000Y-128994250D01*
X238495000Y-128303690D01*
X238398327Y-128070301D01*
X238219698Y-127891673D01*
X238005792Y-127803070D01*
X238205183Y-127621358D01*
X238451486Y-127096892D01*
X238330819Y-126867000D01*
X237137000Y-126867000D01*
X236883000Y-126867000D01*
X235689181Y-126867000D01*
X235568514Y-127096892D01*
X235814817Y-127621358D01*
X236014208Y-127803070D01*
X235800302Y-127891673D01*
X235621673Y-128070301D01*
X235525000Y-128303690D01*
X234431321Y-128303690D01*
X232666054Y-126538424D01*
X232666176Y-126398792D01*
X232511825Y-126025234D01*
X232226269Y-125739179D01*
X231852982Y-125584176D01*
X231448792Y-125583824D01*
X231075234Y-125738175D01*
X230789179Y-126023731D01*
X230634176Y-126397018D01*
X230633824Y-126801208D01*
X230788175Y-127174766D01*
X231073731Y-127460821D01*
X231447018Y-127615824D01*
X231588317Y-127615947D01*
X233708000Y-129735631D01*
X233708000Y-130090069D01*
X233452982Y-129984176D01*
X233048792Y-129983824D01*
X232675234Y-130138175D01*
X232575235Y-130238000D01*
X231765629Y-130238000D01*
X224716054Y-123188426D01*
X224716176Y-123048794D01*
X224561825Y-122675236D01*
X224276269Y-122389181D01*
X223902982Y-122234178D01*
X223498792Y-122233826D01*
X223125234Y-122388177D01*
X222839179Y-122673733D01*
X222684176Y-123047020D01*
X222683824Y-123451210D01*
X222838175Y-123824768D01*
X223123731Y-124110823D01*
X223497018Y-124265826D01*
X223638317Y-124265949D01*
X230911182Y-131538815D01*
X231158393Y-131703996D01*
X231449998Y-131762000D01*
X232575082Y-131762000D01*
X232673731Y-131860821D01*
X233047018Y-132015824D01*
X233451208Y-132016176D01*
X233708000Y-131910072D01*
X233708000Y-133088382D01*
X233419946Y-133280853D01*
X233200000Y-133610026D01*
X232980054Y-133280853D01*
X232498285Y-132958946D01*
X231930000Y-132845907D01*
X231361715Y-132958946D01*
X230879946Y-133280853D01*
X230558039Y-133762622D01*
X230445000Y-134330907D01*
X230445000Y-134389093D01*
X230558039Y-134957378D01*
X230879946Y-135439147D01*
X231361715Y-135761054D01*
X231507236Y-135790000D01*
X216710000Y-135790000D01*
X216710000Y-133843599D01*
X217264699Y-133843599D01*
X217528281Y-134481515D01*
X218015918Y-134970004D01*
X218653373Y-135234699D01*
X219343599Y-135235301D01*
X219981515Y-134971719D01*
X220470004Y-134484082D01*
X220734699Y-133846627D01*
X220735301Y-133156401D01*
X220471719Y-132518485D01*
X219984082Y-132029996D01*
X219346627Y-131765301D01*
X218656401Y-131764699D01*
X218018485Y-132028281D01*
X217529996Y-132515918D01*
X217265301Y-133153373D01*
X217264699Y-133843599D01*
X216710000Y-133843599D01*
X216710000Y-130570392D01*
X216748110Y-130596431D01*
X217000000Y-130647440D01*
X220500000Y-130647440D01*
X220735317Y-130603162D01*
X220951441Y-130464090D01*
X221096431Y-130251890D01*
X221147440Y-130000000D01*
X221147440Y-129000000D01*
X221103162Y-128764683D01*
X220964090Y-128548559D01*
X220894289Y-128500866D01*
X220951441Y-128464090D01*
X221096431Y-128251890D01*
X221147440Y-128000000D01*
X221147440Y-127000000D01*
X221103162Y-126764683D01*
X220964090Y-126548559D01*
X220894289Y-126500866D01*
X220951441Y-126464090D01*
X221096431Y-126251890D01*
X221147440Y-126000000D01*
X221147440Y-125000000D01*
X221103162Y-124764683D01*
X220964090Y-124548559D01*
X220894289Y-124500866D01*
X220951441Y-124464090D01*
X221096431Y-124251890D01*
X221147440Y-124000000D01*
X221147440Y-123000000D01*
X221103162Y-122764683D01*
X220964090Y-122548559D01*
X220894289Y-122500866D01*
X220951441Y-122464090D01*
X221096431Y-122251890D01*
X221147440Y-122000000D01*
X221147440Y-121000000D01*
X221103162Y-120764683D01*
X220964090Y-120548559D01*
X220894289Y-120500866D01*
X220951441Y-120464090D01*
X221096431Y-120251890D01*
X221147440Y-120000000D01*
X221147440Y-119000000D01*
X221103162Y-118764683D01*
X220964090Y-118548559D01*
X220894289Y-118500866D01*
X220951441Y-118464090D01*
X221096431Y-118251890D01*
X221147440Y-118000000D01*
X221147440Y-117000000D01*
X221103162Y-116764683D01*
X220964090Y-116548559D01*
X220894289Y-116500866D01*
X220951441Y-116464090D01*
X221096431Y-116251890D01*
X221147440Y-116000000D01*
X221147440Y-115000000D01*
X221103162Y-114764683D01*
X220964090Y-114548559D01*
X220894289Y-114500866D01*
X220951441Y-114464090D01*
X221096431Y-114251890D01*
X221100360Y-114232488D01*
X221248722Y-114261999D01*
X221279999Y-114255778D01*
X221279999Y-116163986D01*
X221338003Y-116455591D01*
X221495756Y-116691684D01*
X221503184Y-116702801D01*
X222171252Y-117370869D01*
X222171130Y-117510501D01*
X222271341Y-117753029D01*
X222259201Y-117765148D01*
X222104198Y-118138435D01*
X222103846Y-118542625D01*
X222258197Y-118916183D01*
X222543753Y-119202238D01*
X222917040Y-119357241D01*
X223321230Y-119357593D01*
X223694788Y-119203242D01*
X223794787Y-119103417D01*
X226708583Y-119103417D01*
X227000188Y-119045413D01*
X227247398Y-118880232D01*
X227288000Y-118839630D01*
X227288000Y-119425082D01*
X227189179Y-119523731D01*
X227034176Y-119897018D01*
X227033824Y-120301208D01*
X227188175Y-120674766D01*
X227258103Y-120744816D01*
X227152982Y-120701166D01*
X226748792Y-120700814D01*
X226375234Y-120855165D01*
X226089179Y-121140721D01*
X225934176Y-121514008D01*
X225933824Y-121918198D01*
X226088175Y-122291756D01*
X226373731Y-122577811D01*
X226634012Y-122685889D01*
X226633824Y-122901208D01*
X226788175Y-123274766D01*
X227073731Y-123560821D01*
X227447018Y-123715824D01*
X227851208Y-123716176D01*
X228224766Y-123561825D01*
X228510821Y-123276269D01*
X228591904Y-123081001D01*
X229711589Y-123081001D01*
X229684176Y-123147018D01*
X229683824Y-123551208D01*
X229824471Y-123891600D01*
X229734738Y-124107701D01*
X229734386Y-124511891D01*
X229888737Y-124885449D01*
X230174293Y-125171504D01*
X230547580Y-125326507D01*
X230951770Y-125326859D01*
X231325328Y-125172508D01*
X231536204Y-124962000D01*
X235512560Y-124962000D01*
X235512560Y-125050000D01*
X235556838Y-125285317D01*
X235695910Y-125501441D01*
X235908110Y-125646431D01*
X236022301Y-125669555D01*
X235814817Y-125858642D01*
X235568514Y-126383108D01*
X235689181Y-126613000D01*
X236883000Y-126613000D01*
X236883000Y-126593000D01*
X237137000Y-126593000D01*
X237137000Y-126613000D01*
X238330819Y-126613000D01*
X238451486Y-126383108D01*
X238205183Y-125858642D01*
X237999496Y-125671192D01*
X238095317Y-125653162D01*
X238311441Y-125514090D01*
X238456431Y-125301890D01*
X238507440Y-125050000D01*
X238507440Y-123350000D01*
X238463162Y-123114683D01*
X238324090Y-122898559D01*
X238111890Y-122753569D01*
X237860000Y-122702560D01*
X237772000Y-122702560D01*
X237772000Y-120381964D01*
X238089147Y-120170054D01*
X238411054Y-119688285D01*
X238524093Y-119120000D01*
X238411054Y-118551715D01*
X238089147Y-118069946D01*
X237759974Y-117850000D01*
X238089147Y-117630054D01*
X238411054Y-117148285D01*
X238524093Y-116580000D01*
X238411054Y-116011715D01*
X238089147Y-115529946D01*
X237748447Y-115302298D01*
X237891358Y-115235183D01*
X238281645Y-114806924D01*
X238451476Y-114396890D01*
X238330155Y-114167000D01*
X237137000Y-114167000D01*
X237137000Y-114187000D01*
X236883000Y-114187000D01*
X236883000Y-114167000D01*
X236863000Y-114167000D01*
X236863000Y-113913000D01*
X236883000Y-113913000D01*
X236883000Y-113893000D01*
X237137000Y-113893000D01*
X237137000Y-113913000D01*
X238330155Y-113913000D01*
X238451476Y-113683110D01*
X238281645Y-113273076D01*
X237891358Y-112844817D01*
X237748447Y-112777702D01*
X238089147Y-112550054D01*
X238411054Y-112068285D01*
X238524093Y-111500000D01*
X238411054Y-110931715D01*
X238089147Y-110449946D01*
X238047548Y-110422150D01*
X238095317Y-110413162D01*
X238311441Y-110274090D01*
X238456431Y-110061890D01*
X238507440Y-109810000D01*
X238507440Y-108110000D01*
X238463162Y-107874683D01*
X238324090Y-107658559D01*
X238111890Y-107513569D01*
X237860000Y-107462560D01*
X236160000Y-107462560D01*
X235924683Y-107506838D01*
X235708559Y-107645910D01*
X235563569Y-107858110D01*
X235512560Y-108110000D01*
X235512560Y-108324048D01*
X235367184Y-108421185D01*
X234812000Y-108976369D01*
X234812000Y-108259630D01*
X237548815Y-105522815D01*
X237645952Y-105377440D01*
X237860000Y-105377440D01*
X238095317Y-105333162D01*
X238311441Y-105194090D01*
X238456431Y-104981890D01*
X238507440Y-104730000D01*
X238507440Y-103030000D01*
X238463162Y-102794683D01*
X238324090Y-102578559D01*
X238111890Y-102433569D01*
X237860000Y-102382560D01*
X236160000Y-102382560D01*
X235924683Y-102426838D01*
X235708559Y-102565910D01*
X235563569Y-102778110D01*
X235512560Y-103030000D01*
X235512560Y-104730000D01*
X235556838Y-104965317D01*
X235695910Y-105181441D01*
X235719090Y-105197280D01*
X233620931Y-107295439D01*
X233352982Y-107184176D01*
X232948792Y-107183824D01*
X232575234Y-107338175D01*
X232289179Y-107623731D01*
X232134176Y-107997018D01*
X232133824Y-108401208D01*
X232167967Y-108483841D01*
X232148792Y-108483824D01*
X231775234Y-108638175D01*
X231489179Y-108923731D01*
X231334176Y-109297018D01*
X231333824Y-109701208D01*
X231488175Y-110074766D01*
X231588000Y-110174765D01*
X231588000Y-117400000D01*
X231646004Y-117691605D01*
X231733979Y-117823268D01*
X231733824Y-118001208D01*
X231888175Y-118374766D01*
X231913161Y-118399795D01*
X231889179Y-118423735D01*
X231734176Y-118797022D01*
X231733824Y-119201212D01*
X231888175Y-119574770D01*
X231913159Y-119599797D01*
X231889179Y-119623735D01*
X231734176Y-119997022D01*
X231733824Y-120401212D01*
X231888175Y-120774770D01*
X232068081Y-120954990D01*
X228631613Y-120954990D01*
X228910821Y-120676269D01*
X229065824Y-120302982D01*
X229066176Y-119898792D01*
X228911825Y-119525234D01*
X228812000Y-119425235D01*
X228812000Y-118201246D01*
X229047018Y-118298834D01*
X229451208Y-118299186D01*
X229824766Y-118144835D01*
X230110821Y-117859279D01*
X230265824Y-117485992D01*
X230266176Y-117081802D01*
X230111825Y-116708244D01*
X230012000Y-116608245D01*
X230012000Y-107279957D01*
X229953996Y-106988352D01*
X229886055Y-106886672D01*
X229886219Y-106698792D01*
X229731868Y-106325234D01*
X229446312Y-106039179D01*
X229073025Y-105884176D01*
X228812000Y-105883949D01*
X228812000Y-101218967D01*
X228821886Y-101209081D01*
X228961589Y-101000000D01*
X228987066Y-100961871D01*
X229011290Y-100840090D01*
X229143891Y-100707720D01*
X229298894Y-100334433D01*
X229299246Y-99930243D01*
X229144895Y-99556685D01*
X228904504Y-99315874D01*
X229251208Y-99316176D01*
X229624766Y-99161825D01*
X229910821Y-98876269D01*
X230065824Y-98502982D01*
X230066176Y-98098792D01*
X229911825Y-97725234D01*
X229626269Y-97439179D01*
X229252982Y-97284176D01*
X228848792Y-97283824D01*
X228475234Y-97438175D01*
X228375235Y-97538000D01*
X227200000Y-97538000D01*
X226908395Y-97596004D01*
X226809377Y-97662166D01*
X226661185Y-97761184D01*
X221147440Y-103274930D01*
X221147440Y-103000000D01*
X221103162Y-102764683D01*
X220964090Y-102548559D01*
X220894289Y-102500866D01*
X220951441Y-102464090D01*
X221096431Y-102251890D01*
X221147440Y-102000000D01*
X221147440Y-101000000D01*
X221103162Y-100764683D01*
X220964090Y-100548559D01*
X220894289Y-100500866D01*
X220951441Y-100464090D01*
X221096431Y-100251890D01*
X221147440Y-100000000D01*
X221147440Y-99000000D01*
X221103162Y-98764683D01*
X220964090Y-98548559D01*
X220751890Y-98403569D01*
X220500000Y-98352560D01*
X217000000Y-98352560D01*
X216764683Y-98396838D01*
X216710000Y-98432026D01*
X216710000Y-96343599D01*
X217264699Y-96343599D01*
X217528281Y-96981515D01*
X218015918Y-97470004D01*
X218653373Y-97734699D01*
X219343599Y-97735301D01*
X219981515Y-97471719D01*
X220470004Y-96984082D01*
X220734699Y-96346627D01*
X220735301Y-95656401D01*
X220471719Y-95018485D01*
X219984082Y-94529996D01*
X219346627Y-94265301D01*
X218656401Y-94264699D01*
X218018485Y-94528281D01*
X217529996Y-95015918D01*
X217265301Y-95653373D01*
X217264699Y-96343599D01*
X216710000Y-96343599D01*
X216710000Y-94210000D01*
X239290000Y-94210000D01*
X239290000Y-135790000D01*
X239290000Y-135790000D01*
G37*
X239290000Y-135790000D02*
X238131312Y-135790000D01*
X238311441Y-135674090D01*
X238456431Y-135461890D01*
X238507440Y-135210000D01*
X238507440Y-133510000D01*
X238463162Y-133274683D01*
X238324090Y-133058559D01*
X238111890Y-132913569D01*
X237860000Y-132862560D01*
X236160000Y-132862560D01*
X235924683Y-132906838D01*
X235708559Y-133045910D01*
X235563569Y-133258110D01*
X235549914Y-133325541D01*
X235520054Y-133280853D01*
X235232000Y-133088382D01*
X235232000Y-129565750D01*
X235525000Y-129565750D01*
X235525000Y-130256310D01*
X235621673Y-130489699D01*
X235800302Y-130668327D01*
X236033691Y-130765000D01*
X236724250Y-130765000D01*
X236883000Y-130606250D01*
X236883000Y-129407000D01*
X237137000Y-129407000D01*
X237137000Y-130606250D01*
X237295750Y-130765000D01*
X237986309Y-130765000D01*
X238219698Y-130668327D01*
X238398327Y-130489699D01*
X238495000Y-130256310D01*
X238495000Y-129565750D01*
X238336250Y-129407000D01*
X237137000Y-129407000D01*
X236883000Y-129407000D01*
X235683750Y-129407000D01*
X235525000Y-129565750D01*
X235232000Y-129565750D01*
X235232000Y-129420000D01*
X235173996Y-129128395D01*
X235084363Y-128994250D01*
X235008815Y-128881184D01*
X234431321Y-128303690D01*
X235525000Y-128303690D01*
X235525000Y-128994250D01*
X235683750Y-129153000D01*
X236883000Y-129153000D01*
X236883000Y-126867000D01*
X237137000Y-126867000D01*
X237137000Y-129153000D01*
X238336250Y-129153000D01*
X238495000Y-128994250D01*
X238495000Y-128303690D01*
X238398327Y-128070301D01*
X238219698Y-127891673D01*
X238005792Y-127803070D01*
X238205183Y-127621358D01*
X238451486Y-127096892D01*
X238330819Y-126867000D01*
X237137000Y-126867000D01*
X236883000Y-126867000D01*
X235689181Y-126867000D01*
X235568514Y-127096892D01*
X235814817Y-127621358D01*
X236014208Y-127803070D01*
X235800302Y-127891673D01*
X235621673Y-128070301D01*
X235525000Y-128303690D01*
X234431321Y-128303690D01*
X232666054Y-126538424D01*
X232666176Y-126398792D01*
X232511825Y-126025234D01*
X232226269Y-125739179D01*
X231852982Y-125584176D01*
X231448792Y-125583824D01*
X231075234Y-125738175D01*
X230789179Y-126023731D01*
X230634176Y-126397018D01*
X230633824Y-126801208D01*
X230788175Y-127174766D01*
X231073731Y-127460821D01*
X231447018Y-127615824D01*
X231588317Y-127615947D01*
X233708000Y-129735631D01*
X233708000Y-130090069D01*
X233452982Y-129984176D01*
X233048792Y-129983824D01*
X232675234Y-130138175D01*
X232575235Y-130238000D01*
X231765629Y-130238000D01*
X224716054Y-123188426D01*
X224716176Y-123048794D01*
X224561825Y-122675236D01*
X224276269Y-122389181D01*
X223902982Y-122234178D01*
X223498792Y-122233826D01*
X223125234Y-122388177D01*
X222839179Y-122673733D01*
X222684176Y-123047020D01*
X222683824Y-123451210D01*
X222838175Y-123824768D01*
X223123731Y-124110823D01*
X223497018Y-124265826D01*
X223638317Y-124265949D01*
X230911182Y-131538815D01*
X231158393Y-131703996D01*
X231449998Y-131762000D01*
X232575082Y-131762000D01*
X232673731Y-131860821D01*
X233047018Y-132015824D01*
X233451208Y-132016176D01*
X233708000Y-131910072D01*
X233708000Y-133088382D01*
X233419946Y-133280853D01*
X233200000Y-133610026D01*
X232980054Y-133280853D01*
X232498285Y-132958946D01*
X231930000Y-132845907D01*
X231361715Y-132958946D01*
X230879946Y-133280853D01*
X230558039Y-133762622D01*
X230445000Y-134330907D01*
X230445000Y-134389093D01*
X230558039Y-134957378D01*
X230879946Y-135439147D01*
X231361715Y-135761054D01*
X231507236Y-135790000D01*
X216710000Y-135790000D01*
X216710000Y-133843599D01*
X217264699Y-133843599D01*
X217528281Y-134481515D01*
X218015918Y-134970004D01*
X218653373Y-135234699D01*
X219343599Y-135235301D01*
X219981515Y-134971719D01*
X220470004Y-134484082D01*
X220734699Y-133846627D01*
X220735301Y-133156401D01*
X220471719Y-132518485D01*
X219984082Y-132029996D01*
X219346627Y-131765301D01*
X218656401Y-131764699D01*
X218018485Y-132028281D01*
X217529996Y-132515918D01*
X217265301Y-133153373D01*
X217264699Y-133843599D01*
X216710000Y-133843599D01*
X216710000Y-130570392D01*
X216748110Y-130596431D01*
X217000000Y-130647440D01*
X220500000Y-130647440D01*
X220735317Y-130603162D01*
X220951441Y-130464090D01*
X221096431Y-130251890D01*
X221147440Y-130000000D01*
X221147440Y-129000000D01*
X221103162Y-128764683D01*
X220964090Y-128548559D01*
X220894289Y-128500866D01*
X220951441Y-128464090D01*
X221096431Y-128251890D01*
X221147440Y-128000000D01*
X221147440Y-127000000D01*
X221103162Y-126764683D01*
X220964090Y-126548559D01*
X220894289Y-126500866D01*
X220951441Y-126464090D01*
X221096431Y-126251890D01*
X221147440Y-126000000D01*
X221147440Y-125000000D01*
X221103162Y-124764683D01*
X220964090Y-124548559D01*
X220894289Y-124500866D01*
X220951441Y-124464090D01*
X221096431Y-124251890D01*
X221147440Y-124000000D01*
X221147440Y-123000000D01*
X221103162Y-122764683D01*
X220964090Y-122548559D01*
X220894289Y-122500866D01*
X220951441Y-122464090D01*
X221096431Y-122251890D01*
X221147440Y-122000000D01*
X221147440Y-121000000D01*
X221103162Y-120764683D01*
X220964090Y-120548559D01*
X220894289Y-120500866D01*
X220951441Y-120464090D01*
X221096431Y-120251890D01*
X221147440Y-120000000D01*
X221147440Y-119000000D01*
X221103162Y-118764683D01*
X220964090Y-118548559D01*
X220894289Y-118500866D01*
X220951441Y-118464090D01*
X221096431Y-118251890D01*
X221147440Y-118000000D01*
X221147440Y-117000000D01*
X221103162Y-116764683D01*
X220964090Y-116548559D01*
X220894289Y-116500866D01*
X220951441Y-116464090D01*
X221096431Y-116251890D01*
X221147440Y-116000000D01*
X221147440Y-115000000D01*
X221103162Y-114764683D01*
X220964090Y-114548559D01*
X220894289Y-114500866D01*
X220951441Y-114464090D01*
X221096431Y-114251890D01*
X221100360Y-114232488D01*
X221248722Y-114261999D01*
X221279999Y-114255778D01*
X221279999Y-116163986D01*
X221338003Y-116455591D01*
X221495756Y-116691684D01*
X221503184Y-116702801D01*
X222171252Y-117370869D01*
X222171130Y-117510501D01*
X222271341Y-117753029D01*
X222259201Y-117765148D01*
X222104198Y-118138435D01*
X222103846Y-118542625D01*
X222258197Y-118916183D01*
X222543753Y-119202238D01*
X222917040Y-119357241D01*
X223321230Y-119357593D01*
X223694788Y-119203242D01*
X223794787Y-119103417D01*
X226708583Y-119103417D01*
X227000188Y-119045413D01*
X227247398Y-118880232D01*
X227288000Y-118839630D01*
X227288000Y-119425082D01*
X227189179Y-119523731D01*
X227034176Y-119897018D01*
X227033824Y-120301208D01*
X227188175Y-120674766D01*
X227258103Y-120744816D01*
X227152982Y-120701166D01*
X226748792Y-120700814D01*
X226375234Y-120855165D01*
X226089179Y-121140721D01*
X225934176Y-121514008D01*
X225933824Y-121918198D01*
X226088175Y-122291756D01*
X226373731Y-122577811D01*
X226634012Y-122685889D01*
X226633824Y-122901208D01*
X226788175Y-123274766D01*
X227073731Y-123560821D01*
X227447018Y-123715824D01*
X227851208Y-123716176D01*
X228224766Y-123561825D01*
X228510821Y-123276269D01*
X228591904Y-123081001D01*
X229711589Y-123081001D01*
X229684176Y-123147018D01*
X229683824Y-123551208D01*
X229824471Y-123891600D01*
X229734738Y-124107701D01*
X229734386Y-124511891D01*
X229888737Y-124885449D01*
X230174293Y-125171504D01*
X230547580Y-125326507D01*
X230951770Y-125326859D01*
X231325328Y-125172508D01*
X231536204Y-124962000D01*
X235512560Y-124962000D01*
X235512560Y-125050000D01*
X235556838Y-125285317D01*
X235695910Y-125501441D01*
X235908110Y-125646431D01*
X236022301Y-125669555D01*
X235814817Y-125858642D01*
X235568514Y-126383108D01*
X235689181Y-126613000D01*
X236883000Y-126613000D01*
X236883000Y-126593000D01*
X237137000Y-126593000D01*
X237137000Y-126613000D01*
X238330819Y-126613000D01*
X238451486Y-126383108D01*
X238205183Y-125858642D01*
X237999496Y-125671192D01*
X238095317Y-125653162D01*
X238311441Y-125514090D01*
X238456431Y-125301890D01*
X238507440Y-125050000D01*
X238507440Y-123350000D01*
X238463162Y-123114683D01*
X238324090Y-122898559D01*
X238111890Y-122753569D01*
X237860000Y-122702560D01*
X237772000Y-122702560D01*
X237772000Y-120381964D01*
X238089147Y-120170054D01*
X238411054Y-119688285D01*
X238524093Y-119120000D01*
X238411054Y-118551715D01*
X238089147Y-118069946D01*
X237759974Y-117850000D01*
X238089147Y-117630054D01*
X238411054Y-117148285D01*
X238524093Y-116580000D01*
X238411054Y-116011715D01*
X238089147Y-115529946D01*
X237748447Y-115302298D01*
X237891358Y-115235183D01*
X238281645Y-114806924D01*
X238451476Y-114396890D01*
X238330155Y-114167000D01*
X237137000Y-114167000D01*
X237137000Y-114187000D01*
X236883000Y-114187000D01*
X236883000Y-114167000D01*
X236863000Y-114167000D01*
X236863000Y-113913000D01*
X236883000Y-113913000D01*
X236883000Y-113893000D01*
X237137000Y-113893000D01*
X237137000Y-113913000D01*
X238330155Y-113913000D01*
X238451476Y-113683110D01*
X238281645Y-113273076D01*
X237891358Y-112844817D01*
X237748447Y-112777702D01*
X238089147Y-112550054D01*
X238411054Y-112068285D01*
X238524093Y-111500000D01*
X238411054Y-110931715D01*
X238089147Y-110449946D01*
X238047548Y-110422150D01*
X238095317Y-110413162D01*
X238311441Y-110274090D01*
X238456431Y-110061890D01*
X238507440Y-109810000D01*
X238507440Y-108110000D01*
X238463162Y-107874683D01*
X238324090Y-107658559D01*
X238111890Y-107513569D01*
X237860000Y-107462560D01*
X236160000Y-107462560D01*
X235924683Y-107506838D01*
X235708559Y-107645910D01*
X235563569Y-107858110D01*
X235512560Y-108110000D01*
X235512560Y-108324048D01*
X235367184Y-108421185D01*
X234812000Y-108976369D01*
X234812000Y-108259630D01*
X237548815Y-105522815D01*
X237645952Y-105377440D01*
X237860000Y-105377440D01*
X238095317Y-105333162D01*
X238311441Y-105194090D01*
X238456431Y-104981890D01*
X238507440Y-104730000D01*
X238507440Y-103030000D01*
X238463162Y-102794683D01*
X238324090Y-102578559D01*
X238111890Y-102433569D01*
X237860000Y-102382560D01*
X236160000Y-102382560D01*
X235924683Y-102426838D01*
X235708559Y-102565910D01*
X235563569Y-102778110D01*
X235512560Y-103030000D01*
X235512560Y-104730000D01*
X235556838Y-104965317D01*
X235695910Y-105181441D01*
X235719090Y-105197280D01*
X233620931Y-107295439D01*
X233352982Y-107184176D01*
X232948792Y-107183824D01*
X232575234Y-107338175D01*
X232289179Y-107623731D01*
X232134176Y-107997018D01*
X232133824Y-108401208D01*
X232167967Y-108483841D01*
X232148792Y-108483824D01*
X231775234Y-108638175D01*
X231489179Y-108923731D01*
X231334176Y-109297018D01*
X231333824Y-109701208D01*
X231488175Y-110074766D01*
X231588000Y-110174765D01*
X231588000Y-117400000D01*
X231646004Y-117691605D01*
X231733979Y-117823268D01*
X231733824Y-118001208D01*
X231888175Y-118374766D01*
X231913161Y-118399795D01*
X231889179Y-118423735D01*
X231734176Y-118797022D01*
X231733824Y-119201212D01*
X231888175Y-119574770D01*
X231913159Y-119599797D01*
X231889179Y-119623735D01*
X231734176Y-119997022D01*
X231733824Y-120401212D01*
X231888175Y-120774770D01*
X232068081Y-120954990D01*
X228631613Y-120954990D01*
X228910821Y-120676269D01*
X229065824Y-120302982D01*
X229066176Y-119898792D01*
X228911825Y-119525234D01*
X228812000Y-119425235D01*
X228812000Y-118201246D01*
X229047018Y-118298834D01*
X229451208Y-118299186D01*
X229824766Y-118144835D01*
X230110821Y-117859279D01*
X230265824Y-117485992D01*
X230266176Y-117081802D01*
X230111825Y-116708244D01*
X230012000Y-116608245D01*
X230012000Y-107279957D01*
X229953996Y-106988352D01*
X229886055Y-106886672D01*
X229886219Y-106698792D01*
X229731868Y-106325234D01*
X229446312Y-106039179D01*
X229073025Y-105884176D01*
X228812000Y-105883949D01*
X228812000Y-101218967D01*
X228821886Y-101209081D01*
X228961589Y-101000000D01*
X228987066Y-100961871D01*
X229011290Y-100840090D01*
X229143891Y-100707720D01*
X229298894Y-100334433D01*
X229299246Y-99930243D01*
X229144895Y-99556685D01*
X228904504Y-99315874D01*
X229251208Y-99316176D01*
X229624766Y-99161825D01*
X229910821Y-98876269D01*
X230065824Y-98502982D01*
X230066176Y-98098792D01*
X229911825Y-97725234D01*
X229626269Y-97439179D01*
X229252982Y-97284176D01*
X228848792Y-97283824D01*
X228475234Y-97438175D01*
X228375235Y-97538000D01*
X227200000Y-97538000D01*
X226908395Y-97596004D01*
X226809377Y-97662166D01*
X226661185Y-97761184D01*
X221147440Y-103274930D01*
X221147440Y-103000000D01*
X221103162Y-102764683D01*
X220964090Y-102548559D01*
X220894289Y-102500866D01*
X220951441Y-102464090D01*
X221096431Y-102251890D01*
X221147440Y-102000000D01*
X221147440Y-101000000D01*
X221103162Y-100764683D01*
X220964090Y-100548559D01*
X220894289Y-100500866D01*
X220951441Y-100464090D01*
X221096431Y-100251890D01*
X221147440Y-100000000D01*
X221147440Y-99000000D01*
X221103162Y-98764683D01*
X220964090Y-98548559D01*
X220751890Y-98403569D01*
X220500000Y-98352560D01*
X217000000Y-98352560D01*
X216764683Y-98396838D01*
X216710000Y-98432026D01*
X216710000Y-96343599D01*
X217264699Y-96343599D01*
X217528281Y-96981515D01*
X218015918Y-97470004D01*
X218653373Y-97734699D01*
X219343599Y-97735301D01*
X219981515Y-97471719D01*
X220470004Y-96984082D01*
X220734699Y-96346627D01*
X220735301Y-95656401D01*
X220471719Y-95018485D01*
X219984082Y-94529996D01*
X219346627Y-94265301D01*
X218656401Y-94264699D01*
X218018485Y-94528281D01*
X217529996Y-95015918D01*
X217265301Y-95653373D01*
X217264699Y-96343599D01*
X216710000Y-96343599D01*
X216710000Y-94210000D01*
X239290000Y-94210000D01*
X239290000Y-135790000D01*
M02*
