G04 #@! TF.FileFunction,Soldermask,Top*
%FSLAX46Y46*%
G04 Gerber Fmt 4.6, Leading zero omitted, Abs format (unit mm)*
G04 Created by KiCad (PCBNEW 4.0.7-e2-6376~58~ubuntu16.04.1) date Thu Nov  9 21:21:10 2017*
%MOMM*%
%LPD*%
G01*
G04 APERTURE LIST*
%ADD10C,0.100000*%
%ADD11C,0.101600*%
%ADD12C,0.076200*%
%ADD13C,0.150000*%
%ADD14C,0.127000*%
%ADD15C,2.600000*%
%ADD16R,1.900000X1.700000*%
%ADD17R,1.590000X0.590000*%
%ADD18R,2.100000X2.100000*%
%ADD19O,2.100000X2.100000*%
%ADD20R,1.900000X1.650000*%
%ADD21R,1.700000X1.900000*%
%ADD22R,1.100000X1.600000*%
%ADD23R,4.900000X4.690000*%
%ADD24R,1.950000X2.000000*%
%ADD25R,1.950000X1.600000*%
%ADD26R,3.900000X1.400000*%
%ADD27R,1.900000X1.000000*%
G04 APERTURE END LIST*
D10*
D11*
X237360000Y-97470000D02*
X237520000Y-96950000D01*
X237400000Y-97250000D02*
X237360000Y-97470000D01*
X237280000Y-96970000D02*
X237400000Y-97250000D01*
X237060000Y-96670000D02*
X237280000Y-96970000D01*
X236970000Y-96240000D02*
X237060000Y-96670000D01*
X237340000Y-96250000D02*
X237340000Y-96080000D01*
X237360000Y-96350000D02*
X237340000Y-96250000D01*
X237310000Y-96440000D02*
X237360000Y-96350000D01*
X237190000Y-96470000D02*
X237310000Y-96440000D01*
X237070000Y-96340000D02*
X237190000Y-96470000D01*
X237000000Y-96150000D02*
X237070000Y-96340000D01*
X237520000Y-96150000D02*
X237430000Y-96020000D01*
X237650000Y-96180000D02*
X237520000Y-96150000D01*
X237760000Y-96140000D02*
X237650000Y-96180000D01*
X237800000Y-96040000D02*
X237760000Y-96140000D01*
X237800000Y-95900000D02*
X237800000Y-96040000D01*
X237700000Y-95760000D02*
X237800000Y-95900000D01*
X237520000Y-95650000D02*
X237700000Y-95760000D01*
X237620000Y-95620000D02*
X237520000Y-95620000D01*
X237770000Y-95610000D02*
X237620000Y-95620000D01*
X237870000Y-95540000D02*
X237770000Y-95610000D01*
X237850000Y-95390000D02*
X237870000Y-95540000D01*
X237740000Y-95290000D02*
X237850000Y-95390000D01*
X237370000Y-95300000D02*
X237740000Y-95290000D01*
X237490000Y-95170000D02*
X237400000Y-95310000D01*
X237510000Y-95060000D02*
X237490000Y-95170000D01*
X237460000Y-94950000D02*
X237510000Y-95060000D01*
X237290000Y-94920000D02*
X237460000Y-94950000D01*
X237130000Y-94980000D02*
X237290000Y-94920000D01*
X237040000Y-95250000D02*
X237130000Y-94980000D01*
X236940000Y-96160000D02*
X236930000Y-96130000D01*
X236970000Y-96140000D02*
X236940000Y-96160000D01*
X236950000Y-96160000D02*
X236970000Y-96140000D01*
X236930000Y-96270000D02*
X236950000Y-96160000D01*
X236870000Y-96380000D02*
X236930000Y-96270000D01*
X236750000Y-96420000D02*
X236870000Y-96380000D01*
X236640000Y-96380000D02*
X236750000Y-96420000D01*
X236630000Y-96190000D02*
X236640000Y-96380000D01*
X236710000Y-95990000D02*
X236630000Y-96190000D01*
X236440000Y-96030000D02*
X236690000Y-95970000D01*
X236320000Y-95950000D02*
X236440000Y-96030000D01*
X236280000Y-95820000D02*
X236320000Y-95950000D01*
X236370000Y-95670000D02*
X236280000Y-95820000D01*
X236640000Y-95620000D02*
X236370000Y-95670000D01*
X236420000Y-95500000D02*
X236630000Y-95550000D01*
X236310000Y-95330000D02*
X236420000Y-95500000D01*
X236420000Y-95140000D02*
X236310000Y-95330000D01*
X236700000Y-95070000D02*
X236420000Y-95140000D01*
X236970000Y-95210000D02*
X236700000Y-95070000D01*
D12*
X237140000Y-95880000D02*
X237260000Y-95790000D01*
X237010000Y-95890000D02*
X237140000Y-95880000D01*
X236890000Y-95820000D02*
X237010000Y-95890000D01*
D13*
X236971623Y-95600000D02*
G75*
G03X236971623Y-95600000I-31623J0D01*
G01*
D14*
X237490000Y-95680000D02*
G75*
G03X237490000Y-95680000I-410000J0D01*
G01*
D13*
X237251623Y-95600000D02*
G75*
G03X237251623Y-95600000I-31623J0D01*
G01*
D15*
X219000000Y-133500000D03*
D16*
X226400000Y-126500000D03*
X229100000Y-126500000D03*
D17*
X230700000Y-122425000D03*
X230700000Y-121775000D03*
X230700000Y-121125000D03*
X230700000Y-120475000D03*
X230700000Y-119825000D03*
X230700000Y-119175000D03*
X230700000Y-118525000D03*
X230700000Y-117875000D03*
X230700000Y-117225000D03*
X230700000Y-116575000D03*
X224800000Y-116575000D03*
X224800000Y-117225000D03*
X224800000Y-117875000D03*
X224800000Y-118525000D03*
X224800000Y-119175000D03*
X224800000Y-119825000D03*
X224800000Y-120475000D03*
X224800000Y-121125000D03*
X224800000Y-121775000D03*
X224800000Y-122425000D03*
D18*
X237010000Y-124200000D03*
D19*
X237010000Y-126740000D03*
D20*
X236990000Y-121660000D03*
X234490000Y-121660000D03*
X229000000Y-114450000D03*
X226500000Y-114450000D03*
X226400000Y-124300000D03*
X228900000Y-124300000D03*
D18*
X237010000Y-103880000D03*
X237010000Y-108960000D03*
D19*
X237010000Y-111500000D03*
X237010000Y-114040000D03*
X237010000Y-116580000D03*
X237010000Y-119120000D03*
D21*
X233400000Y-124150000D03*
X233400000Y-126850000D03*
D22*
X229660000Y-128600000D03*
X228390000Y-128600000D03*
X227110000Y-128600000D03*
X225840000Y-128600000D03*
X225840000Y-134400000D03*
X227110000Y-134400000D03*
X228390000Y-134400000D03*
X229660000Y-134400000D03*
D23*
X227750000Y-132000000D03*
D24*
X228840000Y-132750000D03*
X226660000Y-132750000D03*
D25*
X228840000Y-130750000D03*
X226660000Y-130750000D03*
D20*
X237400000Y-101450000D03*
X234900000Y-101450000D03*
X237400000Y-99350000D03*
X234900000Y-99350000D03*
D18*
X237010000Y-134360000D03*
D19*
X234470000Y-134360000D03*
X231930000Y-134360000D03*
D18*
X237010000Y-129280000D03*
D15*
X219000000Y-96000000D03*
D26*
X218750000Y-99500000D03*
X218750000Y-101500000D03*
X218750000Y-103500000D03*
X218750000Y-105500000D03*
X218750000Y-107500000D03*
X218750000Y-109500000D03*
X218750000Y-111500000D03*
X218750000Y-113500000D03*
X218750000Y-115500000D03*
X218750000Y-117500000D03*
X218750000Y-119500000D03*
X218750000Y-121500000D03*
X218750000Y-123500000D03*
X218750000Y-125500000D03*
X218750000Y-127500000D03*
X218750000Y-129500000D03*
D27*
X227050000Y-104440000D03*
X227050000Y-105710000D03*
X227050000Y-106980000D03*
X227050000Y-108250000D03*
X227050000Y-109520000D03*
X227050000Y-110790000D03*
X227050000Y-112060000D03*
X232450000Y-112060000D03*
X232450000Y-110790000D03*
X232450000Y-109520000D03*
X232450000Y-108250000D03*
X232450000Y-106980000D03*
X232450000Y-105710000D03*
X232450000Y-104440000D03*
X227050000Y-95190000D03*
X227050000Y-96460000D03*
X227050000Y-97730000D03*
X227050000Y-99000000D03*
X227050000Y-100270000D03*
X227050000Y-101540000D03*
X227050000Y-102810000D03*
X232450000Y-102810000D03*
X232450000Y-101540000D03*
X232450000Y-100270000D03*
X232450000Y-99000000D03*
X232450000Y-97730000D03*
X232450000Y-96460000D03*
X232450000Y-95190000D03*
M02*
