G04 #@! TF.FileFunction,Copper,L1,Top,Signal*
%FSLAX46Y46*%
G04 Gerber Fmt 4.6, Leading zero omitted, Abs format (unit mm)*
G04 Created by KiCad (PCBNEW 4.0.7-e2-6376~58~ubuntu16.04.1) date Thu Nov  9 21:21:10 2017*
%MOMM*%
%LPD*%
G01*
G04 APERTURE LIST*
%ADD10C,0.100000*%
%ADD11R,1.500000X1.300000*%
%ADD12R,1.450000X0.450000*%
%ADD13R,1.700000X1.700000*%
%ADD14O,1.700000X1.700000*%
%ADD15R,1.500000X1.250000*%
%ADD16R,1.300000X1.500000*%
%ADD17R,0.700000X1.200000*%
%ADD18R,4.500000X4.290000*%
%ADD19R,1.550000X1.600000*%
%ADD20R,1.550000X1.200000*%
%ADD21R,3.500000X1.000000*%
%ADD22R,1.500000X0.600000*%
%ADD23C,0.762000*%
%ADD24C,0.254000*%
%ADD25C,1.000000*%
G04 APERTURE END LIST*
D10*
D11*
X226400000Y-126500000D03*
X229100000Y-126500000D03*
D12*
X230700000Y-122425000D03*
X230700000Y-121775000D03*
X230700000Y-121125000D03*
X230700000Y-120475000D03*
X230700000Y-119825000D03*
X230700000Y-119175000D03*
X230700000Y-118525000D03*
X230700000Y-117875000D03*
X230700000Y-117225000D03*
X230700000Y-116575000D03*
X224800000Y-116575000D03*
X224800000Y-117225000D03*
X224800000Y-117875000D03*
X224800000Y-118525000D03*
X224800000Y-119175000D03*
X224800000Y-119825000D03*
X224800000Y-120475000D03*
X224800000Y-121125000D03*
X224800000Y-121775000D03*
X224800000Y-122425000D03*
D13*
X237010000Y-124200000D03*
D14*
X237010000Y-126740000D03*
D15*
X236990000Y-121660000D03*
X234490000Y-121660000D03*
X229000000Y-114450000D03*
X226500000Y-114450000D03*
X226400000Y-124300000D03*
X228900000Y-124300000D03*
D13*
X237010000Y-103880000D03*
X237010000Y-108960000D03*
D14*
X237010000Y-111500000D03*
X237010000Y-114040000D03*
X237010000Y-116580000D03*
X237010000Y-119120000D03*
D16*
X233400000Y-124150000D03*
X233400000Y-126850000D03*
D17*
X229660000Y-128600000D03*
X228390000Y-128600000D03*
X227110000Y-128600000D03*
X225840000Y-128600000D03*
X225840000Y-134400000D03*
X227110000Y-134400000D03*
X228390000Y-134400000D03*
X229660000Y-134400000D03*
D18*
X227750000Y-132000000D03*
D19*
X228840000Y-132750000D03*
X226660000Y-132750000D03*
D20*
X228840000Y-130750000D03*
X226660000Y-130750000D03*
D15*
X237400000Y-101450000D03*
X234900000Y-101450000D03*
X237400000Y-99350000D03*
X234900000Y-99350000D03*
D13*
X237010000Y-134360000D03*
D14*
X234470000Y-134360000D03*
X231930000Y-134360000D03*
D13*
X237010000Y-129280000D03*
D21*
X218750000Y-99500000D03*
X218750000Y-101500000D03*
X218750000Y-103500000D03*
X218750000Y-105500000D03*
X218750000Y-107500000D03*
X218750000Y-109500000D03*
X218750000Y-111500000D03*
X218750000Y-113500000D03*
X218750000Y-115500000D03*
X218750000Y-117500000D03*
X218750000Y-119500000D03*
X218750000Y-121500000D03*
X218750000Y-123500000D03*
X218750000Y-125500000D03*
X218750000Y-127500000D03*
X218750000Y-129500000D03*
D22*
X227050000Y-104440000D03*
X227050000Y-105710000D03*
X227050000Y-106980000D03*
X227050000Y-108250000D03*
X227050000Y-109520000D03*
X227050000Y-110790000D03*
X227050000Y-112060000D03*
X232450000Y-112060000D03*
X232450000Y-110790000D03*
X232450000Y-109520000D03*
X232450000Y-108250000D03*
X232450000Y-106980000D03*
X232450000Y-105710000D03*
X232450000Y-104440000D03*
X227050000Y-95190000D03*
X227050000Y-96460000D03*
X227050000Y-97730000D03*
X227050000Y-99000000D03*
X227050000Y-100270000D03*
X227050000Y-101540000D03*
X227050000Y-102810000D03*
X232450000Y-102810000D03*
X232450000Y-101540000D03*
X232450000Y-100270000D03*
X232450000Y-99000000D03*
X232450000Y-97730000D03*
X232450000Y-96460000D03*
X232450000Y-95190000D03*
D23*
X230750562Y-124310683D03*
X232600000Y-113450000D03*
X233250000Y-115600000D03*
X230000000Y-96700000D03*
X237400000Y-97900000D03*
X232750000Y-119000004D03*
X232750000Y-120200004D03*
X226950000Y-121716990D03*
X227650000Y-122700000D03*
X225550000Y-110950000D03*
X226700000Y-120150000D03*
X222900000Y-118100000D03*
X225550000Y-108250000D03*
X223417856Y-117067559D03*
X225549998Y-105650000D03*
X224950000Y-115500000D03*
X228800000Y-106950000D03*
X233250000Y-131000000D03*
X223700000Y-123250002D03*
X231650000Y-126600000D03*
X230141990Y-101550000D03*
X230750000Y-115650000D03*
X228550000Y-116850000D03*
X228600000Y-99000000D03*
X229350000Y-117900000D03*
X228550000Y-96500000D03*
X232250000Y-118150000D03*
X230950000Y-97750000D03*
X233150000Y-122750000D03*
X230700000Y-123350000D03*
D24*
X234900000Y-101450000D02*
X234900000Y-104400000D01*
X234900000Y-104400000D02*
X234860000Y-104440000D01*
X234860000Y-104440000D02*
X232450000Y-104440000D01*
X234900000Y-118691000D02*
X234900000Y-114450000D01*
X234900000Y-114450000D02*
X234900000Y-102329000D01*
X229000000Y-114450000D02*
X230004000Y-114450000D01*
X230004000Y-114450000D02*
X234900000Y-114450000D01*
X226750000Y-118854000D02*
X226750000Y-117579000D01*
X226750000Y-117579000D02*
X229000000Y-115329000D01*
X229000000Y-115329000D02*
X229000000Y-114450000D01*
X224800000Y-119825000D02*
X225779000Y-119825000D01*
X225779000Y-119825000D02*
X226750000Y-118854000D01*
X236990000Y-121660000D02*
X236990000Y-120781000D01*
X234900000Y-102329000D02*
X234900000Y-101450000D01*
X236990000Y-120781000D02*
X234900000Y-118691000D01*
X234900000Y-99350000D02*
X234900000Y-101450000D01*
X232450000Y-95190000D02*
X232900000Y-95190000D01*
X232900000Y-95190000D02*
X234900000Y-97190000D01*
X234900000Y-97190000D02*
X234900000Y-98471000D01*
X234900000Y-98471000D02*
X234900000Y-99350000D01*
X228900000Y-124300000D02*
X230739879Y-124300000D01*
X230739879Y-124300000D02*
X230750562Y-124310683D01*
X236990000Y-121660000D02*
X236990000Y-124180000D01*
X236990000Y-124180000D02*
X237010000Y-124200000D01*
X237010000Y-121640000D02*
X236990000Y-121660000D01*
X228900000Y-120646000D02*
X229721000Y-119825000D01*
X228900000Y-124300000D02*
X228900000Y-120646000D01*
X229721000Y-119825000D02*
X230700000Y-119825000D01*
X237400000Y-101450000D02*
X238450000Y-101450000D01*
X238450000Y-101450000D02*
X238600000Y-101600000D01*
X238600000Y-101600000D02*
X238600000Y-114427919D01*
X225396000Y-124300000D02*
X226400000Y-124300000D01*
X223821000Y-119175000D02*
X222754011Y-120241989D01*
X222754011Y-124254011D02*
X222800000Y-124300000D01*
X224800000Y-119175000D02*
X223821000Y-119175000D01*
X222800000Y-124300000D02*
X225396000Y-124300000D01*
X222754011Y-120241989D02*
X222754011Y-124254011D01*
X234490000Y-121660000D02*
X234500000Y-121670000D01*
X234500000Y-121670000D02*
X234500000Y-125500000D01*
X234500000Y-125500000D02*
X235740000Y-126740000D01*
X235740000Y-126740000D02*
X237010000Y-126740000D01*
X238600000Y-114427919D02*
X238600000Y-126400000D01*
X238600000Y-126400000D02*
X238260000Y-126740000D01*
X238260000Y-126740000D02*
X237010000Y-126740000D01*
X237010000Y-114040000D02*
X238590000Y-114040000D01*
X238590000Y-114040000D02*
X238600000Y-114050000D01*
X238600000Y-114050000D02*
X238600000Y-114427919D01*
X234490000Y-121660000D02*
X234490000Y-120781000D01*
X234000000Y-120291000D02*
X234000000Y-116350000D01*
X234490000Y-120781000D02*
X234000000Y-120291000D01*
X234000000Y-116350000D02*
X233250000Y-115600000D01*
X232600000Y-113450000D02*
X231600000Y-113450000D01*
X230210000Y-112060000D02*
X229910000Y-112060000D01*
X231600000Y-113450000D02*
X230210000Y-112060000D01*
X229910000Y-112060000D02*
X229910000Y-111190000D01*
X229910000Y-111190000D02*
X230900000Y-110200000D01*
X229910000Y-112060000D02*
X227050000Y-112060000D01*
X227050000Y-112060000D02*
X227050000Y-113900000D01*
X227050000Y-113900000D02*
X226500000Y-114450000D01*
X229950000Y-98600000D02*
X230350000Y-99000000D01*
X230350000Y-99000000D02*
X232450000Y-99000000D01*
X229950000Y-97288815D02*
X229950000Y-98600000D01*
X230000000Y-96700000D02*
X230000000Y-97238815D01*
X230000000Y-97238815D02*
X229950000Y-97288815D01*
X237400000Y-99350000D02*
X237400000Y-97900000D01*
X237400000Y-99350000D02*
X237400000Y-101450000D01*
X227050000Y-102810000D02*
X230040000Y-102810000D01*
X230040000Y-102810000D02*
X231310000Y-101540000D01*
X231310000Y-101540000D02*
X232450000Y-101540000D01*
X232450000Y-99000000D02*
X231600000Y-99000000D01*
X231600000Y-99000000D02*
X231150000Y-99450000D01*
X231150000Y-99450000D02*
X231150000Y-101400000D01*
X231290000Y-101540000D02*
X232450000Y-101540000D01*
X231150000Y-101400000D02*
X231290000Y-101540000D01*
X232450000Y-108250000D02*
X231446000Y-108250000D01*
X231446000Y-108250000D02*
X230900000Y-108796000D01*
X230900000Y-108796000D02*
X230900000Y-110200000D01*
X230900000Y-110200000D02*
X231490000Y-110790000D01*
X231490000Y-110790000D02*
X232450000Y-110790000D01*
X226400000Y-124300000D02*
X226525000Y-124300000D01*
X227786000Y-125561000D02*
X227786000Y-127746000D01*
X226525000Y-124300000D02*
X227786000Y-125561000D01*
X227786000Y-127746000D02*
X228390000Y-128350000D01*
X228390000Y-128350000D02*
X228390000Y-128600000D01*
X233200000Y-126820000D02*
X233200000Y-127850000D01*
X233200000Y-127850000D02*
X232450000Y-128600000D01*
X232450000Y-128600000D02*
X228994000Y-128600000D01*
X228994000Y-128600000D02*
X228390000Y-128600000D01*
X233200000Y-126820000D02*
X233200000Y-127824000D01*
X233200000Y-127824000D02*
X232424000Y-128600000D01*
X232424000Y-128600000D02*
X230264000Y-128600000D01*
X230264000Y-128600000D02*
X229660000Y-128600000D01*
X232424000Y-128600000D02*
X227714000Y-128600000D01*
X227714000Y-128600000D02*
X227110000Y-128600000D01*
X237010000Y-126740000D02*
X233280000Y-126740000D01*
X233280000Y-126740000D02*
X233200000Y-126820000D01*
X237010000Y-126740000D02*
X237010000Y-127942081D01*
X237010000Y-127942081D02*
X237010000Y-129280000D01*
X232575004Y-119175000D02*
X232750000Y-119000004D01*
X230700000Y-119175000D02*
X232575004Y-119175000D01*
X232475004Y-120475000D02*
X232750000Y-120200004D01*
X230700000Y-120475000D02*
X232475004Y-120475000D01*
X226891990Y-121775000D02*
X226950000Y-121716990D01*
X224800000Y-121775000D02*
X226891990Y-121775000D01*
X224800000Y-122425000D02*
X227375000Y-122425000D01*
X227375000Y-122425000D02*
X227650000Y-122700000D01*
X225710000Y-110790000D02*
X225550000Y-110950000D01*
X227050000Y-110790000D02*
X225710000Y-110790000D01*
X226700000Y-120150000D02*
X225725000Y-121125000D01*
X225725000Y-121125000D02*
X224800000Y-121125000D01*
X224800000Y-117875000D02*
X223125000Y-117875000D01*
X223125000Y-117875000D02*
X222900000Y-118100000D01*
X227050000Y-108250000D02*
X225550000Y-108250000D01*
X224800000Y-117225000D02*
X223575297Y-117225000D01*
X223575297Y-117225000D02*
X223417856Y-117067559D01*
X225609998Y-105710000D02*
X225549998Y-105650000D01*
X227050000Y-105710000D02*
X225609998Y-105710000D01*
X218750000Y-129500000D02*
X220900000Y-129500000D01*
X220900000Y-129500000D02*
X221600000Y-128800000D01*
X221600000Y-128800000D02*
X221600000Y-122500000D01*
X221600000Y-122500000D02*
X222300000Y-121800000D01*
X222300000Y-121800000D02*
X222300000Y-120046000D01*
X222300000Y-120046000D02*
X223821000Y-118525000D01*
X223821000Y-118525000D02*
X224800000Y-118525000D01*
X224950000Y-115500000D02*
X224950000Y-116425000D01*
X224950000Y-116425000D02*
X224800000Y-116575000D01*
X232450000Y-106980000D02*
X228830000Y-106980000D01*
X228830000Y-106980000D02*
X228800000Y-106950000D01*
X232450000Y-106980000D02*
X232000000Y-106980000D01*
X233788815Y-131000000D02*
X233250000Y-131000000D01*
X234754000Y-131000000D02*
X233788815Y-131000000D01*
X237010000Y-133256000D02*
X234754000Y-131000000D01*
X237010000Y-134360000D02*
X237010000Y-133256000D01*
X223700000Y-122711187D02*
X223700000Y-123250002D01*
X223821000Y-120475000D02*
X223700000Y-120596000D01*
X224800000Y-120475000D02*
X223821000Y-120475000D01*
X223700000Y-120596000D02*
X223700000Y-122711187D01*
X230700000Y-121125000D02*
X231679000Y-121125000D01*
X231679000Y-121125000D02*
X232206011Y-121652011D01*
X232206011Y-121652011D02*
X232206011Y-126043989D01*
X232206011Y-126043989D02*
X232030999Y-126219001D01*
X232030999Y-126219001D02*
X231650000Y-126600000D01*
X225840000Y-134400000D02*
X225840000Y-134150000D01*
X225840000Y-134150000D02*
X227750000Y-132240000D01*
X227750000Y-132240000D02*
X227750000Y-132000000D01*
X227110000Y-134400000D02*
X225840000Y-134400000D01*
X228390000Y-134400000D02*
X227110000Y-134400000D01*
X229660000Y-134400000D02*
X228390000Y-134400000D01*
D25*
X231930000Y-134360000D02*
X229700000Y-134360000D01*
D24*
X229700000Y-134360000D02*
X229660000Y-134400000D01*
X230131990Y-101540000D02*
X230141990Y-101550000D01*
X227050000Y-101540000D02*
X230131990Y-101540000D01*
X230750000Y-115650000D02*
X230750000Y-116525000D01*
X230750000Y-116525000D02*
X230700000Y-116575000D01*
X229088815Y-116850000D02*
X228550000Y-116850000D01*
X229346000Y-116850000D02*
X229088815Y-116850000D01*
X229721000Y-117225000D02*
X229346000Y-116850000D01*
X230700000Y-117225000D02*
X229721000Y-117225000D01*
X227050000Y-99000000D02*
X228600000Y-99000000D01*
X229350000Y-117900000D02*
X230675000Y-117900000D01*
X230675000Y-117900000D02*
X230700000Y-117875000D01*
X227050000Y-96460000D02*
X228510000Y-96460000D01*
X228510000Y-96460000D02*
X228550000Y-96500000D01*
X232250000Y-118150000D02*
X231875000Y-118525000D01*
X231875000Y-118525000D02*
X230700000Y-118525000D01*
X232450000Y-97730000D02*
X230970000Y-97730000D01*
X230970000Y-97730000D02*
X230950000Y-97750000D01*
X233150000Y-122750000D02*
X233150000Y-123900000D01*
X233150000Y-123900000D02*
X233400000Y-124150000D01*
X230700000Y-122425000D02*
X230700000Y-123350000D01*
X230104000Y-126500000D02*
X229100000Y-126500000D01*
X230497842Y-126500000D02*
X230104000Y-126500000D01*
X231752001Y-125245841D02*
X230497842Y-126500000D01*
X231752001Y-121848001D02*
X231752001Y-125245841D01*
X231679000Y-121775000D02*
X231752001Y-121848001D01*
X230700000Y-121775000D02*
X231679000Y-121775000D01*
X226400000Y-126500000D02*
X225800000Y-127100000D01*
X225800000Y-127100000D02*
X225800000Y-128560000D01*
X225800000Y-128560000D02*
X225840000Y-128600000D01*
X218750000Y-107500000D02*
X220900000Y-107500000D01*
X222750000Y-104141816D02*
X222750000Y-96500000D01*
X220900000Y-107500000D02*
X221445990Y-106954010D01*
X222750000Y-96500000D02*
X224850000Y-94400000D01*
X221445990Y-106954010D02*
X221445990Y-105445826D01*
X221445990Y-105445826D02*
X222750000Y-104141816D01*
X224850000Y-94400000D02*
X229300000Y-94400000D01*
X231446000Y-96460000D02*
X232450000Y-96460000D01*
X229300000Y-94400000D02*
X231360000Y-96460000D01*
X231360000Y-96460000D02*
X231446000Y-96460000D01*
X218750000Y-109500000D02*
X220900000Y-109500000D01*
X221900000Y-105633884D02*
X223300000Y-104233884D01*
X220900000Y-109500000D02*
X221900000Y-108500000D01*
X221900000Y-108500000D02*
X221900000Y-105633884D01*
X223300000Y-104233884D02*
X223300000Y-98490000D01*
X223300000Y-98490000D02*
X226600000Y-95190000D01*
X226600000Y-95190000D02*
X227050000Y-95190000D01*
X218750000Y-111500000D02*
X220900000Y-111500000D01*
X223754011Y-104421941D02*
X223754011Y-100575989D01*
X226600000Y-97730000D02*
X227050000Y-97730000D01*
X220900000Y-111500000D02*
X221300000Y-111100000D01*
X221300000Y-111100000D02*
X221300000Y-110600000D01*
X221300000Y-110600000D02*
X222700000Y-109200000D01*
X222700000Y-109200000D02*
X222700000Y-105475952D01*
X222700000Y-105475952D02*
X223754011Y-104421941D01*
X223754011Y-100575989D02*
X226600000Y-97730000D01*
X218750000Y-113500000D02*
X220900000Y-113500000D01*
X223300000Y-105518020D02*
X224208022Y-104609998D01*
X226600000Y-100270000D02*
X227050000Y-100270000D01*
X220900000Y-113500000D02*
X221931958Y-112468042D01*
X221931958Y-112468042D02*
X221931958Y-110710110D01*
X221931958Y-110710110D02*
X223300000Y-109342068D01*
X223300000Y-109342068D02*
X223300000Y-105518020D01*
X224208022Y-104609998D02*
X224208022Y-102661978D01*
X224208022Y-102661978D02*
X226600000Y-100270000D01*
X218750000Y-115500000D02*
X221000000Y-115500000D01*
X223933977Y-109441975D02*
X223933977Y-107534041D01*
X223933977Y-105526111D02*
X225760088Y-103700000D01*
X221000000Y-115500000D02*
X222385969Y-114114031D01*
X222385969Y-110989983D02*
X223933977Y-109441975D01*
X222385969Y-114114031D02*
X222385969Y-110989983D01*
X229436000Y-103700000D02*
X231446000Y-105710000D01*
X223933977Y-107534041D02*
X223933977Y-105526111D01*
X225760088Y-103700000D02*
X229436000Y-103700000D01*
X231446000Y-105710000D02*
X232450000Y-105710000D01*
X218750000Y-117500000D02*
X220700000Y-117500000D01*
X220700000Y-117500000D02*
X222839979Y-115360021D01*
X222839979Y-115360021D02*
X222839979Y-111178041D01*
X222839979Y-111178041D02*
X224387987Y-109630033D01*
X224387987Y-105714169D02*
X225662156Y-104440000D01*
X224387987Y-109630033D02*
X224387987Y-107722099D01*
X224387987Y-107722099D02*
X224387987Y-105714169D01*
X225662156Y-104440000D02*
X226046000Y-104440000D01*
X226046000Y-104440000D02*
X227050000Y-104440000D01*
X218750000Y-119500000D02*
X220800000Y-119500000D01*
X220800000Y-119500000D02*
X221345990Y-118954010D01*
X221345990Y-118954010D02*
X221345990Y-117496078D01*
X221345990Y-117496078D02*
X223293990Y-115548078D01*
X224841998Y-107558002D02*
X225420000Y-106980000D01*
X223293990Y-115548078D02*
X223293991Y-111366097D01*
X223293991Y-111366097D02*
X224841998Y-109818090D01*
X224841998Y-109818090D02*
X224841998Y-107558002D01*
X225420000Y-106980000D02*
X226046000Y-106980000D01*
X226046000Y-106980000D02*
X227050000Y-106980000D01*
X218750000Y-121500000D02*
X220900000Y-121500000D01*
X220900000Y-121500000D02*
X221800000Y-120600000D01*
X221800000Y-120600000D02*
X221800000Y-117684136D01*
X223748001Y-115736135D02*
X223748001Y-111554155D01*
X225782156Y-109520000D02*
X226046000Y-109520000D01*
X221800000Y-117684136D02*
X223748001Y-115736135D01*
X223748001Y-111554155D02*
X225782156Y-109520000D01*
X226046000Y-109520000D02*
X227050000Y-109520000D01*
G36*
X222938000Y-122575084D02*
X222839179Y-122673733D01*
X222684176Y-123047020D01*
X222683824Y-123451210D01*
X222838175Y-123824768D01*
X223123731Y-124110823D01*
X223497018Y-124265826D01*
X223901208Y-124266178D01*
X224274766Y-124111827D01*
X224560821Y-123826271D01*
X224715824Y-123452984D01*
X224715959Y-123297440D01*
X225129534Y-123297440D01*
X225111673Y-123315301D01*
X225015000Y-123548690D01*
X225015000Y-124014250D01*
X225173750Y-124173000D01*
X226273000Y-124173000D01*
X226273000Y-124153000D01*
X226527000Y-124153000D01*
X226527000Y-124173000D01*
X226547000Y-124173000D01*
X226547000Y-124427000D01*
X226527000Y-124427000D01*
X226527000Y-124447000D01*
X226273000Y-124447000D01*
X226273000Y-124427000D01*
X225173750Y-124427000D01*
X225015000Y-124585750D01*
X225015000Y-125051310D01*
X225111673Y-125284699D01*
X225207276Y-125380301D01*
X225198559Y-125385910D01*
X225053569Y-125598110D01*
X225002560Y-125850000D01*
X225002560Y-127150000D01*
X225038000Y-127338347D01*
X225038000Y-127536728D01*
X224893569Y-127748110D01*
X224842560Y-128000000D01*
X224842560Y-129200000D01*
X224886838Y-129435317D01*
X224950558Y-129534340D01*
X224903569Y-129603110D01*
X224852560Y-129855000D01*
X224852560Y-133750619D01*
X224842560Y-133800000D01*
X224842560Y-135000000D01*
X224886838Y-135235317D01*
X225025910Y-135451441D01*
X225238110Y-135596431D01*
X225490000Y-135647440D01*
X226190000Y-135647440D01*
X226425317Y-135603162D01*
X226473028Y-135572461D01*
X226508110Y-135596431D01*
X226760000Y-135647440D01*
X227460000Y-135647440D01*
X227695317Y-135603162D01*
X227748178Y-135569147D01*
X227788110Y-135596431D01*
X228040000Y-135647440D01*
X228740000Y-135647440D01*
X228975317Y-135603162D01*
X229023028Y-135572461D01*
X229058110Y-135596431D01*
X229310000Y-135647440D01*
X230010000Y-135647440D01*
X230245317Y-135603162D01*
X230413406Y-135495000D01*
X230963536Y-135495000D01*
X231361715Y-135761054D01*
X231507236Y-135790000D01*
X216710000Y-135790000D01*
X216710000Y-133843599D01*
X217264699Y-133843599D01*
X217528281Y-134481515D01*
X218015918Y-134970004D01*
X218653373Y-135234699D01*
X219343599Y-135235301D01*
X219981515Y-134971719D01*
X220470004Y-134484082D01*
X220734699Y-133846627D01*
X220735301Y-133156401D01*
X220471719Y-132518485D01*
X219984082Y-132029996D01*
X219346627Y-131765301D01*
X218656401Y-131764699D01*
X218018485Y-132028281D01*
X217529996Y-132515918D01*
X217265301Y-133153373D01*
X217264699Y-133843599D01*
X216710000Y-133843599D01*
X216710000Y-130570392D01*
X216748110Y-130596431D01*
X217000000Y-130647440D01*
X220500000Y-130647440D01*
X220735317Y-130603162D01*
X220951441Y-130464090D01*
X221096431Y-130251890D01*
X221102542Y-130221712D01*
X221191605Y-130203996D01*
X221438815Y-130038815D01*
X222138815Y-129338816D01*
X222303996Y-129091605D01*
X222329938Y-128961185D01*
X222362000Y-128800000D01*
X222362000Y-122815630D01*
X222838815Y-122338816D01*
X222938000Y-122190375D01*
X222938000Y-122575084D01*
X222938000Y-122575084D01*
G37*
X222938000Y-122575084D02*
X222839179Y-122673733D01*
X222684176Y-123047020D01*
X222683824Y-123451210D01*
X222838175Y-123824768D01*
X223123731Y-124110823D01*
X223497018Y-124265826D01*
X223901208Y-124266178D01*
X224274766Y-124111827D01*
X224560821Y-123826271D01*
X224715824Y-123452984D01*
X224715959Y-123297440D01*
X225129534Y-123297440D01*
X225111673Y-123315301D01*
X225015000Y-123548690D01*
X225015000Y-124014250D01*
X225173750Y-124173000D01*
X226273000Y-124173000D01*
X226273000Y-124153000D01*
X226527000Y-124153000D01*
X226527000Y-124173000D01*
X226547000Y-124173000D01*
X226547000Y-124427000D01*
X226527000Y-124427000D01*
X226527000Y-124447000D01*
X226273000Y-124447000D01*
X226273000Y-124427000D01*
X225173750Y-124427000D01*
X225015000Y-124585750D01*
X225015000Y-125051310D01*
X225111673Y-125284699D01*
X225207276Y-125380301D01*
X225198559Y-125385910D01*
X225053569Y-125598110D01*
X225002560Y-125850000D01*
X225002560Y-127150000D01*
X225038000Y-127338347D01*
X225038000Y-127536728D01*
X224893569Y-127748110D01*
X224842560Y-128000000D01*
X224842560Y-129200000D01*
X224886838Y-129435317D01*
X224950558Y-129534340D01*
X224903569Y-129603110D01*
X224852560Y-129855000D01*
X224852560Y-133750619D01*
X224842560Y-133800000D01*
X224842560Y-135000000D01*
X224886838Y-135235317D01*
X225025910Y-135451441D01*
X225238110Y-135596431D01*
X225490000Y-135647440D01*
X226190000Y-135647440D01*
X226425317Y-135603162D01*
X226473028Y-135572461D01*
X226508110Y-135596431D01*
X226760000Y-135647440D01*
X227460000Y-135647440D01*
X227695317Y-135603162D01*
X227748178Y-135569147D01*
X227788110Y-135596431D01*
X228040000Y-135647440D01*
X228740000Y-135647440D01*
X228975317Y-135603162D01*
X229023028Y-135572461D01*
X229058110Y-135596431D01*
X229310000Y-135647440D01*
X230010000Y-135647440D01*
X230245317Y-135603162D01*
X230413406Y-135495000D01*
X230963536Y-135495000D01*
X231361715Y-135761054D01*
X231507236Y-135790000D01*
X216710000Y-135790000D01*
X216710000Y-133843599D01*
X217264699Y-133843599D01*
X217528281Y-134481515D01*
X218015918Y-134970004D01*
X218653373Y-135234699D01*
X219343599Y-135235301D01*
X219981515Y-134971719D01*
X220470004Y-134484082D01*
X220734699Y-133846627D01*
X220735301Y-133156401D01*
X220471719Y-132518485D01*
X219984082Y-132029996D01*
X219346627Y-131765301D01*
X218656401Y-131764699D01*
X218018485Y-132028281D01*
X217529996Y-132515918D01*
X217265301Y-133153373D01*
X217264699Y-133843599D01*
X216710000Y-133843599D01*
X216710000Y-130570392D01*
X216748110Y-130596431D01*
X217000000Y-130647440D01*
X220500000Y-130647440D01*
X220735317Y-130603162D01*
X220951441Y-130464090D01*
X221096431Y-130251890D01*
X221102542Y-130221712D01*
X221191605Y-130203996D01*
X221438815Y-130038815D01*
X222138815Y-129338816D01*
X222303996Y-129091605D01*
X222329938Y-128961185D01*
X222362000Y-128800000D01*
X222362000Y-122815630D01*
X222838815Y-122338816D01*
X222938000Y-122190375D01*
X222938000Y-122575084D01*
G36*
X239290000Y-135790000D02*
X238131312Y-135790000D01*
X238311441Y-135674090D01*
X238456431Y-135461890D01*
X238507440Y-135210000D01*
X238507440Y-133510000D01*
X238463162Y-133274683D01*
X238324090Y-133058559D01*
X238111890Y-132913569D01*
X237860000Y-132862560D01*
X237645952Y-132862560D01*
X237634825Y-132845907D01*
X237548816Y-132717185D01*
X235292815Y-130461185D01*
X235278232Y-130451441D01*
X235045605Y-130296004D01*
X234754000Y-130238000D01*
X233924918Y-130238000D01*
X233826269Y-130139179D01*
X233452982Y-129984176D01*
X233048792Y-129983824D01*
X232675234Y-130138175D01*
X232389179Y-130423731D01*
X232234176Y-130797018D01*
X232233824Y-131201208D01*
X232388175Y-131574766D01*
X232673731Y-131860821D01*
X233047018Y-132015824D01*
X233451208Y-132016176D01*
X233824766Y-131861825D01*
X233924765Y-131762000D01*
X234438370Y-131762000D01*
X235716907Y-133040538D01*
X235708559Y-133045910D01*
X235563569Y-133258110D01*
X235549914Y-133325541D01*
X235520054Y-133280853D01*
X235038285Y-132958946D01*
X234470000Y-132845907D01*
X233901715Y-132958946D01*
X233419946Y-133280853D01*
X233200000Y-133610026D01*
X232980054Y-133280853D01*
X232498285Y-132958946D01*
X231930000Y-132845907D01*
X231361715Y-132958946D01*
X230963536Y-133225000D01*
X230647440Y-133225000D01*
X230647440Y-129855000D01*
X230603162Y-129619683D01*
X230568457Y-129565750D01*
X235525000Y-129565750D01*
X235525000Y-130256310D01*
X235621673Y-130489699D01*
X235800302Y-130668327D01*
X236033691Y-130765000D01*
X236724250Y-130765000D01*
X236883000Y-130606250D01*
X236883000Y-129407000D01*
X237137000Y-129407000D01*
X237137000Y-130606250D01*
X237295750Y-130765000D01*
X237986309Y-130765000D01*
X238219698Y-130668327D01*
X238398327Y-130489699D01*
X238495000Y-130256310D01*
X238495000Y-129565750D01*
X238336250Y-129407000D01*
X237137000Y-129407000D01*
X236883000Y-129407000D01*
X235683750Y-129407000D01*
X235525000Y-129565750D01*
X230568457Y-129565750D01*
X230554685Y-129544348D01*
X230645000Y-129326310D01*
X230645000Y-128885750D01*
X230486250Y-128727000D01*
X229787000Y-128727000D01*
X229787000Y-128747000D01*
X229533000Y-128747000D01*
X229533000Y-128727000D01*
X228517000Y-128727000D01*
X228517000Y-128747000D01*
X228263000Y-128747000D01*
X228263000Y-128727000D01*
X227237000Y-128727000D01*
X227237000Y-128747000D01*
X226983000Y-128747000D01*
X226983000Y-128727000D01*
X226963000Y-128727000D01*
X226963000Y-128473000D01*
X226983000Y-128473000D01*
X226983000Y-128453000D01*
X227237000Y-128453000D01*
X227237000Y-128473000D01*
X228263000Y-128473000D01*
X228263000Y-128453000D01*
X228517000Y-128453000D01*
X228517000Y-128473000D01*
X229533000Y-128473000D01*
X229533000Y-128453000D01*
X229787000Y-128453000D01*
X229787000Y-128473000D01*
X230486250Y-128473000D01*
X230645000Y-128314250D01*
X230645000Y-128303690D01*
X235525000Y-128303690D01*
X235525000Y-128994250D01*
X235683750Y-129153000D01*
X236883000Y-129153000D01*
X236883000Y-126867000D01*
X237137000Y-126867000D01*
X237137000Y-129153000D01*
X238336250Y-129153000D01*
X238495000Y-128994250D01*
X238495000Y-128303690D01*
X238398327Y-128070301D01*
X238219698Y-127891673D01*
X238005792Y-127803070D01*
X238205183Y-127621358D01*
X238451486Y-127096892D01*
X238330819Y-126867000D01*
X237137000Y-126867000D01*
X236883000Y-126867000D01*
X235689181Y-126867000D01*
X235568514Y-127096892D01*
X235814817Y-127621358D01*
X236014208Y-127803070D01*
X235800302Y-127891673D01*
X235621673Y-128070301D01*
X235525000Y-128303690D01*
X230645000Y-128303690D01*
X230645000Y-127873690D01*
X230548327Y-127640301D01*
X230391017Y-127482992D01*
X230446431Y-127401890D01*
X230474759Y-127262000D01*
X230497842Y-127262000D01*
X230789447Y-127203996D01*
X230806188Y-127192810D01*
X231073731Y-127460821D01*
X231447018Y-127615824D01*
X231851208Y-127616176D01*
X232115000Y-127507179D01*
X232115000Y-127726309D01*
X232211673Y-127959698D01*
X232390301Y-128138327D01*
X232623690Y-128235000D01*
X233114250Y-128235000D01*
X233273000Y-128076250D01*
X233273000Y-126977000D01*
X233527000Y-126977000D01*
X233527000Y-128076250D01*
X233685750Y-128235000D01*
X234176310Y-128235000D01*
X234409699Y-128138327D01*
X234588327Y-127959698D01*
X234685000Y-127726309D01*
X234685000Y-127135750D01*
X234526250Y-126977000D01*
X233527000Y-126977000D01*
X233273000Y-126977000D01*
X233253000Y-126977000D01*
X233253000Y-126723000D01*
X233273000Y-126723000D01*
X233273000Y-126703000D01*
X233527000Y-126703000D01*
X233527000Y-126723000D01*
X234526250Y-126723000D01*
X234685000Y-126564250D01*
X234685000Y-125973691D01*
X234588327Y-125740302D01*
X234409699Y-125561673D01*
X234273713Y-125505346D01*
X234285317Y-125503162D01*
X234501441Y-125364090D01*
X234646431Y-125151890D01*
X234697440Y-124900000D01*
X234697440Y-123400000D01*
X234653162Y-123164683D01*
X234514090Y-122948559D01*
X234313053Y-122811197D01*
X234363000Y-122761250D01*
X234363000Y-121787000D01*
X233480196Y-121787000D01*
X233352982Y-121734176D01*
X232968011Y-121733841D01*
X232968011Y-121652011D01*
X232910007Y-121360406D01*
X232813558Y-121216060D01*
X232951208Y-121216180D01*
X233105000Y-121152634D01*
X233105000Y-121374250D01*
X233263750Y-121533000D01*
X234363000Y-121533000D01*
X234363000Y-120558750D01*
X234204250Y-120400000D01*
X233765827Y-120400000D01*
X233766176Y-119998796D01*
X233611825Y-119625238D01*
X233586841Y-119600211D01*
X233610821Y-119576273D01*
X233765824Y-119202986D01*
X233766176Y-118798796D01*
X233611825Y-118425238D01*
X233326269Y-118139183D01*
X233266032Y-118114170D01*
X233266176Y-117948792D01*
X233111825Y-117575234D01*
X232826269Y-117289179D01*
X232452982Y-117134176D01*
X232072440Y-117133845D01*
X232072440Y-117000000D01*
X232052933Y-116896329D01*
X232072440Y-116800000D01*
X232072440Y-116350000D01*
X232028162Y-116114683D01*
X231889090Y-115898559D01*
X231765858Y-115814358D01*
X231766176Y-115448792D01*
X231668336Y-115212000D01*
X234138000Y-115212000D01*
X234138000Y-118691000D01*
X234196004Y-118982605D01*
X234318663Y-119166176D01*
X234361185Y-119229815D01*
X235753536Y-120622167D01*
X235742031Y-120639006D01*
X235599698Y-120496673D01*
X235366309Y-120400000D01*
X234775750Y-120400000D01*
X234617000Y-120558750D01*
X234617000Y-121533000D01*
X234637000Y-121533000D01*
X234637000Y-121787000D01*
X234617000Y-121787000D01*
X234617000Y-122761250D01*
X234775750Y-122920000D01*
X235366309Y-122920000D01*
X235599698Y-122823327D01*
X235740936Y-122682090D01*
X235775910Y-122736441D01*
X235855902Y-122791097D01*
X235708559Y-122885910D01*
X235563569Y-123098110D01*
X235512560Y-123350000D01*
X235512560Y-125050000D01*
X235556838Y-125285317D01*
X235695910Y-125501441D01*
X235908110Y-125646431D01*
X236022301Y-125669555D01*
X235814817Y-125858642D01*
X235568514Y-126383108D01*
X235689181Y-126613000D01*
X236883000Y-126613000D01*
X236883000Y-126593000D01*
X237137000Y-126593000D01*
X237137000Y-126613000D01*
X238330819Y-126613000D01*
X238451486Y-126383108D01*
X238205183Y-125858642D01*
X237999496Y-125671192D01*
X238095317Y-125653162D01*
X238311441Y-125514090D01*
X238456431Y-125301890D01*
X238507440Y-125050000D01*
X238507440Y-123350000D01*
X238463162Y-123114683D01*
X238324090Y-122898559D01*
X238147097Y-122777625D01*
X238191441Y-122749090D01*
X238336431Y-122536890D01*
X238387440Y-122285000D01*
X238387440Y-121035000D01*
X238343162Y-120799683D01*
X238204090Y-120583559D01*
X237991890Y-120438569D01*
X237758131Y-120391232D01*
X238089147Y-120170054D01*
X238411054Y-119688285D01*
X238524093Y-119120000D01*
X238411054Y-118551715D01*
X238089147Y-118069946D01*
X237759974Y-117850000D01*
X238089147Y-117630054D01*
X238411054Y-117148285D01*
X238524093Y-116580000D01*
X238411054Y-116011715D01*
X238089147Y-115529946D01*
X237748447Y-115302298D01*
X237891358Y-115235183D01*
X238281645Y-114806924D01*
X238451476Y-114396890D01*
X238330155Y-114167000D01*
X237137000Y-114167000D01*
X237137000Y-114187000D01*
X236883000Y-114187000D01*
X236883000Y-114167000D01*
X236863000Y-114167000D01*
X236863000Y-113913000D01*
X236883000Y-113913000D01*
X236883000Y-113893000D01*
X237137000Y-113893000D01*
X237137000Y-113913000D01*
X238330155Y-113913000D01*
X238451476Y-113683110D01*
X238281645Y-113273076D01*
X237891358Y-112844817D01*
X237748447Y-112777702D01*
X238089147Y-112550054D01*
X238411054Y-112068285D01*
X238524093Y-111500000D01*
X238411054Y-110931715D01*
X238089147Y-110449946D01*
X238047548Y-110422150D01*
X238095317Y-110413162D01*
X238311441Y-110274090D01*
X238456431Y-110061890D01*
X238507440Y-109810000D01*
X238507440Y-108110000D01*
X238463162Y-107874683D01*
X238324090Y-107658559D01*
X238111890Y-107513569D01*
X237860000Y-107462560D01*
X236160000Y-107462560D01*
X235924683Y-107506838D01*
X235708559Y-107645910D01*
X235662000Y-107714051D01*
X235662000Y-105128743D01*
X235695910Y-105181441D01*
X235908110Y-105326431D01*
X236160000Y-105377440D01*
X237860000Y-105377440D01*
X238095317Y-105333162D01*
X238311441Y-105194090D01*
X238456431Y-104981890D01*
X238507440Y-104730000D01*
X238507440Y-103030000D01*
X238463162Y-102794683D01*
X238380815Y-102666712D01*
X238509698Y-102613327D01*
X238688327Y-102434699D01*
X238785000Y-102201310D01*
X238785000Y-101735750D01*
X238626250Y-101577000D01*
X237527000Y-101577000D01*
X237527000Y-101597000D01*
X237273000Y-101597000D01*
X237273000Y-101577000D01*
X237253000Y-101577000D01*
X237253000Y-101323000D01*
X237273000Y-101323000D01*
X237273000Y-99477000D01*
X237527000Y-99477000D01*
X237527000Y-101323000D01*
X238626250Y-101323000D01*
X238785000Y-101164250D01*
X238785000Y-100698690D01*
X238688327Y-100465301D01*
X238623026Y-100400000D01*
X238688327Y-100334699D01*
X238785000Y-100101310D01*
X238785000Y-99635750D01*
X238626250Y-99477000D01*
X237527000Y-99477000D01*
X237273000Y-99477000D01*
X237253000Y-99477000D01*
X237253000Y-99223000D01*
X237273000Y-99223000D01*
X237273000Y-98248750D01*
X237527000Y-98248750D01*
X237527000Y-99223000D01*
X238626250Y-99223000D01*
X238785000Y-99064250D01*
X238785000Y-98598690D01*
X238688327Y-98365301D01*
X238509698Y-98186673D01*
X238276309Y-98090000D01*
X237685750Y-98090000D01*
X237527000Y-98248750D01*
X237273000Y-98248750D01*
X237114250Y-98090000D01*
X236523691Y-98090000D01*
X236290302Y-98186673D01*
X236149064Y-98327910D01*
X236114090Y-98273559D01*
X235901890Y-98128569D01*
X235662000Y-98079990D01*
X235662000Y-97190000D01*
X235603996Y-96898395D01*
X235438815Y-96651185D01*
X233847440Y-95059810D01*
X233847440Y-94890000D01*
X233803162Y-94654683D01*
X233664090Y-94438559D01*
X233451890Y-94293569D01*
X233200000Y-94242560D01*
X231700000Y-94242560D01*
X231464683Y-94286838D01*
X231248559Y-94425910D01*
X231103569Y-94638110D01*
X231052560Y-94890000D01*
X231052560Y-95074930D01*
X230187630Y-94210000D01*
X239290000Y-94210000D01*
X239290000Y-135790000D01*
X239290000Y-135790000D01*
G37*
X239290000Y-135790000D02*
X238131312Y-135790000D01*
X238311441Y-135674090D01*
X238456431Y-135461890D01*
X238507440Y-135210000D01*
X238507440Y-133510000D01*
X238463162Y-133274683D01*
X238324090Y-133058559D01*
X238111890Y-132913569D01*
X237860000Y-132862560D01*
X237645952Y-132862560D01*
X237634825Y-132845907D01*
X237548816Y-132717185D01*
X235292815Y-130461185D01*
X235278232Y-130451441D01*
X235045605Y-130296004D01*
X234754000Y-130238000D01*
X233924918Y-130238000D01*
X233826269Y-130139179D01*
X233452982Y-129984176D01*
X233048792Y-129983824D01*
X232675234Y-130138175D01*
X232389179Y-130423731D01*
X232234176Y-130797018D01*
X232233824Y-131201208D01*
X232388175Y-131574766D01*
X232673731Y-131860821D01*
X233047018Y-132015824D01*
X233451208Y-132016176D01*
X233824766Y-131861825D01*
X233924765Y-131762000D01*
X234438370Y-131762000D01*
X235716907Y-133040538D01*
X235708559Y-133045910D01*
X235563569Y-133258110D01*
X235549914Y-133325541D01*
X235520054Y-133280853D01*
X235038285Y-132958946D01*
X234470000Y-132845907D01*
X233901715Y-132958946D01*
X233419946Y-133280853D01*
X233200000Y-133610026D01*
X232980054Y-133280853D01*
X232498285Y-132958946D01*
X231930000Y-132845907D01*
X231361715Y-132958946D01*
X230963536Y-133225000D01*
X230647440Y-133225000D01*
X230647440Y-129855000D01*
X230603162Y-129619683D01*
X230568457Y-129565750D01*
X235525000Y-129565750D01*
X235525000Y-130256310D01*
X235621673Y-130489699D01*
X235800302Y-130668327D01*
X236033691Y-130765000D01*
X236724250Y-130765000D01*
X236883000Y-130606250D01*
X236883000Y-129407000D01*
X237137000Y-129407000D01*
X237137000Y-130606250D01*
X237295750Y-130765000D01*
X237986309Y-130765000D01*
X238219698Y-130668327D01*
X238398327Y-130489699D01*
X238495000Y-130256310D01*
X238495000Y-129565750D01*
X238336250Y-129407000D01*
X237137000Y-129407000D01*
X236883000Y-129407000D01*
X235683750Y-129407000D01*
X235525000Y-129565750D01*
X230568457Y-129565750D01*
X230554685Y-129544348D01*
X230645000Y-129326310D01*
X230645000Y-128885750D01*
X230486250Y-128727000D01*
X229787000Y-128727000D01*
X229787000Y-128747000D01*
X229533000Y-128747000D01*
X229533000Y-128727000D01*
X228517000Y-128727000D01*
X228517000Y-128747000D01*
X228263000Y-128747000D01*
X228263000Y-128727000D01*
X227237000Y-128727000D01*
X227237000Y-128747000D01*
X226983000Y-128747000D01*
X226983000Y-128727000D01*
X226963000Y-128727000D01*
X226963000Y-128473000D01*
X226983000Y-128473000D01*
X226983000Y-128453000D01*
X227237000Y-128453000D01*
X227237000Y-128473000D01*
X228263000Y-128473000D01*
X228263000Y-128453000D01*
X228517000Y-128453000D01*
X228517000Y-128473000D01*
X229533000Y-128473000D01*
X229533000Y-128453000D01*
X229787000Y-128453000D01*
X229787000Y-128473000D01*
X230486250Y-128473000D01*
X230645000Y-128314250D01*
X230645000Y-128303690D01*
X235525000Y-128303690D01*
X235525000Y-128994250D01*
X235683750Y-129153000D01*
X236883000Y-129153000D01*
X236883000Y-126867000D01*
X237137000Y-126867000D01*
X237137000Y-129153000D01*
X238336250Y-129153000D01*
X238495000Y-128994250D01*
X238495000Y-128303690D01*
X238398327Y-128070301D01*
X238219698Y-127891673D01*
X238005792Y-127803070D01*
X238205183Y-127621358D01*
X238451486Y-127096892D01*
X238330819Y-126867000D01*
X237137000Y-126867000D01*
X236883000Y-126867000D01*
X235689181Y-126867000D01*
X235568514Y-127096892D01*
X235814817Y-127621358D01*
X236014208Y-127803070D01*
X235800302Y-127891673D01*
X235621673Y-128070301D01*
X235525000Y-128303690D01*
X230645000Y-128303690D01*
X230645000Y-127873690D01*
X230548327Y-127640301D01*
X230391017Y-127482992D01*
X230446431Y-127401890D01*
X230474759Y-127262000D01*
X230497842Y-127262000D01*
X230789447Y-127203996D01*
X230806188Y-127192810D01*
X231073731Y-127460821D01*
X231447018Y-127615824D01*
X231851208Y-127616176D01*
X232115000Y-127507179D01*
X232115000Y-127726309D01*
X232211673Y-127959698D01*
X232390301Y-128138327D01*
X232623690Y-128235000D01*
X233114250Y-128235000D01*
X233273000Y-128076250D01*
X233273000Y-126977000D01*
X233527000Y-126977000D01*
X233527000Y-128076250D01*
X233685750Y-128235000D01*
X234176310Y-128235000D01*
X234409699Y-128138327D01*
X234588327Y-127959698D01*
X234685000Y-127726309D01*
X234685000Y-127135750D01*
X234526250Y-126977000D01*
X233527000Y-126977000D01*
X233273000Y-126977000D01*
X233253000Y-126977000D01*
X233253000Y-126723000D01*
X233273000Y-126723000D01*
X233273000Y-126703000D01*
X233527000Y-126703000D01*
X233527000Y-126723000D01*
X234526250Y-126723000D01*
X234685000Y-126564250D01*
X234685000Y-125973691D01*
X234588327Y-125740302D01*
X234409699Y-125561673D01*
X234273713Y-125505346D01*
X234285317Y-125503162D01*
X234501441Y-125364090D01*
X234646431Y-125151890D01*
X234697440Y-124900000D01*
X234697440Y-123400000D01*
X234653162Y-123164683D01*
X234514090Y-122948559D01*
X234313053Y-122811197D01*
X234363000Y-122761250D01*
X234363000Y-121787000D01*
X233480196Y-121787000D01*
X233352982Y-121734176D01*
X232968011Y-121733841D01*
X232968011Y-121652011D01*
X232910007Y-121360406D01*
X232813558Y-121216060D01*
X232951208Y-121216180D01*
X233105000Y-121152634D01*
X233105000Y-121374250D01*
X233263750Y-121533000D01*
X234363000Y-121533000D01*
X234363000Y-120558750D01*
X234204250Y-120400000D01*
X233765827Y-120400000D01*
X233766176Y-119998796D01*
X233611825Y-119625238D01*
X233586841Y-119600211D01*
X233610821Y-119576273D01*
X233765824Y-119202986D01*
X233766176Y-118798796D01*
X233611825Y-118425238D01*
X233326269Y-118139183D01*
X233266032Y-118114170D01*
X233266176Y-117948792D01*
X233111825Y-117575234D01*
X232826269Y-117289179D01*
X232452982Y-117134176D01*
X232072440Y-117133845D01*
X232072440Y-117000000D01*
X232052933Y-116896329D01*
X232072440Y-116800000D01*
X232072440Y-116350000D01*
X232028162Y-116114683D01*
X231889090Y-115898559D01*
X231765858Y-115814358D01*
X231766176Y-115448792D01*
X231668336Y-115212000D01*
X234138000Y-115212000D01*
X234138000Y-118691000D01*
X234196004Y-118982605D01*
X234318663Y-119166176D01*
X234361185Y-119229815D01*
X235753536Y-120622167D01*
X235742031Y-120639006D01*
X235599698Y-120496673D01*
X235366309Y-120400000D01*
X234775750Y-120400000D01*
X234617000Y-120558750D01*
X234617000Y-121533000D01*
X234637000Y-121533000D01*
X234637000Y-121787000D01*
X234617000Y-121787000D01*
X234617000Y-122761250D01*
X234775750Y-122920000D01*
X235366309Y-122920000D01*
X235599698Y-122823327D01*
X235740936Y-122682090D01*
X235775910Y-122736441D01*
X235855902Y-122791097D01*
X235708559Y-122885910D01*
X235563569Y-123098110D01*
X235512560Y-123350000D01*
X235512560Y-125050000D01*
X235556838Y-125285317D01*
X235695910Y-125501441D01*
X235908110Y-125646431D01*
X236022301Y-125669555D01*
X235814817Y-125858642D01*
X235568514Y-126383108D01*
X235689181Y-126613000D01*
X236883000Y-126613000D01*
X236883000Y-126593000D01*
X237137000Y-126593000D01*
X237137000Y-126613000D01*
X238330819Y-126613000D01*
X238451486Y-126383108D01*
X238205183Y-125858642D01*
X237999496Y-125671192D01*
X238095317Y-125653162D01*
X238311441Y-125514090D01*
X238456431Y-125301890D01*
X238507440Y-125050000D01*
X238507440Y-123350000D01*
X238463162Y-123114683D01*
X238324090Y-122898559D01*
X238147097Y-122777625D01*
X238191441Y-122749090D01*
X238336431Y-122536890D01*
X238387440Y-122285000D01*
X238387440Y-121035000D01*
X238343162Y-120799683D01*
X238204090Y-120583559D01*
X237991890Y-120438569D01*
X237758131Y-120391232D01*
X238089147Y-120170054D01*
X238411054Y-119688285D01*
X238524093Y-119120000D01*
X238411054Y-118551715D01*
X238089147Y-118069946D01*
X237759974Y-117850000D01*
X238089147Y-117630054D01*
X238411054Y-117148285D01*
X238524093Y-116580000D01*
X238411054Y-116011715D01*
X238089147Y-115529946D01*
X237748447Y-115302298D01*
X237891358Y-115235183D01*
X238281645Y-114806924D01*
X238451476Y-114396890D01*
X238330155Y-114167000D01*
X237137000Y-114167000D01*
X237137000Y-114187000D01*
X236883000Y-114187000D01*
X236883000Y-114167000D01*
X236863000Y-114167000D01*
X236863000Y-113913000D01*
X236883000Y-113913000D01*
X236883000Y-113893000D01*
X237137000Y-113893000D01*
X237137000Y-113913000D01*
X238330155Y-113913000D01*
X238451476Y-113683110D01*
X238281645Y-113273076D01*
X237891358Y-112844817D01*
X237748447Y-112777702D01*
X238089147Y-112550054D01*
X238411054Y-112068285D01*
X238524093Y-111500000D01*
X238411054Y-110931715D01*
X238089147Y-110449946D01*
X238047548Y-110422150D01*
X238095317Y-110413162D01*
X238311441Y-110274090D01*
X238456431Y-110061890D01*
X238507440Y-109810000D01*
X238507440Y-108110000D01*
X238463162Y-107874683D01*
X238324090Y-107658559D01*
X238111890Y-107513569D01*
X237860000Y-107462560D01*
X236160000Y-107462560D01*
X235924683Y-107506838D01*
X235708559Y-107645910D01*
X235662000Y-107714051D01*
X235662000Y-105128743D01*
X235695910Y-105181441D01*
X235908110Y-105326431D01*
X236160000Y-105377440D01*
X237860000Y-105377440D01*
X238095317Y-105333162D01*
X238311441Y-105194090D01*
X238456431Y-104981890D01*
X238507440Y-104730000D01*
X238507440Y-103030000D01*
X238463162Y-102794683D01*
X238380815Y-102666712D01*
X238509698Y-102613327D01*
X238688327Y-102434699D01*
X238785000Y-102201310D01*
X238785000Y-101735750D01*
X238626250Y-101577000D01*
X237527000Y-101577000D01*
X237527000Y-101597000D01*
X237273000Y-101597000D01*
X237273000Y-101577000D01*
X237253000Y-101577000D01*
X237253000Y-101323000D01*
X237273000Y-101323000D01*
X237273000Y-99477000D01*
X237527000Y-99477000D01*
X237527000Y-101323000D01*
X238626250Y-101323000D01*
X238785000Y-101164250D01*
X238785000Y-100698690D01*
X238688327Y-100465301D01*
X238623026Y-100400000D01*
X238688327Y-100334699D01*
X238785000Y-100101310D01*
X238785000Y-99635750D01*
X238626250Y-99477000D01*
X237527000Y-99477000D01*
X237273000Y-99477000D01*
X237253000Y-99477000D01*
X237253000Y-99223000D01*
X237273000Y-99223000D01*
X237273000Y-98248750D01*
X237527000Y-98248750D01*
X237527000Y-99223000D01*
X238626250Y-99223000D01*
X238785000Y-99064250D01*
X238785000Y-98598690D01*
X238688327Y-98365301D01*
X238509698Y-98186673D01*
X238276309Y-98090000D01*
X237685750Y-98090000D01*
X237527000Y-98248750D01*
X237273000Y-98248750D01*
X237114250Y-98090000D01*
X236523691Y-98090000D01*
X236290302Y-98186673D01*
X236149064Y-98327910D01*
X236114090Y-98273559D01*
X235901890Y-98128569D01*
X235662000Y-98079990D01*
X235662000Y-97190000D01*
X235603996Y-96898395D01*
X235438815Y-96651185D01*
X233847440Y-95059810D01*
X233847440Y-94890000D01*
X233803162Y-94654683D01*
X233664090Y-94438559D01*
X233451890Y-94293569D01*
X233200000Y-94242560D01*
X231700000Y-94242560D01*
X231464683Y-94286838D01*
X231248559Y-94425910D01*
X231103569Y-94638110D01*
X231052560Y-94890000D01*
X231052560Y-95074930D01*
X230187630Y-94210000D01*
X239290000Y-94210000D01*
X239290000Y-135790000D01*
G36*
X234138000Y-113688000D02*
X230371662Y-113688000D01*
X230353162Y-113589683D01*
X230214090Y-113373559D01*
X230001890Y-113228569D01*
X229750000Y-113177560D01*
X228250000Y-113177560D01*
X228014683Y-113221838D01*
X227798559Y-113360910D01*
X227752031Y-113429006D01*
X227609698Y-113286673D01*
X227376309Y-113190000D01*
X226785750Y-113190000D01*
X226627000Y-113348750D01*
X226627000Y-114323000D01*
X226647000Y-114323000D01*
X226647000Y-114577000D01*
X226627000Y-114577000D01*
X226627000Y-115551250D01*
X226785750Y-115710000D01*
X227376309Y-115710000D01*
X227609698Y-115613327D01*
X227750936Y-115472090D01*
X227762033Y-115489336D01*
X226211185Y-117040185D01*
X226172440Y-117098171D01*
X226172440Y-117000000D01*
X226152933Y-116896329D01*
X226172440Y-116800000D01*
X226172440Y-116350000D01*
X226128162Y-116114683D01*
X225989090Y-115898559D01*
X225907704Y-115842950D01*
X225962910Y-115710000D01*
X226214250Y-115710000D01*
X226373000Y-115551250D01*
X226373000Y-114577000D01*
X225376526Y-114577000D01*
X225152982Y-114484176D01*
X224748792Y-114483824D01*
X224510001Y-114582490D01*
X224510001Y-113698690D01*
X225115000Y-113698690D01*
X225115000Y-114164250D01*
X225273750Y-114323000D01*
X226373000Y-114323000D01*
X226373000Y-113348750D01*
X226214250Y-113190000D01*
X225623691Y-113190000D01*
X225390302Y-113286673D01*
X225211673Y-113465301D01*
X225115000Y-113698690D01*
X224510001Y-113698690D01*
X224510001Y-112345750D01*
X225665000Y-112345750D01*
X225665000Y-112486310D01*
X225761673Y-112719699D01*
X225940302Y-112898327D01*
X226173691Y-112995000D01*
X226764250Y-112995000D01*
X226923000Y-112836250D01*
X226923000Y-112187000D01*
X227177000Y-112187000D01*
X227177000Y-112836250D01*
X227335750Y-112995000D01*
X227926309Y-112995000D01*
X228159698Y-112898327D01*
X228338327Y-112719699D01*
X228435000Y-112486310D01*
X228435000Y-112345750D01*
X228276250Y-112187000D01*
X227177000Y-112187000D01*
X226923000Y-112187000D01*
X225823750Y-112187000D01*
X225665000Y-112345750D01*
X224510001Y-112345750D01*
X224510001Y-111869785D01*
X224771525Y-111608261D01*
X224973731Y-111810821D01*
X225347018Y-111965824D01*
X225751208Y-111966176D01*
X225831500Y-111933000D01*
X226923000Y-111933000D01*
X226923000Y-111913000D01*
X227177000Y-111913000D01*
X227177000Y-111933000D01*
X228276250Y-111933000D01*
X228435000Y-111774250D01*
X228435000Y-111760000D01*
X231052560Y-111760000D01*
X231052560Y-112360000D01*
X231096838Y-112595317D01*
X231235910Y-112811441D01*
X231448110Y-112956431D01*
X231700000Y-113007440D01*
X233200000Y-113007440D01*
X233435317Y-112963162D01*
X233651441Y-112824090D01*
X233796431Y-112611890D01*
X233847440Y-112360000D01*
X233847440Y-111760000D01*
X233803162Y-111524683D01*
X233744822Y-111434020D01*
X233835000Y-111216310D01*
X233835000Y-111075750D01*
X233676250Y-110917000D01*
X232577000Y-110917000D01*
X232577000Y-110937000D01*
X232323000Y-110937000D01*
X232323000Y-110917000D01*
X231223750Y-110917000D01*
X231065000Y-111075750D01*
X231065000Y-111216310D01*
X231154806Y-111433122D01*
X231103569Y-111508110D01*
X231052560Y-111760000D01*
X228435000Y-111760000D01*
X228435000Y-111633690D01*
X228345194Y-111416878D01*
X228396431Y-111341890D01*
X228447440Y-111090000D01*
X228447440Y-110490000D01*
X228403162Y-110254683D01*
X228339322Y-110155472D01*
X228396431Y-110071890D01*
X228447440Y-109820000D01*
X228447440Y-109220000D01*
X231052560Y-109220000D01*
X231052560Y-109820000D01*
X231096838Y-110055317D01*
X231155178Y-110145980D01*
X231065000Y-110363690D01*
X231065000Y-110504250D01*
X231223750Y-110663000D01*
X232323000Y-110663000D01*
X232323000Y-110643000D01*
X232577000Y-110643000D01*
X232577000Y-110663000D01*
X233676250Y-110663000D01*
X233835000Y-110504250D01*
X233835000Y-110363690D01*
X233745194Y-110146878D01*
X233796431Y-110071890D01*
X233847440Y-109820000D01*
X233847440Y-109220000D01*
X233803162Y-108984683D01*
X233744822Y-108894020D01*
X233835000Y-108676310D01*
X233835000Y-108535750D01*
X233676250Y-108377000D01*
X232577000Y-108377000D01*
X232577000Y-108397000D01*
X232323000Y-108397000D01*
X232323000Y-108377000D01*
X231223750Y-108377000D01*
X231065000Y-108535750D01*
X231065000Y-108676310D01*
X231154806Y-108893122D01*
X231103569Y-108968110D01*
X231052560Y-109220000D01*
X228447440Y-109220000D01*
X228403162Y-108984683D01*
X228339322Y-108885472D01*
X228396431Y-108801890D01*
X228447440Y-108550000D01*
X228447440Y-107950000D01*
X228437992Y-107899791D01*
X228597018Y-107965824D01*
X229001208Y-107966176D01*
X229374766Y-107811825D01*
X229444713Y-107742000D01*
X231098837Y-107742000D01*
X231065000Y-107823690D01*
X231065000Y-107964250D01*
X231223750Y-108123000D01*
X232323000Y-108123000D01*
X232323000Y-108103000D01*
X232577000Y-108103000D01*
X232577000Y-108123000D01*
X233676250Y-108123000D01*
X233835000Y-107964250D01*
X233835000Y-107823690D01*
X233745194Y-107606878D01*
X233796431Y-107531890D01*
X233847440Y-107280000D01*
X233847440Y-106680000D01*
X233803162Y-106444683D01*
X233739322Y-106345472D01*
X233796431Y-106261890D01*
X233847440Y-106010000D01*
X233847440Y-105410000D01*
X233808302Y-105202000D01*
X234138000Y-105202000D01*
X234138000Y-113688000D01*
X234138000Y-113688000D01*
G37*
X234138000Y-113688000D02*
X230371662Y-113688000D01*
X230353162Y-113589683D01*
X230214090Y-113373559D01*
X230001890Y-113228569D01*
X229750000Y-113177560D01*
X228250000Y-113177560D01*
X228014683Y-113221838D01*
X227798559Y-113360910D01*
X227752031Y-113429006D01*
X227609698Y-113286673D01*
X227376309Y-113190000D01*
X226785750Y-113190000D01*
X226627000Y-113348750D01*
X226627000Y-114323000D01*
X226647000Y-114323000D01*
X226647000Y-114577000D01*
X226627000Y-114577000D01*
X226627000Y-115551250D01*
X226785750Y-115710000D01*
X227376309Y-115710000D01*
X227609698Y-115613327D01*
X227750936Y-115472090D01*
X227762033Y-115489336D01*
X226211185Y-117040185D01*
X226172440Y-117098171D01*
X226172440Y-117000000D01*
X226152933Y-116896329D01*
X226172440Y-116800000D01*
X226172440Y-116350000D01*
X226128162Y-116114683D01*
X225989090Y-115898559D01*
X225907704Y-115842950D01*
X225962910Y-115710000D01*
X226214250Y-115710000D01*
X226373000Y-115551250D01*
X226373000Y-114577000D01*
X225376526Y-114577000D01*
X225152982Y-114484176D01*
X224748792Y-114483824D01*
X224510001Y-114582490D01*
X224510001Y-113698690D01*
X225115000Y-113698690D01*
X225115000Y-114164250D01*
X225273750Y-114323000D01*
X226373000Y-114323000D01*
X226373000Y-113348750D01*
X226214250Y-113190000D01*
X225623691Y-113190000D01*
X225390302Y-113286673D01*
X225211673Y-113465301D01*
X225115000Y-113698690D01*
X224510001Y-113698690D01*
X224510001Y-112345750D01*
X225665000Y-112345750D01*
X225665000Y-112486310D01*
X225761673Y-112719699D01*
X225940302Y-112898327D01*
X226173691Y-112995000D01*
X226764250Y-112995000D01*
X226923000Y-112836250D01*
X226923000Y-112187000D01*
X227177000Y-112187000D01*
X227177000Y-112836250D01*
X227335750Y-112995000D01*
X227926309Y-112995000D01*
X228159698Y-112898327D01*
X228338327Y-112719699D01*
X228435000Y-112486310D01*
X228435000Y-112345750D01*
X228276250Y-112187000D01*
X227177000Y-112187000D01*
X226923000Y-112187000D01*
X225823750Y-112187000D01*
X225665000Y-112345750D01*
X224510001Y-112345750D01*
X224510001Y-111869785D01*
X224771525Y-111608261D01*
X224973731Y-111810821D01*
X225347018Y-111965824D01*
X225751208Y-111966176D01*
X225831500Y-111933000D01*
X226923000Y-111933000D01*
X226923000Y-111913000D01*
X227177000Y-111913000D01*
X227177000Y-111933000D01*
X228276250Y-111933000D01*
X228435000Y-111774250D01*
X228435000Y-111760000D01*
X231052560Y-111760000D01*
X231052560Y-112360000D01*
X231096838Y-112595317D01*
X231235910Y-112811441D01*
X231448110Y-112956431D01*
X231700000Y-113007440D01*
X233200000Y-113007440D01*
X233435317Y-112963162D01*
X233651441Y-112824090D01*
X233796431Y-112611890D01*
X233847440Y-112360000D01*
X233847440Y-111760000D01*
X233803162Y-111524683D01*
X233744822Y-111434020D01*
X233835000Y-111216310D01*
X233835000Y-111075750D01*
X233676250Y-110917000D01*
X232577000Y-110917000D01*
X232577000Y-110937000D01*
X232323000Y-110937000D01*
X232323000Y-110917000D01*
X231223750Y-110917000D01*
X231065000Y-111075750D01*
X231065000Y-111216310D01*
X231154806Y-111433122D01*
X231103569Y-111508110D01*
X231052560Y-111760000D01*
X228435000Y-111760000D01*
X228435000Y-111633690D01*
X228345194Y-111416878D01*
X228396431Y-111341890D01*
X228447440Y-111090000D01*
X228447440Y-110490000D01*
X228403162Y-110254683D01*
X228339322Y-110155472D01*
X228396431Y-110071890D01*
X228447440Y-109820000D01*
X228447440Y-109220000D01*
X231052560Y-109220000D01*
X231052560Y-109820000D01*
X231096838Y-110055317D01*
X231155178Y-110145980D01*
X231065000Y-110363690D01*
X231065000Y-110504250D01*
X231223750Y-110663000D01*
X232323000Y-110663000D01*
X232323000Y-110643000D01*
X232577000Y-110643000D01*
X232577000Y-110663000D01*
X233676250Y-110663000D01*
X233835000Y-110504250D01*
X233835000Y-110363690D01*
X233745194Y-110146878D01*
X233796431Y-110071890D01*
X233847440Y-109820000D01*
X233847440Y-109220000D01*
X233803162Y-108984683D01*
X233744822Y-108894020D01*
X233835000Y-108676310D01*
X233835000Y-108535750D01*
X233676250Y-108377000D01*
X232577000Y-108377000D01*
X232577000Y-108397000D01*
X232323000Y-108397000D01*
X232323000Y-108377000D01*
X231223750Y-108377000D01*
X231065000Y-108535750D01*
X231065000Y-108676310D01*
X231154806Y-108893122D01*
X231103569Y-108968110D01*
X231052560Y-109220000D01*
X228447440Y-109220000D01*
X228403162Y-108984683D01*
X228339322Y-108885472D01*
X228396431Y-108801890D01*
X228447440Y-108550000D01*
X228447440Y-107950000D01*
X228437992Y-107899791D01*
X228597018Y-107965824D01*
X229001208Y-107966176D01*
X229374766Y-107811825D01*
X229444713Y-107742000D01*
X231098837Y-107742000D01*
X231065000Y-107823690D01*
X231065000Y-107964250D01*
X231223750Y-108123000D01*
X232323000Y-108123000D01*
X232323000Y-108103000D01*
X232577000Y-108103000D01*
X232577000Y-108123000D01*
X233676250Y-108123000D01*
X233835000Y-107964250D01*
X233835000Y-107823690D01*
X233745194Y-107606878D01*
X233796431Y-107531890D01*
X233847440Y-107280000D01*
X233847440Y-106680000D01*
X233803162Y-106444683D01*
X233739322Y-106345472D01*
X233796431Y-106261890D01*
X233847440Y-106010000D01*
X233847440Y-105410000D01*
X233808302Y-105202000D01*
X234138000Y-105202000D01*
X234138000Y-113688000D01*
G36*
X231154806Y-102183122D02*
X231103569Y-102258110D01*
X231052560Y-102510000D01*
X231052560Y-103110000D01*
X231096838Y-103345317D01*
X231235910Y-103561441D01*
X231328322Y-103624584D01*
X231248559Y-103675910D01*
X231103569Y-103888110D01*
X231052560Y-104140000D01*
X231052560Y-104238929D01*
X229974815Y-103161185D01*
X229869776Y-103091000D01*
X229727605Y-102996004D01*
X229436000Y-102938000D01*
X228277250Y-102938000D01*
X228276250Y-102937000D01*
X227177000Y-102937000D01*
X227177000Y-102938000D01*
X226923000Y-102938000D01*
X226923000Y-102937000D01*
X225823750Y-102937000D01*
X225822750Y-102938000D01*
X225760088Y-102938000D01*
X225468483Y-102996004D01*
X225326312Y-103091000D01*
X225221273Y-103161185D01*
X224970022Y-103412436D01*
X224970022Y-102977608D01*
X225736460Y-102211170D01*
X225665000Y-102383690D01*
X225665000Y-102524250D01*
X225823750Y-102683000D01*
X226923000Y-102683000D01*
X226923000Y-102663000D01*
X227177000Y-102663000D01*
X227177000Y-102683000D01*
X228276250Y-102683000D01*
X228435000Y-102524250D01*
X228435000Y-102383690D01*
X228401163Y-102302000D01*
X229457090Y-102302000D01*
X229565721Y-102410821D01*
X229939008Y-102565824D01*
X230343198Y-102566176D01*
X230716756Y-102411825D01*
X231002811Y-102126269D01*
X231067113Y-101971412D01*
X231154806Y-102183122D01*
X231154806Y-102183122D01*
G37*
X231154806Y-102183122D02*
X231103569Y-102258110D01*
X231052560Y-102510000D01*
X231052560Y-103110000D01*
X231096838Y-103345317D01*
X231235910Y-103561441D01*
X231328322Y-103624584D01*
X231248559Y-103675910D01*
X231103569Y-103888110D01*
X231052560Y-104140000D01*
X231052560Y-104238929D01*
X229974815Y-103161185D01*
X229869776Y-103091000D01*
X229727605Y-102996004D01*
X229436000Y-102938000D01*
X228277250Y-102938000D01*
X228276250Y-102937000D01*
X227177000Y-102937000D01*
X227177000Y-102938000D01*
X226923000Y-102938000D01*
X226923000Y-102937000D01*
X225823750Y-102937000D01*
X225822750Y-102938000D01*
X225760088Y-102938000D01*
X225468483Y-102996004D01*
X225326312Y-103091000D01*
X225221273Y-103161185D01*
X224970022Y-103412436D01*
X224970022Y-102977608D01*
X225736460Y-102211170D01*
X225665000Y-102383690D01*
X225665000Y-102524250D01*
X225823750Y-102683000D01*
X226923000Y-102683000D01*
X226923000Y-102663000D01*
X227177000Y-102663000D01*
X227177000Y-102683000D01*
X228276250Y-102683000D01*
X228435000Y-102524250D01*
X228435000Y-102383690D01*
X228401163Y-102302000D01*
X229457090Y-102302000D01*
X229565721Y-102410821D01*
X229939008Y-102565824D01*
X230343198Y-102566176D01*
X230716756Y-102411825D01*
X231002811Y-102126269D01*
X231067113Y-101971412D01*
X231154806Y-102183122D01*
G36*
X232577000Y-101413000D02*
X232597000Y-101413000D01*
X232597000Y-101667000D01*
X232577000Y-101667000D01*
X232577000Y-101687000D01*
X232323000Y-101687000D01*
X232323000Y-101667000D01*
X232303000Y-101667000D01*
X232303000Y-101413000D01*
X232323000Y-101413000D01*
X232323000Y-101393000D01*
X232577000Y-101393000D01*
X232577000Y-101413000D01*
X232577000Y-101413000D01*
G37*
X232577000Y-101413000D02*
X232597000Y-101413000D01*
X232597000Y-101667000D01*
X232577000Y-101667000D01*
X232577000Y-101687000D01*
X232323000Y-101687000D01*
X232323000Y-101667000D01*
X232303000Y-101667000D01*
X232303000Y-101413000D01*
X232323000Y-101413000D01*
X232323000Y-101393000D01*
X232577000Y-101393000D01*
X232577000Y-101413000D01*
G36*
X230612506Y-96790136D02*
X230375234Y-96888175D01*
X230089179Y-97173731D01*
X229934176Y-97547018D01*
X229933824Y-97951208D01*
X230088175Y-98324766D01*
X230373731Y-98610821D01*
X230747018Y-98765824D01*
X231116896Y-98766146D01*
X231223750Y-98873000D01*
X232323000Y-98873000D01*
X232323000Y-98853000D01*
X232577000Y-98853000D01*
X232577000Y-98873000D01*
X232597000Y-98873000D01*
X232597000Y-99127000D01*
X232577000Y-99127000D01*
X232577000Y-99147000D01*
X232323000Y-99147000D01*
X232323000Y-99127000D01*
X231223750Y-99127000D01*
X231065000Y-99285750D01*
X231065000Y-99426310D01*
X231154806Y-99643122D01*
X231103569Y-99718110D01*
X231052560Y-99970000D01*
X231052560Y-100570000D01*
X231096838Y-100805317D01*
X231155178Y-100895980D01*
X231065000Y-101113690D01*
X231065000Y-101123313D01*
X231003815Y-100975234D01*
X230718259Y-100689179D01*
X230344972Y-100534176D01*
X229940782Y-100533824D01*
X229567224Y-100688175D01*
X229477242Y-100778000D01*
X228405319Y-100778000D01*
X228447440Y-100570000D01*
X228447440Y-100015868D01*
X228801208Y-100016176D01*
X229174766Y-99861825D01*
X229460821Y-99576269D01*
X229615824Y-99202982D01*
X229616176Y-98798792D01*
X229461825Y-98425234D01*
X229176269Y-98139179D01*
X228802982Y-97984176D01*
X228447440Y-97983866D01*
X228447440Y-97515911D01*
X228751208Y-97516176D01*
X229124766Y-97361825D01*
X229410821Y-97076269D01*
X229565824Y-96702982D01*
X229566176Y-96298792D01*
X229411825Y-95925234D01*
X229126269Y-95639179D01*
X228752982Y-95484176D01*
X228447440Y-95483910D01*
X228447440Y-95162000D01*
X228984370Y-95162000D01*
X230612506Y-96790136D01*
X230612506Y-96790136D01*
G37*
X230612506Y-96790136D02*
X230375234Y-96888175D01*
X230089179Y-97173731D01*
X229934176Y-97547018D01*
X229933824Y-97951208D01*
X230088175Y-98324766D01*
X230373731Y-98610821D01*
X230747018Y-98765824D01*
X231116896Y-98766146D01*
X231223750Y-98873000D01*
X232323000Y-98873000D01*
X232323000Y-98853000D01*
X232577000Y-98853000D01*
X232577000Y-98873000D01*
X232597000Y-98873000D01*
X232597000Y-99127000D01*
X232577000Y-99127000D01*
X232577000Y-99147000D01*
X232323000Y-99147000D01*
X232323000Y-99127000D01*
X231223750Y-99127000D01*
X231065000Y-99285750D01*
X231065000Y-99426310D01*
X231154806Y-99643122D01*
X231103569Y-99718110D01*
X231052560Y-99970000D01*
X231052560Y-100570000D01*
X231096838Y-100805317D01*
X231155178Y-100895980D01*
X231065000Y-101113690D01*
X231065000Y-101123313D01*
X231003815Y-100975234D01*
X230718259Y-100689179D01*
X230344972Y-100534176D01*
X229940782Y-100533824D01*
X229567224Y-100688175D01*
X229477242Y-100778000D01*
X228405319Y-100778000D01*
X228447440Y-100570000D01*
X228447440Y-100015868D01*
X228801208Y-100016176D01*
X229174766Y-99861825D01*
X229460821Y-99576269D01*
X229615824Y-99202982D01*
X229616176Y-98798792D01*
X229461825Y-98425234D01*
X229176269Y-98139179D01*
X228802982Y-97984176D01*
X228447440Y-97983866D01*
X228447440Y-97515911D01*
X228751208Y-97516176D01*
X229124766Y-97361825D01*
X229410821Y-97076269D01*
X229565824Y-96702982D01*
X229566176Y-96298792D01*
X229411825Y-95925234D01*
X229126269Y-95639179D01*
X228752982Y-95484176D01*
X228447440Y-95483910D01*
X228447440Y-95162000D01*
X228984370Y-95162000D01*
X230612506Y-96790136D01*
M02*
