G04 #@! TF.FileFunction,Copper,L1,Top,Signal*
%FSLAX46Y46*%
G04 Gerber Fmt 4.6, Leading zero omitted, Abs format (unit mm)*
G04 Created by KiCad (PCBNEW 4.0.6) date Thursday, 09 November 2017 'PMt' 14:35:22*
%MOMM*%
%LPD*%
G01*
G04 APERTURE LIST*
%ADD10C,0.100000*%
%ADD11R,1.397000X0.431800*%
%ADD12R,1.500000X1.300000*%
%ADD13R,1.450000X0.450000*%
%ADD14R,1.700000X1.700000*%
%ADD15O,1.700000X1.700000*%
%ADD16R,1.500000X1.250000*%
%ADD17R,1.300000X1.500000*%
%ADD18R,0.700000X1.200000*%
%ADD19R,4.500000X4.290000*%
%ADD20R,1.550000X1.600000*%
%ADD21R,1.550000X1.200000*%
%ADD22R,3.500000X1.000000*%
%ADD23C,0.762000*%
%ADD24C,0.254000*%
%ADD25C,1.000000*%
G04 APERTURE END LIST*
D10*
D11*
X224956000Y-105569600D03*
X224956000Y-106204600D03*
X224956000Y-106865000D03*
X224956000Y-107500000D03*
X224956000Y-108160400D03*
X224956000Y-108808100D03*
X224956000Y-109455800D03*
X230544000Y-109455800D03*
X230544000Y-108808100D03*
X230544000Y-108160400D03*
X230544000Y-107500000D03*
X230544000Y-106852300D03*
X230544000Y-106204600D03*
X230544000Y-105556900D03*
D12*
X226400000Y-126500000D03*
X229100000Y-126500000D03*
D13*
X230700000Y-122425000D03*
X230700000Y-121775000D03*
X230700000Y-121125000D03*
X230700000Y-120475000D03*
X230700000Y-119825000D03*
X230700000Y-119175000D03*
X230700000Y-118525000D03*
X230700000Y-117875000D03*
X230700000Y-117225000D03*
X230700000Y-116575000D03*
X224800000Y-116575000D03*
X224800000Y-117225000D03*
X224800000Y-117875000D03*
X224800000Y-118525000D03*
X224800000Y-119175000D03*
X224800000Y-119825000D03*
X224800000Y-120475000D03*
X224800000Y-121125000D03*
X224800000Y-121775000D03*
X224800000Y-122425000D03*
D14*
X237010000Y-124200000D03*
D15*
X237010000Y-126740000D03*
D16*
X236990000Y-121660000D03*
X234490000Y-121660000D03*
X226400000Y-114400000D03*
X228900000Y-114400000D03*
X226400000Y-124300000D03*
X228900000Y-124300000D03*
D14*
X237010000Y-103880000D03*
X237010000Y-108960000D03*
D15*
X237010000Y-111500000D03*
X237010000Y-114040000D03*
X237010000Y-116580000D03*
X237010000Y-119120000D03*
D17*
X233400000Y-124150000D03*
X233400000Y-126850000D03*
D11*
X224956000Y-97569600D03*
X224956000Y-98204600D03*
X224956000Y-98865000D03*
X224956000Y-99500000D03*
X224956000Y-100160400D03*
X224956000Y-100808100D03*
X224956000Y-101455800D03*
X230544000Y-101455800D03*
X230544000Y-100808100D03*
X230544000Y-100160400D03*
X230544000Y-99500000D03*
X230544000Y-98852300D03*
X230544000Y-98204600D03*
X230544000Y-97556900D03*
D18*
X229660000Y-128600000D03*
X228390000Y-128600000D03*
X227110000Y-128600000D03*
X225840000Y-128600000D03*
X225840000Y-134400000D03*
X227110000Y-134400000D03*
X228390000Y-134400000D03*
X229660000Y-134400000D03*
D19*
X227750000Y-132000000D03*
D20*
X228840000Y-132750000D03*
X226660000Y-132750000D03*
D21*
X228840000Y-130750000D03*
X226660000Y-130750000D03*
D16*
X226500000Y-103500000D03*
X229000000Y-103500000D03*
X226500000Y-95500000D03*
X229000000Y-95500000D03*
D14*
X237010000Y-134360000D03*
D15*
X234470000Y-134360000D03*
X231930000Y-134360000D03*
D14*
X237010000Y-129280000D03*
D22*
X218750000Y-99500000D03*
X218750000Y-101500000D03*
X218750000Y-103500000D03*
X218750000Y-105500000D03*
X218750000Y-107500000D03*
X218750000Y-109500000D03*
X218750000Y-111500000D03*
X218750000Y-113500000D03*
X218750000Y-115500000D03*
X218750000Y-117500000D03*
X218750000Y-119500000D03*
X218750000Y-121500000D03*
X218750000Y-123500000D03*
X218750000Y-125500000D03*
X218750000Y-127500000D03*
X218750000Y-129500000D03*
D23*
X230750562Y-124310683D03*
X232750000Y-119000004D03*
X232750000Y-120200004D03*
X226950000Y-121716990D03*
X227650000Y-122700000D03*
X228050000Y-120100000D03*
X228283070Y-100131451D03*
X223120022Y-118341417D03*
X227238338Y-101525691D03*
X223141645Y-106539680D03*
X223187306Y-117309293D03*
X223170022Y-110000000D03*
X223574033Y-116391699D03*
X233250000Y-131000000D03*
X223700000Y-123250002D03*
X231650000Y-126600000D03*
X226758010Y-108857579D03*
X226750000Y-116600000D03*
X228870043Y-106900000D03*
X229250000Y-117283010D03*
X233150002Y-116200000D03*
X233150000Y-108200000D03*
X232750000Y-117800000D03*
X232350000Y-109500000D03*
X233150000Y-122750000D03*
X230700000Y-123350000D03*
X221299361Y-105499361D03*
X229050000Y-98300000D03*
X221300000Y-107400000D03*
X227150000Y-99500000D03*
X221300000Y-109500000D03*
X227150000Y-100500000D03*
D24*
X228900000Y-124300000D02*
X230739879Y-124300000D01*
X230739879Y-124300000D02*
X230750562Y-124310683D01*
X229000000Y-95500000D02*
X230004000Y-95500000D01*
X230004000Y-95500000D02*
X234450000Y-99946000D01*
X234450000Y-99946000D02*
X234450000Y-105150000D01*
X235150000Y-115500000D02*
X234450000Y-114800000D01*
X234450000Y-114800000D02*
X232350000Y-112700000D01*
X232800000Y-103500000D02*
X234450000Y-105150000D01*
X234450000Y-105150000D02*
X234450000Y-114800000D01*
X229000000Y-103500000D02*
X232800000Y-103500000D01*
X237010000Y-119120000D02*
X235150000Y-117260000D01*
X235150000Y-117260000D02*
X235150000Y-115500000D01*
X232350000Y-112700000D02*
X228225000Y-112700000D01*
X228225000Y-112700000D02*
X226525000Y-114400000D01*
X226525000Y-114400000D02*
X226400000Y-114400000D01*
X229000000Y-95500000D02*
X229125000Y-95500000D01*
X229125000Y-95500000D02*
X230544000Y-96919000D01*
X230544000Y-96919000D02*
X230544000Y-97087000D01*
X230544000Y-97087000D02*
X230544000Y-97556900D01*
X229000000Y-103500000D02*
X230004000Y-103500000D01*
X230544000Y-105087000D02*
X230544000Y-105556900D01*
X230004000Y-103500000D02*
X230544000Y-104040000D01*
X230544000Y-104040000D02*
X230544000Y-105087000D01*
X236990000Y-121660000D02*
X236990000Y-124180000D01*
X236990000Y-124180000D02*
X237010000Y-124200000D01*
X237010000Y-121640000D02*
X236990000Y-121660000D01*
X228900000Y-120646000D02*
X229721000Y-119825000D01*
X228900000Y-124300000D02*
X228900000Y-120646000D01*
X229721000Y-119825000D02*
X230700000Y-119825000D01*
X224800000Y-119825000D02*
X225779000Y-119825000D01*
X226400000Y-115279000D02*
X226400000Y-114400000D01*
X225852001Y-115826999D02*
X226400000Y-115279000D01*
X225852001Y-119751999D02*
X225852001Y-115826999D01*
X225779000Y-119825000D02*
X225852001Y-119751999D01*
X224800000Y-119175000D02*
X223976349Y-119175000D01*
X223976349Y-119175000D02*
X223320034Y-119831315D01*
X223320034Y-119831315D02*
X223320034Y-120179966D01*
X223320034Y-120179966D02*
X222750000Y-120750000D01*
X222750000Y-120750000D02*
X222750000Y-124250000D01*
X222750000Y-124250000D02*
X222800000Y-124300000D01*
X222800000Y-124300000D02*
X225396000Y-124300000D01*
X225396000Y-124300000D02*
X226400000Y-124300000D01*
X230950000Y-94250000D02*
X227875000Y-94250000D01*
X227875000Y-94250000D02*
X226625000Y-95500000D01*
X226625000Y-95500000D02*
X226500000Y-95500000D01*
X231247999Y-94547999D02*
X230950000Y-94250000D01*
X238450000Y-100500000D02*
X232497999Y-94547999D01*
X232497999Y-94547999D02*
X231247999Y-94547999D01*
X238450000Y-112600000D02*
X238450000Y-100500000D01*
X237010000Y-114040000D02*
X238450000Y-112600000D01*
X232750000Y-114400000D02*
X234490000Y-116140000D01*
X234490000Y-116140000D02*
X234490000Y-121660000D01*
X228900000Y-114400000D02*
X232750000Y-114400000D01*
X238600000Y-114427919D02*
X238600000Y-125150000D01*
X238600000Y-125150000D02*
X237010000Y-126740000D01*
X237010000Y-114040000D02*
X238212081Y-114040000D01*
X238212081Y-114040000D02*
X238600000Y-114427919D01*
X229260000Y-114040000D02*
X228900000Y-114400000D01*
X227466011Y-108517738D02*
X227466011Y-109197420D01*
X226308389Y-109455800D02*
X225908500Y-109455800D01*
X226418169Y-109565580D02*
X226308389Y-109455800D01*
X227466011Y-109197420D02*
X227097851Y-109565580D01*
X227097851Y-109565580D02*
X226418169Y-109565580D01*
X226500000Y-103500000D02*
X226500000Y-107551727D01*
X226500000Y-107551727D02*
X227466011Y-108517738D01*
X225908500Y-109455800D02*
X224956000Y-109455800D01*
X226500000Y-103500000D02*
X226375000Y-103500000D01*
X226375000Y-103500000D02*
X224956000Y-102081000D01*
X224956000Y-102081000D02*
X224956000Y-101925700D01*
X224956000Y-101925700D02*
X224956000Y-101455800D01*
X226500000Y-95500000D02*
X226500000Y-96379000D01*
X226500000Y-96379000D02*
X225981501Y-96897499D01*
X225981501Y-96897499D02*
X225981501Y-101382799D01*
X225981501Y-101382799D02*
X225908500Y-101455800D01*
X225908500Y-101455800D02*
X224956000Y-101455800D01*
X226400000Y-124300000D02*
X226525000Y-124300000D01*
X227786000Y-125561000D02*
X227786000Y-127746000D01*
X226525000Y-124300000D02*
X227786000Y-125561000D01*
X227786000Y-127746000D02*
X228390000Y-128350000D01*
X228390000Y-128350000D02*
X228390000Y-128600000D01*
X233200000Y-126820000D02*
X233200000Y-127850000D01*
X233200000Y-127850000D02*
X232450000Y-128600000D01*
X232450000Y-128600000D02*
X228994000Y-128600000D01*
X228994000Y-128600000D02*
X228390000Y-128600000D01*
X233200000Y-126820000D02*
X233200000Y-127824000D01*
X233200000Y-127824000D02*
X232424000Y-128600000D01*
X232424000Y-128600000D02*
X230264000Y-128600000D01*
X230264000Y-128600000D02*
X229660000Y-128600000D01*
X232424000Y-128600000D02*
X227714000Y-128600000D01*
X227714000Y-128600000D02*
X227110000Y-128600000D01*
X237010000Y-126740000D02*
X233280000Y-126740000D01*
X233280000Y-126740000D02*
X233200000Y-126820000D01*
X237010000Y-126740000D02*
X237010000Y-127942081D01*
X237010000Y-127942081D02*
X237010000Y-129280000D01*
X234490000Y-121660000D02*
X234490000Y-124220000D01*
X234490000Y-124220000D02*
X237010000Y-126740000D01*
X232575004Y-119175000D02*
X232750000Y-119000004D01*
X230700000Y-119175000D02*
X232575004Y-119175000D01*
X232475004Y-120475000D02*
X232750000Y-120200004D01*
X230700000Y-120475000D02*
X232475004Y-120475000D01*
X226891990Y-121775000D02*
X226950000Y-121716990D01*
X224800000Y-121775000D02*
X226891990Y-121775000D01*
X224800000Y-122425000D02*
X227375000Y-122425000D01*
X227375000Y-122425000D02*
X227650000Y-122700000D01*
X227669001Y-120480999D02*
X228050000Y-120100000D01*
X227138149Y-120480999D02*
X227669001Y-120480999D01*
X224800000Y-121125000D02*
X226494148Y-121125000D01*
X226494148Y-121125000D02*
X227138149Y-120480999D01*
X228312019Y-100160400D02*
X228283070Y-100131451D01*
X230544000Y-100160400D02*
X228312019Y-100160400D01*
X230504400Y-100200000D02*
X230544000Y-100160400D01*
X223354583Y-118341417D02*
X223120022Y-118341417D01*
X224800000Y-117875000D02*
X223821000Y-117875000D01*
X223821000Y-117875000D02*
X223354583Y-118341417D01*
X227308229Y-101455800D02*
X227238338Y-101525691D01*
X230544000Y-101455800D02*
X227308229Y-101455800D01*
X224956000Y-106204600D02*
X223476725Y-106204600D01*
X223476725Y-106204600D02*
X223141645Y-106539680D01*
X223271599Y-117225000D02*
X223187306Y-117309293D01*
X224800000Y-117225000D02*
X223271599Y-117225000D01*
X225051400Y-106300000D02*
X224956000Y-106204600D01*
X218750000Y-129500000D02*
X220700000Y-129500000D01*
X222250000Y-121750000D02*
X222250000Y-120603253D01*
X220700000Y-129500000D02*
X221250000Y-128950000D01*
X221250000Y-128950000D02*
X221250000Y-122750000D01*
X222866023Y-119643258D02*
X223984281Y-118525000D01*
X221250000Y-122750000D02*
X222250000Y-121750000D01*
X222250000Y-120603253D02*
X222866023Y-119987230D01*
X222866023Y-119987230D02*
X222866023Y-119643258D01*
X223984281Y-118525000D02*
X224800000Y-118525000D01*
X223170022Y-109461185D02*
X223170022Y-110000000D01*
X223170022Y-108333478D02*
X223170022Y-109461185D01*
X224956000Y-107500000D02*
X224003500Y-107500000D01*
X224003500Y-107500000D02*
X223170022Y-108333478D01*
X223757334Y-116575000D02*
X223574033Y-116391699D01*
X224800000Y-116575000D02*
X223757334Y-116575000D01*
X233788815Y-131000000D02*
X233250000Y-131000000D01*
X234754000Y-131000000D02*
X233788815Y-131000000D01*
X237010000Y-133256000D02*
X234754000Y-131000000D01*
X237010000Y-134360000D02*
X237010000Y-133256000D01*
X223700000Y-122711187D02*
X223700000Y-123250002D01*
X223821000Y-120475000D02*
X223700000Y-120596000D01*
X224800000Y-120475000D02*
X223821000Y-120475000D01*
X223700000Y-120596000D02*
X223700000Y-122711187D01*
X230700000Y-121125000D02*
X231679000Y-121125000D01*
X231679000Y-121125000D02*
X232206011Y-121652011D01*
X232206011Y-121652011D02*
X232206011Y-126043989D01*
X232206011Y-126043989D02*
X232030999Y-126219001D01*
X232030999Y-126219001D02*
X231650000Y-126600000D01*
X225840000Y-134400000D02*
X225840000Y-134150000D01*
X225840000Y-134150000D02*
X227750000Y-132240000D01*
X227750000Y-132240000D02*
X227750000Y-132000000D01*
X227110000Y-134400000D02*
X225840000Y-134400000D01*
X228390000Y-134400000D02*
X227110000Y-134400000D01*
X229660000Y-134400000D02*
X228390000Y-134400000D01*
D25*
X231930000Y-134360000D02*
X229700000Y-134360000D01*
D24*
X229700000Y-134360000D02*
X229660000Y-134400000D01*
X224956000Y-108808100D02*
X226708531Y-108808100D01*
X226708531Y-108808100D02*
X226758010Y-108857579D01*
X226775000Y-116575000D02*
X226750000Y-116600000D01*
X230700000Y-116575000D02*
X226775000Y-116575000D01*
X230544000Y-106852300D02*
X228917743Y-106852300D01*
X228917743Y-106852300D02*
X228870043Y-106900000D01*
X229308010Y-117225000D02*
X229250000Y-117283010D01*
X230700000Y-117225000D02*
X229308010Y-117225000D01*
X232769003Y-116580999D02*
X233150002Y-116200000D01*
X231475002Y-117875000D02*
X232769003Y-116580999D01*
X230700000Y-117875000D02*
X231475002Y-117875000D01*
X233110400Y-108160400D02*
X233150000Y-108200000D01*
X230544000Y-108160400D02*
X233110400Y-108160400D01*
X230583600Y-108200000D02*
X230544000Y-108160400D01*
X232369001Y-118180999D02*
X232750000Y-117800000D01*
X232025000Y-118525000D02*
X232369001Y-118180999D01*
X230700000Y-118525000D02*
X232025000Y-118525000D01*
X232305800Y-109455800D02*
X232350000Y-109500000D01*
X230544000Y-109455800D02*
X232305800Y-109455800D01*
X230688200Y-109600000D02*
X230544000Y-109455800D01*
X233150000Y-122750000D02*
X233150000Y-123900000D01*
X233150000Y-123900000D02*
X233400000Y-124150000D01*
X230700000Y-122425000D02*
X230700000Y-123350000D01*
X230104000Y-126500000D02*
X229100000Y-126500000D01*
X230497842Y-126500000D02*
X230104000Y-126500000D01*
X231752001Y-125245841D02*
X230497842Y-126500000D01*
X231752001Y-121848001D02*
X231752001Y-125245841D01*
X231679000Y-121775000D02*
X231752001Y-121848001D01*
X230700000Y-121775000D02*
X231679000Y-121775000D01*
X226400000Y-126500000D02*
X225800000Y-127100000D01*
X225800000Y-127100000D02*
X225800000Y-128560000D01*
X225800000Y-128560000D02*
X225840000Y-128600000D01*
X224956000Y-97569600D02*
X223980400Y-97569600D01*
X223980400Y-97569600D02*
X222050000Y-99500000D01*
X222050000Y-99500000D02*
X221500000Y-99500000D01*
X221500000Y-99500000D02*
X218750000Y-99500000D01*
X224956000Y-98865000D02*
X224135000Y-98865000D01*
X224135000Y-98865000D02*
X221500000Y-101500000D01*
X221500000Y-101500000D02*
X218750000Y-101500000D01*
X224956000Y-100160400D02*
X224093600Y-100160400D01*
X224093600Y-100160400D02*
X221500000Y-102754000D01*
X221500000Y-102754000D02*
X221500000Y-103500000D01*
X221500000Y-103500000D02*
X218750000Y-103500000D01*
X221298722Y-105500000D02*
X221299361Y-105499361D01*
X218750000Y-105500000D02*
X221298722Y-105500000D01*
X229050000Y-98300000D02*
X230448600Y-98300000D01*
X230448600Y-98300000D02*
X230544000Y-98204600D01*
X218750000Y-107500000D02*
X221200000Y-107500000D01*
X221200000Y-107500000D02*
X221300000Y-107400000D01*
X227150000Y-99500000D02*
X227688815Y-99500000D01*
X227688815Y-99500000D02*
X227765366Y-99423449D01*
X227765366Y-99423449D02*
X229514949Y-99423449D01*
X229514949Y-99423449D02*
X229591500Y-99500000D01*
X229591500Y-99500000D02*
X230544000Y-99500000D01*
X218750000Y-109500000D02*
X221300000Y-109500000D01*
X227530999Y-100880999D02*
X229518601Y-100880999D01*
X229591500Y-100808100D02*
X230544000Y-100808100D01*
X227150000Y-100500000D02*
X227530999Y-100880999D01*
X229518601Y-100880999D02*
X229591500Y-100808100D01*
X218750000Y-111500000D02*
X221250000Y-111500000D01*
X221250000Y-111500000D02*
X222008002Y-110741998D01*
X222008002Y-105994154D02*
X222432556Y-105569600D01*
X222432556Y-105569600D02*
X224003500Y-105569600D01*
X224003500Y-105569600D02*
X224956000Y-105569600D01*
X222008002Y-110741998D02*
X222008002Y-105994154D01*
X218750000Y-113500000D02*
X220754000Y-113500000D01*
X220754000Y-113500000D02*
X220754639Y-113499361D01*
X220754639Y-113499361D02*
X221249361Y-113499361D01*
X222462012Y-108252634D02*
X223849646Y-106865000D01*
X221249361Y-113499361D02*
X222462012Y-112286710D01*
X222462012Y-112286710D02*
X222462012Y-108252634D01*
X223849646Y-106865000D02*
X224956000Y-106865000D01*
X218750000Y-115500000D02*
X220711185Y-115500000D01*
X224003500Y-108160400D02*
X224956000Y-108160400D01*
X220711185Y-115500000D02*
X223878024Y-112333161D01*
X223878024Y-112333161D02*
X223878024Y-108285876D01*
X223878024Y-108285876D02*
X224003500Y-108160400D01*
X218750000Y-117500000D02*
X220700000Y-117500000D01*
X220700000Y-117500000D02*
X221400000Y-116800000D01*
X221409907Y-116800000D02*
X221958001Y-116251906D01*
X226833662Y-110019591D02*
X227285908Y-110019591D01*
X228210159Y-105991999D02*
X229378899Y-105991999D01*
X221400000Y-116800000D02*
X221409907Y-116800000D01*
X221958001Y-116251906D02*
X221958001Y-114895252D01*
X221958001Y-114895252D02*
X226833662Y-110019591D01*
X227285908Y-110019591D02*
X227920022Y-109385477D01*
X227920022Y-109385477D02*
X227920022Y-106282136D01*
X227920022Y-106282136D02*
X228210159Y-105991999D01*
X229378899Y-105991999D02*
X229591500Y-106204600D01*
X229591500Y-106204600D02*
X230544000Y-106204600D01*
X218750000Y-119500000D02*
X220700000Y-119500000D01*
X221400000Y-118800000D02*
X221411185Y-118800000D01*
X220700000Y-119500000D02*
X221400000Y-118800000D01*
X221958001Y-118253184D02*
X221958001Y-116895252D01*
X221411185Y-118800000D02*
X221958001Y-118253184D01*
X229089841Y-108001659D02*
X229591500Y-107500000D01*
X221958001Y-116895252D02*
X222412012Y-116441241D01*
X222412012Y-116441241D02*
X222412012Y-115095920D01*
X222412012Y-115095920D02*
X227034330Y-110473602D01*
X227034330Y-110473602D02*
X227473966Y-110473601D01*
X229591500Y-107500000D02*
X230544000Y-107500000D01*
X227473966Y-110473601D02*
X229089841Y-108857726D01*
X229089841Y-108857726D02*
X229089841Y-108001659D01*
X218750000Y-121500000D02*
X220700000Y-121500000D01*
X221300000Y-120900000D02*
X221311185Y-120900000D01*
X221311185Y-120900000D02*
X222412012Y-119799173D01*
X220700000Y-121500000D02*
X221300000Y-120900000D01*
X222412012Y-119799173D02*
X222412012Y-117083309D01*
X222412012Y-117083309D02*
X222866023Y-116629298D01*
X227471989Y-110927611D02*
X227662024Y-110927611D01*
X227662024Y-110927611D02*
X229781535Y-108808100D01*
X222866023Y-116629298D02*
X222866023Y-115533577D01*
X222866023Y-115533577D02*
X227471989Y-110927611D01*
X229781535Y-108808100D02*
X230544000Y-108808100D01*
X230496300Y-98900000D02*
X230544000Y-98852300D01*
G36*
X239290000Y-135790000D02*
X238131312Y-135790000D01*
X238311441Y-135674090D01*
X238456431Y-135461890D01*
X238507440Y-135210000D01*
X238507440Y-133510000D01*
X238463162Y-133274683D01*
X238324090Y-133058559D01*
X238111890Y-132913569D01*
X237860000Y-132862560D01*
X237645952Y-132862560D01*
X237634825Y-132845907D01*
X237548816Y-132717185D01*
X235292815Y-130461185D01*
X235278232Y-130451441D01*
X235045605Y-130296004D01*
X234754000Y-130238000D01*
X233924918Y-130238000D01*
X233826269Y-130139179D01*
X233452982Y-129984176D01*
X233048792Y-129983824D01*
X232675234Y-130138175D01*
X232389179Y-130423731D01*
X232234176Y-130797018D01*
X232233824Y-131201208D01*
X232388175Y-131574766D01*
X232673731Y-131860821D01*
X233047018Y-132015824D01*
X233451208Y-132016176D01*
X233824766Y-131861825D01*
X233924765Y-131762000D01*
X234438370Y-131762000D01*
X235716907Y-133040538D01*
X235708559Y-133045910D01*
X235563569Y-133258110D01*
X235549914Y-133325541D01*
X235520054Y-133280853D01*
X235038285Y-132958946D01*
X234470000Y-132845907D01*
X233901715Y-132958946D01*
X233419946Y-133280853D01*
X233200000Y-133610026D01*
X232980054Y-133280853D01*
X232498285Y-132958946D01*
X231930000Y-132845907D01*
X231361715Y-132958946D01*
X230963536Y-133225000D01*
X230647440Y-133225000D01*
X230647440Y-129855000D01*
X230603162Y-129619683D01*
X230568457Y-129565750D01*
X235525000Y-129565750D01*
X235525000Y-130256310D01*
X235621673Y-130489699D01*
X235800302Y-130668327D01*
X236033691Y-130765000D01*
X236724250Y-130765000D01*
X236883000Y-130606250D01*
X236883000Y-129407000D01*
X237137000Y-129407000D01*
X237137000Y-130606250D01*
X237295750Y-130765000D01*
X237986309Y-130765000D01*
X238219698Y-130668327D01*
X238398327Y-130489699D01*
X238495000Y-130256310D01*
X238495000Y-129565750D01*
X238336250Y-129407000D01*
X237137000Y-129407000D01*
X236883000Y-129407000D01*
X235683750Y-129407000D01*
X235525000Y-129565750D01*
X230568457Y-129565750D01*
X230554685Y-129544348D01*
X230645000Y-129326310D01*
X230645000Y-128885750D01*
X230486250Y-128727000D01*
X229787000Y-128727000D01*
X229787000Y-128747000D01*
X229533000Y-128747000D01*
X229533000Y-128727000D01*
X228517000Y-128727000D01*
X228517000Y-128747000D01*
X228263000Y-128747000D01*
X228263000Y-128727000D01*
X227237000Y-128727000D01*
X227237000Y-128747000D01*
X226983000Y-128747000D01*
X226983000Y-128727000D01*
X226963000Y-128727000D01*
X226963000Y-128473000D01*
X226983000Y-128473000D01*
X226983000Y-128453000D01*
X227237000Y-128453000D01*
X227237000Y-128473000D01*
X228263000Y-128473000D01*
X228263000Y-128453000D01*
X228517000Y-128453000D01*
X228517000Y-128473000D01*
X229533000Y-128473000D01*
X229533000Y-128453000D01*
X229787000Y-128453000D01*
X229787000Y-128473000D01*
X230486250Y-128473000D01*
X230645000Y-128314250D01*
X230645000Y-128303690D01*
X235525000Y-128303690D01*
X235525000Y-128994250D01*
X235683750Y-129153000D01*
X236883000Y-129153000D01*
X236883000Y-126867000D01*
X237137000Y-126867000D01*
X237137000Y-129153000D01*
X238336250Y-129153000D01*
X238495000Y-128994250D01*
X238495000Y-128303690D01*
X238398327Y-128070301D01*
X238219698Y-127891673D01*
X238005792Y-127803070D01*
X238205183Y-127621358D01*
X238451486Y-127096892D01*
X238330819Y-126867000D01*
X237137000Y-126867000D01*
X236883000Y-126867000D01*
X235689181Y-126867000D01*
X235568514Y-127096892D01*
X235814817Y-127621358D01*
X236014208Y-127803070D01*
X235800302Y-127891673D01*
X235621673Y-128070301D01*
X235525000Y-128303690D01*
X230645000Y-128303690D01*
X230645000Y-127873690D01*
X230548327Y-127640301D01*
X230391017Y-127482992D01*
X230446431Y-127401890D01*
X230474759Y-127262000D01*
X230497842Y-127262000D01*
X230789447Y-127203996D01*
X230806188Y-127192810D01*
X231073731Y-127460821D01*
X231447018Y-127615824D01*
X231851208Y-127616176D01*
X232115000Y-127507179D01*
X232115000Y-127726309D01*
X232211673Y-127959698D01*
X232390301Y-128138327D01*
X232623690Y-128235000D01*
X233114250Y-128235000D01*
X233273000Y-128076250D01*
X233273000Y-126977000D01*
X233527000Y-126977000D01*
X233527000Y-128076250D01*
X233685750Y-128235000D01*
X234176310Y-128235000D01*
X234409699Y-128138327D01*
X234588327Y-127959698D01*
X234685000Y-127726309D01*
X234685000Y-127135750D01*
X234526250Y-126977000D01*
X233527000Y-126977000D01*
X233273000Y-126977000D01*
X233253000Y-126977000D01*
X233253000Y-126723000D01*
X233273000Y-126723000D01*
X233273000Y-126703000D01*
X233527000Y-126703000D01*
X233527000Y-126723000D01*
X234526250Y-126723000D01*
X234685000Y-126564250D01*
X234685000Y-125973691D01*
X234588327Y-125740302D01*
X234409699Y-125561673D01*
X234273713Y-125505346D01*
X234285317Y-125503162D01*
X234501441Y-125364090D01*
X234646431Y-125151890D01*
X234697440Y-124900000D01*
X234697440Y-123400000D01*
X234653162Y-123164683D01*
X234514090Y-122948559D01*
X234313053Y-122811197D01*
X234363000Y-122761250D01*
X234363000Y-121787000D01*
X233480196Y-121787000D01*
X233352982Y-121734176D01*
X232968011Y-121733841D01*
X232968011Y-121652011D01*
X232910007Y-121360406D01*
X232813558Y-121216060D01*
X232951208Y-121216180D01*
X233105000Y-121152634D01*
X233105000Y-121374250D01*
X233263750Y-121533000D01*
X234363000Y-121533000D01*
X234363000Y-120558750D01*
X234204250Y-120400000D01*
X233765827Y-120400000D01*
X233766176Y-119998796D01*
X233611825Y-119625238D01*
X233586841Y-119600211D01*
X233610821Y-119576273D01*
X233765824Y-119202986D01*
X233766176Y-118798796D01*
X233611825Y-118425238D01*
X233586839Y-118400209D01*
X233610821Y-118376269D01*
X233765824Y-118002982D01*
X233766176Y-117598792D01*
X233611825Y-117225234D01*
X233529318Y-117142583D01*
X233724768Y-117061825D01*
X234010823Y-116776269D01*
X234165826Y-116402982D01*
X234166178Y-115998792D01*
X234011827Y-115625234D01*
X233726271Y-115339179D01*
X233352984Y-115184176D01*
X232948794Y-115183824D01*
X232575236Y-115338175D01*
X232289181Y-115623731D01*
X232134178Y-115997018D01*
X232134055Y-116138316D01*
X232048674Y-116223697D01*
X232028162Y-116114683D01*
X231889090Y-115898559D01*
X231676890Y-115753569D01*
X231425000Y-115702560D01*
X229975000Y-115702560D01*
X229739683Y-115746838D01*
X229636864Y-115813000D01*
X227399961Y-115813000D01*
X227326269Y-115739179D01*
X227160697Y-115670427D01*
X227385317Y-115628162D01*
X227601441Y-115489090D01*
X227647969Y-115420994D01*
X227790302Y-115563327D01*
X228023691Y-115660000D01*
X228614250Y-115660000D01*
X228773000Y-115501250D01*
X228773000Y-114527000D01*
X229027000Y-114527000D01*
X229027000Y-115501250D01*
X229185750Y-115660000D01*
X229776309Y-115660000D01*
X230009698Y-115563327D01*
X230188327Y-115384699D01*
X230285000Y-115151310D01*
X230285000Y-114685750D01*
X230126250Y-114527000D01*
X229027000Y-114527000D01*
X228773000Y-114527000D01*
X228753000Y-114527000D01*
X228753000Y-114273000D01*
X228773000Y-114273000D01*
X228773000Y-114253000D01*
X229027000Y-114253000D01*
X229027000Y-114273000D01*
X230126250Y-114273000D01*
X230285000Y-114114250D01*
X230285000Y-113648690D01*
X230207670Y-113462000D01*
X232034370Y-113462000D01*
X233911184Y-115338815D01*
X233911187Y-115338817D01*
X234388000Y-115815631D01*
X234388000Y-117260000D01*
X234446004Y-117551605D01*
X234587254Y-117763000D01*
X234611185Y-117798815D01*
X235568321Y-118755951D01*
X235495907Y-119120000D01*
X235608946Y-119688285D01*
X235930853Y-120170054D01*
X236256374Y-120387560D01*
X236240000Y-120387560D01*
X236004683Y-120431838D01*
X235788559Y-120570910D01*
X235742031Y-120639006D01*
X235599698Y-120496673D01*
X235366309Y-120400000D01*
X234775750Y-120400000D01*
X234617000Y-120558750D01*
X234617000Y-121533000D01*
X234637000Y-121533000D01*
X234637000Y-121787000D01*
X234617000Y-121787000D01*
X234617000Y-122761250D01*
X234775750Y-122920000D01*
X235366309Y-122920000D01*
X235599698Y-122823327D01*
X235740936Y-122682090D01*
X235775910Y-122736441D01*
X235855902Y-122791097D01*
X235708559Y-122885910D01*
X235563569Y-123098110D01*
X235512560Y-123350000D01*
X235512560Y-125050000D01*
X235556838Y-125285317D01*
X235695910Y-125501441D01*
X235908110Y-125646431D01*
X236022301Y-125669555D01*
X235814817Y-125858642D01*
X235568514Y-126383108D01*
X235689181Y-126613000D01*
X236883000Y-126613000D01*
X236883000Y-126593000D01*
X237137000Y-126593000D01*
X237137000Y-126613000D01*
X238330819Y-126613000D01*
X238451486Y-126383108D01*
X238205183Y-125858642D01*
X237999496Y-125671192D01*
X238095317Y-125653162D01*
X238311441Y-125514090D01*
X238456431Y-125301890D01*
X238507440Y-125050000D01*
X238507440Y-123350000D01*
X238463162Y-123114683D01*
X238324090Y-122898559D01*
X238147097Y-122777625D01*
X238191441Y-122749090D01*
X238336431Y-122536890D01*
X238387440Y-122285000D01*
X238387440Y-121035000D01*
X238343162Y-120799683D01*
X238204090Y-120583559D01*
X237991890Y-120438569D01*
X237758131Y-120391232D01*
X238089147Y-120170054D01*
X238411054Y-119688285D01*
X238524093Y-119120000D01*
X238411054Y-118551715D01*
X238089147Y-118069946D01*
X237759974Y-117850000D01*
X238089147Y-117630054D01*
X238411054Y-117148285D01*
X238524093Y-116580000D01*
X238411054Y-116011715D01*
X238089147Y-115529946D01*
X237748447Y-115302298D01*
X237891358Y-115235183D01*
X238281645Y-114806924D01*
X238451476Y-114396890D01*
X238330155Y-114167000D01*
X237137000Y-114167000D01*
X237137000Y-114187000D01*
X236883000Y-114187000D01*
X236883000Y-114167000D01*
X235689845Y-114167000D01*
X235568524Y-114396890D01*
X235738355Y-114806924D01*
X236128642Y-115235183D01*
X236271553Y-115302298D01*
X235930853Y-115529946D01*
X235912000Y-115558162D01*
X235912000Y-115500000D01*
X235853996Y-115208395D01*
X235784239Y-115103996D01*
X235688815Y-114961184D01*
X235212000Y-114484370D01*
X235212000Y-111500000D01*
X235495907Y-111500000D01*
X235608946Y-112068285D01*
X235930853Y-112550054D01*
X236271553Y-112777702D01*
X236128642Y-112844817D01*
X235738355Y-113273076D01*
X235568524Y-113683110D01*
X235689845Y-113913000D01*
X236883000Y-113913000D01*
X236883000Y-113893000D01*
X237137000Y-113893000D01*
X237137000Y-113913000D01*
X238330155Y-113913000D01*
X238451476Y-113683110D01*
X238281645Y-113273076D01*
X237891358Y-112844817D01*
X237748447Y-112777702D01*
X238089147Y-112550054D01*
X238411054Y-112068285D01*
X238524093Y-111500000D01*
X238411054Y-110931715D01*
X238089147Y-110449946D01*
X238047548Y-110422150D01*
X238095317Y-110413162D01*
X238311441Y-110274090D01*
X238456431Y-110061890D01*
X238507440Y-109810000D01*
X238507440Y-108110000D01*
X238463162Y-107874683D01*
X238324090Y-107658559D01*
X238111890Y-107513569D01*
X237860000Y-107462560D01*
X236160000Y-107462560D01*
X235924683Y-107506838D01*
X235708559Y-107645910D01*
X235563569Y-107858110D01*
X235512560Y-108110000D01*
X235512560Y-109810000D01*
X235556838Y-110045317D01*
X235695910Y-110261441D01*
X235908110Y-110406431D01*
X235975541Y-110420086D01*
X235930853Y-110449946D01*
X235608946Y-110931715D01*
X235495907Y-111500000D01*
X235212000Y-111500000D01*
X235212000Y-103030000D01*
X235512560Y-103030000D01*
X235512560Y-104730000D01*
X235556838Y-104965317D01*
X235695910Y-105181441D01*
X235908110Y-105326431D01*
X236160000Y-105377440D01*
X237860000Y-105377440D01*
X238095317Y-105333162D01*
X238311441Y-105194090D01*
X238456431Y-104981890D01*
X238507440Y-104730000D01*
X238507440Y-103030000D01*
X238463162Y-102794683D01*
X238324090Y-102578559D01*
X238111890Y-102433569D01*
X237860000Y-102382560D01*
X236160000Y-102382560D01*
X235924683Y-102426838D01*
X235708559Y-102565910D01*
X235563569Y-102778110D01*
X235512560Y-103030000D01*
X235212000Y-103030000D01*
X235212000Y-99946000D01*
X235153996Y-99654395D01*
X235063956Y-99519641D01*
X234988815Y-99407184D01*
X230542815Y-94961185D01*
X230413830Y-94875000D01*
X230395083Y-94862473D01*
X230353162Y-94639683D01*
X230214090Y-94423559D01*
X230001890Y-94278569D01*
X229750000Y-94227560D01*
X228250000Y-94227560D01*
X228014683Y-94271838D01*
X227798559Y-94410910D01*
X227752031Y-94479006D01*
X227609698Y-94336673D01*
X227376309Y-94240000D01*
X226785750Y-94240000D01*
X226627000Y-94398750D01*
X226627000Y-95373000D01*
X226647000Y-95373000D01*
X226647000Y-95627000D01*
X226627000Y-95627000D01*
X226627000Y-96601250D01*
X226785750Y-96760000D01*
X227376309Y-96760000D01*
X227609698Y-96663327D01*
X227750936Y-96522090D01*
X227785910Y-96576441D01*
X227998110Y-96721431D01*
X228250000Y-96772440D01*
X229319810Y-96772440D01*
X229412447Y-96865077D01*
X229394059Y-96876910D01*
X229249069Y-97089110D01*
X229209575Y-97284138D01*
X228848792Y-97283824D01*
X228475234Y-97438175D01*
X228189179Y-97723731D01*
X228034176Y-98097018D01*
X228033824Y-98501208D01*
X228100034Y-98661449D01*
X227765366Y-98661449D01*
X227751294Y-98664248D01*
X227726269Y-98639179D01*
X227352982Y-98484176D01*
X226948792Y-98483824D01*
X226575234Y-98638175D01*
X226301940Y-98910992D01*
X226301940Y-98649100D01*
X226279643Y-98530604D01*
X226301940Y-98420500D01*
X226301940Y-97988700D01*
X226282121Y-97883370D01*
X226301940Y-97785500D01*
X226301940Y-97353700D01*
X226257662Y-97118383D01*
X226118590Y-96902259D01*
X225910387Y-96760000D01*
X226214250Y-96760000D01*
X226373000Y-96601250D01*
X226373000Y-95627000D01*
X225273750Y-95627000D01*
X225115000Y-95785750D01*
X225115000Y-96251310D01*
X225211673Y-96484699D01*
X225390302Y-96663327D01*
X225493951Y-96706260D01*
X224257500Y-96706260D01*
X224022183Y-96750538D01*
X223912525Y-96821101D01*
X223688795Y-96865604D01*
X223608883Y-96919000D01*
X223441585Y-97030785D01*
X221734370Y-98738000D01*
X221085992Y-98738000D01*
X220964090Y-98548559D01*
X220751890Y-98403569D01*
X220500000Y-98352560D01*
X217000000Y-98352560D01*
X216764683Y-98396838D01*
X216710000Y-98432026D01*
X216710000Y-96343599D01*
X217264699Y-96343599D01*
X217528281Y-96981515D01*
X218015918Y-97470004D01*
X218653373Y-97734699D01*
X219343599Y-97735301D01*
X219981515Y-97471719D01*
X220470004Y-96984082D01*
X220734699Y-96346627D01*
X220735301Y-95656401D01*
X220471719Y-95018485D01*
X220202395Y-94748690D01*
X225115000Y-94748690D01*
X225115000Y-95214250D01*
X225273750Y-95373000D01*
X226373000Y-95373000D01*
X226373000Y-94398750D01*
X226214250Y-94240000D01*
X225623691Y-94240000D01*
X225390302Y-94336673D01*
X225211673Y-94515301D01*
X225115000Y-94748690D01*
X220202395Y-94748690D01*
X219984082Y-94529996D01*
X219346627Y-94265301D01*
X218656401Y-94264699D01*
X218018485Y-94528281D01*
X217529996Y-95015918D01*
X217265301Y-95653373D01*
X217264699Y-96343599D01*
X216710000Y-96343599D01*
X216710000Y-94210000D01*
X239290000Y-94210000D01*
X239290000Y-135790000D01*
X239290000Y-135790000D01*
G37*
X239290000Y-135790000D02*
X238131312Y-135790000D01*
X238311441Y-135674090D01*
X238456431Y-135461890D01*
X238507440Y-135210000D01*
X238507440Y-133510000D01*
X238463162Y-133274683D01*
X238324090Y-133058559D01*
X238111890Y-132913569D01*
X237860000Y-132862560D01*
X237645952Y-132862560D01*
X237634825Y-132845907D01*
X237548816Y-132717185D01*
X235292815Y-130461185D01*
X235278232Y-130451441D01*
X235045605Y-130296004D01*
X234754000Y-130238000D01*
X233924918Y-130238000D01*
X233826269Y-130139179D01*
X233452982Y-129984176D01*
X233048792Y-129983824D01*
X232675234Y-130138175D01*
X232389179Y-130423731D01*
X232234176Y-130797018D01*
X232233824Y-131201208D01*
X232388175Y-131574766D01*
X232673731Y-131860821D01*
X233047018Y-132015824D01*
X233451208Y-132016176D01*
X233824766Y-131861825D01*
X233924765Y-131762000D01*
X234438370Y-131762000D01*
X235716907Y-133040538D01*
X235708559Y-133045910D01*
X235563569Y-133258110D01*
X235549914Y-133325541D01*
X235520054Y-133280853D01*
X235038285Y-132958946D01*
X234470000Y-132845907D01*
X233901715Y-132958946D01*
X233419946Y-133280853D01*
X233200000Y-133610026D01*
X232980054Y-133280853D01*
X232498285Y-132958946D01*
X231930000Y-132845907D01*
X231361715Y-132958946D01*
X230963536Y-133225000D01*
X230647440Y-133225000D01*
X230647440Y-129855000D01*
X230603162Y-129619683D01*
X230568457Y-129565750D01*
X235525000Y-129565750D01*
X235525000Y-130256310D01*
X235621673Y-130489699D01*
X235800302Y-130668327D01*
X236033691Y-130765000D01*
X236724250Y-130765000D01*
X236883000Y-130606250D01*
X236883000Y-129407000D01*
X237137000Y-129407000D01*
X237137000Y-130606250D01*
X237295750Y-130765000D01*
X237986309Y-130765000D01*
X238219698Y-130668327D01*
X238398327Y-130489699D01*
X238495000Y-130256310D01*
X238495000Y-129565750D01*
X238336250Y-129407000D01*
X237137000Y-129407000D01*
X236883000Y-129407000D01*
X235683750Y-129407000D01*
X235525000Y-129565750D01*
X230568457Y-129565750D01*
X230554685Y-129544348D01*
X230645000Y-129326310D01*
X230645000Y-128885750D01*
X230486250Y-128727000D01*
X229787000Y-128727000D01*
X229787000Y-128747000D01*
X229533000Y-128747000D01*
X229533000Y-128727000D01*
X228517000Y-128727000D01*
X228517000Y-128747000D01*
X228263000Y-128747000D01*
X228263000Y-128727000D01*
X227237000Y-128727000D01*
X227237000Y-128747000D01*
X226983000Y-128747000D01*
X226983000Y-128727000D01*
X226963000Y-128727000D01*
X226963000Y-128473000D01*
X226983000Y-128473000D01*
X226983000Y-128453000D01*
X227237000Y-128453000D01*
X227237000Y-128473000D01*
X228263000Y-128473000D01*
X228263000Y-128453000D01*
X228517000Y-128453000D01*
X228517000Y-128473000D01*
X229533000Y-128473000D01*
X229533000Y-128453000D01*
X229787000Y-128453000D01*
X229787000Y-128473000D01*
X230486250Y-128473000D01*
X230645000Y-128314250D01*
X230645000Y-128303690D01*
X235525000Y-128303690D01*
X235525000Y-128994250D01*
X235683750Y-129153000D01*
X236883000Y-129153000D01*
X236883000Y-126867000D01*
X237137000Y-126867000D01*
X237137000Y-129153000D01*
X238336250Y-129153000D01*
X238495000Y-128994250D01*
X238495000Y-128303690D01*
X238398327Y-128070301D01*
X238219698Y-127891673D01*
X238005792Y-127803070D01*
X238205183Y-127621358D01*
X238451486Y-127096892D01*
X238330819Y-126867000D01*
X237137000Y-126867000D01*
X236883000Y-126867000D01*
X235689181Y-126867000D01*
X235568514Y-127096892D01*
X235814817Y-127621358D01*
X236014208Y-127803070D01*
X235800302Y-127891673D01*
X235621673Y-128070301D01*
X235525000Y-128303690D01*
X230645000Y-128303690D01*
X230645000Y-127873690D01*
X230548327Y-127640301D01*
X230391017Y-127482992D01*
X230446431Y-127401890D01*
X230474759Y-127262000D01*
X230497842Y-127262000D01*
X230789447Y-127203996D01*
X230806188Y-127192810D01*
X231073731Y-127460821D01*
X231447018Y-127615824D01*
X231851208Y-127616176D01*
X232115000Y-127507179D01*
X232115000Y-127726309D01*
X232211673Y-127959698D01*
X232390301Y-128138327D01*
X232623690Y-128235000D01*
X233114250Y-128235000D01*
X233273000Y-128076250D01*
X233273000Y-126977000D01*
X233527000Y-126977000D01*
X233527000Y-128076250D01*
X233685750Y-128235000D01*
X234176310Y-128235000D01*
X234409699Y-128138327D01*
X234588327Y-127959698D01*
X234685000Y-127726309D01*
X234685000Y-127135750D01*
X234526250Y-126977000D01*
X233527000Y-126977000D01*
X233273000Y-126977000D01*
X233253000Y-126977000D01*
X233253000Y-126723000D01*
X233273000Y-126723000D01*
X233273000Y-126703000D01*
X233527000Y-126703000D01*
X233527000Y-126723000D01*
X234526250Y-126723000D01*
X234685000Y-126564250D01*
X234685000Y-125973691D01*
X234588327Y-125740302D01*
X234409699Y-125561673D01*
X234273713Y-125505346D01*
X234285317Y-125503162D01*
X234501441Y-125364090D01*
X234646431Y-125151890D01*
X234697440Y-124900000D01*
X234697440Y-123400000D01*
X234653162Y-123164683D01*
X234514090Y-122948559D01*
X234313053Y-122811197D01*
X234363000Y-122761250D01*
X234363000Y-121787000D01*
X233480196Y-121787000D01*
X233352982Y-121734176D01*
X232968011Y-121733841D01*
X232968011Y-121652011D01*
X232910007Y-121360406D01*
X232813558Y-121216060D01*
X232951208Y-121216180D01*
X233105000Y-121152634D01*
X233105000Y-121374250D01*
X233263750Y-121533000D01*
X234363000Y-121533000D01*
X234363000Y-120558750D01*
X234204250Y-120400000D01*
X233765827Y-120400000D01*
X233766176Y-119998796D01*
X233611825Y-119625238D01*
X233586841Y-119600211D01*
X233610821Y-119576273D01*
X233765824Y-119202986D01*
X233766176Y-118798796D01*
X233611825Y-118425238D01*
X233586839Y-118400209D01*
X233610821Y-118376269D01*
X233765824Y-118002982D01*
X233766176Y-117598792D01*
X233611825Y-117225234D01*
X233529318Y-117142583D01*
X233724768Y-117061825D01*
X234010823Y-116776269D01*
X234165826Y-116402982D01*
X234166178Y-115998792D01*
X234011827Y-115625234D01*
X233726271Y-115339179D01*
X233352984Y-115184176D01*
X232948794Y-115183824D01*
X232575236Y-115338175D01*
X232289181Y-115623731D01*
X232134178Y-115997018D01*
X232134055Y-116138316D01*
X232048674Y-116223697D01*
X232028162Y-116114683D01*
X231889090Y-115898559D01*
X231676890Y-115753569D01*
X231425000Y-115702560D01*
X229975000Y-115702560D01*
X229739683Y-115746838D01*
X229636864Y-115813000D01*
X227399961Y-115813000D01*
X227326269Y-115739179D01*
X227160697Y-115670427D01*
X227385317Y-115628162D01*
X227601441Y-115489090D01*
X227647969Y-115420994D01*
X227790302Y-115563327D01*
X228023691Y-115660000D01*
X228614250Y-115660000D01*
X228773000Y-115501250D01*
X228773000Y-114527000D01*
X229027000Y-114527000D01*
X229027000Y-115501250D01*
X229185750Y-115660000D01*
X229776309Y-115660000D01*
X230009698Y-115563327D01*
X230188327Y-115384699D01*
X230285000Y-115151310D01*
X230285000Y-114685750D01*
X230126250Y-114527000D01*
X229027000Y-114527000D01*
X228773000Y-114527000D01*
X228753000Y-114527000D01*
X228753000Y-114273000D01*
X228773000Y-114273000D01*
X228773000Y-114253000D01*
X229027000Y-114253000D01*
X229027000Y-114273000D01*
X230126250Y-114273000D01*
X230285000Y-114114250D01*
X230285000Y-113648690D01*
X230207670Y-113462000D01*
X232034370Y-113462000D01*
X233911184Y-115338815D01*
X233911187Y-115338817D01*
X234388000Y-115815631D01*
X234388000Y-117260000D01*
X234446004Y-117551605D01*
X234587254Y-117763000D01*
X234611185Y-117798815D01*
X235568321Y-118755951D01*
X235495907Y-119120000D01*
X235608946Y-119688285D01*
X235930853Y-120170054D01*
X236256374Y-120387560D01*
X236240000Y-120387560D01*
X236004683Y-120431838D01*
X235788559Y-120570910D01*
X235742031Y-120639006D01*
X235599698Y-120496673D01*
X235366309Y-120400000D01*
X234775750Y-120400000D01*
X234617000Y-120558750D01*
X234617000Y-121533000D01*
X234637000Y-121533000D01*
X234637000Y-121787000D01*
X234617000Y-121787000D01*
X234617000Y-122761250D01*
X234775750Y-122920000D01*
X235366309Y-122920000D01*
X235599698Y-122823327D01*
X235740936Y-122682090D01*
X235775910Y-122736441D01*
X235855902Y-122791097D01*
X235708559Y-122885910D01*
X235563569Y-123098110D01*
X235512560Y-123350000D01*
X235512560Y-125050000D01*
X235556838Y-125285317D01*
X235695910Y-125501441D01*
X235908110Y-125646431D01*
X236022301Y-125669555D01*
X235814817Y-125858642D01*
X235568514Y-126383108D01*
X235689181Y-126613000D01*
X236883000Y-126613000D01*
X236883000Y-126593000D01*
X237137000Y-126593000D01*
X237137000Y-126613000D01*
X238330819Y-126613000D01*
X238451486Y-126383108D01*
X238205183Y-125858642D01*
X237999496Y-125671192D01*
X238095317Y-125653162D01*
X238311441Y-125514090D01*
X238456431Y-125301890D01*
X238507440Y-125050000D01*
X238507440Y-123350000D01*
X238463162Y-123114683D01*
X238324090Y-122898559D01*
X238147097Y-122777625D01*
X238191441Y-122749090D01*
X238336431Y-122536890D01*
X238387440Y-122285000D01*
X238387440Y-121035000D01*
X238343162Y-120799683D01*
X238204090Y-120583559D01*
X237991890Y-120438569D01*
X237758131Y-120391232D01*
X238089147Y-120170054D01*
X238411054Y-119688285D01*
X238524093Y-119120000D01*
X238411054Y-118551715D01*
X238089147Y-118069946D01*
X237759974Y-117850000D01*
X238089147Y-117630054D01*
X238411054Y-117148285D01*
X238524093Y-116580000D01*
X238411054Y-116011715D01*
X238089147Y-115529946D01*
X237748447Y-115302298D01*
X237891358Y-115235183D01*
X238281645Y-114806924D01*
X238451476Y-114396890D01*
X238330155Y-114167000D01*
X237137000Y-114167000D01*
X237137000Y-114187000D01*
X236883000Y-114187000D01*
X236883000Y-114167000D01*
X235689845Y-114167000D01*
X235568524Y-114396890D01*
X235738355Y-114806924D01*
X236128642Y-115235183D01*
X236271553Y-115302298D01*
X235930853Y-115529946D01*
X235912000Y-115558162D01*
X235912000Y-115500000D01*
X235853996Y-115208395D01*
X235784239Y-115103996D01*
X235688815Y-114961184D01*
X235212000Y-114484370D01*
X235212000Y-111500000D01*
X235495907Y-111500000D01*
X235608946Y-112068285D01*
X235930853Y-112550054D01*
X236271553Y-112777702D01*
X236128642Y-112844817D01*
X235738355Y-113273076D01*
X235568524Y-113683110D01*
X235689845Y-113913000D01*
X236883000Y-113913000D01*
X236883000Y-113893000D01*
X237137000Y-113893000D01*
X237137000Y-113913000D01*
X238330155Y-113913000D01*
X238451476Y-113683110D01*
X238281645Y-113273076D01*
X237891358Y-112844817D01*
X237748447Y-112777702D01*
X238089147Y-112550054D01*
X238411054Y-112068285D01*
X238524093Y-111500000D01*
X238411054Y-110931715D01*
X238089147Y-110449946D01*
X238047548Y-110422150D01*
X238095317Y-110413162D01*
X238311441Y-110274090D01*
X238456431Y-110061890D01*
X238507440Y-109810000D01*
X238507440Y-108110000D01*
X238463162Y-107874683D01*
X238324090Y-107658559D01*
X238111890Y-107513569D01*
X237860000Y-107462560D01*
X236160000Y-107462560D01*
X235924683Y-107506838D01*
X235708559Y-107645910D01*
X235563569Y-107858110D01*
X235512560Y-108110000D01*
X235512560Y-109810000D01*
X235556838Y-110045317D01*
X235695910Y-110261441D01*
X235908110Y-110406431D01*
X235975541Y-110420086D01*
X235930853Y-110449946D01*
X235608946Y-110931715D01*
X235495907Y-111500000D01*
X235212000Y-111500000D01*
X235212000Y-103030000D01*
X235512560Y-103030000D01*
X235512560Y-104730000D01*
X235556838Y-104965317D01*
X235695910Y-105181441D01*
X235908110Y-105326431D01*
X236160000Y-105377440D01*
X237860000Y-105377440D01*
X238095317Y-105333162D01*
X238311441Y-105194090D01*
X238456431Y-104981890D01*
X238507440Y-104730000D01*
X238507440Y-103030000D01*
X238463162Y-102794683D01*
X238324090Y-102578559D01*
X238111890Y-102433569D01*
X237860000Y-102382560D01*
X236160000Y-102382560D01*
X235924683Y-102426838D01*
X235708559Y-102565910D01*
X235563569Y-102778110D01*
X235512560Y-103030000D01*
X235212000Y-103030000D01*
X235212000Y-99946000D01*
X235153996Y-99654395D01*
X235063956Y-99519641D01*
X234988815Y-99407184D01*
X230542815Y-94961185D01*
X230413830Y-94875000D01*
X230395083Y-94862473D01*
X230353162Y-94639683D01*
X230214090Y-94423559D01*
X230001890Y-94278569D01*
X229750000Y-94227560D01*
X228250000Y-94227560D01*
X228014683Y-94271838D01*
X227798559Y-94410910D01*
X227752031Y-94479006D01*
X227609698Y-94336673D01*
X227376309Y-94240000D01*
X226785750Y-94240000D01*
X226627000Y-94398750D01*
X226627000Y-95373000D01*
X226647000Y-95373000D01*
X226647000Y-95627000D01*
X226627000Y-95627000D01*
X226627000Y-96601250D01*
X226785750Y-96760000D01*
X227376309Y-96760000D01*
X227609698Y-96663327D01*
X227750936Y-96522090D01*
X227785910Y-96576441D01*
X227998110Y-96721431D01*
X228250000Y-96772440D01*
X229319810Y-96772440D01*
X229412447Y-96865077D01*
X229394059Y-96876910D01*
X229249069Y-97089110D01*
X229209575Y-97284138D01*
X228848792Y-97283824D01*
X228475234Y-97438175D01*
X228189179Y-97723731D01*
X228034176Y-98097018D01*
X228033824Y-98501208D01*
X228100034Y-98661449D01*
X227765366Y-98661449D01*
X227751294Y-98664248D01*
X227726269Y-98639179D01*
X227352982Y-98484176D01*
X226948792Y-98483824D01*
X226575234Y-98638175D01*
X226301940Y-98910992D01*
X226301940Y-98649100D01*
X226279643Y-98530604D01*
X226301940Y-98420500D01*
X226301940Y-97988700D01*
X226282121Y-97883370D01*
X226301940Y-97785500D01*
X226301940Y-97353700D01*
X226257662Y-97118383D01*
X226118590Y-96902259D01*
X225910387Y-96760000D01*
X226214250Y-96760000D01*
X226373000Y-96601250D01*
X226373000Y-95627000D01*
X225273750Y-95627000D01*
X225115000Y-95785750D01*
X225115000Y-96251310D01*
X225211673Y-96484699D01*
X225390302Y-96663327D01*
X225493951Y-96706260D01*
X224257500Y-96706260D01*
X224022183Y-96750538D01*
X223912525Y-96821101D01*
X223688795Y-96865604D01*
X223608883Y-96919000D01*
X223441585Y-97030785D01*
X221734370Y-98738000D01*
X221085992Y-98738000D01*
X220964090Y-98548559D01*
X220751890Y-98403569D01*
X220500000Y-98352560D01*
X217000000Y-98352560D01*
X216764683Y-98396838D01*
X216710000Y-98432026D01*
X216710000Y-96343599D01*
X217264699Y-96343599D01*
X217528281Y-96981515D01*
X218015918Y-97470004D01*
X218653373Y-97734699D01*
X219343599Y-97735301D01*
X219981515Y-97471719D01*
X220470004Y-96984082D01*
X220734699Y-96346627D01*
X220735301Y-95656401D01*
X220471719Y-95018485D01*
X220202395Y-94748690D01*
X225115000Y-94748690D01*
X225115000Y-95214250D01*
X225273750Y-95373000D01*
X226373000Y-95373000D01*
X226373000Y-94398750D01*
X226214250Y-94240000D01*
X225623691Y-94240000D01*
X225390302Y-94336673D01*
X225211673Y-94515301D01*
X225115000Y-94748690D01*
X220202395Y-94748690D01*
X219984082Y-94529996D01*
X219346627Y-94265301D01*
X218656401Y-94264699D01*
X218018485Y-94528281D01*
X217529996Y-95015918D01*
X217265301Y-95653373D01*
X217264699Y-96343599D01*
X216710000Y-96343599D01*
X216710000Y-94210000D01*
X239290000Y-94210000D01*
X239290000Y-135790000D01*
G36*
X222938000Y-122575084D02*
X222839179Y-122673733D01*
X222684176Y-123047020D01*
X222683824Y-123451210D01*
X222838175Y-123824768D01*
X223123731Y-124110823D01*
X223497018Y-124265826D01*
X223901208Y-124266178D01*
X224274766Y-124111827D01*
X224560821Y-123826271D01*
X224715824Y-123452984D01*
X224715959Y-123297440D01*
X225129534Y-123297440D01*
X225111673Y-123315301D01*
X225015000Y-123548690D01*
X225015000Y-124014250D01*
X225173750Y-124173000D01*
X226273000Y-124173000D01*
X226273000Y-124153000D01*
X226527000Y-124153000D01*
X226527000Y-124173000D01*
X226547000Y-124173000D01*
X226547000Y-124427000D01*
X226527000Y-124427000D01*
X226527000Y-124447000D01*
X226273000Y-124447000D01*
X226273000Y-124427000D01*
X225173750Y-124427000D01*
X225015000Y-124585750D01*
X225015000Y-125051310D01*
X225111673Y-125284699D01*
X225207276Y-125380301D01*
X225198559Y-125385910D01*
X225053569Y-125598110D01*
X225002560Y-125850000D01*
X225002560Y-127150000D01*
X225038000Y-127338347D01*
X225038000Y-127536728D01*
X224893569Y-127748110D01*
X224842560Y-128000000D01*
X224842560Y-129200000D01*
X224886838Y-129435317D01*
X224950558Y-129534340D01*
X224903569Y-129603110D01*
X224852560Y-129855000D01*
X224852560Y-133750619D01*
X224842560Y-133800000D01*
X224842560Y-135000000D01*
X224886838Y-135235317D01*
X225025910Y-135451441D01*
X225238110Y-135596431D01*
X225490000Y-135647440D01*
X226190000Y-135647440D01*
X226425317Y-135603162D01*
X226473028Y-135572461D01*
X226508110Y-135596431D01*
X226760000Y-135647440D01*
X227460000Y-135647440D01*
X227695317Y-135603162D01*
X227748178Y-135569147D01*
X227788110Y-135596431D01*
X228040000Y-135647440D01*
X228740000Y-135647440D01*
X228975317Y-135603162D01*
X229023028Y-135572461D01*
X229058110Y-135596431D01*
X229310000Y-135647440D01*
X230010000Y-135647440D01*
X230245317Y-135603162D01*
X230413406Y-135495000D01*
X230963536Y-135495000D01*
X231361715Y-135761054D01*
X231507236Y-135790000D01*
X216710000Y-135790000D01*
X216710000Y-133843599D01*
X217264699Y-133843599D01*
X217528281Y-134481515D01*
X218015918Y-134970004D01*
X218653373Y-135234699D01*
X219343599Y-135235301D01*
X219981515Y-134971719D01*
X220470004Y-134484082D01*
X220734699Y-133846627D01*
X220735301Y-133156401D01*
X220471719Y-132518485D01*
X219984082Y-132029996D01*
X219346627Y-131765301D01*
X218656401Y-131764699D01*
X218018485Y-132028281D01*
X217529996Y-132515918D01*
X217265301Y-133153373D01*
X217264699Y-133843599D01*
X216710000Y-133843599D01*
X216710000Y-130570392D01*
X216748110Y-130596431D01*
X217000000Y-130647440D01*
X220500000Y-130647440D01*
X220735317Y-130603162D01*
X220951441Y-130464090D01*
X221096431Y-130251890D01*
X221124051Y-130115498D01*
X221238815Y-130038815D01*
X221788815Y-129488816D01*
X221953996Y-129241605D01*
X221962272Y-129200000D01*
X222012000Y-128950000D01*
X222012000Y-123065630D01*
X222788816Y-122288815D01*
X222938000Y-122065545D01*
X222938000Y-122575084D01*
X222938000Y-122575084D01*
G37*
X222938000Y-122575084D02*
X222839179Y-122673733D01*
X222684176Y-123047020D01*
X222683824Y-123451210D01*
X222838175Y-123824768D01*
X223123731Y-124110823D01*
X223497018Y-124265826D01*
X223901208Y-124266178D01*
X224274766Y-124111827D01*
X224560821Y-123826271D01*
X224715824Y-123452984D01*
X224715959Y-123297440D01*
X225129534Y-123297440D01*
X225111673Y-123315301D01*
X225015000Y-123548690D01*
X225015000Y-124014250D01*
X225173750Y-124173000D01*
X226273000Y-124173000D01*
X226273000Y-124153000D01*
X226527000Y-124153000D01*
X226527000Y-124173000D01*
X226547000Y-124173000D01*
X226547000Y-124427000D01*
X226527000Y-124427000D01*
X226527000Y-124447000D01*
X226273000Y-124447000D01*
X226273000Y-124427000D01*
X225173750Y-124427000D01*
X225015000Y-124585750D01*
X225015000Y-125051310D01*
X225111673Y-125284699D01*
X225207276Y-125380301D01*
X225198559Y-125385910D01*
X225053569Y-125598110D01*
X225002560Y-125850000D01*
X225002560Y-127150000D01*
X225038000Y-127338347D01*
X225038000Y-127536728D01*
X224893569Y-127748110D01*
X224842560Y-128000000D01*
X224842560Y-129200000D01*
X224886838Y-129435317D01*
X224950558Y-129534340D01*
X224903569Y-129603110D01*
X224852560Y-129855000D01*
X224852560Y-133750619D01*
X224842560Y-133800000D01*
X224842560Y-135000000D01*
X224886838Y-135235317D01*
X225025910Y-135451441D01*
X225238110Y-135596431D01*
X225490000Y-135647440D01*
X226190000Y-135647440D01*
X226425317Y-135603162D01*
X226473028Y-135572461D01*
X226508110Y-135596431D01*
X226760000Y-135647440D01*
X227460000Y-135647440D01*
X227695317Y-135603162D01*
X227748178Y-135569147D01*
X227788110Y-135596431D01*
X228040000Y-135647440D01*
X228740000Y-135647440D01*
X228975317Y-135603162D01*
X229023028Y-135572461D01*
X229058110Y-135596431D01*
X229310000Y-135647440D01*
X230010000Y-135647440D01*
X230245317Y-135603162D01*
X230413406Y-135495000D01*
X230963536Y-135495000D01*
X231361715Y-135761054D01*
X231507236Y-135790000D01*
X216710000Y-135790000D01*
X216710000Y-133843599D01*
X217264699Y-133843599D01*
X217528281Y-134481515D01*
X218015918Y-134970004D01*
X218653373Y-135234699D01*
X219343599Y-135235301D01*
X219981515Y-134971719D01*
X220470004Y-134484082D01*
X220734699Y-133846627D01*
X220735301Y-133156401D01*
X220471719Y-132518485D01*
X219984082Y-132029996D01*
X219346627Y-131765301D01*
X218656401Y-131764699D01*
X218018485Y-132028281D01*
X217529996Y-132515918D01*
X217265301Y-133153373D01*
X217264699Y-133843599D01*
X216710000Y-133843599D01*
X216710000Y-130570392D01*
X216748110Y-130596431D01*
X217000000Y-130647440D01*
X220500000Y-130647440D01*
X220735317Y-130603162D01*
X220951441Y-130464090D01*
X221096431Y-130251890D01*
X221124051Y-130115498D01*
X221238815Y-130038815D01*
X221788815Y-129488816D01*
X221953996Y-129241605D01*
X221962272Y-129200000D01*
X222012000Y-128950000D01*
X222012000Y-123065630D01*
X222788816Y-122288815D01*
X222938000Y-122065545D01*
X222938000Y-122575084D01*
G36*
X223622500Y-101722500D02*
X223622500Y-101798009D01*
X223719173Y-102031398D01*
X223897801Y-102210027D01*
X224131190Y-102306700D01*
X224670250Y-102306700D01*
X224829000Y-102147950D01*
X224829000Y-101671440D01*
X225083000Y-101671440D01*
X225083000Y-102147950D01*
X225241750Y-102306700D01*
X225462663Y-102306700D01*
X225390302Y-102336673D01*
X225211673Y-102515301D01*
X225115000Y-102748690D01*
X225115000Y-103214250D01*
X225273750Y-103373000D01*
X226373000Y-103373000D01*
X226373000Y-102398750D01*
X226214250Y-102240000D01*
X225941838Y-102240000D01*
X226014199Y-102210027D01*
X226192827Y-102031398D01*
X226270499Y-101843882D01*
X226376513Y-102100457D01*
X226650663Y-102375087D01*
X226627000Y-102398750D01*
X226627000Y-103373000D01*
X226647000Y-103373000D01*
X226647000Y-103627000D01*
X226627000Y-103627000D01*
X226627000Y-104601250D01*
X226785750Y-104760000D01*
X227376309Y-104760000D01*
X227609698Y-104663327D01*
X227750936Y-104522090D01*
X227785910Y-104576441D01*
X227998110Y-104721431D01*
X228250000Y-104772440D01*
X229556410Y-104772440D01*
X229394059Y-104876910D01*
X229249069Y-105089110D01*
X229220538Y-105229999D01*
X228210159Y-105229999D01*
X227918554Y-105288003D01*
X227903364Y-105298153D01*
X227671344Y-105453183D01*
X227381207Y-105743321D01*
X227216026Y-105990531D01*
X227158022Y-106282136D01*
X227158022Y-107923569D01*
X226960992Y-107841755D01*
X226556802Y-107841403D01*
X226301940Y-107946710D01*
X226301940Y-107944500D01*
X226279643Y-107826004D01*
X226301940Y-107715900D01*
X226301940Y-107284100D01*
X226282121Y-107178770D01*
X226301940Y-107080900D01*
X226301940Y-106649100D01*
X226279643Y-106530604D01*
X226301940Y-106420500D01*
X226301940Y-105988700D01*
X226282121Y-105883370D01*
X226301940Y-105785500D01*
X226301940Y-105353700D01*
X226257662Y-105118383D01*
X226118590Y-104902259D01*
X225910387Y-104760000D01*
X226214250Y-104760000D01*
X226373000Y-104601250D01*
X226373000Y-103627000D01*
X225273750Y-103627000D01*
X225115000Y-103785750D01*
X225115000Y-104251310D01*
X225211673Y-104484699D01*
X225390302Y-104663327D01*
X225493951Y-104706260D01*
X224257500Y-104706260D01*
X224022183Y-104750538D01*
X223933506Y-104807600D01*
X222432556Y-104807600D01*
X222140951Y-104865604D01*
X222117764Y-104881097D01*
X221875630Y-104638540D01*
X221502343Y-104483537D01*
X221098153Y-104483185D01*
X220954988Y-104542340D01*
X220894289Y-104500866D01*
X220951441Y-104464090D01*
X221089523Y-104262000D01*
X221500000Y-104262000D01*
X221791605Y-104203996D01*
X222038815Y-104038815D01*
X222203996Y-103791605D01*
X222262000Y-103500000D01*
X222262000Y-103069630D01*
X223748828Y-101582802D01*
X223762198Y-101582802D01*
X223622500Y-101722500D01*
X223622500Y-101722500D01*
G37*
X223622500Y-101722500D02*
X223622500Y-101798009D01*
X223719173Y-102031398D01*
X223897801Y-102210027D01*
X224131190Y-102306700D01*
X224670250Y-102306700D01*
X224829000Y-102147950D01*
X224829000Y-101671440D01*
X225083000Y-101671440D01*
X225083000Y-102147950D01*
X225241750Y-102306700D01*
X225462663Y-102306700D01*
X225390302Y-102336673D01*
X225211673Y-102515301D01*
X225115000Y-102748690D01*
X225115000Y-103214250D01*
X225273750Y-103373000D01*
X226373000Y-103373000D01*
X226373000Y-102398750D01*
X226214250Y-102240000D01*
X225941838Y-102240000D01*
X226014199Y-102210027D01*
X226192827Y-102031398D01*
X226270499Y-101843882D01*
X226376513Y-102100457D01*
X226650663Y-102375087D01*
X226627000Y-102398750D01*
X226627000Y-103373000D01*
X226647000Y-103373000D01*
X226647000Y-103627000D01*
X226627000Y-103627000D01*
X226627000Y-104601250D01*
X226785750Y-104760000D01*
X227376309Y-104760000D01*
X227609698Y-104663327D01*
X227750936Y-104522090D01*
X227785910Y-104576441D01*
X227998110Y-104721431D01*
X228250000Y-104772440D01*
X229556410Y-104772440D01*
X229394059Y-104876910D01*
X229249069Y-105089110D01*
X229220538Y-105229999D01*
X228210159Y-105229999D01*
X227918554Y-105288003D01*
X227903364Y-105298153D01*
X227671344Y-105453183D01*
X227381207Y-105743321D01*
X227216026Y-105990531D01*
X227158022Y-106282136D01*
X227158022Y-107923569D01*
X226960992Y-107841755D01*
X226556802Y-107841403D01*
X226301940Y-107946710D01*
X226301940Y-107944500D01*
X226279643Y-107826004D01*
X226301940Y-107715900D01*
X226301940Y-107284100D01*
X226282121Y-107178770D01*
X226301940Y-107080900D01*
X226301940Y-106649100D01*
X226279643Y-106530604D01*
X226301940Y-106420500D01*
X226301940Y-105988700D01*
X226282121Y-105883370D01*
X226301940Y-105785500D01*
X226301940Y-105353700D01*
X226257662Y-105118383D01*
X226118590Y-104902259D01*
X225910387Y-104760000D01*
X226214250Y-104760000D01*
X226373000Y-104601250D01*
X226373000Y-103627000D01*
X225273750Y-103627000D01*
X225115000Y-103785750D01*
X225115000Y-104251310D01*
X225211673Y-104484699D01*
X225390302Y-104663327D01*
X225493951Y-104706260D01*
X224257500Y-104706260D01*
X224022183Y-104750538D01*
X223933506Y-104807600D01*
X222432556Y-104807600D01*
X222140951Y-104865604D01*
X222117764Y-104881097D01*
X221875630Y-104638540D01*
X221502343Y-104483537D01*
X221098153Y-104483185D01*
X220954988Y-104542340D01*
X220894289Y-104500866D01*
X220951441Y-104464090D01*
X221089523Y-104262000D01*
X221500000Y-104262000D01*
X221791605Y-104203996D01*
X222038815Y-104038815D01*
X222203996Y-103791605D01*
X222262000Y-103500000D01*
X222262000Y-103069630D01*
X223748828Y-101582802D01*
X223762198Y-101582802D01*
X223622500Y-101722500D01*
M02*
