G04 #@! TF.FileFunction,Soldermask,Top*
%FSLAX46Y46*%
G04 Gerber Fmt 4.6, Leading zero omitted, Abs format (unit mm)*
G04 Created by KiCad (PCBNEW 4.0.7-e2-6376~58~ubuntu16.04.1) date Wed Nov  8 23:35:19 2017*
%MOMM*%
%LPD*%
G01*
G04 APERTURE LIST*
%ADD10C,0.100000*%
%ADD11C,0.101600*%
%ADD12C,0.076200*%
%ADD13C,0.150000*%
%ADD14C,0.127000*%
%ADD15C,2.600000*%
%ADD16R,1.537000X0.571800*%
%ADD17R,1.900000X1.700000*%
%ADD18R,1.590000X0.590000*%
%ADD19R,2.100000X2.100000*%
%ADD20O,2.100000X2.100000*%
%ADD21R,1.900000X1.650000*%
%ADD22R,1.700000X1.900000*%
%ADD23R,1.100000X1.600000*%
%ADD24R,4.900000X4.690000*%
%ADD25R,1.950000X2.000000*%
%ADD26R,1.950000X1.600000*%
%ADD27R,3.900000X1.400000*%
G04 APERTURE END LIST*
D10*
D11*
X223760000Y-134820000D02*
X223920000Y-134300000D01*
X223800000Y-134600000D02*
X223760000Y-134820000D01*
X223680000Y-134320000D02*
X223800000Y-134600000D01*
X223460000Y-134020000D02*
X223680000Y-134320000D01*
X223370000Y-133590000D02*
X223460000Y-134020000D01*
X223740000Y-133600000D02*
X223740000Y-133430000D01*
X223760000Y-133700000D02*
X223740000Y-133600000D01*
X223710000Y-133790000D02*
X223760000Y-133700000D01*
X223590000Y-133820000D02*
X223710000Y-133790000D01*
X223470000Y-133690000D02*
X223590000Y-133820000D01*
X223400000Y-133500000D02*
X223470000Y-133690000D01*
X223920000Y-133500000D02*
X223830000Y-133370000D01*
X224050000Y-133530000D02*
X223920000Y-133500000D01*
X224160000Y-133490000D02*
X224050000Y-133530000D01*
X224200000Y-133390000D02*
X224160000Y-133490000D01*
X224200000Y-133250000D02*
X224200000Y-133390000D01*
X224100000Y-133110000D02*
X224200000Y-133250000D01*
X223920000Y-133000000D02*
X224100000Y-133110000D01*
X224020000Y-132970000D02*
X223920000Y-132970000D01*
X224170000Y-132960000D02*
X224020000Y-132970000D01*
X224270000Y-132890000D02*
X224170000Y-132960000D01*
X224250000Y-132740000D02*
X224270000Y-132890000D01*
X224140000Y-132640000D02*
X224250000Y-132740000D01*
X223770000Y-132650000D02*
X224140000Y-132640000D01*
X223890000Y-132520000D02*
X223800000Y-132660000D01*
X223910000Y-132410000D02*
X223890000Y-132520000D01*
X223860000Y-132300000D02*
X223910000Y-132410000D01*
X223690000Y-132270000D02*
X223860000Y-132300000D01*
X223530000Y-132330000D02*
X223690000Y-132270000D01*
X223440000Y-132600000D02*
X223530000Y-132330000D01*
X223340000Y-133510000D02*
X223330000Y-133480000D01*
X223370000Y-133490000D02*
X223340000Y-133510000D01*
X223350000Y-133510000D02*
X223370000Y-133490000D01*
X223330000Y-133620000D02*
X223350000Y-133510000D01*
X223270000Y-133730000D02*
X223330000Y-133620000D01*
X223150000Y-133770000D02*
X223270000Y-133730000D01*
X223040000Y-133730000D02*
X223150000Y-133770000D01*
X223030000Y-133540000D02*
X223040000Y-133730000D01*
X223110000Y-133340000D02*
X223030000Y-133540000D01*
X222840000Y-133380000D02*
X223090000Y-133320000D01*
X222720000Y-133300000D02*
X222840000Y-133380000D01*
X222680000Y-133170000D02*
X222720000Y-133300000D01*
X222770000Y-133020000D02*
X222680000Y-133170000D01*
X223040000Y-132970000D02*
X222770000Y-133020000D01*
X222820000Y-132850000D02*
X223030000Y-132900000D01*
X222710000Y-132680000D02*
X222820000Y-132850000D01*
X222820000Y-132490000D02*
X222710000Y-132680000D01*
X223100000Y-132420000D02*
X222820000Y-132490000D01*
X223370000Y-132560000D02*
X223100000Y-132420000D01*
D12*
X223540000Y-133230000D02*
X223660000Y-133140000D01*
X223410000Y-133240000D02*
X223540000Y-133230000D01*
X223290000Y-133170000D02*
X223410000Y-133240000D01*
D13*
X223371623Y-132950000D02*
G75*
G03X223371623Y-132950000I-31623J0D01*
G01*
D14*
X223890000Y-133030000D02*
G75*
G03X223890000Y-133030000I-410000J0D01*
G01*
D13*
X223651623Y-132950000D02*
G75*
G03X223651623Y-132950000I-31623J0D01*
G01*
D15*
X219000000Y-133500000D03*
D16*
X224956000Y-105569600D03*
X224956000Y-106204600D03*
X224956000Y-106865000D03*
X224956000Y-107500000D03*
X224956000Y-108160400D03*
X224956000Y-108808100D03*
X224956000Y-109455800D03*
X230544000Y-109455800D03*
X230544000Y-108808100D03*
X230544000Y-108160400D03*
X230544000Y-107500000D03*
X230544000Y-106852300D03*
X230544000Y-106204600D03*
X230544000Y-105556900D03*
D17*
X226400000Y-126500000D03*
X229100000Y-126500000D03*
D18*
X230700000Y-122425000D03*
X230700000Y-121775000D03*
X230700000Y-121125000D03*
X230700000Y-120475000D03*
X230700000Y-119825000D03*
X230700000Y-119175000D03*
X230700000Y-118525000D03*
X230700000Y-117875000D03*
X230700000Y-117225000D03*
X230700000Y-116575000D03*
X224800000Y-116575000D03*
X224800000Y-117225000D03*
X224800000Y-117875000D03*
X224800000Y-118525000D03*
X224800000Y-119175000D03*
X224800000Y-119825000D03*
X224800000Y-120475000D03*
X224800000Y-121125000D03*
X224800000Y-121775000D03*
X224800000Y-122425000D03*
D19*
X237010000Y-124200000D03*
D20*
X237010000Y-126740000D03*
D21*
X236990000Y-121660000D03*
X234490000Y-121660000D03*
X226400000Y-114400000D03*
X228900000Y-114400000D03*
X226400000Y-124300000D03*
X228900000Y-124300000D03*
D19*
X237010000Y-103880000D03*
X237010000Y-108960000D03*
D20*
X237010000Y-111500000D03*
X237010000Y-114040000D03*
X237010000Y-116580000D03*
X237010000Y-119120000D03*
D22*
X233400000Y-124150000D03*
X233400000Y-126850000D03*
D16*
X224956000Y-97569600D03*
X224956000Y-98204600D03*
X224956000Y-98865000D03*
X224956000Y-99500000D03*
X224956000Y-100160400D03*
X224956000Y-100808100D03*
X224956000Y-101455800D03*
X230544000Y-101455800D03*
X230544000Y-100808100D03*
X230544000Y-100160400D03*
X230544000Y-99500000D03*
X230544000Y-98852300D03*
X230544000Y-98204600D03*
X230544000Y-97556900D03*
D23*
X229660000Y-128600000D03*
X228390000Y-128600000D03*
X227110000Y-128600000D03*
X225840000Y-128600000D03*
X225840000Y-134400000D03*
X227110000Y-134400000D03*
X228390000Y-134400000D03*
X229660000Y-134400000D03*
D24*
X227750000Y-132000000D03*
D25*
X228840000Y-132750000D03*
X226660000Y-132750000D03*
D26*
X228840000Y-130750000D03*
X226660000Y-130750000D03*
D21*
X226500000Y-103500000D03*
X229000000Y-103500000D03*
X226500000Y-95500000D03*
X229000000Y-95500000D03*
D19*
X237010000Y-134360000D03*
D20*
X234470000Y-134360000D03*
X231930000Y-134360000D03*
D19*
X237010000Y-129280000D03*
D15*
X219000000Y-96000000D03*
D27*
X218750000Y-99500000D03*
X218750000Y-101500000D03*
X218750000Y-103500000D03*
X218750000Y-105500000D03*
X218750000Y-107500000D03*
X218750000Y-109500000D03*
X218750000Y-111500000D03*
X218750000Y-113500000D03*
X218750000Y-115500000D03*
X218750000Y-117500000D03*
X218750000Y-119500000D03*
X218750000Y-121500000D03*
X218750000Y-123500000D03*
X218750000Y-125500000D03*
X218750000Y-127500000D03*
X218750000Y-129500000D03*
M02*
