M48
;DRILL file {KiCad 4.0.7-e2-6376~58~ubuntu16.04.1} date Thu Nov  9 21:21:14 2017
;FORMAT={-:-/ absolute / inch / decimal}
FMAT,2
INCH,TZ
T1C0.016
T2C0.016
T3C0.039
%
G90
G05
M72
T1
X8.6122Y-3.9173
X8.6122Y-3.9961
X8.6122Y-4.0748
X8.6122Y-4.1535
X8.6122Y-4.2323
X8.6122Y-4.311
X8.6122Y-4.3898
X8.6122Y-4.4685
X8.6122Y-4.5472
X8.6122Y-4.626
X8.6122Y-4.7047
X8.6122Y-4.7835
X8.6122Y-4.8622
X8.6122Y-4.9409
X8.6122Y-5.0197
X8.6122Y-5.0984
T2
X8.7756Y-4.6496
X8.796Y-4.609
X8.8071Y-4.8524
X8.8563Y-4.5472
X8.8799Y-4.1594
X8.8799Y-4.2618
X8.8799Y-4.3681
X8.9252Y-4.7303
X8.935Y-4.792
X8.9626Y-4.8307
X8.998Y-3.7992
X8.998Y-4.6004
X9.Y-3.8976
X9.0079Y-4.2106
X9.0295Y-4.6417
X9.0551Y-3.8071
X9.0607Y-3.998
X9.0827Y-4.8563
X9.0846Y-4.5531
X9.0847Y-4.8941
X9.0925Y-3.8484
X9.1201Y-4.9843
X9.1437Y-4.6516
X9.1575Y-4.4665
X9.1634Y-4.685
X9.1634Y-4.7323
X9.1791Y-4.8327
X9.1831Y-4.5512
X9.1831Y-5.1575
X9.3465Y-3.8543
T3
X9.1311Y-5.2898
X9.2311Y-5.2898
X9.3311Y-4.0898
X9.3311Y-4.2898
X9.3311Y-4.3898
X9.3311Y-4.4898
X9.3311Y-4.5898
X9.3311Y-4.6898
X9.3311Y-4.8898
X9.3311Y-4.9898
X9.3311Y-5.0898
X9.3311Y-5.2898
T0
M30
