G04 #@! TF.FileFunction,Copper,L2,Bot,Signal*
%FSLAX46Y46*%
G04 Gerber Fmt 4.6, Leading zero omitted, Abs format (unit mm)*
G04 Created by KiCad (PCBNEW 4.0.7-e2-6376~58~ubuntu16.04.1) date Tue Nov  7 21:50:16 2017*
%MOMM*%
%LPD*%
G01*
G04 APERTURE LIST*
%ADD10C,0.100000*%
%ADD11R,1.700000X1.700000*%
%ADD12O,1.700000X1.700000*%
%ADD13R,1.200000X0.900000*%
%ADD14C,0.762000*%
%ADD15C,0.355600*%
%ADD16C,0.254000*%
G04 APERTURE END LIST*
D10*
D11*
X168910000Y-140970000D03*
D12*
X168910000Y-138430000D03*
X168910000Y-135890000D03*
X168910000Y-133350000D03*
X168910000Y-130810000D03*
X168910000Y-128270000D03*
X168910000Y-125730000D03*
X168910000Y-123190000D03*
X168910000Y-120650000D03*
D11*
X199390000Y-130810000D03*
D12*
X199390000Y-128270000D03*
D11*
X168910000Y-118110000D03*
X195580000Y-121412000D03*
D12*
X195580000Y-123952000D03*
X195580000Y-126492000D03*
X195580000Y-129032000D03*
X195580000Y-131572000D03*
D13*
X173820000Y-138430000D03*
X171620000Y-138430000D03*
X173820000Y-135890000D03*
X171620000Y-135890000D03*
X173820000Y-133350000D03*
X171620000Y-133350000D03*
X173820000Y-130810000D03*
X171620000Y-130810000D03*
X173820000Y-128270000D03*
X171620000Y-128270000D03*
X173820000Y-125730000D03*
X171620000Y-125730000D03*
X173820000Y-123190000D03*
X171620000Y-123190000D03*
X173820000Y-120650000D03*
X171620000Y-120650000D03*
D11*
X185420000Y-140970000D03*
D12*
X187960000Y-140970000D03*
X190500000Y-140970000D03*
D11*
X199390000Y-141000000D03*
D14*
X189500000Y-118749998D03*
X192850000Y-127200000D03*
X179550000Y-139150006D03*
X183750000Y-130900000D03*
X183750000Y-128500000D03*
X199300000Y-137975000D03*
X197450000Y-132125000D03*
X184325000Y-138675000D03*
X179725000Y-127025000D03*
X186200000Y-122575000D03*
X189950000Y-130400002D03*
X180340000Y-138430002D03*
X180340008Y-135890000D03*
X180340000Y-133350000D03*
X176530000Y-134620000D03*
X175224998Y-131600000D03*
X177150000Y-128700000D03*
X176675002Y-123850000D03*
X180339998Y-130810000D03*
X188499994Y-130100000D03*
X189523790Y-128270000D03*
X180340000Y-128270000D03*
X180340000Y-125730002D03*
X180340000Y-123190002D03*
X180339998Y-120650000D03*
X191799992Y-128000000D03*
X190200000Y-138575000D03*
X175238930Y-123168975D03*
D15*
X198286000Y-130810000D02*
X197510000Y-130810000D01*
X197510000Y-130810000D02*
X197500000Y-130800000D01*
X197500000Y-130800000D02*
X197500000Y-120100000D01*
X197500000Y-120100000D02*
X196149998Y-118749998D01*
X196149998Y-118749998D02*
X190038815Y-118749998D01*
X190038815Y-118749998D02*
X189500000Y-118749998D01*
D16*
X199390000Y-130810000D02*
X198286000Y-130810000D01*
D15*
X199390000Y-130810000D02*
X196342000Y-130810000D01*
X196342000Y-130810000D02*
X195580000Y-131572000D01*
D16*
X192900000Y-126492000D02*
X183300000Y-126492000D01*
X195580000Y-126492000D02*
X192900000Y-126492000D01*
X192900000Y-126492000D02*
X192900000Y-127150000D01*
X192900000Y-127150000D02*
X192850000Y-127200000D01*
X183849994Y-139150006D02*
X180088815Y-139150006D01*
X184325000Y-138675000D02*
X183849994Y-139150006D01*
X180088815Y-139150006D02*
X179550000Y-139150006D01*
X183750000Y-128500000D02*
X183750000Y-130900000D01*
X183300000Y-126492000D02*
X180258000Y-126492000D01*
X183300000Y-128050000D02*
X183750000Y-128500000D01*
X183300000Y-126492000D02*
X183300000Y-128050000D01*
X197450000Y-132125000D02*
X199300000Y-133975000D01*
X199300000Y-133975000D02*
X199300000Y-137975000D01*
X180258000Y-126492000D02*
X179725000Y-127025000D01*
X181810000Y-118110000D02*
X186200000Y-122500000D01*
X186200000Y-122500000D02*
X186200000Y-122575000D01*
X168910000Y-118110000D02*
X181810000Y-118110000D01*
X189569001Y-130019003D02*
X189950000Y-130400002D01*
X188791996Y-129241998D02*
X189569001Y-130019003D01*
X188010158Y-129241998D02*
X188791996Y-129241998D01*
X180340000Y-136912156D02*
X188010158Y-129241998D01*
X180340000Y-138430002D02*
X180340000Y-136912156D01*
X179949003Y-138049003D02*
X180350000Y-138450000D01*
X180350000Y-138450000D02*
X180350000Y-138440002D01*
X180350000Y-138440002D02*
X180340000Y-138430002D01*
X176500997Y-138049003D02*
X179949003Y-138049003D01*
X176120000Y-138430000D02*
X176500997Y-138049003D01*
X173820000Y-138430000D02*
X176120000Y-138430000D01*
X173820000Y-135890000D02*
X180340008Y-135890000D01*
X173820000Y-133350000D02*
X180340000Y-133350000D01*
X171620000Y-138430000D02*
X168910000Y-138430000D01*
X171620000Y-135890000D02*
X168910000Y-135890000D01*
X170766000Y-133350000D02*
X168910000Y-133350000D01*
X171620000Y-133350000D02*
X171620000Y-134054000D01*
X171620000Y-134054000D02*
X172186000Y-134620000D01*
X172186000Y-134620000D02*
X175991185Y-134620000D01*
X175991185Y-134620000D02*
X176530000Y-134620000D01*
X171620000Y-133350000D02*
X170766000Y-133350000D01*
X171620000Y-130810000D02*
X168910000Y-130810000D01*
X171770000Y-130810000D02*
X172560000Y-131600000D01*
X171620000Y-130810000D02*
X171770000Y-130810000D01*
X174686183Y-131600000D02*
X175224998Y-131600000D01*
X172560000Y-131600000D02*
X174686183Y-131600000D01*
X170766000Y-128270000D02*
X168910000Y-128270000D01*
X171620000Y-128270000D02*
X171770000Y-128270000D01*
X171770000Y-128270000D02*
X172800000Y-129300000D01*
X172800000Y-129300000D02*
X176550000Y-129300000D01*
X176550000Y-129300000D02*
X177150000Y-128700000D01*
X171620000Y-128270000D02*
X170766000Y-128270000D01*
X170766000Y-125730000D02*
X168910000Y-125730000D01*
X171620000Y-125730000D02*
X170766000Y-125730000D01*
X170075999Y-124355999D02*
X176169003Y-124355999D01*
X168910000Y-123190000D02*
X170075999Y-124355999D01*
X176169003Y-124355999D02*
X176294003Y-124230999D01*
X171620000Y-123190000D02*
X168910000Y-123190000D01*
X176294003Y-124230999D02*
X176675002Y-123850000D01*
X179958999Y-130429001D02*
X180339998Y-130810000D01*
X179635998Y-130106000D02*
X179958999Y-130429001D01*
X174674000Y-130106000D02*
X179635998Y-130106000D01*
X173970000Y-130810000D02*
X174674000Y-130106000D01*
X173820000Y-130810000D02*
X173970000Y-130810000D01*
X185420000Y-133179994D02*
X188118995Y-130480999D01*
X188118995Y-130480999D02*
X188499994Y-130100000D01*
X185420000Y-140970000D02*
X185420000Y-133179994D01*
X190658001Y-129404211D02*
X189904789Y-128650999D01*
X190658001Y-130789841D02*
X190658001Y-129404211D01*
X187960000Y-133487842D02*
X190658001Y-130789841D01*
X189904789Y-128650999D02*
X189523790Y-128270000D01*
X187960000Y-140970000D02*
X187960000Y-133487842D01*
X179959001Y-127889001D02*
X180340000Y-128270000D01*
X173820000Y-128270000D02*
X174674000Y-128270000D01*
X175054999Y-127889001D02*
X179959001Y-127889001D01*
X174674000Y-128270000D02*
X175054999Y-127889001D01*
X180339998Y-125730000D02*
X180340000Y-125730002D01*
X173820000Y-125730000D02*
X180339998Y-125730000D01*
X173820000Y-123190000D02*
X174516202Y-123886202D01*
X174516202Y-123886202D02*
X175591378Y-123886202D01*
X175591378Y-123886202D02*
X176668577Y-122809003D01*
X179959001Y-122809003D02*
X180340000Y-123190002D01*
X176668577Y-122809003D02*
X179959001Y-122809003D01*
X180340000Y-120650000D02*
X180339998Y-120650000D01*
X173820000Y-120650000D02*
X180340000Y-120650000D01*
X191799992Y-128538815D02*
X191799992Y-128000000D01*
X191799992Y-136975008D02*
X191799992Y-128538815D01*
X190200000Y-138575000D02*
X191799992Y-136975008D01*
X171770000Y-120650000D02*
X172895000Y-121775000D01*
X172895000Y-121775000D02*
X174383770Y-121775000D01*
X171620000Y-120650000D02*
X171770000Y-120650000D01*
X174383770Y-121775000D02*
X175238930Y-122630160D01*
X171620000Y-120650000D02*
X170766000Y-120650000D01*
X170766000Y-120650000D02*
X168910000Y-120650000D01*
X175238930Y-122630160D02*
X175238930Y-123168975D01*
G36*
X184658000Y-139472560D02*
X184570000Y-139472560D01*
X184334683Y-139516838D01*
X184118559Y-139655910D01*
X183973569Y-139868110D01*
X183922560Y-140120000D01*
X183922560Y-141530000D01*
X170407440Y-141530000D01*
X170407440Y-140120000D01*
X170363162Y-139884683D01*
X170224090Y-139668559D01*
X170011890Y-139523569D01*
X169944459Y-139509914D01*
X169989147Y-139480054D01*
X170181618Y-139192000D01*
X170466182Y-139192000D01*
X170555910Y-139331441D01*
X170768110Y-139476431D01*
X171020000Y-139527440D01*
X172220000Y-139527440D01*
X172455317Y-139483162D01*
X172671441Y-139344090D01*
X172719134Y-139274289D01*
X172755910Y-139331441D01*
X172968110Y-139476431D01*
X173220000Y-139527440D01*
X174420000Y-139527440D01*
X174655317Y-139483162D01*
X174871441Y-139344090D01*
X174975360Y-139192000D01*
X176120000Y-139192000D01*
X176411605Y-139133996D01*
X176658815Y-138968815D01*
X176816627Y-138811003D01*
X179398113Y-138811003D01*
X179478175Y-139004768D01*
X179763731Y-139290823D01*
X180137018Y-139445826D01*
X180541208Y-139446178D01*
X180914766Y-139291827D01*
X181200821Y-139006271D01*
X181355824Y-138632984D01*
X181356176Y-138228794D01*
X181201825Y-137855236D01*
X181102000Y-137755237D01*
X181102000Y-137227786D01*
X184658000Y-133671786D01*
X184658000Y-139472560D01*
X184658000Y-139472560D01*
G37*
X184658000Y-139472560D02*
X184570000Y-139472560D01*
X184334683Y-139516838D01*
X184118559Y-139655910D01*
X183973569Y-139868110D01*
X183922560Y-140120000D01*
X183922560Y-141530000D01*
X170407440Y-141530000D01*
X170407440Y-140120000D01*
X170363162Y-139884683D01*
X170224090Y-139668559D01*
X170011890Y-139523569D01*
X169944459Y-139509914D01*
X169989147Y-139480054D01*
X170181618Y-139192000D01*
X170466182Y-139192000D01*
X170555910Y-139331441D01*
X170768110Y-139476431D01*
X171020000Y-139527440D01*
X172220000Y-139527440D01*
X172455317Y-139483162D01*
X172671441Y-139344090D01*
X172719134Y-139274289D01*
X172755910Y-139331441D01*
X172968110Y-139476431D01*
X173220000Y-139527440D01*
X174420000Y-139527440D01*
X174655317Y-139483162D01*
X174871441Y-139344090D01*
X174975360Y-139192000D01*
X176120000Y-139192000D01*
X176411605Y-139133996D01*
X176658815Y-138968815D01*
X176816627Y-138811003D01*
X179398113Y-138811003D01*
X179478175Y-139004768D01*
X179763731Y-139290823D01*
X180137018Y-139445826D01*
X180541208Y-139446178D01*
X180914766Y-139291827D01*
X181200821Y-139006271D01*
X181355824Y-138632984D01*
X181356176Y-138228794D01*
X181201825Y-137855236D01*
X181102000Y-137755237D01*
X181102000Y-137227786D01*
X184658000Y-133671786D01*
X184658000Y-139472560D01*
G36*
X199950000Y-126912650D02*
X199746890Y-126828524D01*
X199517000Y-126949845D01*
X199517000Y-128143000D01*
X199537000Y-128143000D01*
X199537000Y-128397000D01*
X199517000Y-128397000D01*
X199517000Y-128417000D01*
X199263000Y-128417000D01*
X199263000Y-128397000D01*
X199243000Y-128397000D01*
X199243000Y-128143000D01*
X199263000Y-128143000D01*
X199263000Y-126949845D01*
X199033110Y-126828524D01*
X198623076Y-126998355D01*
X198312800Y-127281120D01*
X198312800Y-120100000D01*
X198250929Y-119788955D01*
X198074736Y-119525264D01*
X196724734Y-118175262D01*
X196461043Y-117999069D01*
X196149998Y-117937198D01*
X190124206Y-117937198D01*
X190076269Y-117889177D01*
X189702982Y-117734174D01*
X189298792Y-117733822D01*
X188925234Y-117888173D01*
X188639179Y-118173729D01*
X188484176Y-118547016D01*
X188483824Y-118951206D01*
X188638175Y-119324764D01*
X188923731Y-119610819D01*
X189297018Y-119765822D01*
X189701208Y-119766174D01*
X190074766Y-119611823D01*
X190123877Y-119562798D01*
X195813326Y-119562798D01*
X196165088Y-119914560D01*
X194730000Y-119914560D01*
X194494683Y-119958838D01*
X194278559Y-120097910D01*
X194133569Y-120310110D01*
X194082560Y-120562000D01*
X194082560Y-122262000D01*
X194126838Y-122497317D01*
X194265910Y-122713441D01*
X194478110Y-122858431D01*
X194545541Y-122872086D01*
X194500853Y-122901946D01*
X194178946Y-123383715D01*
X194065907Y-123952000D01*
X194178946Y-124520285D01*
X194500853Y-125002054D01*
X194841553Y-125229702D01*
X194698642Y-125296817D01*
X194308355Y-125725076D01*
X194138524Y-126135110D01*
X194259845Y-126365000D01*
X195453000Y-126365000D01*
X195453000Y-126345000D01*
X195707000Y-126345000D01*
X195707000Y-126365000D01*
X195727000Y-126365000D01*
X195727000Y-126619000D01*
X195707000Y-126619000D01*
X195707000Y-126639000D01*
X195453000Y-126639000D01*
X195453000Y-126619000D01*
X194259845Y-126619000D01*
X194138524Y-126848890D01*
X194308355Y-127258924D01*
X194698642Y-127687183D01*
X194841553Y-127754298D01*
X194500853Y-127981946D01*
X194178946Y-128463715D01*
X194065907Y-129032000D01*
X194178946Y-129600285D01*
X194500853Y-130082054D01*
X194830026Y-130302000D01*
X194500853Y-130521946D01*
X194178946Y-131003715D01*
X194065907Y-131572000D01*
X194178946Y-132140285D01*
X194500853Y-132622054D01*
X194982622Y-132943961D01*
X195550907Y-133057000D01*
X195609093Y-133057000D01*
X196177378Y-132943961D01*
X196659147Y-132622054D01*
X196981054Y-132140285D01*
X197083988Y-131622800D01*
X197892560Y-131622800D01*
X197892560Y-131660000D01*
X197936838Y-131895317D01*
X198075910Y-132111441D01*
X198288110Y-132256431D01*
X198540000Y-132307440D01*
X199950000Y-132307440D01*
X199950000Y-139515000D01*
X199675750Y-139515000D01*
X199517000Y-139673750D01*
X199517000Y-140873000D01*
X199537000Y-140873000D01*
X199537000Y-141127000D01*
X199517000Y-141127000D01*
X199517000Y-141147000D01*
X199263000Y-141147000D01*
X199263000Y-141127000D01*
X198063750Y-141127000D01*
X197905000Y-141285750D01*
X197905000Y-141530000D01*
X191879396Y-141530000D01*
X191985000Y-140999093D01*
X191985000Y-140940907D01*
X191871961Y-140372622D01*
X191638813Y-140023690D01*
X197905000Y-140023690D01*
X197905000Y-140714250D01*
X198063750Y-140873000D01*
X199263000Y-140873000D01*
X199263000Y-139673750D01*
X199104250Y-139515000D01*
X198413691Y-139515000D01*
X198180302Y-139611673D01*
X198001673Y-139790301D01*
X197905000Y-140023690D01*
X191638813Y-140023690D01*
X191550054Y-139890853D01*
X191068285Y-139568946D01*
X190654302Y-139486600D01*
X190774766Y-139436825D01*
X191060821Y-139151269D01*
X191215824Y-138777982D01*
X191215947Y-138636683D01*
X192338807Y-137513824D01*
X192503988Y-137266613D01*
X192516490Y-137203760D01*
X192561992Y-136975008D01*
X192561992Y-128674918D01*
X192660813Y-128576269D01*
X192815816Y-128202982D01*
X192816168Y-127798792D01*
X192661817Y-127425234D01*
X192376261Y-127139179D01*
X192002974Y-126984176D01*
X191598784Y-126983824D01*
X191225226Y-127138175D01*
X190939171Y-127423731D01*
X190784168Y-127797018D01*
X190783816Y-128201208D01*
X190938167Y-128574766D01*
X191037992Y-128674765D01*
X191037992Y-128706571D01*
X190539844Y-128208424D01*
X190539966Y-128068792D01*
X190385615Y-127695234D01*
X190100059Y-127409179D01*
X189726772Y-127254176D01*
X189322582Y-127253824D01*
X188949024Y-127408175D01*
X188662969Y-127693731D01*
X188507966Y-128067018D01*
X188507614Y-128471208D01*
X188511246Y-128479998D01*
X188010158Y-128479998D01*
X187718563Y-128538000D01*
X187718553Y-128538002D01*
X187471342Y-128703183D01*
X181030712Y-135143814D01*
X180916277Y-135029179D01*
X180542990Y-134874176D01*
X180138800Y-134873824D01*
X179765242Y-135028175D01*
X179665243Y-135128000D01*
X177419169Y-135128000D01*
X177545824Y-134822982D01*
X177546176Y-134418792D01*
X177419412Y-134112000D01*
X179665082Y-134112000D01*
X179763731Y-134210821D01*
X180137018Y-134365824D01*
X180541208Y-134366176D01*
X180914766Y-134211825D01*
X181200821Y-133926269D01*
X181355824Y-133552982D01*
X181356176Y-133148792D01*
X181201825Y-132775234D01*
X180916269Y-132489179D01*
X180542982Y-132334176D01*
X180138792Y-132333824D01*
X179765234Y-132488175D01*
X179665235Y-132588000D01*
X175494397Y-132588000D01*
X175799764Y-132461825D01*
X176085819Y-132176269D01*
X176240822Y-131802982D01*
X176241174Y-131398792D01*
X176086823Y-131025234D01*
X175929863Y-130868000D01*
X179320367Y-130868000D01*
X179323944Y-130871576D01*
X179323822Y-131011208D01*
X179478173Y-131384766D01*
X179763729Y-131670821D01*
X180137016Y-131825824D01*
X180541206Y-131826176D01*
X180914764Y-131671825D01*
X181200819Y-131386269D01*
X181355822Y-131012982D01*
X181356174Y-130608792D01*
X181201823Y-130235234D01*
X180916267Y-129949179D01*
X180542980Y-129794176D01*
X180401682Y-129794053D01*
X180174813Y-129567185D01*
X180132902Y-129539181D01*
X179927603Y-129402004D01*
X179635998Y-129344000D01*
X177942972Y-129344000D01*
X178010821Y-129276269D01*
X178165824Y-128902982D01*
X178166043Y-128651001D01*
X179398113Y-128651001D01*
X179478175Y-128844766D01*
X179763731Y-129130821D01*
X180137018Y-129285824D01*
X180541208Y-129286176D01*
X180914766Y-129131825D01*
X181200821Y-128846269D01*
X181355824Y-128472982D01*
X181356176Y-128068792D01*
X181201825Y-127695234D01*
X180916269Y-127409179D01*
X180542982Y-127254176D01*
X180353881Y-127254011D01*
X180250606Y-127185005D01*
X179959001Y-127127001D01*
X175054999Y-127127001D01*
X174763394Y-127185005D01*
X174688596Y-127234984D01*
X174671890Y-127223569D01*
X174420000Y-127172560D01*
X173220000Y-127172560D01*
X172984683Y-127216838D01*
X172768559Y-127355910D01*
X172720866Y-127425711D01*
X172684090Y-127368559D01*
X172471890Y-127223569D01*
X172220000Y-127172560D01*
X171020000Y-127172560D01*
X170784683Y-127216838D01*
X170568559Y-127355910D01*
X170464640Y-127508000D01*
X170181618Y-127508000D01*
X169989147Y-127219946D01*
X169659974Y-127000000D01*
X169989147Y-126780054D01*
X170181618Y-126492000D01*
X170466182Y-126492000D01*
X170555910Y-126631441D01*
X170768110Y-126776431D01*
X171020000Y-126827440D01*
X172220000Y-126827440D01*
X172455317Y-126783162D01*
X172671441Y-126644090D01*
X172719134Y-126574289D01*
X172755910Y-126631441D01*
X172968110Y-126776431D01*
X173220000Y-126827440D01*
X174420000Y-126827440D01*
X174655317Y-126783162D01*
X174871441Y-126644090D01*
X174975360Y-126492000D01*
X179665080Y-126492000D01*
X179763731Y-126590823D01*
X180137018Y-126745826D01*
X180541208Y-126746178D01*
X180914766Y-126591827D01*
X181200821Y-126306271D01*
X181355824Y-125932984D01*
X181356176Y-125528794D01*
X181201825Y-125155236D01*
X180916269Y-124869181D01*
X180542982Y-124714178D01*
X180138792Y-124713826D01*
X179765234Y-124868177D01*
X179665237Y-124968000D01*
X176598288Y-124968000D01*
X176707818Y-124894814D01*
X176736578Y-124866054D01*
X176876210Y-124866176D01*
X177249768Y-124711825D01*
X177535823Y-124426269D01*
X177690826Y-124052982D01*
X177691178Y-123648792D01*
X177659036Y-123571003D01*
X179398113Y-123571003D01*
X179478175Y-123764768D01*
X179763731Y-124050823D01*
X180137018Y-124205826D01*
X180541208Y-124206178D01*
X180914766Y-124051827D01*
X181200821Y-123766271D01*
X181355824Y-123392984D01*
X181356176Y-122988794D01*
X181201825Y-122615236D01*
X180916269Y-122329181D01*
X180542982Y-122174178D01*
X180353881Y-122174013D01*
X180250606Y-122105007D01*
X179959001Y-122047003D01*
X176668577Y-122047003D01*
X176376972Y-122105007D01*
X176129761Y-122270188D01*
X175962581Y-122437368D01*
X175942926Y-122338555D01*
X175777745Y-122091345D01*
X175098400Y-121412000D01*
X179665080Y-121412000D01*
X179763729Y-121510821D01*
X180137016Y-121665824D01*
X180541206Y-121666176D01*
X180914764Y-121511825D01*
X181200819Y-121226269D01*
X181355822Y-120852982D01*
X181356174Y-120448792D01*
X181201823Y-120075234D01*
X180916267Y-119789179D01*
X180542980Y-119634176D01*
X180138790Y-119633824D01*
X179765232Y-119788175D01*
X179665233Y-119888000D01*
X174973818Y-119888000D01*
X174884090Y-119748559D01*
X174671890Y-119603569D01*
X174420000Y-119552560D01*
X173220000Y-119552560D01*
X172984683Y-119596838D01*
X172768559Y-119735910D01*
X172720866Y-119805711D01*
X172684090Y-119748559D01*
X172471890Y-119603569D01*
X172220000Y-119552560D01*
X171020000Y-119552560D01*
X170784683Y-119596838D01*
X170568559Y-119735910D01*
X170464640Y-119888000D01*
X170181618Y-119888000D01*
X169989147Y-119599946D01*
X169947548Y-119572150D01*
X169995317Y-119563162D01*
X170211441Y-119424090D01*
X170356431Y-119211890D01*
X170407440Y-118960000D01*
X170407440Y-118872000D01*
X181494370Y-118872000D01*
X185184011Y-122561642D01*
X185183824Y-122776208D01*
X185338175Y-123149766D01*
X185623731Y-123435821D01*
X185997018Y-123590824D01*
X186401208Y-123591176D01*
X186774766Y-123436825D01*
X187060821Y-123151269D01*
X187215824Y-122777982D01*
X187216176Y-122373792D01*
X187061825Y-122000234D01*
X186776269Y-121714179D01*
X186402982Y-121559176D01*
X186336749Y-121559118D01*
X182348815Y-117571185D01*
X182317110Y-117550000D01*
X199950000Y-117550000D01*
X199950000Y-126912650D01*
X199950000Y-126912650D01*
G37*
X199950000Y-126912650D02*
X199746890Y-126828524D01*
X199517000Y-126949845D01*
X199517000Y-128143000D01*
X199537000Y-128143000D01*
X199537000Y-128397000D01*
X199517000Y-128397000D01*
X199517000Y-128417000D01*
X199263000Y-128417000D01*
X199263000Y-128397000D01*
X199243000Y-128397000D01*
X199243000Y-128143000D01*
X199263000Y-128143000D01*
X199263000Y-126949845D01*
X199033110Y-126828524D01*
X198623076Y-126998355D01*
X198312800Y-127281120D01*
X198312800Y-120100000D01*
X198250929Y-119788955D01*
X198074736Y-119525264D01*
X196724734Y-118175262D01*
X196461043Y-117999069D01*
X196149998Y-117937198D01*
X190124206Y-117937198D01*
X190076269Y-117889177D01*
X189702982Y-117734174D01*
X189298792Y-117733822D01*
X188925234Y-117888173D01*
X188639179Y-118173729D01*
X188484176Y-118547016D01*
X188483824Y-118951206D01*
X188638175Y-119324764D01*
X188923731Y-119610819D01*
X189297018Y-119765822D01*
X189701208Y-119766174D01*
X190074766Y-119611823D01*
X190123877Y-119562798D01*
X195813326Y-119562798D01*
X196165088Y-119914560D01*
X194730000Y-119914560D01*
X194494683Y-119958838D01*
X194278559Y-120097910D01*
X194133569Y-120310110D01*
X194082560Y-120562000D01*
X194082560Y-122262000D01*
X194126838Y-122497317D01*
X194265910Y-122713441D01*
X194478110Y-122858431D01*
X194545541Y-122872086D01*
X194500853Y-122901946D01*
X194178946Y-123383715D01*
X194065907Y-123952000D01*
X194178946Y-124520285D01*
X194500853Y-125002054D01*
X194841553Y-125229702D01*
X194698642Y-125296817D01*
X194308355Y-125725076D01*
X194138524Y-126135110D01*
X194259845Y-126365000D01*
X195453000Y-126365000D01*
X195453000Y-126345000D01*
X195707000Y-126345000D01*
X195707000Y-126365000D01*
X195727000Y-126365000D01*
X195727000Y-126619000D01*
X195707000Y-126619000D01*
X195707000Y-126639000D01*
X195453000Y-126639000D01*
X195453000Y-126619000D01*
X194259845Y-126619000D01*
X194138524Y-126848890D01*
X194308355Y-127258924D01*
X194698642Y-127687183D01*
X194841553Y-127754298D01*
X194500853Y-127981946D01*
X194178946Y-128463715D01*
X194065907Y-129032000D01*
X194178946Y-129600285D01*
X194500853Y-130082054D01*
X194830026Y-130302000D01*
X194500853Y-130521946D01*
X194178946Y-131003715D01*
X194065907Y-131572000D01*
X194178946Y-132140285D01*
X194500853Y-132622054D01*
X194982622Y-132943961D01*
X195550907Y-133057000D01*
X195609093Y-133057000D01*
X196177378Y-132943961D01*
X196659147Y-132622054D01*
X196981054Y-132140285D01*
X197083988Y-131622800D01*
X197892560Y-131622800D01*
X197892560Y-131660000D01*
X197936838Y-131895317D01*
X198075910Y-132111441D01*
X198288110Y-132256431D01*
X198540000Y-132307440D01*
X199950000Y-132307440D01*
X199950000Y-139515000D01*
X199675750Y-139515000D01*
X199517000Y-139673750D01*
X199517000Y-140873000D01*
X199537000Y-140873000D01*
X199537000Y-141127000D01*
X199517000Y-141127000D01*
X199517000Y-141147000D01*
X199263000Y-141147000D01*
X199263000Y-141127000D01*
X198063750Y-141127000D01*
X197905000Y-141285750D01*
X197905000Y-141530000D01*
X191879396Y-141530000D01*
X191985000Y-140999093D01*
X191985000Y-140940907D01*
X191871961Y-140372622D01*
X191638813Y-140023690D01*
X197905000Y-140023690D01*
X197905000Y-140714250D01*
X198063750Y-140873000D01*
X199263000Y-140873000D01*
X199263000Y-139673750D01*
X199104250Y-139515000D01*
X198413691Y-139515000D01*
X198180302Y-139611673D01*
X198001673Y-139790301D01*
X197905000Y-140023690D01*
X191638813Y-140023690D01*
X191550054Y-139890853D01*
X191068285Y-139568946D01*
X190654302Y-139486600D01*
X190774766Y-139436825D01*
X191060821Y-139151269D01*
X191215824Y-138777982D01*
X191215947Y-138636683D01*
X192338807Y-137513824D01*
X192503988Y-137266613D01*
X192516490Y-137203760D01*
X192561992Y-136975008D01*
X192561992Y-128674918D01*
X192660813Y-128576269D01*
X192815816Y-128202982D01*
X192816168Y-127798792D01*
X192661817Y-127425234D01*
X192376261Y-127139179D01*
X192002974Y-126984176D01*
X191598784Y-126983824D01*
X191225226Y-127138175D01*
X190939171Y-127423731D01*
X190784168Y-127797018D01*
X190783816Y-128201208D01*
X190938167Y-128574766D01*
X191037992Y-128674765D01*
X191037992Y-128706571D01*
X190539844Y-128208424D01*
X190539966Y-128068792D01*
X190385615Y-127695234D01*
X190100059Y-127409179D01*
X189726772Y-127254176D01*
X189322582Y-127253824D01*
X188949024Y-127408175D01*
X188662969Y-127693731D01*
X188507966Y-128067018D01*
X188507614Y-128471208D01*
X188511246Y-128479998D01*
X188010158Y-128479998D01*
X187718563Y-128538000D01*
X187718553Y-128538002D01*
X187471342Y-128703183D01*
X181030712Y-135143814D01*
X180916277Y-135029179D01*
X180542990Y-134874176D01*
X180138800Y-134873824D01*
X179765242Y-135028175D01*
X179665243Y-135128000D01*
X177419169Y-135128000D01*
X177545824Y-134822982D01*
X177546176Y-134418792D01*
X177419412Y-134112000D01*
X179665082Y-134112000D01*
X179763731Y-134210821D01*
X180137018Y-134365824D01*
X180541208Y-134366176D01*
X180914766Y-134211825D01*
X181200821Y-133926269D01*
X181355824Y-133552982D01*
X181356176Y-133148792D01*
X181201825Y-132775234D01*
X180916269Y-132489179D01*
X180542982Y-132334176D01*
X180138792Y-132333824D01*
X179765234Y-132488175D01*
X179665235Y-132588000D01*
X175494397Y-132588000D01*
X175799764Y-132461825D01*
X176085819Y-132176269D01*
X176240822Y-131802982D01*
X176241174Y-131398792D01*
X176086823Y-131025234D01*
X175929863Y-130868000D01*
X179320367Y-130868000D01*
X179323944Y-130871576D01*
X179323822Y-131011208D01*
X179478173Y-131384766D01*
X179763729Y-131670821D01*
X180137016Y-131825824D01*
X180541206Y-131826176D01*
X180914764Y-131671825D01*
X181200819Y-131386269D01*
X181355822Y-131012982D01*
X181356174Y-130608792D01*
X181201823Y-130235234D01*
X180916267Y-129949179D01*
X180542980Y-129794176D01*
X180401682Y-129794053D01*
X180174813Y-129567185D01*
X180132902Y-129539181D01*
X179927603Y-129402004D01*
X179635998Y-129344000D01*
X177942972Y-129344000D01*
X178010821Y-129276269D01*
X178165824Y-128902982D01*
X178166043Y-128651001D01*
X179398113Y-128651001D01*
X179478175Y-128844766D01*
X179763731Y-129130821D01*
X180137018Y-129285824D01*
X180541208Y-129286176D01*
X180914766Y-129131825D01*
X181200821Y-128846269D01*
X181355824Y-128472982D01*
X181356176Y-128068792D01*
X181201825Y-127695234D01*
X180916269Y-127409179D01*
X180542982Y-127254176D01*
X180353881Y-127254011D01*
X180250606Y-127185005D01*
X179959001Y-127127001D01*
X175054999Y-127127001D01*
X174763394Y-127185005D01*
X174688596Y-127234984D01*
X174671890Y-127223569D01*
X174420000Y-127172560D01*
X173220000Y-127172560D01*
X172984683Y-127216838D01*
X172768559Y-127355910D01*
X172720866Y-127425711D01*
X172684090Y-127368559D01*
X172471890Y-127223569D01*
X172220000Y-127172560D01*
X171020000Y-127172560D01*
X170784683Y-127216838D01*
X170568559Y-127355910D01*
X170464640Y-127508000D01*
X170181618Y-127508000D01*
X169989147Y-127219946D01*
X169659974Y-127000000D01*
X169989147Y-126780054D01*
X170181618Y-126492000D01*
X170466182Y-126492000D01*
X170555910Y-126631441D01*
X170768110Y-126776431D01*
X171020000Y-126827440D01*
X172220000Y-126827440D01*
X172455317Y-126783162D01*
X172671441Y-126644090D01*
X172719134Y-126574289D01*
X172755910Y-126631441D01*
X172968110Y-126776431D01*
X173220000Y-126827440D01*
X174420000Y-126827440D01*
X174655317Y-126783162D01*
X174871441Y-126644090D01*
X174975360Y-126492000D01*
X179665080Y-126492000D01*
X179763731Y-126590823D01*
X180137018Y-126745826D01*
X180541208Y-126746178D01*
X180914766Y-126591827D01*
X181200821Y-126306271D01*
X181355824Y-125932984D01*
X181356176Y-125528794D01*
X181201825Y-125155236D01*
X180916269Y-124869181D01*
X180542982Y-124714178D01*
X180138792Y-124713826D01*
X179765234Y-124868177D01*
X179665237Y-124968000D01*
X176598288Y-124968000D01*
X176707818Y-124894814D01*
X176736578Y-124866054D01*
X176876210Y-124866176D01*
X177249768Y-124711825D01*
X177535823Y-124426269D01*
X177690826Y-124052982D01*
X177691178Y-123648792D01*
X177659036Y-123571003D01*
X179398113Y-123571003D01*
X179478175Y-123764768D01*
X179763731Y-124050823D01*
X180137018Y-124205826D01*
X180541208Y-124206178D01*
X180914766Y-124051827D01*
X181200821Y-123766271D01*
X181355824Y-123392984D01*
X181356176Y-122988794D01*
X181201825Y-122615236D01*
X180916269Y-122329181D01*
X180542982Y-122174178D01*
X180353881Y-122174013D01*
X180250606Y-122105007D01*
X179959001Y-122047003D01*
X176668577Y-122047003D01*
X176376972Y-122105007D01*
X176129761Y-122270188D01*
X175962581Y-122437368D01*
X175942926Y-122338555D01*
X175777745Y-122091345D01*
X175098400Y-121412000D01*
X179665080Y-121412000D01*
X179763729Y-121510821D01*
X180137016Y-121665824D01*
X180541206Y-121666176D01*
X180914764Y-121511825D01*
X181200819Y-121226269D01*
X181355822Y-120852982D01*
X181356174Y-120448792D01*
X181201823Y-120075234D01*
X180916267Y-119789179D01*
X180542980Y-119634176D01*
X180138790Y-119633824D01*
X179765232Y-119788175D01*
X179665233Y-119888000D01*
X174973818Y-119888000D01*
X174884090Y-119748559D01*
X174671890Y-119603569D01*
X174420000Y-119552560D01*
X173220000Y-119552560D01*
X172984683Y-119596838D01*
X172768559Y-119735910D01*
X172720866Y-119805711D01*
X172684090Y-119748559D01*
X172471890Y-119603569D01*
X172220000Y-119552560D01*
X171020000Y-119552560D01*
X170784683Y-119596838D01*
X170568559Y-119735910D01*
X170464640Y-119888000D01*
X170181618Y-119888000D01*
X169989147Y-119599946D01*
X169947548Y-119572150D01*
X169995317Y-119563162D01*
X170211441Y-119424090D01*
X170356431Y-119211890D01*
X170407440Y-118960000D01*
X170407440Y-118872000D01*
X181494370Y-118872000D01*
X185184011Y-122561642D01*
X185183824Y-122776208D01*
X185338175Y-123149766D01*
X185623731Y-123435821D01*
X185997018Y-123590824D01*
X186401208Y-123591176D01*
X186774766Y-123436825D01*
X187060821Y-123151269D01*
X187215824Y-122777982D01*
X187216176Y-122373792D01*
X187061825Y-122000234D01*
X186776269Y-121714179D01*
X186402982Y-121559176D01*
X186336749Y-121559118D01*
X182348815Y-117571185D01*
X182317110Y-117550000D01*
X199950000Y-117550000D01*
X199950000Y-126912650D01*
M02*
