G04 #@! TF.FileFunction,Copper,L2,Bot,Signal*
%FSLAX46Y46*%
G04 Gerber Fmt 4.6, Leading zero omitted, Abs format (unit mm)*
G04 Created by KiCad (PCBNEW 4.0.7-e2-6376~58~ubuntu16.04.1) date Thu Nov  9 21:21:10 2017*
%MOMM*%
%LPD*%
G01*
G04 APERTURE LIST*
%ADD10C,0.100000*%
%ADD11R,1.700000X1.700000*%
%ADD12O,1.700000X1.700000*%
%ADD13R,3.500000X1.000000*%
%ADD14C,0.762000*%
%ADD15C,0.254000*%
G04 APERTURE END LIST*
D10*
D11*
X237010000Y-124200000D03*
D12*
X237010000Y-126740000D03*
D11*
X237010000Y-103880000D03*
X237010000Y-108960000D03*
D12*
X237010000Y-111500000D03*
X237010000Y-114040000D03*
X237010000Y-116580000D03*
X237010000Y-119120000D03*
D11*
X237010000Y-134360000D03*
D12*
X234470000Y-134360000D03*
X231930000Y-134360000D03*
D11*
X237010000Y-129280000D03*
D13*
X218750000Y-99500000D03*
X218750000Y-101500000D03*
X218750000Y-103500000D03*
X218750000Y-105500000D03*
X218750000Y-107500000D03*
X218750000Y-109500000D03*
X218750000Y-111500000D03*
X218750000Y-113500000D03*
X218750000Y-115500000D03*
X218750000Y-117500000D03*
X218750000Y-119500000D03*
X218750000Y-121500000D03*
X218750000Y-123500000D03*
X218750000Y-125500000D03*
X218750000Y-127500000D03*
X218750000Y-129500000D03*
D14*
X230750562Y-124310683D03*
X232600000Y-113450000D03*
X233250000Y-115600000D03*
X230000000Y-96700000D03*
X237400000Y-97900000D03*
X232750000Y-119000004D03*
X232750000Y-120200004D03*
X226950000Y-121716990D03*
X227650000Y-122700000D03*
X225550000Y-110950000D03*
X226700000Y-120150000D03*
X222900000Y-118100000D03*
X225550000Y-108250000D03*
X223417856Y-117067559D03*
X225549998Y-105650000D03*
X224950000Y-115500000D03*
X228800000Y-106950000D03*
X233250000Y-131000000D03*
X223700000Y-123250002D03*
X231650000Y-126600000D03*
X230141990Y-101550000D03*
X230750000Y-115650000D03*
X228550000Y-116850000D03*
X228600000Y-99000000D03*
X229350000Y-117900000D03*
X228550000Y-96500000D03*
X232250000Y-118150000D03*
X230950000Y-97750000D03*
X233150000Y-122750000D03*
X230700000Y-123350000D03*
D15*
X237010000Y-124200000D02*
X230861245Y-124200000D01*
X230861245Y-124200000D02*
X230750562Y-124310683D01*
X237010000Y-124200000D02*
X237010000Y-119120000D01*
X233250000Y-115600000D02*
X233250000Y-114100000D01*
X233250000Y-114100000D02*
X232600000Y-113450000D01*
X237400000Y-97900000D02*
X235121068Y-95621068D01*
X235121068Y-95621068D02*
X231078932Y-95621068D01*
X231078932Y-95621068D02*
X230000000Y-96700000D01*
X233130999Y-118619005D02*
X232750000Y-119000004D01*
X234050000Y-117700004D02*
X233130999Y-118619005D01*
X234050000Y-107944000D02*
X234050000Y-117700004D01*
X237010000Y-104984000D02*
X234050000Y-107944000D01*
X237010000Y-103880000D02*
X237010000Y-104984000D01*
X233130999Y-119819005D02*
X232750000Y-120200004D01*
X234650000Y-118300004D02*
X233130999Y-119819005D01*
X234650000Y-110216000D02*
X234650000Y-118300004D01*
X235906000Y-108960000D02*
X234650000Y-110216000D01*
X237010000Y-108960000D02*
X235906000Y-108960000D01*
X227488815Y-121716990D02*
X226950000Y-121716990D01*
X232493098Y-121716990D02*
X227488815Y-121716990D01*
X237010000Y-111500000D02*
X235204010Y-113305990D01*
X235204010Y-119006078D02*
X232493098Y-121716990D01*
X235204010Y-113305990D02*
X235204010Y-119006078D01*
X236160001Y-117429999D02*
X237010000Y-116580000D01*
X235658021Y-119194135D02*
X235658021Y-117931979D01*
X235658021Y-117931979D02*
X236160001Y-117429999D01*
X232533155Y-122319001D02*
X235658021Y-119194135D01*
X228030999Y-122319001D02*
X232533155Y-122319001D01*
X227650000Y-122700000D02*
X228030999Y-122319001D01*
X226700000Y-112100000D02*
X225930999Y-111330999D01*
X226700000Y-120150000D02*
X226700000Y-112100000D01*
X225930999Y-111330999D02*
X225550000Y-110950000D01*
X223438815Y-118100000D02*
X222900000Y-118100000D01*
X224241998Y-117296817D02*
X223438815Y-118100000D01*
X224241998Y-109558002D02*
X224241998Y-117296817D01*
X225550000Y-108250000D02*
X224241998Y-109558002D01*
X225549998Y-105650000D02*
X223417856Y-107782142D01*
X223417856Y-116528744D02*
X223417856Y-117067559D01*
X223417856Y-107782142D02*
X223417856Y-116528744D01*
X228800000Y-106950000D02*
X228261185Y-106950000D01*
X228261185Y-106950000D02*
X224841999Y-110369186D01*
X224841999Y-110369186D02*
X224841999Y-115391999D01*
X224841999Y-115391999D02*
X224900000Y-115450000D01*
X224900000Y-115450000D02*
X224950000Y-115500000D01*
X231449998Y-131000000D02*
X232711185Y-131000000D01*
X223700000Y-123250002D02*
X231449998Y-131000000D01*
X232711185Y-131000000D02*
X233250000Y-131000000D01*
X234470000Y-133157919D02*
X234470000Y-134360000D01*
X234470000Y-129420000D02*
X234470000Y-133157919D01*
X231650000Y-126600000D02*
X234470000Y-129420000D01*
X230141990Y-102088815D02*
X230141990Y-101550000D01*
X230141990Y-105960012D02*
X230141990Y-102088815D01*
X230416022Y-106234044D02*
X230141990Y-105960012D01*
X230369001Y-115269001D02*
X230369001Y-107712975D01*
X230369001Y-107712975D02*
X230416021Y-107665955D01*
X230416021Y-107665955D02*
X230416022Y-106234044D01*
X230750000Y-115650000D02*
X230369001Y-115269001D01*
X228550000Y-108247842D02*
X228550000Y-116311185D01*
X229508001Y-106610159D02*
X229508001Y-107289841D01*
X228600000Y-105702158D02*
X229508001Y-106610159D01*
X228550000Y-116311185D02*
X228550000Y-116850000D01*
X229508001Y-107289841D02*
X228550000Y-108247842D01*
X228600000Y-99000000D02*
X228600000Y-105702158D01*
X229962012Y-106422102D02*
X229962011Y-107477899D01*
X229350000Y-117361185D02*
X229350000Y-117900000D01*
X229350000Y-105810090D02*
X229962012Y-106422102D01*
X229350000Y-97300000D02*
X229350000Y-105810090D01*
X228550000Y-96500000D02*
X229350000Y-97300000D01*
X229350000Y-108089910D02*
X229350000Y-117361185D01*
X229962011Y-107477899D02*
X229350000Y-108089910D01*
X230870032Y-106045986D02*
X230870031Y-107854011D01*
X232250000Y-115500000D02*
X232250000Y-117611185D01*
X232250000Y-117611185D02*
X232250000Y-118150000D01*
X230850000Y-106025954D02*
X230870032Y-106045986D01*
X230950000Y-97750000D02*
X230950000Y-98288815D01*
X230850000Y-107874042D02*
X230850000Y-114100000D01*
X230950000Y-98288815D02*
X230850000Y-98388815D01*
X230850000Y-114100000D02*
X232250000Y-115500000D01*
X230850000Y-98388815D02*
X230850000Y-106025954D01*
X230870031Y-107854011D02*
X230850000Y-107874042D01*
X230700000Y-123350000D02*
X232550000Y-123350000D01*
X232550000Y-123350000D02*
X233150000Y-122750000D01*
G36*
X239290000Y-135790000D02*
X238131312Y-135790000D01*
X238311441Y-135674090D01*
X238456431Y-135461890D01*
X238507440Y-135210000D01*
X238507440Y-133510000D01*
X238463162Y-133274683D01*
X238324090Y-133058559D01*
X238111890Y-132913569D01*
X237860000Y-132862560D01*
X236160000Y-132862560D01*
X235924683Y-132906838D01*
X235708559Y-133045910D01*
X235563569Y-133258110D01*
X235549914Y-133325541D01*
X235520054Y-133280853D01*
X235232000Y-133088382D01*
X235232000Y-129565750D01*
X235525000Y-129565750D01*
X235525000Y-130256310D01*
X235621673Y-130489699D01*
X235800302Y-130668327D01*
X236033691Y-130765000D01*
X236724250Y-130765000D01*
X236883000Y-130606250D01*
X236883000Y-129407000D01*
X237137000Y-129407000D01*
X237137000Y-130606250D01*
X237295750Y-130765000D01*
X237986309Y-130765000D01*
X238219698Y-130668327D01*
X238398327Y-130489699D01*
X238495000Y-130256310D01*
X238495000Y-129565750D01*
X238336250Y-129407000D01*
X237137000Y-129407000D01*
X236883000Y-129407000D01*
X235683750Y-129407000D01*
X235525000Y-129565750D01*
X235232000Y-129565750D01*
X235232000Y-129420000D01*
X235173996Y-129128395D01*
X235084363Y-128994250D01*
X235008815Y-128881184D01*
X234431321Y-128303690D01*
X235525000Y-128303690D01*
X235525000Y-128994250D01*
X235683750Y-129153000D01*
X236883000Y-129153000D01*
X236883000Y-126867000D01*
X237137000Y-126867000D01*
X237137000Y-129153000D01*
X238336250Y-129153000D01*
X238495000Y-128994250D01*
X238495000Y-128303690D01*
X238398327Y-128070301D01*
X238219698Y-127891673D01*
X238005792Y-127803070D01*
X238205183Y-127621358D01*
X238451486Y-127096892D01*
X238330819Y-126867000D01*
X237137000Y-126867000D01*
X236883000Y-126867000D01*
X235689181Y-126867000D01*
X235568514Y-127096892D01*
X235814817Y-127621358D01*
X236014208Y-127803070D01*
X235800302Y-127891673D01*
X235621673Y-128070301D01*
X235525000Y-128303690D01*
X234431321Y-128303690D01*
X232666054Y-126538424D01*
X232666176Y-126398792D01*
X232511825Y-126025234D01*
X232226269Y-125739179D01*
X231852982Y-125584176D01*
X231448792Y-125583824D01*
X231075234Y-125738175D01*
X230789179Y-126023731D01*
X230634176Y-126397018D01*
X230633824Y-126801208D01*
X230788175Y-127174766D01*
X231073731Y-127460821D01*
X231447018Y-127615824D01*
X231588317Y-127615947D01*
X233708000Y-129735631D01*
X233708000Y-130090069D01*
X233452982Y-129984176D01*
X233048792Y-129983824D01*
X232675234Y-130138175D01*
X232575235Y-130238000D01*
X231765629Y-130238000D01*
X224716054Y-123188426D01*
X224716176Y-123048794D01*
X224561825Y-122675236D01*
X224276269Y-122389181D01*
X223902982Y-122234178D01*
X223498792Y-122233826D01*
X223125234Y-122388177D01*
X222839179Y-122673733D01*
X222684176Y-123047020D01*
X222683824Y-123451210D01*
X222838175Y-123824768D01*
X223123731Y-124110823D01*
X223497018Y-124265826D01*
X223638317Y-124265949D01*
X230911182Y-131538815D01*
X231158393Y-131703996D01*
X231449998Y-131762000D01*
X232575082Y-131762000D01*
X232673731Y-131860821D01*
X233047018Y-132015824D01*
X233451208Y-132016176D01*
X233708000Y-131910072D01*
X233708000Y-133088382D01*
X233419946Y-133280853D01*
X233200000Y-133610026D01*
X232980054Y-133280853D01*
X232498285Y-132958946D01*
X231930000Y-132845907D01*
X231361715Y-132958946D01*
X230879946Y-133280853D01*
X230558039Y-133762622D01*
X230445000Y-134330907D01*
X230445000Y-134389093D01*
X230558039Y-134957378D01*
X230879946Y-135439147D01*
X231361715Y-135761054D01*
X231507236Y-135790000D01*
X216710000Y-135790000D01*
X216710000Y-133843599D01*
X217264699Y-133843599D01*
X217528281Y-134481515D01*
X218015918Y-134970004D01*
X218653373Y-135234699D01*
X219343599Y-135235301D01*
X219981515Y-134971719D01*
X220470004Y-134484082D01*
X220734699Y-133846627D01*
X220735301Y-133156401D01*
X220471719Y-132518485D01*
X219984082Y-132029996D01*
X219346627Y-131765301D01*
X218656401Y-131764699D01*
X218018485Y-132028281D01*
X217529996Y-132515918D01*
X217265301Y-133153373D01*
X217264699Y-133843599D01*
X216710000Y-133843599D01*
X216710000Y-130570392D01*
X216748110Y-130596431D01*
X217000000Y-130647440D01*
X220500000Y-130647440D01*
X220735317Y-130603162D01*
X220951441Y-130464090D01*
X221096431Y-130251890D01*
X221147440Y-130000000D01*
X221147440Y-129000000D01*
X221103162Y-128764683D01*
X220964090Y-128548559D01*
X220894289Y-128500866D01*
X220951441Y-128464090D01*
X221096431Y-128251890D01*
X221147440Y-128000000D01*
X221147440Y-127000000D01*
X221103162Y-126764683D01*
X220964090Y-126548559D01*
X220894289Y-126500866D01*
X220951441Y-126464090D01*
X221096431Y-126251890D01*
X221147440Y-126000000D01*
X221147440Y-125000000D01*
X221103162Y-124764683D01*
X220964090Y-124548559D01*
X220894289Y-124500866D01*
X220951441Y-124464090D01*
X221096431Y-124251890D01*
X221147440Y-124000000D01*
X221147440Y-123000000D01*
X221103162Y-122764683D01*
X220964090Y-122548559D01*
X220894289Y-122500866D01*
X220951441Y-122464090D01*
X221096431Y-122251890D01*
X221147440Y-122000000D01*
X221147440Y-121000000D01*
X221103162Y-120764683D01*
X220964090Y-120548559D01*
X220894289Y-120500866D01*
X220951441Y-120464090D01*
X221096431Y-120251890D01*
X221147440Y-120000000D01*
X221147440Y-119000000D01*
X221103162Y-118764683D01*
X220964090Y-118548559D01*
X220894289Y-118500866D01*
X220951441Y-118464090D01*
X221062733Y-118301208D01*
X221883824Y-118301208D01*
X222038175Y-118674766D01*
X222323731Y-118960821D01*
X222697018Y-119115824D01*
X223101208Y-119116176D01*
X223474766Y-118961825D01*
X223608596Y-118828228D01*
X223730420Y-118803996D01*
X223977630Y-118638815D01*
X224780813Y-117835633D01*
X224945994Y-117588422D01*
X224978547Y-117424766D01*
X225003998Y-117296817D01*
X225003998Y-116516048D01*
X225151208Y-116516176D01*
X225524766Y-116361825D01*
X225810821Y-116076269D01*
X225938000Y-115769989D01*
X225938000Y-119475082D01*
X225839179Y-119573731D01*
X225684176Y-119947018D01*
X225683824Y-120351208D01*
X225838175Y-120724766D01*
X226123731Y-121010821D01*
X226191229Y-121038849D01*
X226089179Y-121140721D01*
X225934176Y-121514008D01*
X225933824Y-121918198D01*
X226088175Y-122291756D01*
X226373731Y-122577811D01*
X226634012Y-122685889D01*
X226633824Y-122901208D01*
X226788175Y-123274766D01*
X227073731Y-123560821D01*
X227447018Y-123715824D01*
X227851208Y-123716176D01*
X228224766Y-123561825D01*
X228510821Y-123276269D01*
X228591904Y-123081001D01*
X229711589Y-123081001D01*
X229684176Y-123147018D01*
X229683824Y-123551208D01*
X229824471Y-123891600D01*
X229734738Y-124107701D01*
X229734386Y-124511891D01*
X229888737Y-124885449D01*
X230174293Y-125171504D01*
X230547580Y-125326507D01*
X230951770Y-125326859D01*
X231325328Y-125172508D01*
X231536204Y-124962000D01*
X235512560Y-124962000D01*
X235512560Y-125050000D01*
X235556838Y-125285317D01*
X235695910Y-125501441D01*
X235908110Y-125646431D01*
X236022301Y-125669555D01*
X235814817Y-125858642D01*
X235568514Y-126383108D01*
X235689181Y-126613000D01*
X236883000Y-126613000D01*
X236883000Y-126593000D01*
X237137000Y-126593000D01*
X237137000Y-126613000D01*
X238330819Y-126613000D01*
X238451486Y-126383108D01*
X238205183Y-125858642D01*
X237999496Y-125671192D01*
X238095317Y-125653162D01*
X238311441Y-125514090D01*
X238456431Y-125301890D01*
X238507440Y-125050000D01*
X238507440Y-123350000D01*
X238463162Y-123114683D01*
X238324090Y-122898559D01*
X238111890Y-122753569D01*
X237860000Y-122702560D01*
X237772000Y-122702560D01*
X237772000Y-120381964D01*
X238089147Y-120170054D01*
X238411054Y-119688285D01*
X238524093Y-119120000D01*
X238411054Y-118551715D01*
X238089147Y-118069946D01*
X237759974Y-117850000D01*
X238089147Y-117630054D01*
X238411054Y-117148285D01*
X238524093Y-116580000D01*
X238411054Y-116011715D01*
X238089147Y-115529946D01*
X237748447Y-115302298D01*
X237891358Y-115235183D01*
X238281645Y-114806924D01*
X238451476Y-114396890D01*
X238330155Y-114167000D01*
X237137000Y-114167000D01*
X237137000Y-114187000D01*
X236883000Y-114187000D01*
X236883000Y-114167000D01*
X236863000Y-114167000D01*
X236863000Y-113913000D01*
X236883000Y-113913000D01*
X236883000Y-113893000D01*
X237137000Y-113893000D01*
X237137000Y-113913000D01*
X238330155Y-113913000D01*
X238451476Y-113683110D01*
X238281645Y-113273076D01*
X237891358Y-112844817D01*
X237748447Y-112777702D01*
X238089147Y-112550054D01*
X238411054Y-112068285D01*
X238524093Y-111500000D01*
X238411054Y-110931715D01*
X238089147Y-110449946D01*
X238047548Y-110422150D01*
X238095317Y-110413162D01*
X238311441Y-110274090D01*
X238456431Y-110061890D01*
X238507440Y-109810000D01*
X238507440Y-108110000D01*
X238463162Y-107874683D01*
X238324090Y-107658559D01*
X238111890Y-107513569D01*
X237860000Y-107462560D01*
X236160000Y-107462560D01*
X235924683Y-107506838D01*
X235708559Y-107645910D01*
X235563569Y-107858110D01*
X235512560Y-108110000D01*
X235512560Y-108324048D01*
X235367184Y-108421185D01*
X234812000Y-108976369D01*
X234812000Y-108259630D01*
X237548815Y-105522815D01*
X237645952Y-105377440D01*
X237860000Y-105377440D01*
X238095317Y-105333162D01*
X238311441Y-105194090D01*
X238456431Y-104981890D01*
X238507440Y-104730000D01*
X238507440Y-103030000D01*
X238463162Y-102794683D01*
X238324090Y-102578559D01*
X238111890Y-102433569D01*
X237860000Y-102382560D01*
X236160000Y-102382560D01*
X235924683Y-102426838D01*
X235708559Y-102565910D01*
X235563569Y-102778110D01*
X235512560Y-103030000D01*
X235512560Y-104730000D01*
X235556838Y-104965317D01*
X235695910Y-105181441D01*
X235719090Y-105197280D01*
X233511185Y-107405185D01*
X233346004Y-107652395D01*
X233288000Y-107944000D01*
X233288000Y-117384373D01*
X233104489Y-117567885D01*
X233012000Y-117475235D01*
X233012000Y-115500000D01*
X232953996Y-115208395D01*
X232788815Y-114961185D01*
X231612000Y-113784370D01*
X231612000Y-107954713D01*
X231632031Y-107854011D01*
X231632032Y-106045986D01*
X231614931Y-105960012D01*
X231612000Y-105945277D01*
X231612000Y-98643271D01*
X231653996Y-98580420D01*
X231678220Y-98458639D01*
X231810821Y-98326269D01*
X231965824Y-97952982D01*
X231966176Y-97548792D01*
X231811825Y-97175234D01*
X231526269Y-96889179D01*
X231152982Y-96734176D01*
X230748792Y-96733824D01*
X230375234Y-96888175D01*
X230089179Y-97173731D01*
X230087627Y-97177469D01*
X230053996Y-97008395D01*
X229888815Y-96761185D01*
X229566054Y-96438424D01*
X229566176Y-96298792D01*
X229411825Y-95925234D01*
X229126269Y-95639179D01*
X228752982Y-95484176D01*
X228348792Y-95483824D01*
X227975234Y-95638175D01*
X227689179Y-95923731D01*
X227534176Y-96297018D01*
X227533824Y-96701208D01*
X227688175Y-97074766D01*
X227973731Y-97360821D01*
X228347018Y-97515824D01*
X228488317Y-97515947D01*
X228588000Y-97615630D01*
X228588000Y-97983989D01*
X228398792Y-97983824D01*
X228025234Y-98138175D01*
X227739179Y-98423731D01*
X227584176Y-98797018D01*
X227583824Y-99201208D01*
X227738175Y-99574766D01*
X227838000Y-99674765D01*
X227838000Y-105702158D01*
X227896004Y-105993763D01*
X228025790Y-106188001D01*
X228053405Y-106229330D01*
X227969580Y-106246004D01*
X227722369Y-106411185D01*
X226425419Y-107708135D01*
X226411825Y-107675234D01*
X226126269Y-107389179D01*
X225752982Y-107234176D01*
X225348792Y-107233824D01*
X224975234Y-107388175D01*
X224689179Y-107673731D01*
X224534176Y-108047018D01*
X224534053Y-108188317D01*
X224179856Y-108542514D01*
X224179856Y-108097772D01*
X225611574Y-106666054D01*
X225751206Y-106666176D01*
X226124764Y-106511825D01*
X226410819Y-106226269D01*
X226565822Y-105852982D01*
X226566174Y-105448792D01*
X226411823Y-105075234D01*
X226126267Y-104789179D01*
X225752980Y-104634176D01*
X225348790Y-104633824D01*
X224975232Y-104788175D01*
X224689177Y-105073731D01*
X224534174Y-105447018D01*
X224534051Y-105588317D01*
X222879041Y-107243327D01*
X222713860Y-107490537D01*
X222655856Y-107782142D01*
X222655856Y-116392641D01*
X222557035Y-116491290D01*
X222402032Y-116864577D01*
X222401734Y-117206566D01*
X222325234Y-117238175D01*
X222039179Y-117523731D01*
X221884176Y-117897018D01*
X221883824Y-118301208D01*
X221062733Y-118301208D01*
X221096431Y-118251890D01*
X221147440Y-118000000D01*
X221147440Y-117000000D01*
X221103162Y-116764683D01*
X220964090Y-116548559D01*
X220894289Y-116500866D01*
X220951441Y-116464090D01*
X221096431Y-116251890D01*
X221147440Y-116000000D01*
X221147440Y-115000000D01*
X221103162Y-114764683D01*
X220964090Y-114548559D01*
X220894289Y-114500866D01*
X220951441Y-114464090D01*
X221096431Y-114251890D01*
X221147440Y-114000000D01*
X221147440Y-113000000D01*
X221103162Y-112764683D01*
X220964090Y-112548559D01*
X220894289Y-112500866D01*
X220951441Y-112464090D01*
X221096431Y-112251890D01*
X221147440Y-112000000D01*
X221147440Y-111000000D01*
X221103162Y-110764683D01*
X220964090Y-110548559D01*
X220894289Y-110500866D01*
X220951441Y-110464090D01*
X221096431Y-110251890D01*
X221147440Y-110000000D01*
X221147440Y-109000000D01*
X221103162Y-108764683D01*
X220964090Y-108548559D01*
X220894289Y-108500866D01*
X220951441Y-108464090D01*
X221096431Y-108251890D01*
X221147440Y-108000000D01*
X221147440Y-107000000D01*
X221103162Y-106764683D01*
X220964090Y-106548559D01*
X220894289Y-106500866D01*
X220951441Y-106464090D01*
X221096431Y-106251890D01*
X221147440Y-106000000D01*
X221147440Y-105000000D01*
X221103162Y-104764683D01*
X220964090Y-104548559D01*
X220894289Y-104500866D01*
X220951441Y-104464090D01*
X221096431Y-104251890D01*
X221147440Y-104000000D01*
X221147440Y-103000000D01*
X221103162Y-102764683D01*
X220964090Y-102548559D01*
X220894289Y-102500866D01*
X220951441Y-102464090D01*
X221096431Y-102251890D01*
X221147440Y-102000000D01*
X221147440Y-101000000D01*
X221103162Y-100764683D01*
X220964090Y-100548559D01*
X220894289Y-100500866D01*
X220951441Y-100464090D01*
X221096431Y-100251890D01*
X221147440Y-100000000D01*
X221147440Y-99000000D01*
X221103162Y-98764683D01*
X220964090Y-98548559D01*
X220751890Y-98403569D01*
X220500000Y-98352560D01*
X217000000Y-98352560D01*
X216764683Y-98396838D01*
X216710000Y-98432026D01*
X216710000Y-96343599D01*
X217264699Y-96343599D01*
X217528281Y-96981515D01*
X218015918Y-97470004D01*
X218653373Y-97734699D01*
X219343599Y-97735301D01*
X219981515Y-97471719D01*
X220470004Y-96984082D01*
X220734699Y-96346627D01*
X220735301Y-95656401D01*
X220471719Y-95018485D01*
X219984082Y-94529996D01*
X219346627Y-94265301D01*
X218656401Y-94264699D01*
X218018485Y-94528281D01*
X217529996Y-95015918D01*
X217265301Y-95653373D01*
X217264699Y-96343599D01*
X216710000Y-96343599D01*
X216710000Y-94210000D01*
X239290000Y-94210000D01*
X239290000Y-135790000D01*
X239290000Y-135790000D01*
G37*
X239290000Y-135790000D02*
X238131312Y-135790000D01*
X238311441Y-135674090D01*
X238456431Y-135461890D01*
X238507440Y-135210000D01*
X238507440Y-133510000D01*
X238463162Y-133274683D01*
X238324090Y-133058559D01*
X238111890Y-132913569D01*
X237860000Y-132862560D01*
X236160000Y-132862560D01*
X235924683Y-132906838D01*
X235708559Y-133045910D01*
X235563569Y-133258110D01*
X235549914Y-133325541D01*
X235520054Y-133280853D01*
X235232000Y-133088382D01*
X235232000Y-129565750D01*
X235525000Y-129565750D01*
X235525000Y-130256310D01*
X235621673Y-130489699D01*
X235800302Y-130668327D01*
X236033691Y-130765000D01*
X236724250Y-130765000D01*
X236883000Y-130606250D01*
X236883000Y-129407000D01*
X237137000Y-129407000D01*
X237137000Y-130606250D01*
X237295750Y-130765000D01*
X237986309Y-130765000D01*
X238219698Y-130668327D01*
X238398327Y-130489699D01*
X238495000Y-130256310D01*
X238495000Y-129565750D01*
X238336250Y-129407000D01*
X237137000Y-129407000D01*
X236883000Y-129407000D01*
X235683750Y-129407000D01*
X235525000Y-129565750D01*
X235232000Y-129565750D01*
X235232000Y-129420000D01*
X235173996Y-129128395D01*
X235084363Y-128994250D01*
X235008815Y-128881184D01*
X234431321Y-128303690D01*
X235525000Y-128303690D01*
X235525000Y-128994250D01*
X235683750Y-129153000D01*
X236883000Y-129153000D01*
X236883000Y-126867000D01*
X237137000Y-126867000D01*
X237137000Y-129153000D01*
X238336250Y-129153000D01*
X238495000Y-128994250D01*
X238495000Y-128303690D01*
X238398327Y-128070301D01*
X238219698Y-127891673D01*
X238005792Y-127803070D01*
X238205183Y-127621358D01*
X238451486Y-127096892D01*
X238330819Y-126867000D01*
X237137000Y-126867000D01*
X236883000Y-126867000D01*
X235689181Y-126867000D01*
X235568514Y-127096892D01*
X235814817Y-127621358D01*
X236014208Y-127803070D01*
X235800302Y-127891673D01*
X235621673Y-128070301D01*
X235525000Y-128303690D01*
X234431321Y-128303690D01*
X232666054Y-126538424D01*
X232666176Y-126398792D01*
X232511825Y-126025234D01*
X232226269Y-125739179D01*
X231852982Y-125584176D01*
X231448792Y-125583824D01*
X231075234Y-125738175D01*
X230789179Y-126023731D01*
X230634176Y-126397018D01*
X230633824Y-126801208D01*
X230788175Y-127174766D01*
X231073731Y-127460821D01*
X231447018Y-127615824D01*
X231588317Y-127615947D01*
X233708000Y-129735631D01*
X233708000Y-130090069D01*
X233452982Y-129984176D01*
X233048792Y-129983824D01*
X232675234Y-130138175D01*
X232575235Y-130238000D01*
X231765629Y-130238000D01*
X224716054Y-123188426D01*
X224716176Y-123048794D01*
X224561825Y-122675236D01*
X224276269Y-122389181D01*
X223902982Y-122234178D01*
X223498792Y-122233826D01*
X223125234Y-122388177D01*
X222839179Y-122673733D01*
X222684176Y-123047020D01*
X222683824Y-123451210D01*
X222838175Y-123824768D01*
X223123731Y-124110823D01*
X223497018Y-124265826D01*
X223638317Y-124265949D01*
X230911182Y-131538815D01*
X231158393Y-131703996D01*
X231449998Y-131762000D01*
X232575082Y-131762000D01*
X232673731Y-131860821D01*
X233047018Y-132015824D01*
X233451208Y-132016176D01*
X233708000Y-131910072D01*
X233708000Y-133088382D01*
X233419946Y-133280853D01*
X233200000Y-133610026D01*
X232980054Y-133280853D01*
X232498285Y-132958946D01*
X231930000Y-132845907D01*
X231361715Y-132958946D01*
X230879946Y-133280853D01*
X230558039Y-133762622D01*
X230445000Y-134330907D01*
X230445000Y-134389093D01*
X230558039Y-134957378D01*
X230879946Y-135439147D01*
X231361715Y-135761054D01*
X231507236Y-135790000D01*
X216710000Y-135790000D01*
X216710000Y-133843599D01*
X217264699Y-133843599D01*
X217528281Y-134481515D01*
X218015918Y-134970004D01*
X218653373Y-135234699D01*
X219343599Y-135235301D01*
X219981515Y-134971719D01*
X220470004Y-134484082D01*
X220734699Y-133846627D01*
X220735301Y-133156401D01*
X220471719Y-132518485D01*
X219984082Y-132029996D01*
X219346627Y-131765301D01*
X218656401Y-131764699D01*
X218018485Y-132028281D01*
X217529996Y-132515918D01*
X217265301Y-133153373D01*
X217264699Y-133843599D01*
X216710000Y-133843599D01*
X216710000Y-130570392D01*
X216748110Y-130596431D01*
X217000000Y-130647440D01*
X220500000Y-130647440D01*
X220735317Y-130603162D01*
X220951441Y-130464090D01*
X221096431Y-130251890D01*
X221147440Y-130000000D01*
X221147440Y-129000000D01*
X221103162Y-128764683D01*
X220964090Y-128548559D01*
X220894289Y-128500866D01*
X220951441Y-128464090D01*
X221096431Y-128251890D01*
X221147440Y-128000000D01*
X221147440Y-127000000D01*
X221103162Y-126764683D01*
X220964090Y-126548559D01*
X220894289Y-126500866D01*
X220951441Y-126464090D01*
X221096431Y-126251890D01*
X221147440Y-126000000D01*
X221147440Y-125000000D01*
X221103162Y-124764683D01*
X220964090Y-124548559D01*
X220894289Y-124500866D01*
X220951441Y-124464090D01*
X221096431Y-124251890D01*
X221147440Y-124000000D01*
X221147440Y-123000000D01*
X221103162Y-122764683D01*
X220964090Y-122548559D01*
X220894289Y-122500866D01*
X220951441Y-122464090D01*
X221096431Y-122251890D01*
X221147440Y-122000000D01*
X221147440Y-121000000D01*
X221103162Y-120764683D01*
X220964090Y-120548559D01*
X220894289Y-120500866D01*
X220951441Y-120464090D01*
X221096431Y-120251890D01*
X221147440Y-120000000D01*
X221147440Y-119000000D01*
X221103162Y-118764683D01*
X220964090Y-118548559D01*
X220894289Y-118500866D01*
X220951441Y-118464090D01*
X221062733Y-118301208D01*
X221883824Y-118301208D01*
X222038175Y-118674766D01*
X222323731Y-118960821D01*
X222697018Y-119115824D01*
X223101208Y-119116176D01*
X223474766Y-118961825D01*
X223608596Y-118828228D01*
X223730420Y-118803996D01*
X223977630Y-118638815D01*
X224780813Y-117835633D01*
X224945994Y-117588422D01*
X224978547Y-117424766D01*
X225003998Y-117296817D01*
X225003998Y-116516048D01*
X225151208Y-116516176D01*
X225524766Y-116361825D01*
X225810821Y-116076269D01*
X225938000Y-115769989D01*
X225938000Y-119475082D01*
X225839179Y-119573731D01*
X225684176Y-119947018D01*
X225683824Y-120351208D01*
X225838175Y-120724766D01*
X226123731Y-121010821D01*
X226191229Y-121038849D01*
X226089179Y-121140721D01*
X225934176Y-121514008D01*
X225933824Y-121918198D01*
X226088175Y-122291756D01*
X226373731Y-122577811D01*
X226634012Y-122685889D01*
X226633824Y-122901208D01*
X226788175Y-123274766D01*
X227073731Y-123560821D01*
X227447018Y-123715824D01*
X227851208Y-123716176D01*
X228224766Y-123561825D01*
X228510821Y-123276269D01*
X228591904Y-123081001D01*
X229711589Y-123081001D01*
X229684176Y-123147018D01*
X229683824Y-123551208D01*
X229824471Y-123891600D01*
X229734738Y-124107701D01*
X229734386Y-124511891D01*
X229888737Y-124885449D01*
X230174293Y-125171504D01*
X230547580Y-125326507D01*
X230951770Y-125326859D01*
X231325328Y-125172508D01*
X231536204Y-124962000D01*
X235512560Y-124962000D01*
X235512560Y-125050000D01*
X235556838Y-125285317D01*
X235695910Y-125501441D01*
X235908110Y-125646431D01*
X236022301Y-125669555D01*
X235814817Y-125858642D01*
X235568514Y-126383108D01*
X235689181Y-126613000D01*
X236883000Y-126613000D01*
X236883000Y-126593000D01*
X237137000Y-126593000D01*
X237137000Y-126613000D01*
X238330819Y-126613000D01*
X238451486Y-126383108D01*
X238205183Y-125858642D01*
X237999496Y-125671192D01*
X238095317Y-125653162D01*
X238311441Y-125514090D01*
X238456431Y-125301890D01*
X238507440Y-125050000D01*
X238507440Y-123350000D01*
X238463162Y-123114683D01*
X238324090Y-122898559D01*
X238111890Y-122753569D01*
X237860000Y-122702560D01*
X237772000Y-122702560D01*
X237772000Y-120381964D01*
X238089147Y-120170054D01*
X238411054Y-119688285D01*
X238524093Y-119120000D01*
X238411054Y-118551715D01*
X238089147Y-118069946D01*
X237759974Y-117850000D01*
X238089147Y-117630054D01*
X238411054Y-117148285D01*
X238524093Y-116580000D01*
X238411054Y-116011715D01*
X238089147Y-115529946D01*
X237748447Y-115302298D01*
X237891358Y-115235183D01*
X238281645Y-114806924D01*
X238451476Y-114396890D01*
X238330155Y-114167000D01*
X237137000Y-114167000D01*
X237137000Y-114187000D01*
X236883000Y-114187000D01*
X236883000Y-114167000D01*
X236863000Y-114167000D01*
X236863000Y-113913000D01*
X236883000Y-113913000D01*
X236883000Y-113893000D01*
X237137000Y-113893000D01*
X237137000Y-113913000D01*
X238330155Y-113913000D01*
X238451476Y-113683110D01*
X238281645Y-113273076D01*
X237891358Y-112844817D01*
X237748447Y-112777702D01*
X238089147Y-112550054D01*
X238411054Y-112068285D01*
X238524093Y-111500000D01*
X238411054Y-110931715D01*
X238089147Y-110449946D01*
X238047548Y-110422150D01*
X238095317Y-110413162D01*
X238311441Y-110274090D01*
X238456431Y-110061890D01*
X238507440Y-109810000D01*
X238507440Y-108110000D01*
X238463162Y-107874683D01*
X238324090Y-107658559D01*
X238111890Y-107513569D01*
X237860000Y-107462560D01*
X236160000Y-107462560D01*
X235924683Y-107506838D01*
X235708559Y-107645910D01*
X235563569Y-107858110D01*
X235512560Y-108110000D01*
X235512560Y-108324048D01*
X235367184Y-108421185D01*
X234812000Y-108976369D01*
X234812000Y-108259630D01*
X237548815Y-105522815D01*
X237645952Y-105377440D01*
X237860000Y-105377440D01*
X238095317Y-105333162D01*
X238311441Y-105194090D01*
X238456431Y-104981890D01*
X238507440Y-104730000D01*
X238507440Y-103030000D01*
X238463162Y-102794683D01*
X238324090Y-102578559D01*
X238111890Y-102433569D01*
X237860000Y-102382560D01*
X236160000Y-102382560D01*
X235924683Y-102426838D01*
X235708559Y-102565910D01*
X235563569Y-102778110D01*
X235512560Y-103030000D01*
X235512560Y-104730000D01*
X235556838Y-104965317D01*
X235695910Y-105181441D01*
X235719090Y-105197280D01*
X233511185Y-107405185D01*
X233346004Y-107652395D01*
X233288000Y-107944000D01*
X233288000Y-117384373D01*
X233104489Y-117567885D01*
X233012000Y-117475235D01*
X233012000Y-115500000D01*
X232953996Y-115208395D01*
X232788815Y-114961185D01*
X231612000Y-113784370D01*
X231612000Y-107954713D01*
X231632031Y-107854011D01*
X231632032Y-106045986D01*
X231614931Y-105960012D01*
X231612000Y-105945277D01*
X231612000Y-98643271D01*
X231653996Y-98580420D01*
X231678220Y-98458639D01*
X231810821Y-98326269D01*
X231965824Y-97952982D01*
X231966176Y-97548792D01*
X231811825Y-97175234D01*
X231526269Y-96889179D01*
X231152982Y-96734176D01*
X230748792Y-96733824D01*
X230375234Y-96888175D01*
X230089179Y-97173731D01*
X230087627Y-97177469D01*
X230053996Y-97008395D01*
X229888815Y-96761185D01*
X229566054Y-96438424D01*
X229566176Y-96298792D01*
X229411825Y-95925234D01*
X229126269Y-95639179D01*
X228752982Y-95484176D01*
X228348792Y-95483824D01*
X227975234Y-95638175D01*
X227689179Y-95923731D01*
X227534176Y-96297018D01*
X227533824Y-96701208D01*
X227688175Y-97074766D01*
X227973731Y-97360821D01*
X228347018Y-97515824D01*
X228488317Y-97515947D01*
X228588000Y-97615630D01*
X228588000Y-97983989D01*
X228398792Y-97983824D01*
X228025234Y-98138175D01*
X227739179Y-98423731D01*
X227584176Y-98797018D01*
X227583824Y-99201208D01*
X227738175Y-99574766D01*
X227838000Y-99674765D01*
X227838000Y-105702158D01*
X227896004Y-105993763D01*
X228025790Y-106188001D01*
X228053405Y-106229330D01*
X227969580Y-106246004D01*
X227722369Y-106411185D01*
X226425419Y-107708135D01*
X226411825Y-107675234D01*
X226126269Y-107389179D01*
X225752982Y-107234176D01*
X225348792Y-107233824D01*
X224975234Y-107388175D01*
X224689179Y-107673731D01*
X224534176Y-108047018D01*
X224534053Y-108188317D01*
X224179856Y-108542514D01*
X224179856Y-108097772D01*
X225611574Y-106666054D01*
X225751206Y-106666176D01*
X226124764Y-106511825D01*
X226410819Y-106226269D01*
X226565822Y-105852982D01*
X226566174Y-105448792D01*
X226411823Y-105075234D01*
X226126267Y-104789179D01*
X225752980Y-104634176D01*
X225348790Y-104633824D01*
X224975232Y-104788175D01*
X224689177Y-105073731D01*
X224534174Y-105447018D01*
X224534051Y-105588317D01*
X222879041Y-107243327D01*
X222713860Y-107490537D01*
X222655856Y-107782142D01*
X222655856Y-116392641D01*
X222557035Y-116491290D01*
X222402032Y-116864577D01*
X222401734Y-117206566D01*
X222325234Y-117238175D01*
X222039179Y-117523731D01*
X221884176Y-117897018D01*
X221883824Y-118301208D01*
X221062733Y-118301208D01*
X221096431Y-118251890D01*
X221147440Y-118000000D01*
X221147440Y-117000000D01*
X221103162Y-116764683D01*
X220964090Y-116548559D01*
X220894289Y-116500866D01*
X220951441Y-116464090D01*
X221096431Y-116251890D01*
X221147440Y-116000000D01*
X221147440Y-115000000D01*
X221103162Y-114764683D01*
X220964090Y-114548559D01*
X220894289Y-114500866D01*
X220951441Y-114464090D01*
X221096431Y-114251890D01*
X221147440Y-114000000D01*
X221147440Y-113000000D01*
X221103162Y-112764683D01*
X220964090Y-112548559D01*
X220894289Y-112500866D01*
X220951441Y-112464090D01*
X221096431Y-112251890D01*
X221147440Y-112000000D01*
X221147440Y-111000000D01*
X221103162Y-110764683D01*
X220964090Y-110548559D01*
X220894289Y-110500866D01*
X220951441Y-110464090D01*
X221096431Y-110251890D01*
X221147440Y-110000000D01*
X221147440Y-109000000D01*
X221103162Y-108764683D01*
X220964090Y-108548559D01*
X220894289Y-108500866D01*
X220951441Y-108464090D01*
X221096431Y-108251890D01*
X221147440Y-108000000D01*
X221147440Y-107000000D01*
X221103162Y-106764683D01*
X220964090Y-106548559D01*
X220894289Y-106500866D01*
X220951441Y-106464090D01*
X221096431Y-106251890D01*
X221147440Y-106000000D01*
X221147440Y-105000000D01*
X221103162Y-104764683D01*
X220964090Y-104548559D01*
X220894289Y-104500866D01*
X220951441Y-104464090D01*
X221096431Y-104251890D01*
X221147440Y-104000000D01*
X221147440Y-103000000D01*
X221103162Y-102764683D01*
X220964090Y-102548559D01*
X220894289Y-102500866D01*
X220951441Y-102464090D01*
X221096431Y-102251890D01*
X221147440Y-102000000D01*
X221147440Y-101000000D01*
X221103162Y-100764683D01*
X220964090Y-100548559D01*
X220894289Y-100500866D01*
X220951441Y-100464090D01*
X221096431Y-100251890D01*
X221147440Y-100000000D01*
X221147440Y-99000000D01*
X221103162Y-98764683D01*
X220964090Y-98548559D01*
X220751890Y-98403569D01*
X220500000Y-98352560D01*
X217000000Y-98352560D01*
X216764683Y-98396838D01*
X216710000Y-98432026D01*
X216710000Y-96343599D01*
X217264699Y-96343599D01*
X217528281Y-96981515D01*
X218015918Y-97470004D01*
X218653373Y-97734699D01*
X219343599Y-97735301D01*
X219981515Y-97471719D01*
X220470004Y-96984082D01*
X220734699Y-96346627D01*
X220735301Y-95656401D01*
X220471719Y-95018485D01*
X219984082Y-94529996D01*
X219346627Y-94265301D01*
X218656401Y-94264699D01*
X218018485Y-94528281D01*
X217529996Y-95015918D01*
X217265301Y-95653373D01*
X217264699Y-96343599D01*
X216710000Y-96343599D01*
X216710000Y-94210000D01*
X239290000Y-94210000D01*
X239290000Y-135790000D01*
M02*
