G04 #@! TF.FileFunction,Soldermask,Top*
%FSLAX46Y46*%
G04 Gerber Fmt 4.6, Leading zero omitted, Abs format (unit mm)*
G04 Created by KiCad (PCBNEW 4.0.7-e2-6376~58~ubuntu16.04.1) date Tue Nov  7 21:50:16 2017*
%MOMM*%
%LPD*%
G01*
G04 APERTURE LIST*
%ADD10C,0.100000*%
%ADD11C,0.101600*%
%ADD12C,0.076200*%
%ADD13C,0.150000*%
%ADD14C,0.127000*%
%ADD15R,1.700000X1.900000*%
%ADD16R,2.100000X2.100000*%
%ADD17O,2.100000X2.100000*%
%ADD18R,0.590000X1.590000*%
%ADD19R,1.650000X1.900000*%
%ADD20C,1.400000*%
%ADD21R,0.571800X1.537000*%
%ADD22R,1.100000X1.600000*%
%ADD23R,4.900000X4.690000*%
%ADD24R,1.950000X2.000000*%
%ADD25R,1.950000X1.600000*%
G04 APERTURE END LIST*
D10*
D11*
X199060000Y-121470000D02*
X199220000Y-120950000D01*
X199100000Y-121250000D02*
X199060000Y-121470000D01*
X198980000Y-120970000D02*
X199100000Y-121250000D01*
X198760000Y-120670000D02*
X198980000Y-120970000D01*
X198670000Y-120240000D02*
X198760000Y-120670000D01*
X199040000Y-120250000D02*
X199040000Y-120080000D01*
X199060000Y-120350000D02*
X199040000Y-120250000D01*
X199010000Y-120440000D02*
X199060000Y-120350000D01*
X198890000Y-120470000D02*
X199010000Y-120440000D01*
X198770000Y-120340000D02*
X198890000Y-120470000D01*
X198700000Y-120150000D02*
X198770000Y-120340000D01*
X199220000Y-120150000D02*
X199130000Y-120020000D01*
X199350000Y-120180000D02*
X199220000Y-120150000D01*
X199460000Y-120140000D02*
X199350000Y-120180000D01*
X199500000Y-120040000D02*
X199460000Y-120140000D01*
X199500000Y-119900000D02*
X199500000Y-120040000D01*
X199400000Y-119760000D02*
X199500000Y-119900000D01*
X199220000Y-119650000D02*
X199400000Y-119760000D01*
X199320000Y-119620000D02*
X199220000Y-119620000D01*
X199470000Y-119610000D02*
X199320000Y-119620000D01*
X199570000Y-119540000D02*
X199470000Y-119610000D01*
X199550000Y-119390000D02*
X199570000Y-119540000D01*
X199440000Y-119290000D02*
X199550000Y-119390000D01*
X199070000Y-119300000D02*
X199440000Y-119290000D01*
X199190000Y-119170000D02*
X199100000Y-119310000D01*
X199210000Y-119060000D02*
X199190000Y-119170000D01*
X199160000Y-118950000D02*
X199210000Y-119060000D01*
X198990000Y-118920000D02*
X199160000Y-118950000D01*
X198830000Y-118980000D02*
X198990000Y-118920000D01*
X198740000Y-119250000D02*
X198830000Y-118980000D01*
X198640000Y-120160000D02*
X198630000Y-120130000D01*
X198670000Y-120140000D02*
X198640000Y-120160000D01*
X198650000Y-120160000D02*
X198670000Y-120140000D01*
X198630000Y-120270000D02*
X198650000Y-120160000D01*
X198570000Y-120380000D02*
X198630000Y-120270000D01*
X198450000Y-120420000D02*
X198570000Y-120380000D01*
X198340000Y-120380000D02*
X198450000Y-120420000D01*
X198330000Y-120190000D02*
X198340000Y-120380000D01*
X198410000Y-119990000D02*
X198330000Y-120190000D01*
X198140000Y-120030000D02*
X198390000Y-119970000D01*
X198020000Y-119950000D02*
X198140000Y-120030000D01*
X197980000Y-119820000D02*
X198020000Y-119950000D01*
X198070000Y-119670000D02*
X197980000Y-119820000D01*
X198340000Y-119620000D02*
X198070000Y-119670000D01*
X198120000Y-119500000D02*
X198330000Y-119550000D01*
X198010000Y-119330000D02*
X198120000Y-119500000D01*
X198120000Y-119140000D02*
X198010000Y-119330000D01*
X198400000Y-119070000D02*
X198120000Y-119140000D01*
X198670000Y-119210000D02*
X198400000Y-119070000D01*
D12*
X198840000Y-119880000D02*
X198960000Y-119790000D01*
X198710000Y-119890000D02*
X198840000Y-119880000D01*
X198590000Y-119820000D02*
X198710000Y-119890000D01*
D13*
X198671623Y-119600000D02*
G75*
G03X198671623Y-119600000I-31623J0D01*
G01*
D14*
X199190000Y-119680000D02*
G75*
G03X199190000Y-119680000I-410000J0D01*
G01*
D13*
X198951623Y-119600000D02*
G75*
G03X198951623Y-119600000I-31623J0D01*
G01*
D15*
X191825000Y-135725000D03*
X191825000Y-138425000D03*
D16*
X168910000Y-140970000D03*
D17*
X168910000Y-138430000D03*
X168910000Y-135890000D03*
X168910000Y-133350000D03*
X168910000Y-130810000D03*
X168910000Y-128270000D03*
X168910000Y-125730000D03*
X168910000Y-123190000D03*
X168910000Y-120650000D03*
D18*
X190885000Y-126590000D03*
X190235000Y-126590000D03*
X189585000Y-126590000D03*
X188935000Y-126590000D03*
X188285000Y-126590000D03*
X187635000Y-126590000D03*
X186985000Y-126590000D03*
X186335000Y-126590000D03*
X185685000Y-126590000D03*
X185035000Y-126590000D03*
X185035000Y-132490000D03*
X185685000Y-132490000D03*
X186335000Y-132490000D03*
X186985000Y-132490000D03*
X187635000Y-132490000D03*
X188285000Y-132490000D03*
X188935000Y-132490000D03*
X189585000Y-132490000D03*
X190235000Y-132490000D03*
X190885000Y-132490000D03*
D16*
X199390000Y-130810000D03*
D17*
X199390000Y-128270000D03*
D19*
X199390000Y-133370000D03*
X199390000Y-135870000D03*
X187960000Y-122916000D03*
X187960000Y-120416000D03*
X188600000Y-137450000D03*
X188600000Y-134950000D03*
D16*
X168910000Y-118110000D03*
X195580000Y-121412000D03*
D17*
X195580000Y-123952000D03*
X195580000Y-126492000D03*
X195580000Y-129032000D03*
X195580000Y-131572000D03*
D20*
X181610000Y-138430000D03*
X181610000Y-135890000D03*
X181610000Y-133350000D03*
X181610000Y-130810000D03*
X181610000Y-128270000D03*
X181610000Y-125730000D03*
X181610000Y-123190000D03*
X181610000Y-120650000D03*
D15*
X190900000Y-123175000D03*
X190900000Y-120475000D03*
D21*
X174599600Y-138684000D03*
X175234600Y-138684000D03*
X175895000Y-138684000D03*
X176530000Y-138684000D03*
X177190400Y-138684000D03*
X177838100Y-138684000D03*
X178485800Y-138684000D03*
X178485800Y-133096000D03*
X177838100Y-133096000D03*
X177190400Y-133096000D03*
X176530000Y-133096000D03*
X175882300Y-133096000D03*
X175234600Y-133096000D03*
X174586900Y-133096000D03*
X174599600Y-127254000D03*
X175234600Y-127254000D03*
X175895000Y-127254000D03*
X176530000Y-127254000D03*
X177190400Y-127254000D03*
X177838100Y-127254000D03*
X178485800Y-127254000D03*
X178485800Y-121666000D03*
X177838100Y-121666000D03*
X177190400Y-121666000D03*
X176530000Y-121666000D03*
X175882300Y-121666000D03*
X175234600Y-121666000D03*
X174586900Y-121666000D03*
D22*
X197490000Y-135530000D03*
X196220000Y-135530000D03*
X194940000Y-135530000D03*
X193670000Y-135530000D03*
X193670000Y-141330000D03*
X194940000Y-141330000D03*
X196220000Y-141330000D03*
X197490000Y-141330000D03*
D23*
X195580000Y-138930000D03*
D24*
X196670000Y-139680000D03*
X194490000Y-139680000D03*
D25*
X196670000Y-137680000D03*
X194490000Y-137680000D03*
D19*
X172720000Y-137140000D03*
X172720000Y-134640000D03*
X172720000Y-125710000D03*
X172720000Y-123210000D03*
D16*
X185420000Y-140970000D03*
D17*
X187960000Y-140970000D03*
X190500000Y-140970000D03*
D16*
X199390000Y-141000000D03*
M02*
