M48
;DRILL file {KiCad 4.0.7-e2-6376~58~ubuntu16.04.1} date Wed Nov  8 23:35:23 2017
;FORMAT={-:-/ absolute / inch / decimal}
FMAT,2
INCH,TZ
T1C0.016
T2C0.016
T3C0.039
%
G90
G05
M72
T1
X8.6122Y-3.9173
X8.6122Y-3.9961
X8.6122Y-4.0748
X8.6122Y-4.1535
X8.6122Y-4.2323
X8.6122Y-4.311
X8.6122Y-4.3898
X8.6122Y-4.4685
X8.6122Y-4.5472
X8.6122Y-4.626
X8.6122Y-4.7047
X8.6122Y-4.7835
X8.6122Y-4.8622
X8.6122Y-4.9409
X8.6122Y-5.0197
X8.6122Y-5.0984
T2
X8.7106Y-4.4685
X8.7106Y-4.626
X8.7106Y-4.3898
X8.7106Y-4.5472
X8.7106Y-4.7047
X8.7106Y-4.7835
X8.7106Y-5.0984
X8.7205Y-3.9173
X8.7205Y-3.9961
X8.7205Y-4.0748
X8.7736Y-4.189
X8.7736Y-4.3307
X8.7843Y-4.6591
X8.7869Y-4.6185
X8.8021Y-4.5824
X8.8071Y-4.8524
X8.9272Y-4.5906
X8.9275Y-4.2857
X8.935Y-4.792
X8.9429Y-3.9173
X8.9429Y-3.9567
X8.9464Y-3.9971
X8.9626Y-4.8307
X8.9783Y-4.7283
X8.9875Y-3.9422
X9.0106Y-4.2087
X9.0177Y-3.8701
X9.0256Y-4.6174
X9.0827Y-4.8563
X9.0847Y-4.8941
X9.1201Y-4.9843
X9.1476Y-4.311
X9.1634Y-4.6378
X9.1634Y-4.685
X9.1634Y-4.7323
X9.1791Y-4.2598
X9.1791Y-4.8327
X9.1791Y-4.5748
X9.1831Y-5.1575
T3
X9.1311Y-5.2898
X9.2311Y-5.2898
X9.3311Y-4.0898
X9.3311Y-4.2898
X9.3311Y-4.3898
X9.3311Y-4.4898
X9.3311Y-4.5898
X9.3311Y-4.6898
X9.3311Y-4.8898
X9.3311Y-4.9898
X9.3311Y-5.0898
X9.3311Y-5.2898
T0
M30
