M48
;DRILL file {KiCad 4.0.7-e2-6376~58~ubuntu16.04.1} date Tue Nov  7 21:50:20 2017
;FORMAT={-:-/ absolute / inch / decimal}
FMAT,2
INCH,TZ
T1C0.016
T2C0.039
%
G90
G05
M72
T1
X6.8986Y-5.1811
X6.8992Y-4.8492
X6.95Y-5.3
X6.9557Y-4.876
X6.9744Y-5.0669
X7.0689Y-5.4783
X7.0758Y-5.001
X7.1Y-4.75
X7.1Y-5.15
X7.1Y-4.85
X7.1Y-4.95
X7.1Y-5.05
X7.1Y-5.25
X7.1Y-5.45
X7.1Y-5.35
X7.2343Y-5.0591
X7.2343Y-5.1535
X7.2569Y-5.4596
X7.3307Y-4.8258
X7.4213Y-5.122
X7.4606Y-4.6752
X7.4616Y-5.05
X7.4783Y-5.1339
X7.4882Y-5.4557
X7.5512Y-5.0394
X7.5925Y-5.0079
X7.7736Y-5.2018
X7.8465Y-5.4321
T2
X6.65Y-4.65
X6.65Y-4.75
X6.65Y-4.85
X6.65Y-4.95
X6.65Y-5.05
X6.65Y-5.15
X6.65Y-5.25
X6.65Y-5.35
X6.65Y-5.45
X6.65Y-5.55
X7.3Y-5.55
X7.4Y-5.55
X7.5Y-5.55
X7.7Y-4.78
X7.7Y-4.88
X7.7Y-4.98
X7.7Y-5.08
X7.7Y-5.18
X7.85Y-5.05
X7.85Y-5.15
X7.85Y-5.5512
T0
M30
