G04 #@! TF.FileFunction,Legend,Bot*
%FSLAX46Y46*%
G04 Gerber Fmt 4.6, Leading zero omitted, Abs format (unit mm)*
G04 Created by KiCad (PCBNEW 4.0.7-e2-6376~58~ubuntu16.04.1) date Tue Nov  7 21:50:16 2017*
%MOMM*%
%LPD*%
G01*
G04 APERTURE LIST*
%ADD10C,0.100000*%
%ADD11C,0.170000*%
%ADD12C,0.150000*%
G04 APERTURE END LIST*
D10*
D11*
X199000000Y-133887143D02*
X199000000Y-134615714D01*
X199042857Y-134701429D01*
X199085714Y-134744286D01*
X199171429Y-134787143D01*
X199300000Y-134787143D01*
X199385714Y-134744286D01*
X199000000Y-134444286D02*
X199085714Y-134487143D01*
X199257143Y-134487143D01*
X199342857Y-134444286D01*
X199385714Y-134401429D01*
X199428571Y-134315714D01*
X199428571Y-134058571D01*
X199385714Y-133972857D01*
X199342857Y-133930000D01*
X199257143Y-133887143D01*
X199085714Y-133887143D01*
X199000000Y-133930000D01*
X198571428Y-134487143D02*
X198571428Y-133887143D01*
X198571428Y-133587143D02*
X198614285Y-133630000D01*
X198571428Y-133672857D01*
X198528571Y-133630000D01*
X198571428Y-133587143D01*
X198571428Y-133672857D01*
X198271429Y-133887143D02*
X197928572Y-133887143D01*
X198142857Y-133587143D02*
X198142857Y-134358571D01*
X198100000Y-134444286D01*
X198014286Y-134487143D01*
X197928572Y-134487143D01*
X197628571Y-134487143D02*
X197628571Y-133587143D01*
X197242857Y-134487143D02*
X197242857Y-134015714D01*
X197285714Y-133930000D01*
X197371428Y-133887143D01*
X197500000Y-133887143D01*
X197585714Y-133930000D01*
X197628571Y-133972857D01*
X196428571Y-133887143D02*
X196428571Y-134487143D01*
X196814285Y-133887143D02*
X196814285Y-134358571D01*
X196771428Y-134444286D01*
X196685714Y-134487143D01*
X196557142Y-134487143D01*
X196471428Y-134444286D01*
X196428571Y-134401429D01*
X195999999Y-134487143D02*
X195999999Y-133587143D01*
X195999999Y-133930000D02*
X195914285Y-133887143D01*
X195742856Y-133887143D01*
X195657142Y-133930000D01*
X195614285Y-133972857D01*
X195571428Y-134058571D01*
X195571428Y-134315714D01*
X195614285Y-134401429D01*
X195657142Y-134444286D01*
X195742856Y-134487143D01*
X195914285Y-134487143D01*
X195999999Y-134444286D01*
X195185713Y-134401429D02*
X195142856Y-134444286D01*
X195185713Y-134487143D01*
X195228570Y-134444286D01*
X195185713Y-134401429D01*
X195185713Y-134487143D01*
X194371428Y-134444286D02*
X194457142Y-134487143D01*
X194628571Y-134487143D01*
X194714285Y-134444286D01*
X194757142Y-134401429D01*
X194799999Y-134315714D01*
X194799999Y-134058571D01*
X194757142Y-133972857D01*
X194714285Y-133930000D01*
X194628571Y-133887143D01*
X194457142Y-133887143D01*
X194371428Y-133930000D01*
X193857142Y-134487143D02*
X193942856Y-134444286D01*
X193985713Y-134401429D01*
X194028570Y-134315714D01*
X194028570Y-134058571D01*
X193985713Y-133972857D01*
X193942856Y-133930000D01*
X193857142Y-133887143D01*
X193728570Y-133887143D01*
X193642856Y-133930000D01*
X193599999Y-133972857D01*
X193557142Y-134058571D01*
X193557142Y-134315714D01*
X193599999Y-134401429D01*
X193642856Y-134444286D01*
X193728570Y-134487143D01*
X193857142Y-134487143D01*
X193171427Y-134487143D02*
X193171427Y-133887143D01*
X193171427Y-133972857D02*
X193128570Y-133930000D01*
X193042856Y-133887143D01*
X192914284Y-133887143D01*
X192828570Y-133930000D01*
X192785713Y-134015714D01*
X192785713Y-134487143D01*
X192785713Y-134015714D02*
X192742856Y-133930000D01*
X192657142Y-133887143D01*
X192528570Y-133887143D01*
X192442856Y-133930000D01*
X192399999Y-134015714D01*
X192399999Y-134487143D01*
X191328570Y-133544286D02*
X192099999Y-134701429D01*
X191157142Y-133887143D02*
X190814285Y-133887143D01*
X191028570Y-133587143D02*
X191028570Y-134358571D01*
X190985713Y-134444286D01*
X190899999Y-134487143D01*
X190814285Y-134487143D01*
X190514284Y-134487143D02*
X190514284Y-133587143D01*
X190128570Y-134487143D02*
X190128570Y-134015714D01*
X190171427Y-133930000D01*
X190257141Y-133887143D01*
X190385713Y-133887143D01*
X190471427Y-133930000D01*
X190514284Y-133972857D01*
X189357141Y-134444286D02*
X189442855Y-134487143D01*
X189614284Y-134487143D01*
X189699998Y-134444286D01*
X189742855Y-134358571D01*
X189742855Y-134015714D01*
X189699998Y-133930000D01*
X189614284Y-133887143D01*
X189442855Y-133887143D01*
X189357141Y-133930000D01*
X189314284Y-134015714D01*
X189314284Y-134101429D01*
X189742855Y-134187143D01*
X188542855Y-134487143D02*
X188542855Y-134015714D01*
X188585712Y-133930000D01*
X188671426Y-133887143D01*
X188842855Y-133887143D01*
X188928569Y-133930000D01*
X188542855Y-134444286D02*
X188628569Y-134487143D01*
X188842855Y-134487143D01*
X188928569Y-134444286D01*
X188971426Y-134358571D01*
X188971426Y-134272857D01*
X188928569Y-134187143D01*
X188842855Y-134144286D01*
X188628569Y-134144286D01*
X188542855Y-134101429D01*
X188114283Y-133887143D02*
X188114283Y-134787143D01*
X188114283Y-133930000D02*
X188028569Y-133887143D01*
X187857140Y-133887143D01*
X187771426Y-133930000D01*
X187728569Y-133972857D01*
X187685712Y-134058571D01*
X187685712Y-134315714D01*
X187728569Y-134401429D01*
X187771426Y-134444286D01*
X187857140Y-134487143D01*
X188028569Y-134487143D01*
X188114283Y-134444286D01*
X187299997Y-134487143D02*
X187299997Y-133887143D01*
X187299997Y-133587143D02*
X187342854Y-133630000D01*
X187299997Y-133672857D01*
X187257140Y-133630000D01*
X187299997Y-133587143D01*
X187299997Y-133672857D01*
X186228569Y-133544286D02*
X186999998Y-134701429D01*
X185928569Y-134487143D02*
X185928569Y-133587143D01*
X185928569Y-133930000D02*
X185842855Y-133887143D01*
X185671426Y-133887143D01*
X185585712Y-133930000D01*
X185542855Y-133972857D01*
X185499998Y-134058571D01*
X185499998Y-134315714D01*
X185542855Y-134401429D01*
X185585712Y-134444286D01*
X185671426Y-134487143D01*
X185842855Y-134487143D01*
X185928569Y-134444286D01*
X184728569Y-134487143D02*
X184728569Y-134015714D01*
X184771426Y-133930000D01*
X184857140Y-133887143D01*
X185028569Y-133887143D01*
X185114283Y-133930000D01*
X184728569Y-134444286D02*
X184814283Y-134487143D01*
X185028569Y-134487143D01*
X185114283Y-134444286D01*
X185157140Y-134358571D01*
X185157140Y-134272857D01*
X185114283Y-134187143D01*
X185028569Y-134144286D01*
X184814283Y-134144286D01*
X184728569Y-134101429D01*
X184428569Y-133887143D02*
X184085712Y-133887143D01*
X184299997Y-133587143D02*
X184299997Y-134358571D01*
X184257140Y-134444286D01*
X184171426Y-134487143D01*
X184085712Y-134487143D01*
X183785711Y-134487143D02*
X183785711Y-133587143D01*
X183399997Y-134487143D02*
X183399997Y-134015714D01*
X183442854Y-133930000D01*
X183528568Y-133887143D01*
X183657140Y-133887143D01*
X183742854Y-133930000D01*
X183785711Y-133972857D01*
X182971425Y-134487143D02*
X182971425Y-133887143D01*
X182971425Y-134058571D02*
X182928568Y-133972857D01*
X182885711Y-133930000D01*
X182799997Y-133887143D01*
X182714282Y-133887143D01*
X182285711Y-134487143D02*
X182371425Y-134444286D01*
X182414282Y-134401429D01*
X182457139Y-134315714D01*
X182457139Y-134058571D01*
X182414282Y-133972857D01*
X182371425Y-133930000D01*
X182285711Y-133887143D01*
X182157139Y-133887143D01*
X182071425Y-133930000D01*
X182028568Y-133972857D01*
X181985711Y-134058571D01*
X181985711Y-134315714D01*
X182028568Y-134401429D01*
X182071425Y-134444286D01*
X182157139Y-134487143D01*
X182285711Y-134487143D01*
X181471425Y-134487143D02*
X181557139Y-134444286D01*
X181599996Y-134401429D01*
X181642853Y-134315714D01*
X181642853Y-134058571D01*
X181599996Y-133972857D01*
X181557139Y-133930000D01*
X181471425Y-133887143D01*
X181342853Y-133887143D01*
X181257139Y-133930000D01*
X181214282Y-133972857D01*
X181171425Y-134058571D01*
X181171425Y-134315714D01*
X181214282Y-134401429D01*
X181257139Y-134444286D01*
X181342853Y-134487143D01*
X181471425Y-134487143D01*
X180785710Y-134487143D02*
X180785710Y-133887143D01*
X180785710Y-133972857D02*
X180742853Y-133930000D01*
X180657139Y-133887143D01*
X180528567Y-133887143D01*
X180442853Y-133930000D01*
X180399996Y-134015714D01*
X180399996Y-134487143D01*
X180399996Y-134015714D02*
X180357139Y-133930000D01*
X180271425Y-133887143D01*
X180142853Y-133887143D01*
X180057139Y-133930000D01*
X180014282Y-134015714D01*
X180014282Y-134487143D01*
X179799996Y-134572857D02*
X179114282Y-134572857D01*
X178942853Y-134444286D02*
X178857139Y-134487143D01*
X178685711Y-134487143D01*
X178599996Y-134444286D01*
X178557139Y-134358571D01*
X178557139Y-134315714D01*
X178599996Y-134230000D01*
X178685711Y-134187143D01*
X178814282Y-134187143D01*
X178899996Y-134144286D01*
X178942853Y-134058571D01*
X178942853Y-134015714D01*
X178899996Y-133930000D01*
X178814282Y-133887143D01*
X178685711Y-133887143D01*
X178599996Y-133930000D01*
X177785711Y-134444286D02*
X177871425Y-134487143D01*
X178042854Y-134487143D01*
X178128568Y-134444286D01*
X178171425Y-134401429D01*
X178214282Y-134315714D01*
X178214282Y-134058571D01*
X178171425Y-133972857D01*
X178128568Y-133930000D01*
X178042854Y-133887143D01*
X177871425Y-133887143D01*
X177785711Y-133930000D01*
X177014282Y-134487143D02*
X177014282Y-134015714D01*
X177057139Y-133930000D01*
X177142853Y-133887143D01*
X177314282Y-133887143D01*
X177399996Y-133930000D01*
X177014282Y-134444286D02*
X177099996Y-134487143D01*
X177314282Y-134487143D01*
X177399996Y-134444286D01*
X177442853Y-134358571D01*
X177442853Y-134272857D01*
X177399996Y-134187143D01*
X177314282Y-134144286D01*
X177099996Y-134144286D01*
X177014282Y-134101429D01*
X176457139Y-134487143D02*
X176542853Y-134444286D01*
X176585710Y-134358571D01*
X176585710Y-133587143D01*
X175771424Y-134444286D02*
X175857138Y-134487143D01*
X176028567Y-134487143D01*
X176114281Y-134444286D01*
X176157138Y-134358571D01*
X176157138Y-134015714D01*
X176114281Y-133930000D01*
X176028567Y-133887143D01*
X175857138Y-133887143D01*
X175771424Y-133930000D01*
X175728567Y-134015714D01*
X175728567Y-134101429D01*
X176157138Y-134187143D01*
X175385709Y-134444286D02*
X175299995Y-134487143D01*
X175128567Y-134487143D01*
X175042852Y-134444286D01*
X174999995Y-134358571D01*
X174999995Y-134315714D01*
X175042852Y-134230000D01*
X175128567Y-134187143D01*
X175257138Y-134187143D01*
X175342852Y-134144286D01*
X175385709Y-134058571D01*
X175385709Y-134015714D01*
X175342852Y-133930000D01*
X175257138Y-133887143D01*
X175128567Y-133887143D01*
X175042852Y-133930000D01*
X199385714Y-136007143D02*
X199385714Y-135107143D01*
X198871429Y-136007143D01*
X198871429Y-135107143D01*
X198314286Y-136007143D02*
X198400000Y-135964286D01*
X198442857Y-135921429D01*
X198485714Y-135835714D01*
X198485714Y-135578571D01*
X198442857Y-135492857D01*
X198400000Y-135450000D01*
X198314286Y-135407143D01*
X198185714Y-135407143D01*
X198100000Y-135450000D01*
X198057143Y-135492857D01*
X198014286Y-135578571D01*
X198014286Y-135835714D01*
X198057143Y-135921429D01*
X198100000Y-135964286D01*
X198185714Y-136007143D01*
X198314286Y-136007143D01*
X197714286Y-135407143D02*
X197500000Y-136007143D01*
X197285714Y-135407143D01*
X196600000Y-135964286D02*
X196685714Y-136007143D01*
X196857143Y-136007143D01*
X196942857Y-135964286D01*
X196985714Y-135878571D01*
X196985714Y-135535714D01*
X196942857Y-135450000D01*
X196857143Y-135407143D01*
X196685714Y-135407143D01*
X196600000Y-135450000D01*
X196557143Y-135535714D01*
X196557143Y-135621429D01*
X196985714Y-135707143D01*
X196171428Y-136007143D02*
X196171428Y-135407143D01*
X196171428Y-135492857D02*
X196128571Y-135450000D01*
X196042857Y-135407143D01*
X195914285Y-135407143D01*
X195828571Y-135450000D01*
X195785714Y-135535714D01*
X195785714Y-136007143D01*
X195785714Y-135535714D02*
X195742857Y-135450000D01*
X195657143Y-135407143D01*
X195528571Y-135407143D01*
X195442857Y-135450000D01*
X195400000Y-135535714D01*
X195400000Y-136007143D01*
X194971428Y-136007143D02*
X194971428Y-135107143D01*
X194971428Y-135450000D02*
X194885714Y-135407143D01*
X194714285Y-135407143D01*
X194628571Y-135450000D01*
X194585714Y-135492857D01*
X194542857Y-135578571D01*
X194542857Y-135835714D01*
X194585714Y-135921429D01*
X194628571Y-135964286D01*
X194714285Y-136007143D01*
X194885714Y-136007143D01*
X194971428Y-135964286D01*
X193814285Y-135964286D02*
X193899999Y-136007143D01*
X194071428Y-136007143D01*
X194157142Y-135964286D01*
X194199999Y-135878571D01*
X194199999Y-135535714D01*
X194157142Y-135450000D01*
X194071428Y-135407143D01*
X193899999Y-135407143D01*
X193814285Y-135450000D01*
X193771428Y-135535714D01*
X193771428Y-135621429D01*
X194199999Y-135707143D01*
X193385713Y-136007143D02*
X193385713Y-135407143D01*
X193385713Y-135578571D02*
X193342856Y-135492857D01*
X193299999Y-135450000D01*
X193214285Y-135407143D01*
X193128570Y-135407143D01*
X192185713Y-135192857D02*
X192142856Y-135150000D01*
X192057142Y-135107143D01*
X191842856Y-135107143D01*
X191757142Y-135150000D01*
X191714285Y-135192857D01*
X191671428Y-135278571D01*
X191671428Y-135364286D01*
X191714285Y-135492857D01*
X192228571Y-136007143D01*
X191671428Y-136007143D01*
X191114285Y-135107143D02*
X191028570Y-135107143D01*
X190942856Y-135150000D01*
X190899999Y-135192857D01*
X190857142Y-135278571D01*
X190814285Y-135450000D01*
X190814285Y-135664286D01*
X190857142Y-135835714D01*
X190899999Y-135921429D01*
X190942856Y-135964286D01*
X191028570Y-136007143D01*
X191114285Y-136007143D01*
X191199999Y-135964286D01*
X191242856Y-135921429D01*
X191285713Y-135835714D01*
X191328570Y-135664286D01*
X191328570Y-135450000D01*
X191285713Y-135278571D01*
X191242856Y-135192857D01*
X191199999Y-135150000D01*
X191114285Y-135107143D01*
X189957142Y-136007143D02*
X190471427Y-136007143D01*
X190214285Y-136007143D02*
X190214285Y-135107143D01*
X190299999Y-135235714D01*
X190385713Y-135321429D01*
X190471427Y-135364286D01*
X189657142Y-135107143D02*
X189057142Y-135107143D01*
X189442856Y-136007143D01*
X199471429Y-136927143D02*
X199257143Y-137527143D01*
X199042857Y-136927143D01*
X198228572Y-137527143D02*
X198742857Y-137527143D01*
X198485715Y-137527143D02*
X198485715Y-136627143D01*
X198571429Y-136755714D01*
X198657143Y-136841429D01*
X198742857Y-136884286D01*
X197842857Y-137441429D02*
X197800000Y-137484286D01*
X197842857Y-137527143D01*
X197885714Y-137484286D01*
X197842857Y-137441429D01*
X197842857Y-137527143D01*
X197242858Y-136627143D02*
X197157143Y-136627143D01*
X197071429Y-136670000D01*
X197028572Y-136712857D01*
X196985715Y-136798571D01*
X196942858Y-136970000D01*
X196942858Y-137184286D01*
X196985715Y-137355714D01*
X197028572Y-137441429D01*
X197071429Y-137484286D01*
X197157143Y-137527143D01*
X197242858Y-137527143D01*
X197328572Y-137484286D01*
X197371429Y-137441429D01*
X197414286Y-137355714D01*
X197457143Y-137184286D01*
X197457143Y-136970000D01*
X197414286Y-136798571D01*
X197371429Y-136712857D01*
X197328572Y-136670000D01*
X197242858Y-136627143D01*
D12*
X172220000Y-139105000D02*
X173220000Y-139105000D01*
X173220000Y-137755000D02*
X172220000Y-137755000D01*
X172220000Y-136565000D02*
X173220000Y-136565000D01*
X173220000Y-135215000D02*
X172220000Y-135215000D01*
X172220000Y-134025000D02*
X173220000Y-134025000D01*
X173220000Y-132675000D02*
X172220000Y-132675000D01*
X172220000Y-131485000D02*
X173220000Y-131485000D01*
X173220000Y-130135000D02*
X172220000Y-130135000D01*
X172220000Y-128945000D02*
X173220000Y-128945000D01*
X173220000Y-127595000D02*
X172220000Y-127595000D01*
X172220000Y-126405000D02*
X173220000Y-126405000D01*
X173220000Y-125055000D02*
X172220000Y-125055000D01*
X172220000Y-123865000D02*
X173220000Y-123865000D01*
X173220000Y-122515000D02*
X172220000Y-122515000D01*
X172220000Y-121325000D02*
X173220000Y-121325000D01*
X173220000Y-119975000D02*
X172220000Y-119975000D01*
X185680000Y-130680000D02*
X185540000Y-130410000D01*
X185540000Y-130410000D02*
X185420000Y-130220000D01*
X185420000Y-130220000D02*
X185250000Y-130030000D01*
X185250000Y-130030000D02*
X185070000Y-129860000D01*
X185070000Y-129860000D02*
X185390000Y-129900000D01*
X185390000Y-129900000D02*
X185510000Y-130030000D01*
X185510000Y-130030000D02*
X185710000Y-130270000D01*
X186600000Y-126140000D02*
X186150000Y-127200000D01*
X186150000Y-127200000D02*
X185870000Y-127650000D01*
X185870000Y-127650000D02*
X185710000Y-128100000D01*
X185710000Y-128100000D02*
X185710000Y-128540000D01*
X185710000Y-128540000D02*
X185710000Y-129050000D01*
X185710000Y-129050000D02*
X185870000Y-129610000D01*
X185870000Y-129610000D02*
X185870000Y-130000000D01*
X185870000Y-130000000D02*
X185650000Y-130950000D01*
X185650000Y-130950000D02*
X185540000Y-131390000D01*
X185540000Y-131390000D02*
X185590000Y-131390000D01*
X186590000Y-123610000D02*
X186740000Y-123730000D01*
X186740000Y-123730000D02*
X186830000Y-123920000D01*
X186830000Y-123920000D02*
X186730000Y-124020000D01*
X186730000Y-124020000D02*
X186570000Y-124080000D01*
X186570000Y-124080000D02*
X186390000Y-124040000D01*
X186390000Y-124040000D02*
X186270000Y-123870000D01*
X186270000Y-123870000D02*
X186300000Y-123750000D01*
X186300000Y-123750000D02*
X186390000Y-123640000D01*
X186390000Y-123640000D02*
X186570000Y-123600000D01*
X187810000Y-123730000D02*
X187930000Y-123950000D01*
X187930000Y-123950000D02*
X187950000Y-124100000D01*
X187950000Y-124100000D02*
X187850000Y-124190000D01*
X187850000Y-124190000D02*
X187700000Y-124270000D01*
X187700000Y-124270000D02*
X187550000Y-124170000D01*
X187550000Y-124170000D02*
X187430000Y-124020000D01*
X187430000Y-124020000D02*
X187410000Y-123920000D01*
X187410000Y-123920000D02*
X187520000Y-123840000D01*
X187520000Y-123840000D02*
X187780000Y-123780000D01*
X187660000Y-124770000D02*
X187320000Y-125040000D01*
X187320000Y-125040000D02*
X187170000Y-125110000D01*
X187170000Y-125110000D02*
X186980000Y-125110000D01*
X186980000Y-125110000D02*
X186830000Y-125110000D01*
X186830000Y-125110000D02*
X186670000Y-125110000D01*
X186670000Y-125110000D02*
X186520000Y-125040000D01*
X186520000Y-125040000D02*
X186290000Y-124850000D01*
X186290000Y-124850000D02*
X186180000Y-124650000D01*
X186180000Y-124650000D02*
X186060000Y-124430000D01*
X186060000Y-124430000D02*
X186140000Y-124500000D01*
X185530000Y-124690000D02*
X185110000Y-125190000D01*
X185110000Y-125190000D02*
X184880000Y-125720000D01*
X184880000Y-125720000D02*
X184880000Y-126180000D01*
X184880000Y-126180000D02*
X185070000Y-126450000D01*
X185070000Y-126450000D02*
X185420000Y-126710000D01*
X185420000Y-126710000D02*
X185760000Y-126710000D01*
X185760000Y-126710000D02*
X186060000Y-126560000D01*
X186060000Y-126560000D02*
X186250000Y-126370000D01*
X186250000Y-126370000D02*
X186480000Y-125990000D01*
X186480000Y-125990000D02*
X186640000Y-125760000D01*
X185870000Y-123470000D02*
X185230000Y-123280000D01*
X185230000Y-123280000D02*
X184730000Y-123250000D01*
X184730000Y-123250000D02*
X184200000Y-123590000D01*
X184200000Y-123590000D02*
X184120000Y-124010000D01*
X184120000Y-124010000D02*
X184120000Y-124310000D01*
X184120000Y-124310000D02*
X184270000Y-124620000D01*
X184270000Y-124620000D02*
X184620000Y-124730000D01*
X184620000Y-124730000D02*
X184920000Y-124810000D01*
X184920000Y-124810000D02*
X185260000Y-124770000D01*
X185260000Y-124770000D02*
X185490000Y-124690000D01*
X185490000Y-124690000D02*
X185650000Y-124620000D01*
X188200000Y-125190000D02*
X188350000Y-125760000D01*
X188350000Y-125760000D02*
X188390000Y-126330000D01*
X188390000Y-126330000D02*
X188120000Y-126860000D01*
X188120000Y-126860000D02*
X187630000Y-127170000D01*
X187630000Y-127170000D02*
X187050000Y-127060000D01*
X187050000Y-127060000D02*
X186830000Y-126710000D01*
X186830000Y-126710000D02*
X186710000Y-126370000D01*
X186710000Y-126370000D02*
X186640000Y-126030000D01*
X186640000Y-126030000D02*
X186640000Y-125760000D01*
X188350000Y-123740000D02*
X188880000Y-123970000D01*
X188880000Y-123970000D02*
X189300000Y-124240000D01*
X189300000Y-124240000D02*
X189460000Y-124540000D01*
X189460000Y-124540000D02*
X189530000Y-124810000D01*
X189530000Y-124810000D02*
X189530000Y-125070000D01*
X189530000Y-125070000D02*
X189460000Y-125300000D01*
X189460000Y-125300000D02*
X189110000Y-125610000D01*
X189110000Y-125610000D02*
X188730000Y-125610000D01*
X188730000Y-125610000D02*
X188540000Y-125490000D01*
X188540000Y-125490000D02*
X188270000Y-125190000D01*
X188270000Y-125190000D02*
X188200000Y-125190000D01*
X186980000Y-122940000D02*
X187320000Y-122330000D01*
X187320000Y-122330000D02*
X187660000Y-122140000D01*
X187660000Y-122140000D02*
X188240000Y-122060000D01*
X188240000Y-122060000D02*
X188660000Y-122220000D01*
X188660000Y-122220000D02*
X188960000Y-122520000D01*
X188960000Y-122520000D02*
X189070000Y-123130000D01*
X189070000Y-123130000D02*
X188880000Y-123550000D01*
X188880000Y-123550000D02*
X188620000Y-123700000D01*
X188620000Y-123700000D02*
X188390000Y-123740000D01*
X188390000Y-123740000D02*
X188310000Y-123740000D01*
X188310000Y-123740000D02*
X188310000Y-123780000D01*
X186980000Y-122900000D02*
X186830000Y-122520000D01*
X186830000Y-122520000D02*
X186600000Y-122330000D01*
X186600000Y-122330000D02*
X186250000Y-122030000D01*
X186250000Y-122030000D02*
X185870000Y-121990000D01*
X185870000Y-121990000D02*
X185490000Y-122140000D01*
X185490000Y-122140000D02*
X185340000Y-122440000D01*
X185340000Y-122440000D02*
X185300000Y-122790000D01*
X185300000Y-122790000D02*
X185340000Y-122980000D01*
X185340000Y-122980000D02*
X185490000Y-123130000D01*
X185490000Y-123130000D02*
X185680000Y-123210000D01*
X185680000Y-123210000D02*
X185910000Y-123320000D01*
X188384214Y-124340000D02*
G75*
G03X188384214Y-124340000I-1414214J0D01*
G01*
M02*
